<svg xmlns="http://www.w3.org/2000/svg" x="0px" y="0px"
	 width="144px" height="144px" viewBox="0 0 144 144" enable-background="new 0 0 144 144" ><defs><style>.cls-1{fill:#231f20;}</style></defs><g id="Layer_2" data-name="Layer 2"><g id="Layer_1-2" data-name="Layer 1"><path class="cls-1" d="M60,29.71c-.19-3.43,0-6.88,0-10.32,0-4.71,0-9.43,0-14.14,0-1.46-.48-2-2.44-1.64a37.19,37.19,0,0,1-6,.6A46.25,46.25,0,0,1,31.93.43a4.78,4.78,0,0,0-4.08.06A46.39,46.39,0,0,1,2.78,3.71C.08,3.3,0,3.35,0,5.63c0,8.75,0,17.5,0,26.26A18.14,18.14,0,0,0,4.26,43.1c5.91,7.58,14.52,12.54,24.11,16.57A4.28,4.28,0,0,0,32,59.5c7.13-3,13.71-6.65,19.18-11.51C57,42.82,60.36,36.9,60,29.71ZM50,47.13C45.2,51.41,39.24,55,31.27,58.37a3.8,3.8,0,0,1-1.37.36,2,2,0,0,1-.82-.19c-11.25-4.73-18.5-9.71-23.5-16.12a17.2,17.2,0,0,1-4-10.54c0-9,0-18.3,0-26.25,0-.24,0-.54,0-.8l.9.13a46.73,46.73,0,0,0,7.15.55A49.39,49.39,0,0,0,28.55,1.62,4,4,0,0,1,30,1.27a3.14,3.14,0,0,1,1.23.3,48.84,48.84,0,0,0,19,3.94l1.39,0a38.41,38.41,0,0,0,6.3-.64l.49-.08c0,.11,0,.26,0,.47,0,3.41,0,6.87,0,10.21v3.94c0,1.06,0,2.13,0,3.2,0,2.35-.06,4.78.07,7.18C58.75,36.11,56,41.79,50,47.13Z"/><path class="cls-1" d="M56.85,29.83c-.14-2.43-.1-4.88-.07-7.26q0-1.59,0-3.18V15.46c0-3,0-6.06,0-9.13a43.17,43.17,0,0,1-5.19.43c-.48,0-1,0-1.44,0A50.52,50.52,0,0,1,30.5,2.7,1.37,1.37,0,0,0,30,2.55a2,2,0,0,0-.55.15h-.05v0l-.12,0a51.28,51.28,0,0,1-19.62,4,49.16,49.16,0,0,1-6.5-.43c0,7.8,0,16.78,0,25.53A16.07,16.07,0,0,0,6.9,41.73C11.75,48,18.81,52.78,29.8,57.41l.11,0a3.09,3.09,0,0,0,.64-.21c7.8-3.32,13.62-6.8,18.31-11C54.56,41.19,57.17,35.82,56.85,29.83ZM50.19,8.06l1.5,0c1.27,0,2.45-.11,3.56-.23,0,2.59,0,5.16,0,7.65,0,1.31,0,2.62,0,3.93,0,1,0,2,0,3.06v.11c0,2.09,0,4.23,0,6.38H30.5V4.12A52.17,52.17,0,0,0,50.19,8.06ZM4.7,7.82C6.35,8,8,8.06,9.64,8.06A52.83,52.83,0,0,0,29.38,4.13V28.94H4.71C4.68,21.6,4.69,14.31,4.7,7.82ZM8.22,41.05a14.94,14.94,0,0,1-3.5-9.18c0-.67,0-1.35,0-2H29.38V55.79C19.3,51.42,12.74,46.85,8.22,41.05Zm39.49,4.36c-4.43,3.93-9.91,7.25-17.21,10.41v-26H55.28v0C55.59,35.52,53.11,40.6,47.71,45.41Z"/><path class="cls-1" d="M24.12,16.53h0s-1.34-8.08-3-6.54a5.72,5.72,0,0,1-3.72,1.44h-.68A5.68,5.68,0,0,1,13,10c-1.5-1.38-2.73,5-3,6.3a6.85,6.85,0,0,0-.37,2.22,6.94,6.94,0,0,0,2.17,5h0a7.2,7.2,0,0,0,1.15.89l1.44,1.13,2.61,2,2.62-2,1.44-1.13a6.88,6.88,0,0,0,3-7.9Zm-7.57-1.3h1s.06,0,0,0l-.25.32-.24.32a.06.06,0,0,1-.09,0l-.24-.32-.25-.32S16.52,15.23,16.55,15.23Zm1.66,8a4.59,4.59,0,0,0-2.18,0c-2.3.57-3.33-1.12-3.33-2.9A4.09,4.09,0,0,1,17,16.54a4.1,4.1,0,0,1,4.35,3.78C21.39,22,20.14,23.94,18.21,23.22Z"/><path class="cls-1" d="M9.25,8.14a1,1,0,0,0,.18-.08H9.06l0,.17Z"/><path class="cls-1" d="M21,7l-.18-.15L20.13,7H21Z"/><path class="cls-1" d="M12.23,26.81a1.62,1.62,0,0,1-.19-.17s-.07-.1,0-.14c.1-.21.22-.43.34-.63a.16.16,0,0,1,.13-.06.77.77,0,0,0,.5-.14.28.28,0,0,1,.15-.06c.22,0,.44,0,.66,0h.41l2.65.16,3.35.21,1.51.09.83.07.69,0a15.89,15.89,0,0,0,2.29.08,10.06,10.06,0,0,1,1.82,0l.24,0a2.48,2.48,0,0,1-.64.49.2.2,0,0,1-.22,0,1.1,1.1,0,0,0-.78-.15,1.3,1.3,0,0,0-1,.71,4.54,4.54,0,0,0-.23.68c0,.1,0,.15.12.15.34,0,.68,0,1,0a1.52,1.52,0,0,0,.89-.34.55.55,0,0,0,.13-.77.83.83,0,0,0-.08-.12l.64-.39a.49.49,0,0,1,.14,0,2.71,2.71,0,0,0,.4,0,3.91,3.91,0,0,1,1.32-.06h.07v-.54c-.06,0-.16-.08-.2-.06a.53.53,0,0,1-.39,0,2.37,2.37,0,0,1-.93-.45,6.87,6.87,0,0,1-.57-.48,2.8,2.8,0,0,1-.43-.49.93.93,0,0,0-.26-.3s-.05-.09-.07-.14-.09-.22-.13-.32-.08-.14-.07-.2a1.87,1.87,0,0,1,.07-.4.33.33,0,0,1,.13-.13c.23-.12.48-.2.69-.33A1.55,1.55,0,0,0,28,21.39a.3.3,0,0,1,.21-.26,1.14,1.14,0,0,0,.16-.08.89.89,0,0,0-.22,0,6.39,6.39,0,0,1-.75.09,1.48,1.48,0,0,0-1.21.82,5.27,5.27,0,0,0-.07.79c0,.24,0,.49,0,.73a.54.54,0,0,1,0,.1l-.05,0L26,23.49a2.65,2.65,0,0,0-.67-.71.85.85,0,0,1-.18-.27c-.13-.23-.22-.5-.53-.62a3,3,0,0,0-.87-.26c-.52,0-1.05,0-1.57,0l0,.12a3.86,3.86,0,0,1,1.35.51,2,2,0,0,0,1.13.36.79.79,0,0,1,.65.25.27.27,0,0,1,.08.07,2.2,2.2,0,0,1,.48.74c-.22-.08-.42-.11-.5-.29a.77.77,0,0,0-.27-.23,1.48,1.48,0,0,0-1.44,0,6.92,6.92,0,0,1-1.2.46l0,.18c.32.11.65.21,1,.33a2,2,0,0,0,1.61,0,.61.61,0,0,0,.27-.23c.13-.19.12-.2.39-.14A.4.4,0,0,1,26,24a.33.33,0,0,0,.16.15c.18.09.25.2.19.37s0,.15.13.15a.44.44,0,0,1,.31.15c.31.3.64.59,1,.88l.16.14c-.41,0-.77,0-1.13,0s-.82,0-1.23,0c-.17,0-.34,0-.51,0-.86,0-1.72-.11-2.58-.15h-.08l-2.74-.17-.31,0h0l-1.55-.1c-.27,0-.54,0-.78-.05l-3-.19h-.09l-.33,0h0a8.32,8.32,0,0,1-1.49-.19,1.08,1.08,0,0,0-.86.2l.19.09a5.63,5.63,0,0,1-.59-.05c-.18,0-.35-.05-.52-.09a6.46,6.46,0,0,1-1.24-.51L9,24.49l-.3-.33a.09.09,0,0,1,0-.07c.09-.14.17-.29.27-.43a.15.15,0,0,1,.23,0,2,2,0,0,0,1.87.34,3.71,3.71,0,0,1,.48,0l.23,0v0a.8.8,0,0,0-.16-.08,4.62,4.62,0,0,0-1.86-.39c-.68,0-1,.16-1.18.7,0,0,0,.1-.07.19a9.29,9.29,0,0,0-1-.58,1.47,1.47,0,0,1-.75-.83.19.19,0,0,1,.1-.29L7,22.51a1,1,0,0,0,.51-1.18,1.9,1.9,0,0,0-.65-1,1.53,1.53,0,0,1-.19-.3.77.77,0,0,0-.11-.17,1,1,0,0,1,0,.19,7.8,7.8,0,0,1-.31.93,1.53,1.53,0,0,0-.14.69.69.69,0,0,0,.22.49,1.1,1.1,0,0,1,.33.58,3.59,3.59,0,0,0,.15.37,2,2,0,0,1,.1.21s0,.1-.08.1a.36.36,0,0,1-.35-.12A1.26,1.26,0,0,0,5,22.85l-.32.08V24a2.18,2.18,0,0,0,.77.06,1.11,1.11,0,0,0,1-.49c.06-.11.18-.07.28,0a2.52,2.52,0,0,1,.4.21,5.82,5.82,0,0,1,1,.7.76.76,0,0,0,.26.16l1.09.47.69.26.15,0c-.31,0-.58,0-.85,0s-.22,0-.21.14l-1.39.4-.53.15a3.31,3.31,0,0,0-.65.22,1.3,1.3,0,0,1-.89.12.65.65,0,0,0-.43.07.54.54,0,0,1-.3,0c-.07,0-.16-.12-.15-.18a.92.92,0,0,0-.28-.76v1h.1a.67.67,0,0,1,.56.24l0,0-.62.39v.51l.53-.35a.59.59,0,0,1,.16-.06c0,.12.06.22.08.32a1.08,1.08,0,0,1,0,.31A.8.8,0,0,0,6,28.7a4.72,4.72,0,0,1,.56.24h.35l0,0a.38.38,0,0,1-.19-.36A2.07,2.07,0,0,0,6.55,28a.94.94,0,0,0-.76-.51c-.08,0-.18,0-.2-.1s0-.19.1-.25c.34-.16.66-.33,1-.46s1-.31,1.48-.46l.24-.05L9.35,26,12,25.57a2.32,2.32,0,0,1,.31,0,3.23,3.23,0,0,1-.19.3,1.72,1.72,0,0,0-.36,1.31.3.3,0,0,1-.07.23.8.8,0,0,0-.12.87,4.28,4.28,0,0,1,.2.44,2.6,2.6,0,0,1,.1.25h.48c.09-.34.19-.69.27-1A1,1,0,0,0,12.23,26.81Z"/><path class="cls-1" d="M17.64,7.81l-.08.12c.06,0,.1.11.17.13a3,3,0,0,0,1.46.06.77.77,0,0,0,.61-.48c.05-.16.07-.34.11-.54a2.66,2.66,0,0,1,1,0c-.14.17-.45.16-.48.39l.25,0c.37,0,.7-.17,1.08-.16a8.89,8.89,0,0,0,1-.13l.17,0a2.85,2.85,0,0,1-.12.31,1.57,1.57,0,0,1-.19.26.69.69,0,0,0,0,.92,3.85,3.85,0,0,1,.52.7s.07.07.11.11h.05a.71.71,0,0,0,0-.26.35.35,0,0,1,0-.39,2.24,2.24,0,0,0,.26-.57.72.72,0,0,0-.36-.76c-.06,0-.16-.06-.12-.16a.26.26,0,0,1,.24-.18c.39,0,.78,0,1.16,0,.53,0,1.05.12,1.58.19l.24,0,.88.26,2.26.6V7.84l-.46-.27-.4-.28a4.29,4.29,0,0,1-.77-.94s0,0,0-.06l-.06-.42a.07.07,0,0,1,0,0,4.76,4.76,0,0,1,.49-.28.14.14,0,0,1,.2.09,1.53,1.53,0,0,0,1,.92V5.81l-.34-.18a1.16,1.16,0,0,0-1.45.15l-.19.14a7.71,7.71,0,0,0-.47-.86l-.25.08a2.84,2.84,0,0,1,.36.77.47.47,0,0,0,.13.24c.22.29.44.57.67.84s.3.33.45.5l.11.1c-.27-.13-.52-.22-.74-.34s-.18-.11-.27,0l-1.46-.19L25.39,7a3.3,3.3,0,0,0-.69-.07,1.22,1.22,0,0,1-.85-.24.66.66,0,0,0-.42-.11.37.37,0,0,1-.24-.15.19.19,0,0,1,0-.21h0l-.38.1.08,0c.18.06.37.27.35.43l-.06,0c-.4.05-.81.11-1.22.15a.85.85,0,0,1-.35,0c-.15,0-.29-.12-.43-.18l-.37.09L21,7h-.83c-.71.14-1.41.28-2.11.4l-.23.28A1.22,1.22,0,0,1,17.64,7.81Z"/><path class="cls-1" d="M28.55,9.7a.35.35,0,0,1-.19.17,1,1,0,0,0-.63.71c0,.16,0,.31-.08.47a1.28,1.28,0,0,1-.55.95s0,0-.05.06.12.12.2.07a4.87,4.87,0,0,0,.43-.33c.4-.36.79-.73,1.17-1.1a1,1,0,0,0,.31-1.12.94.94,0,0,1-.07-.22s0-.12,0-.14a2.26,2.26,0,0,1,.26-.16V8.84A2.1,2.1,0,0,0,28.55,9.7Z"/><path class="cls-1" d="M29.39,7.81V7.69h-.08Z"/><path class="cls-1" d="M5.32,10.58l.1-.05.64-.23a.63.63,0,0,1,.72.15c.17-.1,0-.22,0-.34a.93.93,0,0,1,.24.05,1.59,1.59,0,0,1,.63.44c.16.18.15.29,0,.46a.88.88,0,0,0-.25,1,5.66,5.66,0,0,0,.34.59,1.58,1.58,0,0,1,.33.78s.05,0,.09.11A2.12,2.12,0,0,0,8.59,12a2.68,2.68,0,0,0-2-2.05l.67-.37a.78.78,0,0,1,.56-.13c.07,0,.2,0,.22,0a.45.45,0,0,1,.33-.17,2.67,2.67,0,0,1,1.09,0c.27,0,.54.07.8.13a4.64,4.64,0,0,1,.69.21,1.47,1.47,0,0,0,.42.13c.06,0,.11.05.16.08l.33.21A.7.7,0,0,1,12,10a2.32,2.32,0,0,1,.22.36.23.23,0,0,1,0,.18,4.3,4.3,0,0,0-.34.59A1.33,1.33,0,0,0,12,12.51a.23.23,0,0,1,0,.3s0,.08-.08.15a1.16,1.16,0,0,0,.19-.09,3.9,3.9,0,0,1,.56-.42,1.1,1.1,0,0,0,.43-1.24,7.63,7.63,0,0,0-.48-.68c-.16-.21-.34-.4-.51-.6,0,0,0-.06-.05-.09h.05s.07,0,.09,0a3.72,3.72,0,0,0,1,.28,1.09,1.09,0,0,1,.34.13,1.5,1.5,0,0,0,.86.28,3.12,3.12,0,0,0,.9-.19,14.6,14.6,0,0,0,1.27-.75l-.1-.09a4.19,4.19,0,0,1-1.46.19,2.23,2.23,0,0,0-1.18.22.84.84,0,0,1-.72.1l-.11,0a2.89,2.89,0,0,1-.9-.4c.23,0,.41-.1.61,0a.78.78,0,0,0,.38.07A1.25,1.25,0,0,0,14.37,9a4.77,4.77,0,0,1,.69-.93L14.91,8c-.34.06-.68.12-1,.16a1.74,1.74,0,0,0-1.33.75.44.44,0,0,0-.06.32c0,.22,0,.22-.23.29a.42.42,0,0,1-.33,0,.45.45,0,0,0-.23,0,.37.37,0,0,1-.42-.22c0-.08-.11-.11-.21-.06a.5.5,0,0,1-.36,0l-1.4-.29-.22,0c.32-.2.6-.38.91-.55l.42-.22h-1a1,1,0,0,1-.18.08L9,8.23l0-.17H8.88l0,0a1.44,1.44,0,0,0-.31.22A3.41,3.41,0,0,1,7.5,9s-.08,0-.1,0c-.19-.11-.27,0-.38.11a3.28,3.28,0,0,1-.38.27q-.52.27-1.08.51c-.28.13-.56.25-.85.36v.54C4.93,10.75,5.18,10.8,5.32,10.58Z"/><path d="M45.47,18.58c.37.52.67,1,1,1.46,1.12,1.42,2.13,2.87,2.16,4.65A3.5,3.5,0,0,1,46,24.44a4,4,0,0,0-3.85.53,2.44,2.44,0,0,1-2.37.61c-2.83-.48-4.49-2.77-3.48-5a47.41,47.41,0,0,0,2.42-6.69,4.62,4.62,0,0,1,4.1-3.43l-.33-.73c.77-.14,1.48-.32,2.21-.39.16,0,.37.36.56.56a16.75,16.75,0,0,1,2.23,0c.92.12,1.36.76.86,1.4-.77,1-.3,2-.38,3,0,.46-.26,1,.47,1.36,0,0,0,.13,0,.2-.09.48-.16,1-.28,1.43C47.89,18.38,47.59,18.53,45.47,18.58Zm.81,1.72-.14.2c-.46,0-.93,0-1.39-.08a11.33,11.33,0,0,0-1.29-.15c-.68,0-1.35.13-2,.17A1.79,1.79,0,0,1,39.37,19a5.61,5.61,0,0,1,0-.58,1.64,1.64,0,0,0,1,2.19l-.22,2.34c.76-.81,1.35-1.48,2-2.11a.91.91,0,0,1,.72-.12,25.3,25.3,0,0,1,3.53,3,1.72,1.72,0,0,0,2,.71A7,7,0,0,0,46.28,20.3Zm-4.45-5.64,2.87-5-1.85.21.53.59C42,12.18,41.52,13.62,41.83,14.66Zm2.38-1c1.88-.39,3.32-1.57,3.35-2.69C47.09,12.36,45.49,12.78,44.21,13.69Z"/><path class="cls-1" d="M49.58,14.39a.17.17,0,0,0-.1.13.91.91,0,0,0,.41.72,1.82,1.82,0,0,0,.46.06.55.55,0,0,0,.32-.19c.1-.13-.05-.49-.21-.6A1.09,1.09,0,0,0,49.58,14.39Z"/><path class="cls-1" d="M50.94,15.31c.06-.19.14-.37.18-.55s-.21-.34-.42-.51A1.44,1.44,0,0,0,50.94,15.31Z"/><path class="cls-1" d="M51.41,13.4a.86.86,0,0,0-.67.23l1.51.42C52,13.76,51.82,13.48,51.41,13.4Z"/><path class="cls-1" d="M52.49,13.39a.55.55,0,0,0,.08.87c0-.44.38-.69.68-1A.68.68,0,0,0,52.49,13.39Z"/><path class="cls-1" d="M51.86,14.12c-.27,0-.38.18-.47.41l1-.06A.55.55,0,0,0,51.86,14.12Z"/><path class="cls-1" d="M48.58,26.8a.7.7,0,0,0,.22.28l1,.73a.6.6,0,0,0,.22.09c.38,0,.76,0,1.14,0a.82.82,0,0,0,.28-.06,1.22,1.22,0,0,0-.94-.67,1,1,0,0,1-.69-.52c-.27-.49-.74-.92-.36-1.56h0a.8.8,0,0,0-.59.53,3.48,3.48,0,0,1-.23.64.75.75,0,0,0-.07.23.88.88,0,0,1,.23.07Z"/><path class="cls-1" d="M47.78,23.54c.35.36.67.72,1,1.06a2.88,2.88,0,0,0,.44.31l.12-.07-.17-.66.16.11.14.13c.25-.25.26-.42,0-.63A1.73,1.73,0,0,0,47.78,23.54Z"/><path class="cls-1" d="M47.7,27.15l.09-.08.1-.07-.11.42.08,0a2.83,2.83,0,0,0,.28-.2l.44-.46a.42.42,0,0,1,0-.27,1.07,1.07,0,0,0-.87.22C47.53,26.89,47.54,27,47.7,27.15Z"/><path class="cls-1" d="M50,25.35a.75.75,0,0,0,.09,1.13c0-.63.68-.83,1.15-1.16A1.17,1.17,0,0,0,50,25.35Z"/><path class="cls-1" d="M49.43,25.13a.4.4,0,0,0,0,.15s0,.11,0,.16,0,.27.05.4h.12a2.92,2.92,0,0,1,.1-.4c.14-.42.3-.51.84-.54a.43.43,0,0,0,.28-.17,1,1,0,0,1,1-.4c.34,0,.69.09,1,.13a1,1,0,0,0-1.49-.36L51,24a.92.92,0,0,0-1,.24c-.23.3-.56.56-.53.94Z"/><path class="cls-1" d="M53.26,14.57a.89.89,0,0,0-.54,1.3.56.56,0,0,0,.55.25c-.45-.75.1-1.08.79-1.34A.68.68,0,0,0,53.26,14.57Z"/><path class="cls-1" d="M54.5,16.5a5.3,5.3,0,0,0,.68-.66.14.14,0,0,0,0-.16.33.33,0,0,0-.2,0l-1.79.52A.92.92,0,0,0,54.5,16.5Z"/><path class="cls-1" d="M54.79,20.12l.07-.06.07-.06-.08.32.06,0a1.59,1.59,0,0,0,.21-.15l.12-.12c0-.15,0-.29,0-.44a.74.74,0,0,0-.48.18C54.67,19.92,54.67,20,54.79,20.12Z"/><path class="cls-1" d="M55.21,23a.6.6,0,0,0-.09.13.83.83,0,0,0,.08.76C55.21,23.6,55.21,23.3,55.21,23Z"/><path class="cls-1" d="M54.41,15.29a.66.66,0,0,0-.63-.06.54.54,0,0,0-.32.5c0,.12.09.17.24.14s.49-.1.74-.13.27-.12.15-.27A1.51,1.51,0,0,0,54.41,15.29Z"/><path class="cls-1" d="M51.69,15.46c-.14.15-.23.3,0,.45.08.05.08.18.13.26.19.34.4.41.85.31a.78.78,0,0,0,.15.73.51.51,0,0,0,.63.19l.39-.07c.54-.06.79-.27.85-.75l-.41.16a.81.81,0,0,1-.8,0c-.3-.22-.59-.44-.86-.68a.7.7,0,0,1-.18-.76c0-.1.07-.21.13-.38a2.68,2.68,0,0,0-.46.19A3.31,3.31,0,0,0,51.69,15.46Z"/><path class="cls-1" d="M55.09,24.32a1.93,1.93,0,0,0-.44-1.38c-.14.3-.38.53-.15.8S54.89,24.12,55.09,24.32Z"/><path class="cls-1" d="M54.61,22.29l.61-.06v-.14a.58.58,0,0,0-.7-.25l.22.11-.65-.07C54.08,22.2,54.27,22.34,54.61,22.29Z"/><path class="cls-1" d="M51.34,15.47a.58.58,0,0,0,.29-.06l-.57-.12C51.07,15.43,51.22,15.45,51.34,15.47Z"/><path class="cls-1" d="M52.42,23.8a.79.79,0,0,0-.51-1.08.88.88,0,0,0-1,.21C51.48,23.14,52.13,23.26,52.42,23.8Z"/><path class="cls-1" d="M46.25,27.19c-.5,0-1,.43-1,.83a.38.38,0,0,0,.31.34c0-.69.53-.78,1.17-.78C46.74,27.35,46.56,27.21,46.25,27.19Z"/><path class="cls-1" d="M43.56,26a.25.25,0,0,0-.14.08.66.66,0,0,0,0,.65,1,1,0,0,0,.32.18.52.52,0,0,0,.32-.05c.13-.07.17-.39.1-.52A.8.8,0,0,0,43.56,26Z"/><path class="cls-1" d="M44.19,27.09c.12-.13.26-.24.37-.37s0-.31-.1-.5A1.19,1.19,0,0,0,44.19,27.09Z"/><path class="cls-1" d="M44.69,28.84a1.73,1.73,0,0,0,.15-.27.55.55,0,0,0-.54,0A.5.5,0,0,0,44,29h.33l.25,0A.23.23,0,0,0,44.69,28.84Z"/><path class="cls-1" d="M42.92,26.58a.73.73,0,0,0-.61-.22c.51.34.35.76.36,1.17a.61.61,0,0,1-.27.53.74.74,0,0,0-.39.7.91.91,0,0,0,.23,0l.76-.32a.31.31,0,0,0,.11-.12l.39-.76a.42.42,0,0,0-.17-.57A5,5,0,0,1,42.92,26.58Z"/><path class="cls-1" d="M44.42,27.32a.49.49,0,0,0,.24,0l-.37-.25C44.23,27.22,44.33,27.27,44.42,27.32Z"/><path class="cls-1" d="M40.44,26.54a.89.89,0,0,0-.54,1.3.6.6,0,0,0,.55.25c-.45-.75.1-1.08.79-1.35A.69.69,0,0,0,40.44,26.54Z"/><path class="cls-1" d="M41.68,28.47a6.07,6.07,0,0,0,.68-.66.14.14,0,0,0,0-.16.27.27,0,0,0-.2,0l-1.78.51A.91.91,0,0,0,41.68,28.47Z"/><path class="cls-1" d="M41,27.2a.53.53,0,0,0-.32.49c0,.12.09.18.24.14l.74-.13c.21,0,.27-.12.15-.27a1.31,1.31,0,0,0-.18-.17A.66.66,0,0,0,41,27.2Z"/><path class="cls-1" d="M42.4,27.45a.59.59,0,0,0-.38-.79.81.81,0,0,0-.85.3C41.62,27.06,42.14,27,42.4,27.45Z"/><path class="cls-1" d="M47.34,28.44a.47.47,0,0,0,.06-.71.75.75,0,0,0-.78,0C46.92,27.92,47.33,28.05,47.34,28.44Z"/><path class="cls-1" d="M53.33,25.81c.11-.65-.73-1.37-1.53-1.32-.49,0-.79.25-.83.61,1,0,1.9.15,1.87,1.25A.61.61,0,0,0,53.33,25.81Z"/><path class="cls-1" d="M50.81,26.17c0,.23.08.31.37.25s.64-.12,1-.17.28-.14.2-.28a.89.89,0,0,0-.73-.45.8.8,0,0,0-.72.36A1.7,1.7,0,0,0,50.81,26.17Z"/><path class="cls-1" d="M47.16,28.7s.09-.09.08-.12-.09-.06-.14-.07l-1.57-.12A.61.61,0,0,0,46,29h.46A6.24,6.24,0,0,0,47.16,28.7Z"/><path class="cls-1" d="M50.35,26.89a9.35,9.35,0,0,0,1.28.48,1,1,0,0,0,1.31-1l-2.49.19c-.09,0-.2.06-.22.11S50.28,26.86,50.35,26.89Z"/><path class="cls-1" d="M44.51,27.76c0,.06,0,.16,0,.24,0,.3.12.42.51.47a.67.67,0,0,0-.2.5h.82a.29.29,0,0,1-.1-.12,5.17,5.17,0,0,1-.36-.75.58.58,0,0,1,.19-.62,3.33,3.33,0,0,1,.26-.25,1.86,1.86,0,0,0-.42,0,3.81,3.81,0,0,0-.51.17C44.52,27.49,44.39,27.57,44.51,27.76Z"/><path class="cls-1" d="M44.76,25.77l1,.74c-.07-.29-.09-.55-.36-.73A.73.73,0,0,0,44.76,25.77Z"/><path class="cls-1" d="M45.39,26.46a.51.51,0,0,0-.53.17l.78.24A.36.36,0,0,0,45.39,26.46Z"/><path class="cls-1" d="M54.55,21.77a.15.15,0,0,0,.1,0l.47-.35a.31.31,0,0,0,.11-.15v-.15a.25.25,0,0,0,0-.07,1.54,1.54,0,0,1-.11-.3c0-.11-.1-.19-.28-.25.18.3,0,.51-.17.74a.49.49,0,0,1-.33.24.61.61,0,0,0-.45.32.58.58,0,0,0,.14,0Z"/><path class="cls-1" d="M46.36,27.84a.53.53,0,0,0-.45.28c0,.09,0,.16.12.18s.41.06.61.11.26,0,.23-.16a1.24,1.24,0,0,0,0-.19A.52.52,0,0,0,46.36,27.84Z"/><path class="cls-1" d="M55.24,14.49h0v.12h0Z"/><path class="cls-1" d="M55.24,13.09v-.16a1,1,0,0,0-.71.58c-.06.2,0,.32.28.42l0-.12.06-.12.15.49.11,0,.06-.11v-1Z"/><path class="cls-1" d="M55.24,15.1v-.21h0v.21Z"/><path class="cls-1" d="M55.24,14.09h0v.31h0Z"/><path class="cls-1" d="M41.71,25.47c-.06.2,0,.32.28.42l0-.12.06-.12.15.5h.11a2,2,0,0,0,.18-.32c.1-.33.19-.65.28-1A1.13,1.13,0,0,0,41.71,25.47Z"/><path class="cls-1" d="M55.25,17.36v-.67h0v.67Z"/><path class="cls-1" d="M54.84,16.88c0,.05-.07.12-.05.15a3.89,3.89,0,0,0,.46.53v-.2c-.09-.12-.14-.26-.22-.38S54.9,16.91,54.84,16.88Z"/><path class="cls-1" d="M54.84,14.69A.83.83,0,0,0,54,15c.45.1,1,.07,1.23.5a.14.14,0,0,0,0-.06V15.1A.7.7,0,0,0,54.84,14.69Z"/><path class="cls-1" d="M54.4,13.89a.73.73,0,0,0-.77.09l-.25.22a.64.64,0,0,0-.88.63c.23-.12.44-.25.67-.36a.8.8,0,0,1,.84,0,.4.4,0,0,0,.26,0,.64.64,0,0,1,.79.16l.18.21v-.28s-.06-.06-.07-.1C55.09,14.16,54.7,14.06,54.4,13.89Z"/><path class="cls-1" d="M55.25,16.07h0v-.64h0v.64Z"/><path class="cls-1" d="M55.24,12.87v.06h0Z"/><path class="cls-1" d="M39.75,28.62a.61.61,0,0,0-.6.19A.76.76,0,0,0,39,29h.72C39.77,28.86,39.75,28.75,39.75,28.62Z"/><path class="cls-1" d="M30.93,24.88a.69.69,0,0,0-.43.13v.37l1.07,0A.7.7,0,0,0,30.93,24.88Z"/><path class="cls-1" d="M53.36,28.18a2.41,2.41,0,0,1,.32.32,2.91,2.91,0,0,1,.18.35l-.07,0c-.26-.65-.91-.6-1.63-.59a3.25,3.25,0,0,1,.9.67h1.3s0,0,0-.07C54.4,28.45,54,28.13,53.36,28.18Z"/><path class="cls-1" d="M54.29,24.84a4.56,4.56,0,0,0-.81-.28,3.7,3.7,0,0,0-.68,0l.42.39a1,1,0,0,1,.3,1A12,12,0,0,1,53,27.14a1,1,0,0,1-.94.43l-.6,0a1.26,1.26,0,0,0,1.53.53l.53-.1c.43-.07.55-.17.62-.52a1.09,1.09,0,0,0-.32-.94c.61-.08.81-.27.81-.75,0-.13-.08-.28,0-.38C54.76,25.1,54.56,25,54.29,24.84Z"/><path class="cls-1" d="M46.8,26.21a.58.58,0,0,0-.62-.13.5.5,0,0,0-.32.68C46,26.42,46.45,26.35,46.8,26.21Z"/><path class="cls-1" d="M47.51,28.57a.63.63,0,0,1-.43.33l-.19.07h1l.21-.15a.35.35,0,0,0,.12-.49,2.7,2.7,0,0,1-.14-.4.5.5,0,0,0-.37-.33h0C48,28,47.68,28.27,47.51,28.57Z"/><path class="cls-1" d="M55.13,14.4l.11.09V14.4Z"/><path class="cls-1" d="M45.57,27.17l.66-.08a.62.62,0,0,1,.63.25.23.23,0,0,0,.17.1c.35,0,.44.08.53.35a1.82,1.82,0,0,1,.07.25h.07a2.13,2.13,0,0,0,0-.25s0-.07,0-.1a.29.29,0,0,0,0-.09h0c0-.24-.19-.41-.34-.59a.57.57,0,0,0-.61-.16l-.28.09A.62.62,0,0,0,45.57,27.17Z"/><path class="cls-1" d="M52.31,20.25a.52.52,0,0,0,.18,0l-.28-.2C52.17,20.17,52.24,20.21,52.31,20.25Z"/><path class="cls-1" d="M54.11,19.41a.41.41,0,0,0-.47-.1.38.38,0,0,0-.24.52C53.54,19.57,53.84,19.51,54.11,19.41Z"/><path class="cls-1" d="M52.57,19.07l.72.56c0-.21-.06-.42-.27-.55A.53.53,0,0,0,52.57,19.07Z"/><path class="cls-1" d="M52,16.84a.53.53,0,0,0-.08.69c.2-.12.39-.23.58-.36a.2.2,0,0,0,.11-.16c0-.11,0-.23,0-.36A.63.63,0,0,0,52,16.84Z"/><path class="cls-1" d="M53.05,19.59a.41.41,0,0,0-.41.13l.6.19A.29.29,0,0,0,53.05,19.59Z"/><path class="cls-1" d="M52.52,21.4a2,2,0,0,0,.11-.21.43.43,0,0,0-.41,0,.37.37,0,0,0-.26.37l.44-.07A.29.29,0,0,0,52.52,21.4Z"/><path class="cls-1" d="M52.9,21.81l.25.05a.62.62,0,0,0,.73-.25h-.29a.46.46,0,0,1-.44-.21,3.67,3.67,0,0,1-.27-.57.42.42,0,0,1,.14-.47,1.92,1.92,0,0,1,.2-.19,1.68,1.68,0,0,0-.32,0c-.14,0-.26.09-.39.14s-.22.12-.13.26,0,.12,0,.18c0,.23.09.32.38.36a.5.5,0,0,0-.15.44C52.63,21.73,52.69,21.78,52.9,21.81Z"/><path class="cls-1" d="M51.55,19.31a.48.48,0,0,0,0,.49.84.84,0,0,0,.24.14.4.4,0,0,0,.24,0,.37.37,0,0,0,.08-.39.58.58,0,0,0-.46-.26A.15.15,0,0,0,51.55,19.31Z"/><path class="cls-1" d="M53.53,22c-.35,0-.66,0-.78.28h0a.91.91,0,0,1,.09-.17L53,21.9c-.28,0-.49.14-.48.35a.56.56,0,0,0,.36.46,1.88,1.88,0,0,1,.7-.75Z"/><path class="cls-1" d="M52.34,19.42a.92.92,0,0,0-.21.65,3.63,3.63,0,0,0,.28-.27C52.52,19.67,52.4,19.56,52.34,19.42Z"/><path class="cls-1" d="M54.56,20.56a.55.55,0,0,0-.58,0c.22.15.53.25.54.55A.36.36,0,0,0,54.56,20.56Z"/><path class="cls-1" d="M51.32,15.62a1.07,1.07,0,0,0-.76,1.18A1,1,0,0,0,51.32,15.62Z"/><path class="cls-1" d="M51,15.66a.92.92,0,0,0-1.06,0,1,1,0,0,0-.36.76c0,.18.1.25.32.23s.39-.08.49-.32a2.93,2.93,0,0,1,.38-.51A1.08,1.08,0,0,1,51,15.66Z"/><path class="cls-1" d="M52.76,24,54,23.59a.84.84,0,0,0-.85-.28A.6.6,0,0,0,52.76,24Z"/><path class="cls-1" d="M53.22,22.24a.77.77,0,0,0-.19.16.55.55,0,0,0-.07.36l-.13-.05a4.33,4.33,0,0,0-.18.69l1.52-1.18A1.15,1.15,0,0,0,53.22,22.24Z"/><path class="cls-1" d="M53.69,20.15c-.37,0-.78.32-.72.63a.28.28,0,0,0,.23.26c0-.53.41-.6.89-.6C54.07,20.27,53.93,20.17,53.69,20.15Z"/><path class="cls-1" d="M53.78,21.52a4.36,4.36,0,0,0,.6-.23.08.08,0,0,0,.06-.09.14.14,0,0,0-.1-.05l-1.19-.09A.49.49,0,0,0,53.78,21.52Z"/><path class="cls-1" d="M53.53,21l.46.08c.14,0,.2,0,.17-.12a.84.84,0,0,0,0-.14.38.38,0,0,0-.34-.17.47.47,0,0,0-.35.21C53.4,20.92,53.43,21,53.53,21Z"/><path class="cls-1" d="M53.21,18.26a1.15,1.15,0,0,0,1.12.47c-.37-.5-.21-1,.17-1.45-.5.18-1,.31-.89.82h-.07a2.81,2.81,0,0,1,0-.29,2,2,0,0,1,.09-.3C53.19,17.63,53,18,53.21,18.26Z"/><path class="cls-1" d="M54.57,20a.43.43,0,0,0-.47-.11l-.21.06a.47.47,0,0,0-.71.17l.5-.06a.48.48,0,0,1,.48.19.17.17,0,0,0,.13.08c.26,0,.33.06.4.26s0,.13.05.19h0l0-.19s0-.05,0-.07C54.88,20.31,54.69,20.17,54.57,20Z"/><path class="cls-1" d="M54.83,16.8a.91.91,0,0,0,.23,0l.19-.08v-.62l0,0A.73.73,0,0,0,54.83,16.8Z"/><path class="cls-1" d="M31.69,19.58a2.37,2.37,0,0,1,.36.09.48.48,0,0,0,.6-.14.72.72,0,0,0,.22-.66c.41.13.61.07.82-.22.06-.08.08-.19.16-.23.24-.13.18-.27.07-.42a2.86,2.86,0,0,0-.37-.41,2.11,2.11,0,0,0-.4-.2c0,.16.06.26.08.36a.68.68,0,0,1-.26.69,8.61,8.61,0,0,1-.87.56.77.77,0,0,1-.75,0L31,18.81C31,19.27,31.19,19.48,31.69,19.58Z"/><path class="cls-1" d="M32.92,23.92a.92.92,0,0,0-1,.06.74.74,0,0,0-.05,1.17C31.89,24.55,32.47,24.27,32.92,23.92Z"/><path class="cls-1" d="M31.41,17.64a1,1,0,0,0-.18.15c-.13.13-.09.21.11.26l.66.18c.14,0,.23,0,.24-.11a.47.47,0,0,0-.24-.49A.65.65,0,0,0,31.41,17.64Z"/><path class="cls-1" d="M31.19,18.76a.87.87,0,0,0,1.23-.21l-1.6-.61a.22.22,0,0,0-.18,0s0,.11,0,.14A5.1,5.1,0,0,0,31.19,18.76Z"/><path class="cls-1" d="M31.84,17.39a.76.76,0,0,0-.77-.34c-.32.1-.56.44-.44.71C30.92,17.38,31.41,17.45,31.84,17.39Z"/><path class="cls-1" d="M32.19,20.49c.21-.27.09-.59-.3-.74,0,.11.05.2.06.3a1.32,1.32,0,0,1-.05.26h-.06c.13-.47-.29-.63-.73-.83a1,1,0,0,1,0,1.36A1.1,1.1,0,0,0,32.19,20.49Z"/><path class="cls-1" d="M35.32,10.83c-.06.19,0,.31.27.4a.54.54,0,0,1,0-.11L35.7,11l.14.48.1,0a1.66,1.66,0,0,0,.17-.32c.1-.31.18-.62.27-.94A1.08,1.08,0,0,0,35.32,10.83Z"/><path class="cls-1" d="M36.08,14.6a2.2,2.2,0,0,1-.28-.44.61.61,0,0,0-.18-.1s-.07.12,0,.15a2.82,2.82,0,0,0,1.75,1.21c.21.05.32,0,.37-.18A2,2,0,0,1,36.08,14.6Z"/><path class="cls-1" d="M34.46,11.29a2.31,2.31,0,0,0-.24.2.61.61,0,0,0-.84.61l.63-.35a.76.76,0,0,1,.81,0,.44.44,0,0,0,.25,0,.61.61,0,0,1,.76.15l.21.23.08,0c0-.09-.07-.19-.11-.28s-.07-.06-.07-.09c-.08-.35-.45-.44-.74-.6A.69.69,0,0,0,34.46,11.29Z"/><path class="cls-1" d="M36.48,11.89a.7.7,0,0,0-.58-.2c.48.32.33.72.34,1.11a.6.6,0,0,1-.26.52.71.71,0,0,0-.37.67.83.83,0,0,0,.22,0l.72-.31a.28.28,0,0,0,.12-.12l.37-.72a.42.42,0,0,0-.17-.56A2.64,2.64,0,0,1,36.48,11.89Z"/><path class="cls-1" d="M31.51,14a.91.91,0,0,0,.73-1.13A1,1,0,0,0,31.51,14Z"/><path class="cls-1" d="M34.05,23.15l.23,0c.19,0,.24-.07.27-.23a.45.45,0,0,0-.14-.41c.27,0,.36-.12.36-.33,0-.05,0-.12,0-.16s0-.19-.12-.24a2.6,2.6,0,0,0-.36-.13,1.39,1.39,0,0,0-.29,0l.18.17a.41.41,0,0,1,.13.43,3.65,3.65,0,0,1-.25.53.41.41,0,0,1-.41.19h-.26A.54.54,0,0,0,34.05,23.15Z"/><path class="cls-1" d="M34.22,24a.53.53,0,0,0,.45-.47c0-.19-.18-.33-.44-.31a1.85,1.85,0,0,1,.14.14,1.09,1.09,0,0,1,.08.15l0,0c-.12-.29-.4-.26-.72-.26C34.05,23.43,34.27,23.65,34.22,24Z"/><path class="cls-1" d="M33.38,23.07a.54.54,0,0,0-.41-.3.4.4,0,0,1-.3-.23c-.12-.21-.33-.4-.16-.68a.35.35,0,0,0-.26.24c0,.09-.06.19-.1.28a.23.23,0,0,0,.08.33l.43.32a.18.18,0,0,0,.1,0c.16,0,.33,0,.49,0S33.34,23.07,33.38,23.07Z"/><path class="cls-1" d="M34.88,25l.09-.15a1.3,1.3,0,0,0,.1-.15l.11.68.15,0a2.58,2.58,0,0,0,.29-.41c.2-.42.37-.85.55-1.29a1.59,1.59,0,0,0-1.58.7C34.47,24.63,34.55,24.8,34.88,25Z"/><path class="cls-1" d="M32.11,23.49l.59.07c.32,0,.49-.09.48-.38l-.6.06.21-.1C32.45,23,32.09,23.24,32.11,23.49Z"/><path class="cls-1" d="M30.79,16.86s-.06.05-.08.09a2.15,2.15,0,0,0-.14.26l.07,0,.24-.21a.6.6,0,0,1,.75-.08.4.4,0,0,0,.24,0,.75.75,0,0,1,.79,0l.57.38c0-.47-.26-.73-.74-.65-.07-.07-.13-.15-.21-.22a.65.65,0,0,0-.7-.14C31.27,16.47,30.9,16.53,30.79,16.86Z"/><path class="cls-1" d="M33.37,10.72a.53.53,0,0,0,.07.84c0-.43.36-.67.65-1A.63.63,0,0,0,33.37,10.72Z"/><path class="cls-1" d="M35.17,17.21c-.16.08-.34.41-.27.54a.45.45,0,0,0,.28.2,1.57,1.57,0,0,0,.43,0,.91.91,0,0,0,.47-.64.2.2,0,0,0-.08-.13A1,1,0,0,0,35.17,17.21Z"/><path class="cls-1" d="M32.92,18.31a.81.81,0,0,0-.36-1.25.65.65,0,0,0-.77.13c.61.3,1.09.64.59,1.31A.61.61,0,0,0,32.92,18.31Z"/><path class="cls-1" d="M32.26,12.71a.69.69,0,0,0,.28-.05L32,12.54C32,12.68,32.14,12.7,32.26,12.71Z"/><path class="cls-1" d="M32.33,10.73a.78.78,0,0,0-.64.22l1.44.4C32.89,11.08,32.72,10.8,32.33,10.73Z"/><path class="cls-1" d="M41.89,28.54l-.41.17a.81.81,0,0,1-.8-.06,9.52,9.52,0,0,1-.86-.68.69.69,0,0,1-.18-.75c0-.11.07-.21.13-.38a2.1,2.1,0,0,0-.46.18,4.18,4.18,0,0,0-.44.4c-.14.15-.22.3,0,.46.08,0,.09.17.13.26.19.33.4.41.85.3a.79.79,0,0,0,0,.53h1.82A.84.84,0,0,0,41.89,28.54Z"/><path class="cls-1" d="M54.93,24.35l-.6.4a.7.7,0,0,0,.38-.06C54.85,24.62,55,24.53,54.93,24.35Z"/><path class="cls-1" d="M42.21,28.94a.49.49,0,0,0-.19-.1A1.12,1.12,0,0,0,42,29h.26Z"/><path class="cls-1" d="M51,28.13l-1.37.14.47-.22c-.78-.24-1.6.21-1.54.8l1.12.12h.76A.73.73,0,0,0,51,28.13Z"/><path class="cls-1" d="M55.2,24.89a2.19,2.19,0,0,0-.36,0,1.47,1.47,0,0,0,.35.59C55.19,25.27,55.2,25.08,55.2,24.89Z"/><path class="cls-1" d="M55.2,26.72v.11h0Z"/><path class="cls-1" d="M32.76,11.42c-.26,0-.36.17-.45.39l1-.05A.53.53,0,0,0,32.76,11.42Z"/><path class="cls-1" d="M30.87,12.49a1.72,1.72,0,0,0,.44.06.55.55,0,0,0,.31-.18c.09-.13-.05-.48-.21-.58a1.06,1.06,0,0,0-.84-.12.27.27,0,0,0-.07.08V12A.94.94,0,0,0,30.87,12.49Z"/><path class="cls-1" d="M54.9,26.63a.86.86,0,0,0-.85.05,2.93,2.93,0,0,0,.23.43.35.35,0,0,0,.24.14l.69.13c0-.19,0-.37,0-.55A.93.93,0,0,0,54.9,26.63Z"/><path class="cls-1" d="M31,12.92a.92.92,0,0,0-.35.73c0,.17.09.23.31.22s.37-.08.47-.31a2.37,2.37,0,0,1,.36-.49c.06-.06.14-.11.22-.18A.87.87,0,0,0,31,12.92Z"/><path class="cls-1" d="M30.69,16.25a2.15,2.15,0,0,0,.13.32h.1l.2-.45s0,.08,0,.12l0,.11c.26-.07.34-.17.31-.37a1,1,0,0,0-1-.66C30.59,15.63,30.63,15.94,30.69,16.25Z"/><path class="cls-1" d="M31.87,12.56a5.52,5.52,0,0,0,.18-.53c0-.23-.2-.32-.4-.48A1.4,1.4,0,0,0,31.87,12.56Z"/><path class="cls-1" d="M31.79,21.17l.44.46c.05.05.13.09.19.14l.06,0-.08-.29a.18.18,0,0,1,.07.05l.07.05c.11-.11.11-.18,0-.28A.74.74,0,0,0,31.79,21.17Z"/><path class="cls-1" d="M30.5,23.89v.58l1,.36C31.18,24.43,31,24.05,30.5,23.89Z"/><path class="cls-1" d="M30.5,17.09a.72.72,0,0,1,.34-.33.73.73,0,0,0-.34,0Z"/><path class="cls-1" d="M34.3,28.48l-.58.18a1.12,1.12,0,0,1-1.07-.17,11.93,11.93,0,0,1-1-1,.91.91,0,0,1-.12-1c.06-.14.14-.27.25-.49a3,3,0,0,0-.65.19,4,4,0,0,0-.62.46v.79a1.18,1.18,0,0,0,0,.2c.19.47.46.6,1.08.51a1,1,0,0,0,0,.85h2.43A1.4,1.4,0,0,0,34.3,28.48Z"/><path class="cls-1" d="M31.38,28.82a2.45,2.45,0,0,0,0-.48.85.85,0,0,0-.83.18.48.48,0,0,0-.09.11V29h.76A.33.33,0,0,0,31.38,28.82Z"/><path class="cls-1" d="M30.85,19a.66.66,0,0,0-.28-.68l-.07-.08v.63l.14.08A1.6,1.6,0,0,0,30.85,19Z"/><path class="cls-1" d="M35.16,27.09A.77.77,0,0,0,34.8,26a1.14,1.14,0,0,0-1.2.3C34.18,26.47,34.89,26.49,35.16,27.09Z"/><path class="cls-1" d="M35.23,25.63c-.12-.37-.55-.54-.89-.76a1,1,0,0,0-1,0c-.13.08-.25.17-.37.26a.89.89,0,0,0-1.28.74l.94-.41a1.1,1.1,0,0,1,1.13.12.49.49,0,0,0,.33.09c.53-.11.72-.07,1,.3.1.11.17.23.26.35l.11,0c0-.13-.06-.27-.1-.4s-.08-.1-.09-.14a.41.41,0,0,0,0-.16Z"/><path class="cls-1" d="M34.72,28.78c.36-.11.71-.22,1.07-.35a.39.39,0,0,0,.17-.14l.65-1a.57.57,0,0,0-.13-.79A6.09,6.09,0,0,1,36,26a.92.92,0,0,0-.77-.36h0c.62.51.34,1.05.27,1.59a.86.86,0,0,1-.45.68,1,1,0,0,0-.63.89A1,1,0,0,0,34.72,28.78Z"/><path class="cls-1" d="M33.28,26.59a.73.73,0,0,0-.51.62c0,.16.09.24.3.21l1-.09c.3,0,.39-.13.25-.34a2.38,2.38,0,0,0-.2-.25A.86.86,0,0,0,33.28,26.59Z"/><path class="cls-1" d="M32.7,25.65c-.78.16-1.3,1.08-.94,1.66a.74.74,0,0,0,.69.4c-.47-1.05.32-1.43,1.29-1.7A.89.89,0,0,0,32.7,25.65Z"/><path class="cls-1" d="M34,28.36a7.45,7.45,0,0,0,1-.8c.05,0,.08-.17,0-.21s-.17-.07-.25-.05l-2.47.48A1.19,1.19,0,0,0,34,28.36Z"/><path class="cls-1" d="M35.29,13.7a4.92,4.92,0,0,0,.66-.63.14.14,0,0,0,0-.15.24.24,0,0,0-.19,0l-1.71.49A.87.87,0,0,0,35.29,13.7Z"/><path class="cls-1" d="M34.1,11.86a.85.85,0,0,0-.52,1.24.56.56,0,0,0,.53.24c-.43-.72.1-1,.76-1.29A.65.65,0,0,0,34.1,11.86Z"/><path class="cls-1" d="M32.6,12.7c-.14.15-.22.29,0,.44.07,0,.08.17.12.25.18.32.38.39.82.29a.74.74,0,0,0,.14.7.5.5,0,0,0,.6.19l.38-.07c.52-.06.75-.26.82-.73l-.4.17a.78.78,0,0,1-.77-.06,7.56,7.56,0,0,1-.82-.65.68.68,0,0,1-.18-.72c0-.11.07-.21.13-.37a2.09,2.09,0,0,0-.44.18A3.07,3.07,0,0,0,32.6,12.7Z"/><path class="cls-1" d="M34.53,13.1l.7-.13c.21,0,.26-.11.15-.26l-.17-.17a.64.64,0,0,0-.61,0,.5.5,0,0,0-.31.47C34.29,13.08,34.38,13.13,34.53,13.1Z"/><path class="cls-1" d="M35.62,12a.77.77,0,0,0-.82.29c.43.09.94.06,1.18.47A.57.57,0,0,0,35.62,12Z"/><path class="cls-1" d="M38.24,27.25c0,.15.16.17.28.18a.71.71,0,0,0,.29-.05Z"/><path class="cls-1" d="M38.22,27.62a.93.93,0,0,0-1.06,0,1,1,0,0,0-.36.77c0,.18.1.24.32.23s.39-.09.49-.33a2.54,2.54,0,0,1,.38-.5A1.55,1.55,0,0,1,38.22,27.62Z"/><path class="cls-1" d="M39,26.09c-.27,0-.38.18-.47.41l1-.06A.57.57,0,0,0,39,26.09Z"/><path class="cls-1" d="M40.81,26c-.09.06-.16.14-.25.21a.63.63,0,0,0-.87.63l.66-.36a.8.8,0,0,1,.84,0,.48.48,0,0,0,.26,0,.62.62,0,0,1,.79.16,2.5,2.5,0,0,1,.22.24l.09,0a2.55,2.55,0,0,0-.13-.29s-.06-.07-.07-.1c-.08-.36-.46-.46-.77-.62A.71.71,0,0,0,40.81,26Z"/><path class="cls-1" d="M39.67,25.36a.55.55,0,0,0,.08.87c0-.45.38-.69.68-1A.68.68,0,0,0,39.67,25.36Z"/><path class="cls-1" d="M38.5,27.58a1.07,1.07,0,0,0-.76,1.18A.94.94,0,0,0,38.5,27.58Z"/><path class="cls-1" d="M36.76,26.35a.2.2,0,0,0-.1.14.88.88,0,0,0,.41.71,1.49,1.49,0,0,0,.46.06.54.54,0,0,0,.32-.18c.1-.14-.05-.5-.21-.61A1.13,1.13,0,0,0,36.76,26.35Z"/><path class="cls-1" d="M38.12,27.28c.06-.19.14-.37.18-.56s-.21-.33-.42-.5A1.44,1.44,0,0,0,38.12,27.28Z"/><path class="cls-1" d="M38.59,25.37a.77.77,0,0,0-.66.23l1.5.41C39.18,25.73,39,25.44,38.59,25.37Z"/><path class="cls-1" d="M33,19c0,.12,0,.23-.06.34a.22.22,0,0,0,.09.15c.16.13.33.25.5.37a.49.49,0,0,0,0-.64A.58.58,0,0,0,33,19Z"/><path class="cls-1" d="M34.53,22.54c0,.07.06.13.1.19a.2.2,0,0,0,.11.06l.41.08a.35.35,0,0,0-.25-.35A.38.38,0,0,0,34.53,22.54Z"/><path class="cls-1" d="M34.53,17.39a3.29,3.29,0,0,0,.1.53A1.39,1.39,0,0,0,35,17C34.76,17.09,34.51,17.16,34.53,17.39Z"/><path class="cls-1" d="M34.52,17.89,34,18a.59.59,0,0,0,.26.07C34.36,18,34.5,18,34.52,17.89Z"/><path class="cls-1" d="M34.59,20.59a.47.47,0,0,0-.42,0c-.19.12-.21.3-.25.5Z"/><path class="cls-1" d="M35.73,19.07a.91.91,0,0,0-.25-.74.86.86,0,0,0-1-.1,1.13,1.13,0,0,1,.19.19,1.81,1.81,0,0,1,.29.5c.08.23.13.3.43.34S35.71,19.23,35.73,19.07Z"/><path class="cls-1" d="M34.24,18.17a.84.84,0,0,0,.58,1.15A1,1,0,0,0,34.24,18.17Z"/><path class="cls-1" d="M33.11,22.32c0,.1,0,.13.16.11l.43-.08c.09,0,.12-.06.09-.12a.42.42,0,0,0-.32-.2.36.36,0,0,0-.32.16A.68.68,0,0,0,33.11,22.32Z"/><path class="cls-1" d="M33.47,22.84a.45.45,0,0,0,.58-.42L33,22.5s-.09,0-.09.05,0,.07,0,.08A2.69,2.69,0,0,0,33.47,22.84Z"/><path class="cls-1" d="M34.22,22.16c.05-.28-.33-.6-.67-.58s-.35.11-.37.27c.45,0,.84.06.82.55A.28.28,0,0,0,34.22,22.16Z"/><path class="cls-1" d="M32.75,22a.32.32,0,0,0,0,.49c0-.27.3-.36.51-.5A.52.52,0,0,0,32.75,22Z"/><path class="cls-1" d="M34,21.36l.55-.17a.38.38,0,0,0-.38-.12A.25.25,0,0,0,34,21.36Z"/><path class="cls-1" d="M32.74,21.45c-.11.15-.29.28-.22.48,0,0,0,0,0,.07a1.11,1.11,0,0,1,0,.17h.06a.85.85,0,0,1,0-.17c.06-.19.13-.23.37-.24a.2.2,0,0,0,.12-.08.44.44,0,0,1,.44-.17l.46.06a.42.42,0,0,0-.65-.16,1.52,1.52,0,0,0-.2-.06A.38.38,0,0,0,32.74,21.45Z"/><path class="cls-1" d="M33.4,16a.6.6,0,0,0-.69-.16c.25.29.59.55.53,1A.52.52,0,0,0,33.4,16Z"/><path class="cls-1" d="M33.16,20.9c.25.09.53.14.66.38a.34.34,0,0,0-.23-.47A.38.38,0,0,0,33.16,20.9Z"/><path class="cls-1" d="M33.45,14.2c0-.11,0-.23,0-.35a.6.6,0,0,0-.58.18.51.51,0,0,0-.07.66c.19-.11.38-.22.55-.34A.22.22,0,0,0,33.45,14.2Z"/><path class="cls-1" d="M33.56,16.65,35,16.37a.7.7,0,0,0-.59-.26A1.42,1.42,0,0,0,33.56,16.65Z"/><path class="cls-1" d="M33.91,16.74a.56.56,0,0,0-.54.29l.93.13C34.24,16.94,34.16,16.78,33.91,16.74Z"/><path class="cls-1" d="M34.06,15.39a1.08,1.08,0,0,0,1.07.45c-.36-.47-.2-.92.16-1.39-.48.17-.93.3-.85.79h-.06a1.37,1.37,0,0,1,0-.28,1.9,1.9,0,0,1,.09-.29C34,14.78,33.87,15.11,34.06,15.39Z"/><path class="cls-1" d="M29.57,46.49c-1.56-.1-3.1-.16-4.61-.2v-2.4h1.32l-1.66-1.06L23,41.77,21.3,42.83l-1.66,1.06H21v2.36c-2.43,0-4.74.1-6.85.27l-1,.08.66.56.53.45a63.48,63.48,0,0,0,15,8.79l.69.31V46.51ZM23,42.25l2,1.25h-.43V46h-3V43.5H21Zm6.57,5.09v8.73a62.61,62.61,0,0,1-14.84-8.73l-.52-.44a109.14,109.14,0,0,1,15.36,0Z"/><path class="cls-1" d="M13.75,33.1l-.14-.65-.55.49-.81-.09.41.58-.36.6.8-.14.59.46.09-.66.72-.31Zm-.26.43,0,.28-.25-.19-.34.05.15-.25-.17-.25.34,0,.23-.21.07.28.31.12Z"/><path class="cls-1" d="M14.58,38.3l-.8.12-.57-.48-.12.66-.73.29.73.3.11.65.57-.47.81.11-.38-.59Zm-.57.84-.34,0-.25.21L13.37,39l-.31-.13.31-.12.06-.28.24.2.34,0-.16.25Z"/><path class="cls-1" d="M17.9,35.52l-.82,0-.44-.56-.28.63-.79.16.65.41,0,.67.67-.37.76.24L17.38,36Zm-.77.72-.32-.1-.29.16,0-.28-.27-.18.33-.07.12-.27.19.24h.34L17,36Z"/><path class="cls-1" d="M11.26,35.61h-.82L10,35.06l-.25.63-.79.19.66.39,0,.67.66-.39.77.22-.25-.63Zm-.74.75-.33-.09-.28.16v-.28L9.64,36,10,35.9l.11-.27.2.24h.34l-.21.22Z"/><path class="cls-1" d="M28,34.44a5.08,5.08,0,0,0-4.32-1.61,3.39,3.39,0,0,1,1.1.85,2.6,2.6,0,0,1-.91,4.06,4.27,4.27,0,0,1-4.06,0,3.61,3.61,0,0,0,.59,1,5.31,5.31,0,0,0,6.42,1C28.91,38.49,29.44,36.15,28,34.44Zm-1.45,4.92a4.8,4.8,0,0,1-2.35.6h0a4.52,4.52,0,0,1-3.38-1.43,4.9,4.9,0,0,0,1,.11,4.59,4.59,0,0,0,2.29-.59,2.94,2.94,0,0,0,1-4.59L25,33.25a4.35,4.35,0,0,1,2.63,1.4A3,3,0,0,1,26.54,39.36Z"/><path d="M47.53,33.65l.48-.12v0l-.33-.11.08-.15h.08l.5.16a.21.21,0,0,0,.11,0l.32-.08-.52-.18.09-.17.32.1.43.15h0l.56-.14L49.59,33c-.1-.07-.19-.15-.29-.21a.15.15,0,0,0-.09,0l-.72,0c-.06,0-.07,0-.07-.06s0-.13.18-.12H49c-.13-.08-.2-.22-.4-.22l-.49,0s0,0,0-.05a.3.3,0,0,0,0-.1s0,0,.06,0a1.5,1.5,0,0,0,.3,0l-.36-.28.19-.16.37.27h0l0-.29.2,0s0,0,0,0,0,.3.08.44a.13.13,0,0,0,.06.11l.23.16L49.12,32l.19,0s0,0,0,0c0,.2,0,.4.08.6a.16.16,0,0,0,.07.09l.36.27h0l0-.07c0-.08,0-.17.07-.25a.28.28,0,0,0-.05-.31l-.26-.42,0,0,.21-.08.24.39h0s0-.1.05-.14a.3.3,0,0,0,0-.29c-.08-.12-.14-.24-.21-.36l.21-.08.16.27a.14.14,0,0,0,0-.06l.09-.3s0-.05.08,0l.13,0c.06,0,.08,0,.06.07s-.06.23-.1.36l.11-.07.15-.09s.05,0,.07,0l.11.12-.16.11-.32.2a.16.16,0,0,0-.06.08,1,1,0,0,0-.06.25l.43-.26.14.15-.31.19-.32.2s0,0,0,0-.09.3-.14.46h.06c.16,0,.31-.07.46-.12l.1,0,.38-.48s.07,0,.12,0a.35.35,0,0,0,.12.07l-.3.38.22,0a.35.35,0,0,0,.24-.14,3.88,3.88,0,0,1,.26-.31s.05,0,.08,0l.14.09-.19.24h0l.49-.12.08.22L52,32.8h0l.33.11-.09.18L51.82,33l-.11,0a.39.39,0,0,0-.3,0l-.2.06.49.17a.8.8,0,0,1-.08.16h0l-.68-.23a.13.13,0,0,0-.09,0l-.54.13.16.13.21.16a.2.2,0,0,0,.15.06l.68,0h.08s0,.09,0,.14,0,0-.06,0l-.5,0a.63.63,0,0,1,.12.1.53.53,0,0,0,.39.13l.37,0s.08,0,.07.07a.53.53,0,0,0,0,.13l-.36,0h0l.37.28-.19.17-.37-.28h0l0,.29-.22,0a2.38,2.38,0,0,1,0-.26,1.7,1.7,0,0,1,0-.22A.16.16,0,0,0,51,34.1l-.22-.16.06.44-.23,0c0-.11,0-.23,0-.34s0-.2-.05-.3a.08.08,0,0,0,0,0l-.42-.32,0,0c0,.13-.08.26-.11.39a.08.08,0,0,0,0,.08l.35.58-.21.09-.25-.41c0,.11-.06.2-.08.29s0,0,0,.07L50,35l-.21.09-.15-.26h0l-.08.27c0,.12,0,.12-.19.09s-.12,0-.09-.11.05-.2.08-.3h0l-.28.17-.15-.14c.13-.08.24-.17.36-.23a.39.39,0,0,0,.23-.29.45.45,0,0,1,0-.11h0l-.42.26L49,34.23l.37-.23.26-.16,0,0c0-.15.09-.3.13-.46h-.06l-.45.11a.17.17,0,0,0-.1.06l-.4.5s0,0,0,0l-.2-.11.3-.36h0l-.34.08a.12.12,0,0,0-.05.05l-.34.41L47.94,34s0,0,0-.06l.18-.21H48l-.37.09s-.07,0-.08,0A1.15,1.15,0,0,0,47.53,33.65Z"/><path d="M33.63,52l.2-.44h0l-.35.17a.61.61,0,0,1-.12-.16s0-.05,0-.06l.53-.27a.11.11,0,0,0,.08-.07c.05-.09.08-.18.13-.29l-.55.25-.14-.18.34-.16.47-.23a.05.05,0,0,0,0,0c.08-.16.15-.33.23-.51l-.18,0-.44.06a.31.31,0,0,0-.1,0l-.54.51c0,.05-.07.05-.12,0s-.17-.07,0-.22a2.23,2.23,0,0,0,.26-.27c-.17,0-.38,0-.52.15s-.25.23-.37.34,0,0-.09,0a.39.39,0,0,0-.1-.08s0-.05,0-.08l.21-.22-.57.08-.05-.26.56-.08v0l-.36-.16.11-.16a.08.08,0,0,1,.07,0l.55.25A.29.29,0,0,0,33,50c.11,0,.23,0,.34-.06l-.53-.25c0-.06.07-.11.1-.16a.05.05,0,0,1,.08,0l.74.35a.25.25,0,0,0,.15,0l.54-.08h0l-.07-.07a2.34,2.34,0,0,1-.22-.23.57.57,0,0,0-.4-.17l-.64-.1h-.06l.05-.21.6.09h0l-.14-.14a.51.51,0,0,0-.35-.17l-.55-.09.06-.21.42.07,0-.06-.29-.27s0-.06,0-.09L33,48s.08,0,.12,0l.33.33a.56.56,0,0,0,0-.13V48s0,0,.06,0h.21v.2c0,.13,0,.25,0,.38a.16.16,0,0,0,.05.09,1.7,1.7,0,0,0,.24.22v-.5h.27v.75a.14.14,0,0,0,0,.06l.42.41s0,0,0,0,.13-.28.19-.42a.13.13,0,0,0,0-.12c-.08-.2-.17-.41-.27-.61s0-.09.06-.1l.17-.05.22.49a2,2,0,0,1,.09-.2.28.28,0,0,0,0-.28c-.07-.13-.12-.27-.18-.41s0-.06.05-.07l.19,0,.13.32h0l.2-.44.3.09-.19.44h0L36.1,48l.14.19-.39.19a.43.43,0,0,1-.12.05.34.34,0,0,0-.22.23c0,.06,0,.12-.07.19l.54-.25.11.16s0,0,0,0l-.72.34s-.07,0-.08.06l-.23.5.25,0,.34,0a.34.34,0,0,0,.17-.08l.5-.49.06-.05.16.11s0,0,0,.07l-.37.36.19,0a.55.55,0,0,0,.43-.2c.08-.09.19-.17.28-.26s.07-.05.12,0l.14.1-.27.25h0l.57-.07.06.25-.57.08v0l.35.16-.12.19L37,49.87l-.29-.13a.25.25,0,0,0-.17,0l-.33.06.54.25-.13.19L36.2,50l-.37-.18a.12.12,0,0,0-.08,0c-.22,0-.43,0-.66.09l0,0,.36.35a.16.16,0,0,0,.11,0l.89.14-.05.21-.63-.09.27.27.09,0,.68.12-.05.21-.4-.06h0l.25.25c.12.11.12.11,0,.21s-.09.08-.19,0l-.28-.27h0v.33h-.27a3,3,0,0,1,0-.42.38.38,0,0,0-.17-.37l-.1-.1h0v.5h-.26v-.73a.64.64,0,0,0,0-.07l-.43-.42,0,.06c-.06.14-.13.27-.18.41a.13.13,0,0,0,0,.12c.08.22.18.43.27.64l0,.05-.25.07L34.46,51h0c0,.11-.1.21-.14.32s0,.05,0,.07l.22.54-.21.06s0,0-.06,0l-.12-.28,0,.06L34,52s0,.05-.09,0Z"/><path d="M39.94,47.92l.37-.15h0l-.28,0,0-.14h.07l.44.09h.09l.25-.1-.45-.09,0-.16.27.06.38.08h0l.44-.17-.11-.07-.26-.14a.1.1,0,0,0-.09,0l-.59,0c-.05,0-.07,0-.07,0s0-.11.13-.12l.31,0c-.12,0-.2-.16-.37-.14s-.27,0-.4,0,0,0,0,0a.19.19,0,0,0,0-.08s0,0,0,0l.25,0-.34-.2.13-.16.34.2h0l-.08-.23.16,0,0,0,.13.36a.13.13,0,0,0,.07.08l.21.11L41,46.36l.16,0s0,0,0,0,.11.33.17.49a.16.16,0,0,0,.07.07l.33.18h0V47a.71.71,0,0,1,0-.21.26.26,0,0,0-.09-.26c-.1-.1-.19-.21-.28-.31l0,0,.15-.09.26.29h0a.49.49,0,0,1,0-.12.25.25,0,0,0-.08-.24,3.23,3.23,0,0,1-.23-.27l.16-.09.18.21s0,0,0,0a2.11,2.11,0,0,0,0-.26s0,0,.06,0h.12s.06,0,.06,0l0,.31a.21.21,0,0,1,.08-.06.52.52,0,0,1,.11-.1s0,0,.06,0l.11.08-.12.11-.23.2a.1.1,0,0,0,0,.07,1.48,1.48,0,0,0,0,.21l.32-.26.14.11-.23.19-.24.2,0,0,0,.39h0l.36-.15a.11.11,0,0,0,.07-.06c.09-.14.17-.28.25-.43s0-.05.09,0l.11,0-.19.35.18-.07a.27.27,0,0,0,.17-.14c0-.1.11-.19.17-.29s0,0,.06,0l.13,0-.12.22h0l.38-.15.11.17-.38.15h0l.29.06-.05.15-.32-.06-.09,0a.33.33,0,0,0-.26,0s-.1,0-.15.07l.43.1a.65.65,0,0,1,0,.13s0,0,0,0l-.6-.12h-.07l-.43.17.15.08.2.12a.32.32,0,0,0,.14,0l.56-.05h.06s0,.08,0,.12,0,0,0,0l-.41,0,.12.07a.4.4,0,0,0,.34.07l.31,0s.07,0,.06,0,0,.07,0,.11l-.29,0h0l.35.19-.14.16-.34-.19h0l.08.23-.18,0A1.8,1.8,0,0,1,43,48.2L42.94,48s0-.06-.08-.08l-.2-.11.12.36-.19,0L42.5,48l-.09-.24a.05.05,0,0,0,0,0L42,47.45s0,0,0,0l0,.33s0,0,0,.06.25.29.38.44l-.16.1-.27-.31a2.29,2.29,0,0,0,0,.25s0,0,0,0l.29.34-.16.09-.17-.2h0l0,.23c0,.11,0,.11-.14.1s-.1,0-.09-.08a2.28,2.28,0,0,1,0-.26h0l-.21.18-.14-.11a2.53,2.53,0,0,1,.26-.22.27.27,0,0,0,.14-.26s0-.07,0-.1h0l-.31.26-.14-.11.27-.22.18-.16s0,0,0,0,0-.26,0-.4l-.06,0-.34.14a.13.13,0,0,0-.08.06L41,48.1l0,0-.17-.07.19-.33h0l-.27.11,0,0c-.07.13-.14.25-.22.37l-.14-.05s0,0,0,0l.11-.2-.06,0-.29.12s0,0-.06,0Z"/><path d="M31.06,44.77l.32-.21h-.3v-.14l.06,0h.45l.09,0,.21-.14h-.46v-.15h.72l.38-.25-.13,0-.3-.09a.14.14,0,0,0-.09,0l-.57.15s-.06,0-.07,0-.07-.09.09-.14l.29-.09c-.13,0-.24-.12-.39-.07s-.26.07-.39.11,0,0-.06,0,0,0,0-.07,0,0,0-.06l.24-.07-.39-.12.08-.18.39.12h0L31.1,43l.14-.06s0,0,0,0,.16.21.23.32a.16.16,0,0,0,.09.07l.24.06-.21-.32.13-.06s0,0,.06,0a4.27,4.27,0,0,0,.3.44s.05.05.08.06l.38.11h0v-.06a1.55,1.55,0,0,1,0-.21.29.29,0,0,0-.16-.23c-.13-.08-.24-.17-.36-.25l0,0,.12-.11.34.23h0a.5.5,0,0,1,0-.12.29.29,0,0,0-.14-.22,2.1,2.1,0,0,1-.3-.22l.13-.11.23.17s0,0,0-.05a2,2,0,0,0,0-.26s0,0,0,0l.11,0c.05,0,.07,0,.08,0a2,2,0,0,0,.06.3l.05-.08a.76.76,0,0,0,.08-.11s0,0,.06,0l.13.06-.08.13-.17.24a.19.19,0,0,0,0,.07.83.83,0,0,0,.06.21l.23-.31.16.08-.16.23-.17.24a.08.08,0,0,0,0,0c0,.13,0,.25.07.38h0l.31-.21,0-.07c0-.16.08-.31.11-.47s0-.06.08,0l.13,0-.09.37.15-.1a.21.21,0,0,0,.13-.17c0-.1.05-.2.08-.31s0,0,.06,0l.14,0-.06.24h0l.33-.21.14.15-.32.21h.3v.16H34a.34.34,0,0,0-.24.07l-.12.1h.44v.14l0,0h-.68l-.37.25.17,0,.23.08a.33.33,0,0,0,.14,0l.53-.15h.06a.37.37,0,0,1,0,.11s0,0,0,0l-.39.11.13,0a.39.39,0,0,0,.35,0l.3-.07s.06,0,.07,0l0,.1-.28.08h0l.39.12-.08.18-.39-.12h0l.15.21-.17.08-.14-.19L34,44.3a.17.17,0,0,0-.1-.07,2,2,0,0,0-.23-.06l.22.32-.17.08-.18-.25a1.7,1.7,0,0,0-.15-.22.08.08,0,0,0,0,0l-.45-.14s0,0,0,0l.06.33,0,.06.5.35-.13.12L33,44.57c0,.1,0,.18.05.25s0,0,0,0l.38.27-.13.12-.23-.16h0l0,.22c0,.11,0,.11-.12.13s-.09,0-.11-.07,0-.17-.05-.25h0l-.14.2-.17-.07a1.85,1.85,0,0,1,.19-.27.27.27,0,0,0,.06-.28.3.3,0,0,1,0-.1h0l-.23.31-.16-.08.19-.27.14-.19a.08.08,0,0,0,0,0c0-.12,0-.25-.07-.39l0,0-.3.2a.16.16,0,0,0-.06.08l-.12.48a0,0,0,0,1,0,0l-.19,0,.09-.36h0l-.23.15s0,0,0,0-.07.27-.11.4l-.16,0s0,0,0,0,0-.14.06-.22l-.06,0-.24.17a.05.05,0,0,1-.08,0Z"/><path d="M47.33,39.84h.42l-.24-.15.1-.11.07,0,.36.22.09,0h.27L48,39.58l.12-.12.22.14.31.2h.52l-.06-.1L49,39.49a.18.18,0,0,0-.07-.05l-.57-.16s-.05,0,0-.06,0-.11.17-.07l.3.08c-.08-.09-.1-.22-.26-.25l-.38-.11s0,0,0,0,0,0,0-.08,0,0,.06,0l.24.06-.21-.29.2-.1.21.29h0l0-.24h.16s0,0,0,0,0,.24,0,.36a.09.09,0,0,0,0,.1,1.1,1.1,0,0,0,.14.18l.07-.37.15,0s0,0,0,0l-.09.5a.08.08,0,0,0,0,.08l.21.28,0,0,0-.06a1.18,1.18,0,0,1,.13-.18.25.25,0,0,0,0-.26c0-.13-.06-.26-.09-.38a.08.08,0,0,1,0,0l.19,0,.09.36h0l.07-.11a.22.22,0,0,0,0-.24,3,3,0,0,1-.07-.32l.19,0,.06.25,0,0,.15-.23s0,0,.08,0l.1.05c.05,0,.05,0,0,.07l-.18.27.1,0,.15,0s0,0,.06,0a1,1,0,0,0,0,.12l-.16,0-.31.11a.18.18,0,0,0-.07.05l-.12.19.42-.13.07.15-.3.09-.32.11,0,0-.23.34h.45a.14.14,0,0,0,.09,0l.44-.31s.07,0,.1,0l.08.08-.35.25h.2a.32.32,0,0,0,.23-.07l.29-.2s.05,0,.07,0l.09.09-.22.16h.42V40H51.1l.23.15-.11.13L51,40.09,50.88,40a.31.31,0,0,0-.25-.07,1.11,1.11,0,0,0-.17,0l.35.22-.11.11h0L50.18,40l-.07,0h-.48l.1.13a1.77,1.77,0,0,1,.12.17.16.16,0,0,0,.11.07l.54.15.06,0-.05.12s0,0-.06,0l-.39-.11.07.1a.38.38,0,0,0,.28.18l.29.08s.06,0,0,.07a.3.3,0,0,0,0,.1L50.41,41h0l.21.29-.2.1-.22-.29h0l0,.24-.19,0,0-.21,0-.19a.12.12,0,0,0,0-.11l-.13-.16-.07.36-.19,0c0-.1,0-.19,0-.28s0-.17,0-.25a.07.07,0,0,0,0,0l-.25-.34,0,0-.19.29a.09.09,0,0,0,0,.07c0,.17.08.34.12.52l-.19,0L49,40.67a2.17,2.17,0,0,0-.15.22s0,0,0,.06.06.26.09.41l-.19,0-.06-.23h0l-.14.21c-.06.09-.06.09-.18,0s-.09,0,0-.11l.15-.23h0l-.27.09L48.15,41l.35-.12a.33.33,0,0,0,.26-.19l.06-.08h0l-.41.13-.08-.15.36-.12.25-.08,0,0,.24-.35h-.44a.2.2,0,0,0-.11,0l-.46.32,0,0-.12-.12.33-.24h-.3a.09.09,0,0,0-.05,0l-.39.26-.1-.1s0,0,0,0l.2-.14h-.38s-.05,0-.05,0Z"/><path d="M36.67,33.42v-.34h0l-.19.18-.13-.08,0-.06.28-.28a.25.25,0,0,0,0-.07v-.23l-.3.29-.15-.1.18-.18.25-.24,0,0v-.4l-.12.05-.27.13a.09.09,0,0,0-.06.06,4.54,4.54,0,0,0-.21.45s0,0-.08,0-.14,0-.08-.14a2.44,2.44,0,0,0,.1-.24c-.11.06-.26.07-.31.2a3,3,0,0,1-.15.31s0,0-.06,0l-.09,0s0,0,0,0a1.19,1.19,0,0,0,.08-.2l-.36.17-.12-.17.36-.16h0l-.29,0a.61.61,0,0,1,0-.13l0,0,.45.06a.17.17,0,0,0,.12,0l.21-.11L35.4,32l0-.13s0,0,0,0l.62.09.1,0,.35-.17h0l-.07,0-.22-.1a.4.4,0,0,0-.32-.05l-.47.07h0l0-.15.44-.06h0l-.13-.07a.44.44,0,0,0-.3,0l-.39,0,0-.16.31,0-.06,0L35,31s0,0,0-.06l.06-.08s0,0,.09,0l.32.15a.59.59,0,0,1,0-.08.67.67,0,0,0-.06-.12s0,0,0,0l.14,0,.07.13c0,.09.07.17.12.26a.1.1,0,0,0,.06.05.8.8,0,0,0,.23.1l-.15-.34L36,30.8l.11.24.12.27a0,0,0,0,0,0,0l.41.2s0,0,0,0v-.33a.13.13,0,0,0,0-.07c-.12-.13-.24-.25-.37-.37s0-.06,0-.08l.1-.06.3.29v-.16a.19.19,0,0,0-.08-.19l-.24-.25s0,0,0-.05l.12-.07.18.18h0V30h.23v.34h0l.19-.19.15.1-.2.21-.07.06a.18.18,0,0,0-.08.2.71.71,0,0,0,0,.14l.29-.28.13.09a.06.06,0,0,1,0,0L37,31.1a.07.07,0,0,0,0,0c0,.13,0,.26,0,.39l.16-.07.22-.1a.24.24,0,0,0,.09-.08c.06-.15.13-.29.2-.44a.17.17,0,0,1,0-.05l.14.05s0,0,0,0l-.15.31.13-.05a.32.32,0,0,0,.22-.22c0-.08.08-.16.12-.24s0-.05.07,0l.13,0-.11.22h0l.37-.17.11.17-.36.17h0l.29,0,0,.15-.26,0-.23,0a.16.16,0,0,0-.12,0,1.06,1.06,0,0,0-.21.11l.44.06,0,.16-.35-.05-.3,0h-.06l-.42.19,0,0,.35.17a.14.14,0,0,0,.09,0l.65-.08,0,.15-.46.07.27.12h.07l.5-.06,0,.16-.3,0h0l.24.12c.12.05.12.05.05.15s0,.07-.13,0l-.28-.13h0l.1.23-.18.06c0-.1-.1-.2-.13-.29a.32.32,0,0,0-.22-.22l-.11-.05h0l.15.34-.18.06-.14-.3-.09-.21a.05.05,0,0,0,0,0l-.42-.2v.05c0,.1,0,.21,0,.31a.16.16,0,0,0,0,.09l.39.38,0,0-.15.09-.28-.28h0v.24s0,0,0,.05l.31.32-.12.08s0,0-.06,0a1.36,1.36,0,0,0-.17-.17v.31s0,0,0,0Z"/><path d="M32.63,36.24V36h0l-.15.15-.11-.07a0,0,0,0,1,0,0l.23-.24a.08.08,0,0,0,0-.05v-.19l-.24.24-.12-.08.14-.15.21-.2s0,0,0,0,0-.21,0-.32l-.1,0-.22.1a.12.12,0,0,0,0,0c-.06.12-.12.25-.17.37s0,0-.06,0-.12,0-.07-.11a1.67,1.67,0,0,0,.08-.2c-.09,0-.21.06-.25.17s-.08.16-.12.25,0,0-.05,0l-.07,0s0,0,0,0a.77.77,0,0,0,.07-.16l-.29.13-.1-.13.29-.14h0l-.23,0a.3.3,0,0,1,0-.1s0,0,0,0l.37,0a.15.15,0,0,0,.09,0l.18-.09-.36,0s0-.07,0-.1,0,0,0,0l.49.07a.14.14,0,0,0,.09,0l.28-.14h0l-.06,0-.18-.09a.33.33,0,0,0-.26,0l-.38,0h0l0-.12.36,0h0l-.1,0a.4.4,0,0,0-.24,0l-.32,0,0-.12.25,0,0,0-.22-.1s0,0,0,0l.05-.07s0,0,.07,0l.26.13,0-.07-.05-.1s0,0,0,0l.12,0a.54.54,0,0,1,.05.11,2,2,0,0,1,.1.21l.05,0,.19.08-.13-.28.15,0,.09.2a2,2,0,0,0,.1.21s0,0,0,0l.33.16a0,0,0,0,0,0,0v-.26a.09.09,0,0,0,0-.07l-.3-.29s0,0,0-.07l.08,0,.24.24a.53.53,0,0,1,0-.13.18.18,0,0,0-.07-.15l-.19-.2s0,0,0-.05l.1-.06.15.15h0v-.27h.19v.27h0l.15-.15.12.07-.16.17-.06,0a.18.18,0,0,0-.07.16s0,.08,0,.12l.24-.23.1.08s0,0,0,0l-.32.31,0,0v.32l.13-.06.17-.08a.19.19,0,0,0,.08-.07,3.73,3.73,0,0,1,.16-.35.05.05,0,0,1,0,0l.11,0s0,0,0,0-.07.17-.12.26l.11-.05a.25.25,0,0,0,.18-.18,1.51,1.51,0,0,1,.09-.18,0,0,0,0,1,.06,0l.11,0-.09.18h0l.29-.13.1.13-.3.14h0l.24,0,0,.13-.21,0-.19,0a.16.16,0,0,0-.1,0l-.17.09.36,0,0,.13-.28,0-.24,0h0l-.34.16,0,0,.29.13a.06.06,0,0,0,.06,0l.53-.06,0,.12-.38.05.22.11h0l.41-.05,0,.12-.23,0h0l.19.1c.1,0,.1,0,0,.12s0,.06-.11,0l-.22-.1h0l.08.19-.14,0a2.4,2.4,0,0,1-.11-.23.26.26,0,0,0-.18-.17l-.09,0h0l.12.28-.14,0a2.56,2.56,0,0,1-.11-.24s-.05-.11-.08-.17l0,0L32.83,35v0a2.09,2.09,0,0,0,0,.25.11.11,0,0,0,0,.07l.31.31v0l-.12.08-.23-.23h0v.19s0,0,0,0l.25.26-.1.07s0,0,0,0L32.82,36v.25s0,0,0,0Z"/><path d="M39.87,45.36l-.66-.07-.43-.09a6.42,6.42,0,0,1-2.57-1.12,6.51,6.51,0,0,1-1.49-1.62A4,4,0,0,1,34,40.14c0-.1,0-.21,0-.31l.09-.59a.41.41,0,0,0,0-.08,5.14,5.14,0,0,1,.9-1.87,5.24,5.24,0,0,1,1.7-1.41,6.72,6.72,0,0,1,3.5-.94,3.42,3.42,0,0,0,.44,0c.12,0,.14-.12,0-.19a.61.61,0,0,0-.16-.09,2.22,2.22,0,0,1-.83-.56.56.56,0,0,1-.14-.35c0-.18,0-.36,0-.54a.57.57,0,0,1,.18-.4c.1-.11.21-.21.32-.31a1.22,1.22,0,0,1,.75-.26h.36l.71.07.09,0a6.52,6.52,0,0,1,.63.18,1,1,0,0,1,.68.82,2.13,2.13,0,0,1,0,.5c-.06.47-.39.74-.94.86a4.61,4.61,0,0,0-.53.15s-.09.06-.13.09a.48.48,0,0,0,.14.09l1,.31A5.83,5.83,0,0,1,46.22,38a4.14,4.14,0,0,1,.57,2.18c0,.11,0,.23,0,.35l-.12.74,0,.1A3.69,3.69,0,0,1,46,42.69a6.86,6.86,0,0,1-2.39,2,5.19,5.19,0,0,1-1.75.6,9.62,9.62,0,0,1-1.52.06ZM46,40.7c0-.33,0-.65.06-1a4.2,4.2,0,0,0-.35-1.18,5.15,5.15,0,0,0-1.27-1.62,6.48,6.48,0,0,0-4.9-1.36A5.79,5.79,0,0,0,36.24,37a4.06,4.06,0,0,0-1.52,3.29,4.3,4.3,0,0,0,1.76,3.22,5.79,5.79,0,0,0,3.29,1.31,7.12,7.12,0,0,0,2.06-.11,5.93,5.93,0,0,0,2.53-1.23A5,5,0,0,0,45.63,42,4.05,4.05,0,0,0,46,40.7Zm-4.56-8h0l-.22,0a.64.64,0,0,0-.34,0,3,3,0,0,0-.3.19.55.55,0,0,0-.19.82.49.49,0,0,0,.41.23c.07,0,.14,0,.16-.08s-.06-.07-.1-.1a.76.76,0,0,1-.17-.13A.48.48,0,0,1,41,33a1.29,1.29,0,0,1,1,.08.32.32,0,0,1,.21.24.52.52,0,0,1-.16.48.17.17,0,0,1-.13.07c-.15,0-.2.07-.21.19s.06.16.2.11a1.46,1.46,0,0,0,.46-.25.59.59,0,0,0-.28-1C41.89,32.8,41.66,32.77,41.44,32.72Zm-.39.43c-.11.05-.19.27-.13.35A.38.38,0,0,0,41.05,33.15Zm.23.18a.28.28,0,0,0,0,.38A.62.62,0,0,0,41.28,33.33Zm.4.06h0l0,.28h0A.32.32,0,0,0,41.68,33.39Zm.25.23h0a.35.35,0,0,0,0-.28h0Z"/><path d="M37.41,37.08l.14.12c.15.13.3.27.46.39a2.08,2.08,0,0,0,.29.19c.12.06.21.13.22.25a.42.42,0,0,0,.1.17,6.94,6.94,0,0,0,.86.74,1.68,1.68,0,0,1,.58.67.38.38,0,0,0,.33.24.49.49,0,0,1,.39.31c0,.05,0,.1,0,.15a.46.46,0,0,0-.08.13,3.8,3.8,0,0,0-.11,1.38,3,3,0,0,1,0,.52c0,.23-.06.46-.09.7a.31.31,0,0,1,0,.08.12.12,0,0,1-.1-.14c0-.18,0-.37,0-.55s0-.28-.06-.42a1.22,1.22,0,0,1,0-.27,3.94,3.94,0,0,0,0-1,.77.77,0,0,0-.18-.39.25.25,0,0,1-.06-.25s0-.08,0-.11a2.43,2.43,0,0,0-.25-.2,2.49,2.49,0,0,1-.7-.71c-.15-.22-.3-.43-.47-.64a1.25,1.25,0,0,0-.31-.23.51.51,0,0,1-.21-.25,1.61,1.61,0,0,0-.25-.35l-.32-.4s0-.06,0-.09Z"/><path d="M45.34,38.63l-.06-.08a7.81,7.81,0,0,0-1.54-1.61,5.45,5.45,0,0,0-3.09-1.06,5.82,5.82,0,0,0-3.1.72,4.71,4.71,0,0,0-2.1,2.14c0,.09-.1.17-.14.26h0s0-.06,0-.09a6.22,6.22,0,0,1,.33-.69,5.37,5.37,0,0,1,4.79-2.44,5.59,5.59,0,0,1,3.8,1.34,5,5,0,0,1,1,1.23c0,.09.09.19.13.28Z"/><path d="M45,42.36a.39.39,0,0,1-.08.14,4.14,4.14,0,0,1-.35.38c-.29.25-.58.5-.88.74a4,4,0,0,1-1.49.69,7.32,7.32,0,0,1-2.15.25,5.64,5.64,0,0,1-1.88-.4,4.94,4.94,0,0,1-2.45-1.91,3.77,3.77,0,0,1-.64-1.8,4.36,4.36,0,0,1,0-.51,1.25,1.25,0,0,1,0-.19h0a.18.18,0,0,1,0,.09c0,.13,0,.27,0,.4a3.56,3.56,0,0,0,.4,1.54,4.47,4.47,0,0,0,1.29,1.57,5.1,5.1,0,0,0,1.93.89,6.75,6.75,0,0,0,3.4,0,4.26,4.26,0,0,0,1-.42,6.62,6.62,0,0,0,1.29-.95l.37-.38a1.49,1.49,0,0,1,.14-.12Z"/><path d="M41.19,36.12c.07,0,.09.06.08.1l-.12.73a.22.22,0,0,1,0,.11.13.13,0,0,1-.1.06.38.38,0,0,1-.42-.2c0-.11-.16-.12-.25,0a.71.71,0,0,1-.1.14s-.1.11-.18.08,0-.11,0-.16a.82.82,0,0,1,.12-.2.35.35,0,0,0,0-.42.77.77,0,0,1-.08-.19s0-.07,0-.1l.11,0,.11.13c.06.06.1.07.19,0l.19-.13.11,0a.27.27,0,0,1,0,.09.76.76,0,0,1-.11.16.35.35,0,0,0-.07.35.53.53,0,0,0,.08.17.34.34,0,0,0,.09.08s.07,0,.08-.08.08-.24.11-.36a2.47,2.47,0,0,0,.1-.29S41.18,36.15,41.19,36.12Z"/><path d="M37.21,38.59s-.05,0-.07-.06L37,38.28l-.06-.11a.26.26,0,0,0-.26-.13h-.4l-.11,0s0-.08.08-.09a1.54,1.54,0,0,1,.31,0c.19,0,.21,0,.13-.17a.28.28,0,0,1,0-.12s0-.06,0-.09a.42.42,0,0,1,.12,0l.16.15.07.1a.42.42,0,0,0,.37.15h.19a.6.6,0,0,1,.11.06s-.05.07-.09.09l-.17,0h-.09c-.1,0-.12,0-.09.13a1.72,1.72,0,0,1,.07.21.36.36,0,0,1,0,.1S37.24,38.57,37.21,38.59Z"/><path d="M36.27,39.5l.27.16.14.11a.07.07,0,0,1,0,.09.14.14,0,0,1-.11,0,.27.27,0,0,1-.15,0,.78.78,0,0,1-.18-.11.4.4,0,0,0-.34-.06l-.31.08h-.15c-.06,0-.08-.06,0-.09a.46.46,0,0,1,.15-.09l.13-.05c.09,0,.09-.06,0-.11l-.13-.12a.16.16,0,0,1-.06-.08c0-.06,0-.1.08-.08a.67.67,0,0,1,.21.09.51.51,0,0,0,.59,0,1.47,1.47,0,0,1,.3-.08c.05,0,.11,0,.13,0a.07.07,0,0,1-.06.11,2.62,2.62,0,0,1-.4.11Z"/><path d="M38.49,37.21v.17c0,.09,0,.16-.09.14s-.08-.08-.08-.14a.66.66,0,0,1,0-.14.32.32,0,0,0-.17-.33l-.25-.18s0-.07,0-.11a.71.71,0,0,1,.14,0,1.38,1.38,0,0,1,.17.08c.09,0,.12,0,.15,0a.66.66,0,0,1,0-.15.15.15,0,0,1,.08,0s0,0,.06,0a.34.34,0,0,1,0,.14.32.32,0,0,0,.17.33,1.88,1.88,0,0,1,.23.16.45.45,0,0,1,.11.13s0,0,0,.07H39l-.21-.09a.76.76,0,0,0-.16-.06S38.49,37.16,38.49,37.21Z"/><path d="M41.86,43l.1.06a4.4,4.4,0,0,1,.72.64s.09.07,0,.12a.15.15,0,0,1-.18,0l-.31-.22-.13-.11,0,0s0,.06,0,.09,0,.23.07.35a.11.11,0,0,1-.06.09c-.05,0-.1,0-.11-.06a1.09,1.09,0,0,1-.11-.27,4.43,4.43,0,0,1-.06-.51.55.55,0,0,1,0-.18Z"/><path d="M43.13,42.26l.12,0,.87.36.12.09s0,.08,0,.08a.78.78,0,0,1-.21,0l-.25-.12h-.11a.11.11,0,0,0,0,.08c0,.07.08.14.11.21a.6.6,0,0,1,.06.19.14.14,0,0,1-.06.08.11.11,0,0,1-.12,0,3.47,3.47,0,0,1-.49-.85.06.06,0,0,1,0,0A0,0,0,0,1,43.13,42.26Z"/><path d="M40.25,43.75,40.1,44a1.06,1.06,0,0,1-.17.2s-.07,0-.1,0a.14.14,0,0,1,0-.09,1.89,1.89,0,0,1,.09-.21c.06-.15.12-.31.19-.46a.64.64,0,0,1,.08-.14c0-.07.08-.07.13,0l0,.05a2.53,2.53,0,0,1,.25.73.29.29,0,0,1,0,.16.06.06,0,0,1-.11,0,.91.91,0,0,1-.11-.16c0-.1-.07-.21-.1-.31A.64.64,0,0,1,40.25,43.75Z"/><path d="M37.26,41.79l-.06.09-.74.68a.13.13,0,0,1-.1,0s-.09-.07,0-.12a1.51,1.51,0,0,1,.21-.23c.07-.07.15-.12.22-.2l-.24,0-.36,0-.07,0a.07.07,0,0,1,0-.07l.11,0a4,4,0,0,1,.92-.17Z"/><path d="M38.12,43.89a.18.18,0,0,1,0-.1c0-.14.09-.27.13-.4l0-.08-.07,0-.37.22-.1,0s-.07,0,0,0a.36.36,0,0,1,.07-.1,4.15,4.15,0,0,1,.73-.56l.06,0c.07,0,.1,0,.09,0a.79.79,0,0,1-.05.22l-.27.6a.57.57,0,0,1-.1.13l-.06.06Z"/><path d="M43.56,37.05l-.07.11-.57.57a.27.27,0,0,1-.13.07.17.17,0,0,1-.12,0s0-.07,0-.09a2.82,2.82,0,0,1,.71-.66.42.42,0,0,1,.12,0C43.56,37,43.57,37,43.56,37.05Z"/><path d="M41.35,36.91c.06-.18.13-.37.2-.55a.41.41,0,0,1,.07-.11l.08,0a.18.18,0,0,1,0,.07.17.17,0,0,1,0,.07,2.4,2.4,0,0,1-.23.79s-.05.12-.14.11,0-.1,0-.15a.47.47,0,0,1,0-.17Z"/><path d="M45.14,38.79a.27.27,0,0,1-.08.07c-.32.13-.64.27-1,.39a.13.13,0,0,1-.19-.11s0,0,.05-.06l.23-.08.77-.22h.17Z"/><path d="M38.15,42.6a1.09,1.09,0,0,1-.14.23,5.11,5.11,0,0,1-.45.48.42.42,0,0,1-.15.11h-.09v-.06s0,0,0-.08a4.21,4.21,0,0,1,.56-.64l.13-.09s.06,0,.07,0S38.14,42.57,38.15,42.6Z"/><path d="M45.22,41.14H45a4.35,4.35,0,0,1-.95-.13c-.05,0-.12,0-.11-.08s.08-.08.15-.07l.8.13.24.08.09,0Z"/><path d="M43.55,41.85l.13.06.74.49s.11.07,0,.11-.1,0-.14,0a4.12,4.12,0,0,1-.78-.49l-.07-.07s0,0,0-.06S43.52,41.86,43.55,41.85Z"/><path d="M43.77,38.86l.09-.08a3.18,3.18,0,0,1,.93-.37.92.92,0,0,1,.24,0A2.77,2.77,0,0,1,43.77,38.86Z"/><path d="M36.86,41a.55.55,0,0,0-.12,0l-.47.13c-.21.05-.42.08-.63.12,0,0-.1,0-.11,0s0-.06.07-.07a4,4,0,0,1,1-.26h.15Z"/><path d="M39.44,44.2a1.77,1.77,0,0,1,0-.23,5.86,5.86,0,0,1,.1-.58.24.24,0,0,1,.06-.11s.07-.05.09,0a.1.1,0,0,1,.06.07,2.35,2.35,0,0,1-.05.37c0,.14-.09.28-.14.42a.23.23,0,0,1-.07.1Z"/><path d="M44.07,40.58a2.5,2.5,0,0,1,1.33.14l-.11,0a3.84,3.84,0,0,1-1.12-.11Z"/><path d="M36.92,41.15l-.1.07a5.22,5.22,0,0,1-.9.27l-.24,0-.09,0s0-.05.06-.06l.34-.11c.26-.07.53-.12.79-.18h.13Z"/><path d="M37.79,42.38a.41.41,0,0,1,0,.1,2.36,2.36,0,0,1-.64.66l-.11,0s0-.08,0-.11a2.64,2.64,0,0,1,.68-.65S37.74,42.4,37.79,42.38Z"/><path d="M36.68,40.2a2.44,2.44,0,0,1-1.29-.14l.12,0a3.51,3.51,0,0,1,1,.12Z"/><path d="M45.42,40.32l-.13,0a4.08,4.08,0,0,1-1-.13s-.06,0-.1,0v0l.1,0a3.75,3.75,0,0,1,1.06.12l.11,0Z"/><path d="M35.79,41.77A3.57,3.57,0,0,1,37,41.39l0,0s0,.05-.07.06a3.65,3.65,0,0,1-1,.33.48.48,0,0,1-.12,0Z"/><path d="M38.9,36.24a.18.18,0,0,1,.07.08c.13.25.26.5.38.75,0,0,0,.1,0,.15s-.1-.06-.13-.1a2.2,2.2,0,0,1-.32-.76.49.49,0,0,1,0-.12Z"/><path d="M45.64,40.62l0-.83C45.82,39.89,45.77,40.46,45.64,40.62Z"/><path d="M45.28,41.86a1.17,1.17,0,0,1,.28-.67A1.36,1.36,0,0,1,45.28,41.86Z"/><path d="M45.51,39.08c.16.12.24.46.14.56A1.29,1.29,0,0,1,45.51,39.08Z"/><path d="M35.22,39.29c.06,0,.09.05.08.1s0,.07-.11.07-.1-.05-.09-.1S35.15,39.29,35.22,39.29Z"/></g></g></svg>