<svg xmlns="http://www.w3.org/2000/svg"x="0px" y="0px"
	 width="144px" height="144px" viewBox="0 0 144 144" enable-background="new 0 0 144 144" ><defs><style>.cls-1{fill:#231f20;}</style></defs><g id="Layer_2" data-name="Layer 2"><g id="Layer_1-2" data-name="Layer 1"><path class="cls-1" d="M143.93,71.31c-.45-8.24-.08-16.52-.08-24.78,0-11.31-.06-22.62,0-33.93,0-3.49-1.15-4.87-5.86-3.94a88.16,88.16,0,0,1-14.38,1.45A111.49,111.49,0,0,1,76.63,1a11.47,11.47,0,0,0-9.8.13c-19,7.84-39,11-60.16,7.74C.18,7.92.05,8,0,13.51c0,21-.07,42,0,63,.05,9.78,3.78,18.72,10.17,26.91,14.17,18.18,34.85,30.1,57.85,39.78,3.16,1.33,5.79.8,8.7-.43,17.11-7.26,32.91-15.95,46-27.62C136.73,102.77,144.86,88.56,143.93,71.31ZM120,113.1c-11.55,10.29-25.85,18.86-45,27a8.58,8.58,0,0,1-3.29.86,5,5,0,0,1-2-.44c-27-11.37-44.4-23.3-56.41-38.7C7.08,93.7,3.85,85.2,3.82,76.52c-.1-21.73-.07-43.92,0-63,0-.57,0-1.29,0-1.91L6,11.91a114.14,114.14,0,0,0,17.15,1.31A118.55,118.55,0,0,0,68.52,3.9,9.21,9.21,0,0,1,72,3.06a7.51,7.51,0,0,1,3,.7,117.06,117.06,0,0,0,45.56,9.46c1.1,0,2.21,0,3.31-.05a91.87,91.87,0,0,0,15.13-1.54,9.88,9.88,0,0,1,1.17-.17,9,9,0,0,1,.06,1.12c-.08,8.17-.06,16.48,0,24.51,0,3.15,0,6.3,0,9.44,0,2.56,0,5.12-.07,7.68-.08,5.64-.17,11.47.15,17.24C141,86.67,134.42,100.3,120,113.1Z"/><path class="cls-1" d="M136.43,71.58c-.32-5.83-.23-11.69-.15-17.41,0-2.55.07-5.09.07-7.63,0-3.15,0-6.3,0-9.44,0-7.16,0-14.54,0-21.9a108.7,108.7,0,0,1-12.45,1c-1.15,0-2.31.05-3.45.05a121.38,121.38,0,0,1-47.28-9.8A3.35,3.35,0,0,0,72,6.12a4.8,4.8,0,0,0-1.33.36h-.12v0l-.29.11a123,123,0,0,1-47.08,9.65,118.94,118.94,0,0,1-15.6-1c0,18.73-.07,40.26,0,61.27,0,8.09,3.06,16,9,23.65,11.63,14.92,28.58,26.52,55,37.62l.27.1a7,7,0,0,0,1.52-.51c18.74-8,32.71-16.32,44-26.33C130.94,98.86,137.21,86,136.43,71.58Zm-16-52.24c1.19,0,2.38,0,3.58-.05,3-.09,5.88-.27,8.54-.53,0,6.2,0,12.36,0,18.34,0,3.15,0,6.29,0,9.44,0,2.44,0,4.88-.07,7.33v.27c-.08,5-.13,10.16.06,15.31H73.19V9.9A125.35,125.35,0,0,0,120.47,19.34ZM11.28,18.76c4,.39,7.94.58,11.86.58A127,127,0,0,0,70.51,9.92V69.45H11.29C11.24,51.85,11.25,34.34,11.28,18.76Zm8.45,79.76c-5.55-7.11-8.38-14.52-8.41-22,0-1.62,0-3.24,0-4.86H70.51v62.25C46.32,123.41,30.57,112.43,19.73,98.52ZM114.5,109c-10.62,9.45-23.79,17.42-41.31,25V71.64h59.49v.08C133.42,85.24,127.47,97.43,114.5,109Z"/><path class="cls-1" d="M57.89,39.68h0S54.68,20.31,50.68,24a13.77,13.77,0,0,1-8.91,3.46l0,0c-.3,0-.59,0-.89,0s-.53,0-.79,0l0,0A13.77,13.77,0,0,1,31.23,24c-3.6-3.31-6.56,12-7.13,15.13a16.19,16.19,0,0,0-.9,5.32,16.64,16.64,0,0,0,5.2,12h0a18,18,0,0,0,2.75,2.15l3.48,2.71,6.27,4.86,6.27-4.86,3.47-2.71a16.83,16.83,0,0,0,8-14.19A16.39,16.39,0,0,0,57.89,39.68ZM39.73,36.55h2.35c.1,0,.16.07.11.13l-.59.77-.59.76a.14.14,0,0,1-.21,0l-.58-.76-.59-.77C39.58,36.62,39.64,36.55,39.73,36.55Zm4,19.19a10.68,10.68,0,0,0-5.24,0c-5.5,1.35-8-2.69-8-7,0-5,4.67-9.07,10.43-9.07s10.43,4.06,10.43,9.07C51.34,52.68,48.33,57.46,43.7,55.74Z"/><path class="cls-1" d="M22.21,19.55l.43-.2-.89,0c0,.14-.06.27-.07.42Z"/><path class="cls-1" d="M50.3,16.73l-.42-.37-1.57.33,1.64,0Z"/><path class="cls-1" d="M29.35,64.34a4.55,4.55,0,0,1-.46-.4c-.08-.09-.16-.25-.12-.34.26-.51.54-1,.83-1.52a.4.4,0,0,1,.3-.15,1.78,1.78,0,0,0,1.2-.33.89.89,0,0,1,.37-.14l1.58.07h0l.23,0,.76,0h0l6.35.38,8,.52,3.64.22,2,.16c.62,0,1.13.08,1.64.1a39,39,0,0,0,5.51.19,24.55,24.55,0,0,1,4.37-.09l.58.08a5.45,5.45,0,0,1-1.55,1.18.47.47,0,0,1-.53,0,2.6,2.6,0,0,0-1.85-.36,3,3,0,0,0-2.28,1.71,9.65,9.65,0,0,0-.57,1.64c-.08.22,0,.36.3.36.82,0,1.63,0,2.44,0a3.59,3.59,0,0,0,2.13-.82A1.31,1.31,0,0,0,64.56,65l-.18-.29,1.52-.95a.84.84,0,0,1,.33-.06,7.76,7.76,0,0,0,1-.09,9.06,9.06,0,0,1,3.16-.16.45.45,0,0,1,.16,0v-1.3a.71.71,0,0,0-.47-.14,1.32,1.32,0,0,1-.94,0,5.52,5.52,0,0,1-2.24-1.09c-.47-.37-.94-.74-1.37-1.15a6.59,6.59,0,0,1-1-1.17,2.26,2.26,0,0,0-.63-.72c-.1-.07-.12-.22-.17-.34s-.21-.51-.31-.77a1.16,1.16,0,0,1-.17-.48,4.52,4.52,0,0,1,.17-1A.66.66,0,0,1,63.7,55c.55-.28,1.15-.49,1.66-.8a3.74,3.74,0,0,0,1.9-2.85.67.67,0,0,1,.48-.61,3.33,3.33,0,0,0,.39-.21c-.25,0-.39,0-.52,0a13.84,13.84,0,0,1-1.79.21,3.51,3.51,0,0,0-2.91,2,12,12,0,0,0-.18,1.89c0,.58,0,1.17,0,1.75a.68.68,0,0,1-.07.23c-.07,0-.1,0-.11,0l-.14-.15a6.28,6.28,0,0,0-1.59-1.71,1.68,1.68,0,0,1-.44-.62c-.31-.58-.54-1.21-1.27-1.5a6.85,6.85,0,0,0-2.1-.62c-1.24-.06-2.5,0-3.75.09l0,.29a9.53,9.53,0,0,1,3.23,1.22,5,5,0,0,0,2.71.87,1.91,1.91,0,0,1,1.58.59l.19.16a5.25,5.25,0,0,1,1.13,1.78c-.51-.19-1-.25-1.19-.69a1.62,1.62,0,0,0-.65-.55,3.53,3.53,0,0,0-3.45,0A15.89,15.89,0,0,1,54,56.75l.07.44c.77.26,1.55.5,2.29.81a4.93,4.93,0,0,0,3.86,0,1.58,1.58,0,0,0,.66-.56c.31-.47.29-.48.93-.33a.89.89,0,0,1,.62.41.81.81,0,0,0,.38.35c.43.21.61.48.47.89-.06.19,0,.35.31.35a1.05,1.05,0,0,1,.74.38c.75.71,1.53,1.41,2.3,2.11l.39.32c-1,0-1.85.1-2.73.1s-2-.07-3-.09c-.4,0-.81.06-1.21,0-2.07-.11-4.12-.25-6.19-.36l-.2,0-6.57-.42-.75,0h0l-3.72-.23c-.64,0-1.28-.08-1.88-.12l-7.19-.46H33.4l-.78-.05h0a21.28,21.28,0,0,1-3.55-.45,2.58,2.58,0,0,0-2.08.47l.46.22A10.86,10.86,0,0,1,26,60.33c-.42-.06-.83-.12-1.24-.2a15.72,15.72,0,0,1-3-1.24l-.14-.11L20.94,58a.15.15,0,0,1,0-.14,10.22,10.22,0,0,1,.65-1c.12-.16.32-.18.53,0a5,5,0,0,0,4.49.81,7.23,7.23,0,0,1,1.16-.12l.57-.07v-.11l-.38-.2a11.85,11.85,0,0,0-4.46-.93c-1.63,0-2.41.39-2.83,1.68,0,.13-.1.26-.19.47a25.49,25.49,0,0,0-2.34-1.41,3.42,3.42,0,0,1-1.8-2,.48.48,0,0,1,.24-.72c.1-.05.19-.12.28-.17a2.42,2.42,0,0,0,1.24-2.83,4.7,4.7,0,0,0-1.57-2.41,3,3,0,0,1-.44-.72l-.27-.4-.12.45a21.51,21.51,0,0,1-.76,2.22A3.78,3.78,0,0,0,14.59,52a1.71,1.71,0,0,0,.53,1.18,2.78,2.78,0,0,1,.8,1.38,5.09,5.09,0,0,0,.36.88,3.74,3.74,0,0,1,.22.51c0,.08-.1.25-.17.25a.88.88,0,0,1-.86-.29A3,3,0,0,0,12,54.85c-.25.07-.5.12-.76.18,0,.84,0,1.69,0,2.53a5.25,5.25,0,0,0,1.83.14,2.72,2.72,0,0,0,2.41-1.17c.15-.28.44-.19.68-.08a6.12,6.12,0,0,1,.95.5,14.4,14.4,0,0,1,2.52,1.69,2.08,2.08,0,0,0,.63.38c.86.39,1.73.77,2.61,1.13.54.22,1.1.41,1.65.61l.36.1c-.74,0-1.39,0-2,0s-.54-.05-.52.34l-3.33,1-1.27.36a7.43,7.43,0,0,0-1.55.52,3.15,3.15,0,0,1-2.13.31,1.6,1.6,0,0,0-1,.15,1,1,0,0,1-.7-.07c-.18-.08-.4-.29-.38-.42a2.16,2.16,0,0,0-.68-1.84c0,.8,0,1.59,0,2.39h.25a1.6,1.6,0,0,1,1.35.58l-.12.08-1.48.94c0,.41,0,.82,0,1.23.43-.27.84-.58,1.27-.86a1.89,1.89,0,0,1,.38-.12,6.49,6.49,0,0,1,.18.77,2.55,2.55,0,0,1,0,.73,1.89,1.89,0,0,0,1.23,2,10,10,0,0,1,1.34.58h.83s0,0-.06-.06a.94.94,0,0,1-.47-.86,4.5,4.5,0,0,0-.28-1.45,2.22,2.22,0,0,0-1.82-1.24c-.19,0-.44,0-.49-.23s0-.47.25-.6a26.55,26.55,0,0,1,2.43-1.1c1.17-.42,2.38-.75,3.57-1.11a3.9,3.9,0,0,1,.57-.13l2.22-.3c2.13-.34,4.25-.69,6.38-1a6.5,6.5,0,0,1,.73-.06c-.17.29-.29.51-.44.72a4,4,0,0,0-.86,3.14.74.74,0,0,1-.17.54,1.9,1.9,0,0,0-.29,2.09c.15.36.34.7.48,1.06l.24.61h1.14c.23-.83.46-1.66.65-2.49A2.54,2.54,0,0,0,29.35,64.34Z"/><path class="cls-1" d="M42.33,18.75c-.06.09-.13.18-.19.28.14.11.25.27.42.31a7,7,0,0,0,3.49.16,1.83,1.83,0,0,0,1.46-1.15A11.07,11.07,0,0,0,47.8,17a6.18,6.18,0,0,1,2.3,0c-.33.42-1.06.4-1.14,1a6,6,0,0,0,.61.07c.89,0,1.67-.4,2.59-.39a17,17,0,0,0,2.44-.31,3,3,0,0,1,.41,0,7.8,7.8,0,0,1-.3.75,3,3,0,0,1-.45.63,1.68,1.68,0,0,0-.1,2.21,9.32,9.32,0,0,1,1.25,1.67,3.31,3.31,0,0,0,.26.27l.12,0a1.79,1.79,0,0,0-.09-.62.85.85,0,0,1,.1-.94A4.73,4.73,0,0,0,56.42,20a1.7,1.7,0,0,0-.85-1.8c-.15-.11-.4-.16-.29-.39a.61.61,0,0,1,.57-.43c.93,0,1.86-.07,2.78,0,1.27.1,2.53.29,3.78.44a5.4,5.4,0,0,1,.58.11c.71.2,1.41.43,2.12.62L70.53,20V18.8a8.91,8.91,0,0,1-1.09-.64q-.5-.32-1-.66a11.41,11.41,0,0,1-1.87-2.26.3.3,0,0,1,0-.15q-.09-.5-.15-1a.14.14,0,0,1,.06-.14,12.64,12.64,0,0,1,1.2-.66.33.33,0,0,1,.47.2,3.69,3.69,0,0,0,2.39,2.21V14c-.26-.16-.53-.3-.81-.44a2.79,2.79,0,0,0-3.48.35c-.11.1-.24.18-.45.34a19.06,19.06,0,0,0-1.14-2.06l-.6.19a5.92,5.92,0,0,1,.86,1.86,1.55,1.55,0,0,0,.33.58c.52.68,1.06,1.35,1.61,2,.34.4.71.79,1.07,1.18l.26.24c-.64-.3-1.23-.52-1.77-.82s-.44-.26-.65.09L62.26,17c-.44-.06-.88-.13-1.32-.18a7.86,7.86,0,0,0-1.66-.17,3,3,0,0,1-2.05-.57,1.54,1.54,0,0,0-1-.28.85.85,0,0,1-.57-.34c-.11-.14-.17-.41-.08-.52h0l-.89.23.2.08a1.24,1.24,0,0,1,.83,1l-.15,0c-1,.13-1.94.27-2.92.37a2.08,2.08,0,0,1-.86-.11c-.35-.12-.68-.3-1-.44l-.88.21.42.37H50l-1.64,0q-2.54.54-5.07,1c-.18.24-.35.47-.54.7S42.46,18.61,42.33,18.75Z"/><path class="cls-1" d="M68.53,23.28a1.06,1.06,0,0,1-.47.41,2.36,2.36,0,0,0-1.5,1.71c-.07.37-.11.75-.2,1.11A3.08,3.08,0,0,1,65,28.8a.61.61,0,0,0-.13.15c.24.27.3.29.49.15a11.59,11.59,0,0,0,1-.78c.95-.87,1.9-1.75,2.82-2.65A2.47,2.47,0,0,0,70,23a3.24,3.24,0,0,1-.16-.53.37.37,0,0,1,.1-.34l.62-.38v-.52A4.84,4.84,0,0,0,68.53,23.28Z"/><path class="cls-1" d="M70.53,18.75v-.3l-.2,0Z"/><path class="cls-1" d="M12.77,25.39a.62.62,0,0,1,.23-.12c.52-.19,1-.38,1.55-.55a1.5,1.5,0,0,1,1.72.36c.41-.23,0-.53.12-.82a2.71,2.71,0,0,1,.58.12,3.86,3.86,0,0,1,1.51,1.06c.39.43.36.69-.05,1.12A2.09,2.09,0,0,0,17.82,29c.23.49.56.94.83,1.42a3.83,3.83,0,0,1,.79,1.86c0,.07.11.13.22.27a5.09,5.09,0,0,0,1-3.87,6.49,6.49,0,0,0-4.87-4.92c.58-.32,1.11-.59,1.6-.89a1.87,1.87,0,0,1,1.36-.3c.17,0,.47,0,.53-.1.17-.28.45-.33.78-.41a6.35,6.35,0,0,1,2.6-.13c.65.1,1.3.19,1.94.33a8.5,8.5,0,0,1,1.65.5,2.89,2.89,0,0,0,1,.3,1.2,1.2,0,0,1,.38.21l.79.49a1.79,1.79,0,0,1,.46.32,4.55,4.55,0,0,1,.52.87.5.5,0,0,1-.05.41c-.26.48-.61.93-.82,1.42A3.26,3.26,0,0,0,28.89,30a.55.55,0,0,1,0,.72,2.61,2.61,0,0,0-.18.35,3.15,3.15,0,0,0,.45-.22,10.77,10.77,0,0,1,1.34-1,2.64,2.64,0,0,0,1-3,16.67,16.67,0,0,0-1.15-1.64c-.39-.5-.83-1-1.24-1.45a.81.81,0,0,1-.1-.21c.07,0,.1,0,.12,0a1.41,1.41,0,0,1,.22.06,8.35,8.35,0,0,0,2.49.68,2.63,2.63,0,0,1,.8.32,3.53,3.53,0,0,0,2.08.66,6.81,6.81,0,0,0,2.16-.45,32.83,32.83,0,0,0,3-1.8l-.23-.21a10.09,10.09,0,0,1-3.52.46,5.12,5.12,0,0,0-2.83.53,2.06,2.06,0,0,1-1.72.23c-.08,0-.18,0-.27-.05a7,7,0,0,1-2.16-.95c.56-.08,1-.24,1.47,0a2.2,2.2,0,0,0,.91.16,3.06,3.06,0,0,0,2.87-1.57,10.94,10.94,0,0,1,1.64-2.23l-.36-.33c-.81.14-1.63.3-2.45.39a4.15,4.15,0,0,0-3.18,1.78,1.23,1.23,0,0,0-.16.77c.07.53.1.53-.54.7a1,1,0,0,1-.79-.06,1.2,1.2,0,0,0-.56-.11c-.5,0-.84-.12-1-.52a.32.32,0,0,0-.5-.15,1.24,1.24,0,0,1-.87,0c-1.11-.25-2.24-.47-3.36-.7l-.54-.09c.78-.47,1.46-.92,2.19-1.32l1-.52-1.85,0h-.53l-.43.2-.53.2c0-.15.05-.28.07-.42H21.3l-.05,0a5.69,5.69,0,0,0-.73.53A7.71,7.71,0,0,1,18,21.47c-.08,0-.21.08-.25.05-.46-.24-.66.08-.91.27a7.16,7.16,0,0,1-.9.66c-.85.43-1.72.84-2.6,1.22-.68.3-1.36.6-2.06.85v1.31C11.83,25.79,12.43,25.91,12.77,25.39Z"/><path d="M109.13,44.58c.88,1.26,1.61,2.42,2.46,3.51,2.66,3.42,5.09,6.91,5.17,11.17a8.56,8.56,0,0,1-6.37-.59c-2.52-1.27-7.43-.66-9.23,1.26-1.56,1.66-3.53,1.83-5.7,1.46-6.77-1.15-10.77-6.64-8.35-12.09a113.59,113.59,0,0,0,5.83-16.06c1.16-4.24,4.17-7.3,9.82-8.23L102,23.27c1.86-.36,3.57-.78,5.3-.94.39,0,.9.86,1.36,1.33a42,42,0,0,1,5.35.05c2.21.28,3.26,1.83,2,3.36-1.84,2.33-.71,4.73-.9,7.08-.09,1.1-.63,2.49,1.12,3.26.11,0,.1.32.07.48-.2,1.15-.37,2.31-.67,3.45C114.94,44.12,114.23,44.48,109.13,44.58Zm2,4.14-.34.48c-1.11-.06-2.23-.1-3.33-.2a25.52,25.52,0,0,0-3.11-.35c-1.62,0-3.24.31-4.86.4-2.7.15-4.7-1.3-5-3.52a13.08,13.08,0,0,1,0-1.4c-.95,2.38.18,4.14,2.33,5.26L96.29,55c1.81-1.94,3.23-3.55,4.79-5.06a2.2,2.2,0,0,1,1.73-.28c2.94,2.32,6.18,4.48,8.49,7.17,1.4,1.65,2.48,2.22,4.82,1.71A16.76,16.76,0,0,0,111.08,48.72Zm-10.7-13.54,6.9-12-4.43.5,1.26,1.41C100.9,29.24,99.65,32.69,100.38,35.18Zm5.72-2.32c4.51-.93,8-3.76,8.05-6.45C113,29.66,109.17,30.67,106.1,32.86Z"/><path class="cls-1" d="M119,34.53a.47.47,0,0,0-.24.32,2.11,2.11,0,0,0,1,1.72,4.26,4.26,0,0,0,1.09.15,1.26,1.26,0,0,0,.77-.45c.24-.32-.12-1.19-.5-1.45A2.65,2.65,0,0,0,119,34.53Z"/><path class="cls-1" d="M122.25,36.75a11.42,11.42,0,0,0,.43-1.33c.12-.58-.49-.8-1-1.21A3.43,3.43,0,0,0,122.25,36.75Z"/><path class="cls-1" d="M123.38,32.16a1.89,1.89,0,0,0-1.59.56l3.61,1C124.8,33,124.36,32.35,123.38,32.16Z"/><path class="cls-1" d="M126,32.14a1.33,1.33,0,0,0,.18,2.09c0-1.07.92-1.66,1.64-2.36A1.61,1.61,0,0,0,126,32.14Z"/><path class="cls-1" d="M124.47,33.9c-.67,0-.92.43-1.14,1l2.42-.14A1.32,1.32,0,0,0,124.47,33.9Z"/><path class="cls-1" d="M116.59,64.32a1.78,1.78,0,0,0,.53.66c.77.6,1.56,1.18,2.35,1.75A1.08,1.08,0,0,0,120,67c.91.06,1.82.1,2.72.12a2.79,2.79,0,0,0,.69-.17,2.94,2.94,0,0,0-2.25-1.6,2.45,2.45,0,0,1-1.66-1.25c-.64-1.17-1.78-2.21-.88-3.74h0a1.88,1.88,0,0,0-1.4,1.28,10.33,10.33,0,0,1-.55,1.53,1.91,1.91,0,0,0-.18.56,1.92,1.92,0,0,1,.56.16Z"/><path class="cls-1" d="M114.68,56.5c.82.87,1.6,1.72,2.43,2.54a8.24,8.24,0,0,0,1,.75l.3-.17c-.13-.52-.26-1-.39-1.59.12.09.25.18.36.28l.36.29c.6-.59.62-1,.11-1.51A4.13,4.13,0,0,0,114.68,56.5Z"/><path class="cls-1" d="M114.48,65.15l.22-.18.23-.17-.25,1,.19.1a4.6,4.6,0,0,0,.66-.47c.36-.36.71-.74,1.06-1.11a1.27,1.27,0,0,1-.1-.64,2.51,2.51,0,0,0-2.09.53C114.08,64.53,114.1,64.79,114.48,65.15Z"/><path class="cls-1" d="M119.93,60.84a1.79,1.79,0,0,0,.22,2.71c0-1.52,1.62-2,2.75-2.78A2.83,2.83,0,0,0,119.93,60.84Z"/><path class="cls-1" d="M118.62,60.31a1.3,1.3,0,0,0,.08.37c0,.11-.07.25,0,.37,0,.32.08.65.13,1l.28,0c.08-.31.13-.64.24-1,.34-1,.72-1.22,2-1.31a1,1,0,0,0,.66-.4,2.39,2.39,0,0,1,2.42-1c.84.09,1.67.22,2.51.33-.91-1.44-2.34-1.79-3.57-.87-.36-.12-.71-.25-1.07-.34a2.18,2.18,0,0,0-2.36.58c-.55.7-1.35,1.34-1.29,2.25h0Z"/><path class="cls-1" d="M127.81,35c-1.35.41-2.07,2.13-1.28,3.12a1.39,1.39,0,0,0,1.31.59c-1.08-1.8.25-2.59,1.91-3.23A1.66,1.66,0,0,0,127.81,35Z"/><path class="cls-1" d="M130.79,39.6A12.36,12.36,0,0,0,132.44,38a.32.32,0,0,0,0-.38.66.66,0,0,0-.47,0l-4.29,1.23A2.18,2.18,0,0,0,130.79,39.6Z"/><path class="cls-1" d="M131.5,48.28l.16-.14.18-.13c-.07.26-.13.51-.19.76l.14.07a3,3,0,0,0,.5-.35l.29-.3c0-.35,0-.7,0-1a1.79,1.79,0,0,0-1.15.42C131.2,47.8,131.21,48,131.5,48.28Z"/><path class="cls-1" d="M132.52,55.22a1.36,1.36,0,0,0-.24.31,2,2,0,0,0,.21,1.82Z"/><path class="cls-1" d="M130.59,36.7a1.64,1.64,0,0,0-1.53-.14,1.27,1.27,0,0,0-.76,1.19c0,.29.21.41.58.34.59-.12,1.17-.23,1.76-.33s.66-.28.37-.64A4.1,4.1,0,0,0,130.59,36.7Z"/><path class="cls-1" d="M124.05,37.1c-.34.36-.54.72.06,1.09.19.11.2.42.31.63.45.79,1,1,2,.73a1.9,1.9,0,0,0,.37,1.74,1.22,1.22,0,0,0,1.5.47c.31-.06.63-.12,1-.16,1.3-.15,1.88-.65,2-1.82l-1,.41a2,2,0,0,1-1.94-.14,22.22,22.22,0,0,1-2-1.63,1.66,1.66,0,0,1-.44-1.81c.07-.26.17-.51.32-.91a5,5,0,0,0-1.1.44A7.55,7.55,0,0,0,124.05,37.1Z"/><path class="cls-1" d="M132.21,58.37a4.61,4.61,0,0,0-1.06-3.31c-.32.72-.89,1.27-.35,1.92C131.21,57.47,131.73,57.9,132.21,58.37Z"/><path class="cls-1" d="M131.06,53.51l1.48-.16V53a1.41,1.41,0,0,0-1.7-.58l.54.25-1.56-.17C129.79,53.27,130.24,53.6,131.06,53.51Z"/><path class="cls-1" d="M123.22,37.12a1.43,1.43,0,0,0,.68-.13l-1.36-.3C122.57,37,122.92,37.08,123.22,37.12Z"/><path class="cls-1" d="M125.8,57.13a1.88,1.88,0,0,0-1.22-2.6,2.09,2.09,0,0,0-2.36.5C123.56,55.54,125.12,55.81,125.8,57.13Z"/><path class="cls-1" d="M111,65.26c-1.2-.07-2.48,1-2.31,2a1,1,0,0,0,.74.83c-.05-1.67,1.29-1.89,2.82-1.9C112.19,65.64,111.74,65.31,111,65.26Z"/><path class="cls-1" d="M104.54,62.41a.53.53,0,0,0-.33.17,1.59,1.59,0,0,0,0,1.58,2.71,2.71,0,0,0,.76.42,1.2,1.2,0,0,0,.77-.11,1.13,1.13,0,0,0,.24-1.24A1.88,1.88,0,0,0,104.54,62.41Z"/><path class="cls-1" d="M106,65a12.31,12.31,0,0,0,.89-.87c.34-.41,0-.75-.22-1.21A2.92,2.92,0,0,0,106,65Z"/><path class="cls-1" d="M107.27,69.22a5.09,5.09,0,0,0,.34-.66,1.33,1.33,0,0,0-1.28-.07,1.2,1.2,0,0,0-.82,1.05h.79l.6-.11A.65.65,0,0,0,107.27,69.22Z"/><path class="cls-1" d="M103,63.79a1.75,1.75,0,0,0-1.47-.52c1.22.81.85,1.82.87,2.79a1.49,1.49,0,0,1-.65,1.29,1.75,1.75,0,0,0-.93,1.68,2,2,0,0,0,.54-.07c.62-.24,1.22-.51,1.82-.78a.71.71,0,0,0,.28-.29c.32-.6.63-1.2.93-1.81a1,1,0,0,0-.42-1.39A9.23,9.23,0,0,1,103,63.79Z"/><path class="cls-1" d="M106.61,65.57a1.27,1.27,0,0,0,.58.09l-.9-.61C106.16,65.32,106.4,65.45,106.61,65.57Z"/><path class="cls-1" d="M97.05,63.69c-1.36.41-2.08,2.13-1.29,3.12a1.41,1.41,0,0,0,1.32.6c-1.09-1.8.24-2.59,1.9-3.23A1.63,1.63,0,0,0,97.05,63.69Z"/><path class="cls-1" d="M100,68.32a12.4,12.4,0,0,0,1.65-1.59.34.34,0,0,0,0-.37.62.62,0,0,0-.47,0c-1.42.39-2.83.81-4.29,1.23A2.18,2.18,0,0,0,100,68.32Z"/><path class="cls-1" d="M98.3,65.28a1.29,1.29,0,0,0-.77,1.19c0,.28.21.41.59.33.58-.11,1.17-.23,1.76-.32s.65-.28.36-.65a5.47,5.47,0,0,0-.42-.42A1.61,1.61,0,0,0,98.3,65.28Z"/><path class="cls-1" d="M101.77,65.89a1.45,1.45,0,0,0-.91-1.91,2,2,0,0,0-2.06.72C99.88,64.94,101.14,64.86,101.77,65.89Z"/><path class="cls-1" d="M113.62,68.26a1.12,1.12,0,0,0,.14-1.7,1.78,1.78,0,0,0-1.87,0C112.6,67,113.59,67.31,113.62,68.26Z"/><path class="cls-1" d="M128,61.93c.27-1.54-1.77-3.28-3.68-3.16-1.17.08-1.89.6-2,1.46,2.43,0,4.57.36,4.49,3A1.49,1.49,0,0,0,128,61.93Z"/><path class="cls-1" d="M121.94,62.8c-.1.56.2.75.88.61s1.56-.29,2.34-.42c.5-.07.66-.32.47-.66a2.13,2.13,0,0,0-1.73-1.09,1.91,1.91,0,0,0-1.74.86A5.43,5.43,0,0,0,121.94,62.8Z"/><path class="cls-1" d="M113.19,68.88c.1,0,.21-.2.18-.28s-.21-.16-.33-.17c-1.24-.11-2.48-.2-3.76-.29a1.43,1.43,0,0,0,1.06,1.4h1.12A17.13,17.13,0,0,0,113.19,68.88Z"/><path class="cls-1" d="M120.84,64.53a20.46,20.46,0,0,0,3.06,1.15,2.48,2.48,0,0,0,3.17-2.33l-6,.46a.74.74,0,0,0-.53.28C120.5,64.21,120.68,64.46,120.84,64.53Z"/><path class="cls-1" d="M106.83,66.63c.09.14,0,.37,0,.56,0,.73.29,1,1.21,1.13a1.7,1.7,0,0,0-.47,1.22h2a.88.88,0,0,1-.25-.29,14.16,14.16,0,0,1-.85-1.81,1.41,1.41,0,0,1,.45-1.49c.16-.18.35-.34.63-.6a4.73,4.73,0,0,0-1,0,7.35,7.35,0,0,0-1.22.43C106.84,66,106.54,66.18,106.83,66.63Z"/><path class="cls-1" d="M107.42,61.84l2.3,1.78c-.16-.68-.2-1.33-.86-1.75A1.73,1.73,0,0,0,107.42,61.84Z"/><path class="cls-1" d="M108.94,63.49a1.27,1.27,0,0,0-1.28.42l1.89.58A.89.89,0,0,0,108.94,63.49Z"/><path class="cls-1" d="M130.92,52.25a.6.6,0,0,0,.25-.1c.38-.28.75-.55,1.12-.84a.85.85,0,0,0,.27-.35V50.6a.58.58,0,0,0-.06-.17,5.73,5.73,0,0,1-.26-.73.91.91,0,0,0-.67-.61c.43.73-.11,1.23-.41,1.78a1.17,1.17,0,0,1-.79.6,1.36,1.36,0,0,0-1.07.76,1.5,1.5,0,0,0,.32.08C130.06,52.3,130.49,52.28,130.92,52.25Z"/><path class="cls-1" d="M111.26,66.81a1.38,1.38,0,0,0-1.08.68c-.12.22,0,.37.29.42.49.08,1,.16,1.47.26s.62,0,.55-.38a2.7,2.7,0,0,0-.13-.44A1.23,1.23,0,0,0,111.26,66.81Z"/><path class="cls-1" d="M132.58,34.78h0v.29h0Z"/><path class="cls-1" d="M132.58,31.43V31a2.46,2.46,0,0,0-1.71,1.39c-.15.48,0,.76.67,1l.12-.29.15-.28c.12.41.23.8.35,1.19l.27,0c0-.09.1-.17.15-.26V31.43Z"/><path class="cls-1" d="M132.59,36.25v-.52h0v.52Z"/><path class="cls-1" d="M132.58,33.82h0v.75h0Z"/><path class="cls-1" d="M100.1,61.14c-.15.48,0,.76.67,1,0-.1.08-.19.13-.29l.14-.29c.12.42.24.81.35,1.2l.27,0a4.62,4.62,0,0,0,.43-.78c.25-.78.45-1.56.68-2.37A2.72,2.72,0,0,0,100.1,61.14Z"/><path class="cls-1" d="M132.59,41.66V40.05h0v1.61Z"/><path class="cls-1" d="M131.62,40.5c-.05.12-.18.29-.12.37a10.14,10.14,0,0,0,1.09,1.27v-.48c-.2-.29-.32-.62-.52-.91C132,40.63,131.77,40.58,131.62,40.5Z"/><path class="cls-1" d="M131.63,35.26a2,2,0,0,0-2.06.72c1.08.24,2.34.16,3,1.19a.75.75,0,0,0,.06-.13v-.79A1.7,1.7,0,0,0,131.63,35.26Z"/><path class="cls-1" d="M130.56,33.35a1.73,1.73,0,0,0-1.85.21c-.21.16-.4.34-.6.51a1.53,1.53,0,0,0-2.1,1.52c.53-.29,1-.6,1.59-.87a2,2,0,0,1,2,0,.88.88,0,0,0,.61.11c.93-.28,1.27-.23,1.9.37.16.16.3.33.45.5v-.66c0-.09-.15-.16-.17-.24C132.22,34,131.29,33.73,130.56,33.35Z"/><path class="cls-1" d="M132.59,38.57h0V37h0v1.53Z"/><path class="cls-1" d="M132.58,30.88V31h0Z"/><path class="cls-1" d="M95.4,68.69a1.49,1.49,0,0,0-1.44.45,1.28,1.28,0,0,0-.27.4h1.74A6.2,6.2,0,0,0,95.4,68.69Z"/><path class="cls-1" d="M74.23,59.72a1.49,1.49,0,0,0-1,.31v.88l2.59.07A1.68,1.68,0,0,0,74.23,59.72Z"/><path class="cls-1" d="M128.06,67.63a6.37,6.37,0,0,1,.78.78,5.11,5.11,0,0,1,.43.84l-.18.08c-.62-1.56-2.19-1.43-3.92-1.41a7,7,0,0,1,2.17,1.62h3.12l0-.18C130.55,68.29,129.51,67.51,128.06,67.63Z"/><path class="cls-1" d="M130.29,59.62a12.72,12.72,0,0,0-1.94-.68,8.34,8.34,0,0,0-1.62,0c.45.42.75.67,1,1a2.22,2.22,0,0,1,.7,2.38,22.1,22.1,0,0,1-1.35,2.88,2.31,2.31,0,0,1-2.23,1c-.45,0-.9,0-1.46,0a3.08,3.08,0,0,0,3.69,1.26c.41-.1.84-.17,1.26-.23,1-.16,1.33-.42,1.48-1.25a2.6,2.6,0,0,0-.75-2.26c1.47-.19,1.94-.65,1.94-1.8,0-.31-.21-.68-.06-.91C131.43,60.23,131,59.89,130.29,59.62Z"/><path class="cls-1" d="M112.32,62.92a1.31,1.31,0,0,0-1.48-.32,1.18,1.18,0,0,0-.77,1.63C110.5,63.41,111.48,63.24,112.32,62.92Z"/><path class="cls-1" d="M114,68.58a1.53,1.53,0,0,1-1,.78,4.9,4.9,0,0,0-.46.18H115l.5-.38a.85.85,0,0,0,.29-1.16,5.62,5.62,0,0,1-.35-1,1.2,1.2,0,0,0-.88-.8h0C115.14,67.19,114.43,67.85,114,68.58Z"/><path class="cls-1" d="M132.31,34.56a1.52,1.52,0,0,1,.27.22v-.21A1.2,1.2,0,0,0,132.31,34.56Z"/><path class="cls-1" d="M109.38,65.21c.52-.07,1-.15,1.57-.2a1.49,1.49,0,0,1,1.52.6.59.59,0,0,0,.41.25c.82.06,1.06.2,1.27.83a5.87,5.87,0,0,1,.16.6h.17c0-.2.06-.4.08-.61s0-.16,0-.23a1,1,0,0,0,0-.23h0c0-.57-.47-1-.81-1.41a1.37,1.37,0,0,0-1.48-.37c-.23.06-.45.14-.67.21A1.47,1.47,0,0,0,109.38,65.21Z"/><path class="cls-1" d="M125.55,48.59a.87.87,0,0,0,.43.08l-.68-.47C125.2,48.4,125.38,48.51,125.55,48.59Z"/><path class="cls-1" d="M129.87,46.59a1,1,0,0,0-1.13-.24.89.89,0,0,0-.58,1.23C128.49,47,129.23,46.83,129.87,46.59Z"/><path class="cls-1" d="M126.16,45.77l1.74,1.35c-.13-.52-.15-1-.65-1.32A1.28,1.28,0,0,0,126.16,45.77Z"/><path class="cls-1" d="M124.72,40.42a1.24,1.24,0,0,0-.17,1.65c.46-.28.93-.56,1.38-.85a.6.6,0,0,0,.26-.39,5.08,5.08,0,0,0,0-.86A1.49,1.49,0,0,0,124.72,40.42Z"/><path class="cls-1" d="M127.31,47a1,1,0,0,0-1,.31l1.43.45A.67.67,0,0,0,127.31,47Z"/><path class="cls-1" d="M126,51.36a3.36,3.36,0,0,0,.26-.5,1,1,0,0,0-1,0,.88.88,0,0,0-.63.9l1.06-.19A.49.49,0,0,0,126,51.36Z"/><path class="cls-1" d="M127,52.35c.2,0,.4.06.6.11a1.46,1.46,0,0,0,1.75-.6l-.69,0a1.09,1.09,0,0,1-1.06-.5,10.62,10.62,0,0,1-.64-1.37,1,1,0,0,1,.33-1.13l.48-.45a3.81,3.81,0,0,0-.77,0,5.93,5.93,0,0,0-.92.33c-.31.13-.54.29-.32.63.07.1,0,.28,0,.42,0,.55.23.77.93.86a1.19,1.19,0,0,0-.36,1.07C126.32,52.15,126.46,52.27,127,52.35Z"/><path class="cls-1" d="M123.73,46.33a1.22,1.22,0,0,0,0,1.2,2.3,2.3,0,0,0,.57.32,1,1,0,0,0,.59-.09.85.85,0,0,0,.18-.94A1.42,1.42,0,0,0,124,46.2.38.38,0,0,0,123.73,46.33Z"/><path class="cls-1" d="M128.46,52.71c-.82,0-1.57-.07-1.86.67l-.09,0a3,3,0,0,1,.21-.4,2.58,2.58,0,0,1,.37-.37c-.69,0-1.19.32-1.16.83a1.34,1.34,0,0,0,.86,1.11,2.48,2.48,0,0,1,.47-.75A2.86,2.86,0,0,1,128.46,52.71Z"/><path class="cls-1" d="M125.62,46.6a2.23,2.23,0,0,0-.51,1.57,8.55,8.55,0,0,0,.68-.66C126,47.2,125.77,46.94,125.62,46.6Z"/><path class="cls-1" d="M131,49.35a1.33,1.33,0,0,0-1.41,0c.54.38,1.29.6,1.31,1.32A.84.84,0,0,0,131,49.35Z"/><path class="cls-1" d="M123.16,37.49a2.57,2.57,0,0,0-1.83,2.82A2.25,2.25,0,0,0,123.16,37.49Z"/><path class="cls-1" d="M122.49,37.58a2.19,2.19,0,0,0-2.53.05,2.37,2.37,0,0,0-.87,1.83c0,.43.23.58.76.56.78,0,.93-.21,1.19-.78a6.09,6.09,0,0,1,.9-1.22A4.41,4.41,0,0,1,122.49,37.58Z"/><path class="cls-1" d="M126.64,57.54l3-.93a2,2,0,0,0-2-.66A1.41,1.41,0,0,0,126.64,57.54Z"/><path class="cls-1" d="M127.73,53.37a3.14,3.14,0,0,0-.47.39,1.38,1.38,0,0,0-.16.86,1.63,1.63,0,0,1-.31-.11,10.72,10.72,0,0,0-.43,1.65L130,53.32A2.72,2.72,0,0,0,127.73,53.37Z"/><path class="cls-1" d="M128.87,48.36c-.91-.06-1.88.77-1.75,1.51a.7.7,0,0,0,.56.62c0-1.26,1-1.43,2.13-1.43C129.76,48.65,129.42,48.4,128.87,48.36Z"/><path class="cls-1" d="M129.06,51.65a9.51,9.51,0,0,0,1.46-.55c.08,0,.16-.15.14-.21s-.16-.12-.25-.13l-2.85-.22A1.18,1.18,0,0,0,129.06,51.65Z"/><path class="cls-1" d="M128.47,50.37c.37.06.74.12,1.11.2s.46,0,.42-.29a3.46,3.46,0,0,0-.11-.34.89.89,0,0,0-.82-.4,1,1,0,0,0-.83.51C128.15,50.22,128.23,50.33,128.47,50.37Z"/><path class="cls-1" d="M127.71,43.83A2.75,2.75,0,0,0,130.4,45c-.91-1.19-.51-2.31.39-3.48-1.19.43-2.31.75-2.13,2h-.15a3.24,3.24,0,0,1,0-.69,4.14,4.14,0,0,1,.23-.74C127.66,42.31,127.25,43.11,127.71,43.83Z"/><path class="cls-1" d="M131,48a1,1,0,0,0-1.12-.27,5,5,0,0,0-.51.16,1.11,1.11,0,0,0-1.69.41c.4,0,.79-.11,1.19-.15a1.13,1.13,0,0,1,1.15.46.5.5,0,0,0,.31.19c.62,0,.8.14,1,.62.05.15.08.3.12.45l.13,0c0-.16.05-.31.06-.47s0-.12,0-.17C131.71,48.74,131.26,48.4,131,48Z"/><path class="cls-1" d="M131.6,40.31a2,2,0,0,0,.54-.06l.45-.2V38.57l-.06.06A1.77,1.77,0,0,0,131.6,40.31Z"/><path class="cls-1" d="M76.05,47c.29.06.58.14.87.23a1.17,1.17,0,0,0,1.44-.33,1.82,1.82,0,0,0,.54-1.59c1,.31,1.46.18,2-.53.13-.18.17-.47.36-.56.59-.3.45-.65.17-1a6.24,6.24,0,0,0-.88-1,5.39,5.39,0,0,0-1-.49c.09.39.16.62.2.87a1.62,1.62,0,0,1-.62,1.65,23.27,23.27,0,0,1-2.08,1.36,1.85,1.85,0,0,1-1.82,0l-.87-.45C74.38,46.24,74.87,46.74,76.05,47Z"/><path class="cls-1" d="M79,57.41a2.18,2.18,0,0,0-2.47.15,1.78,1.78,0,0,0-.12,2.81C76.54,58.93,77.93,58.26,79,57.41Z"/><path class="cls-1" d="M75.38,42.33c-.09.08-.28.21-.44.36-.31.32-.21.51.27.63s1.07.28,1.6.43c.33.1.54,0,.58-.27a1.15,1.15,0,0,0-.58-1.16A1.53,1.53,0,0,0,75.38,42.33Z"/><path class="cls-1" d="M74.86,45a2.09,2.09,0,0,0,3-.5c-1.31-.5-2.57-1-3.84-1.46a.6.6,0,0,0-.44,0,.3.3,0,0,0,0,.35A10.79,10.79,0,0,0,74.86,45Z"/><path class="cls-1" d="M76.41,41.74a1.78,1.78,0,0,0-1.83-.82c-.78.24-1.35,1.06-1.06,1.71C74.21,41.72,75.38,41.89,76.41,41.74Z"/><path class="cls-1" d="M77.25,49.17c.51-.63.22-1.41-.71-1.76a3.72,3.72,0,0,1,.13.7,3.47,3.47,0,0,1-.11.63h-.15c.31-1.13-.7-1.5-1.75-2,.7,1.16,1,2.23,0,3.27A2.64,2.64,0,0,0,77.25,49.17Z"/><path class="cls-1" d="M84.77,26c-.15.46,0,.73.64,1l.12-.28c0-.09.09-.18.14-.27L86,27.56l.26,0a5.09,5.09,0,0,0,.42-.75c.23-.75.43-1.5.64-2.28A2.59,2.59,0,0,0,84.77,26Z"/><path class="cls-1" d="M86.58,35.05A6.07,6.07,0,0,1,85.92,34c-.08-.11-.29-.16-.43-.24,0,.12-.17.28-.12.35A6.71,6.71,0,0,0,89.58,37c.48.11.77,0,.88-.44A4.79,4.79,0,0,1,86.58,35.05Z"/><path class="cls-1" d="M82.7,27.09c-.2.15-.38.33-.58.49a1.47,1.47,0,0,0-2,1.46c.51-.28,1-.57,1.52-.83a1.87,1.87,0,0,1,2,0,.91.91,0,0,0,.58.1c.89-.27,1.22-.22,1.82.36.19.18.35.37.52.56l.19-.05c-.09-.22-.17-.45-.28-.67s-.15-.15-.16-.23c-.18-.82-1.08-1-1.78-1.42A1.65,1.65,0,0,0,82.7,27.09Z"/><path class="cls-1" d="M87.55,28.54a1.68,1.68,0,0,0-1.4-.49c1.17.77.81,1.75.83,2.67A1.42,1.42,0,0,1,86.36,32a1.68,1.68,0,0,0-.89,1.61,2.22,2.22,0,0,0,.51-.06c.6-.24,1.18-.49,1.75-.75a.66.66,0,0,0,.27-.28c.3-.57.6-1.15.89-1.74a1,1,0,0,0-.4-1.33A9.68,9.68,0,0,1,87.55,28.54Z"/><path class="cls-1" d="M75.62,33.57a2.17,2.17,0,0,0,1.76-2.71A2.47,2.47,0,0,0,75.62,33.57Z"/><path class="cls-1" d="M81.72,55.57l.56-.1c.44-.07.58-.18.64-.55a1.13,1.13,0,0,0-.33-1c.65-.08.86-.28.85-.79,0-.13-.08-.29,0-.39.2-.32,0-.46-.29-.58a5.37,5.37,0,0,0-.85-.3,3.34,3.34,0,0,0-.72,0c.2.18.33.29.45.41a1,1,0,0,1,.31,1,9.17,9.17,0,0,1-.6,1.27,1,1,0,0,1-1,.46l-.64,0A1.34,1.34,0,0,0,81.72,55.57Z"/><path class="cls-1" d="M82.14,57.56a1.28,1.28,0,0,0,1.07-1.13c0-.46-.43-.81-1.06-.76.12.13.25.23.34.35a2.15,2.15,0,0,1,.19.37l-.08,0c-.27-.68-1-.62-1.72-.62C81.71,56.24,82.26,56.75,82.14,57.56Z"/><path class="cls-1" d="M80.11,55.36a1.27,1.27,0,0,0-1-.7,1.08,1.08,0,0,1-.72-.55c-.28-.51-.78-1-.38-1.64a.81.81,0,0,0-.62.56,3.81,3.81,0,0,1-.24.67.59.59,0,0,0,.2.82l1,.76a.48.48,0,0,0,.23.1l1.19,0A1.2,1.2,0,0,0,80.11,55.36Z"/><path class="cls-1" d="M83.72,59.91c.07-.12.14-.25.22-.37s.16-.24.24-.36c.09.56.17,1.1.26,1.63l.35.08a6.08,6.08,0,0,0,.71-1c.46-1,.87-2,1.31-3.07A3.8,3.8,0,0,0,83,58.5C82.72,59.12,82.91,59.52,83.72,59.91Z"/><path class="cls-1" d="M77.07,56.38l1.42.16c.75.09,1.17-.22,1.14-.92l-1.44.15.5-.23C77.87,55.29,77,55.76,77.07,56.38Z"/><path class="cls-1" d="M73.9,40.46c0,.08-.15.13-.19.21s-.24.42-.35.63l.18.06c.19-.17.37-.34.57-.5a1.43,1.43,0,0,1,1.8-.21.9.9,0,0,0,.58,0,1.83,1.83,0,0,1,1.89.12c.47.29.91.61,1.37.93A1.37,1.37,0,0,0,78,40.08c-.17-.18-.32-.36-.5-.52a1.57,1.57,0,0,0-1.69-.34C75.06,39.53,74.17,39.68,73.9,40.46Z"/><path class="cls-1" d="M80.08,25.73a1.27,1.27,0,0,0,.17,2c0-1,.88-1.6,1.57-2.27A1.55,1.55,0,0,0,80.08,25.73Z"/><path class="cls-1" d="M84.41,41.29c-.39.22-.82,1-.64,1.31a1.15,1.15,0,0,0,.67.48,4.07,4.07,0,0,0,1-.06,2.09,2.09,0,0,0,1.11-1.52.45.45,0,0,0-.19-.32A2.47,2.47,0,0,0,84.41,41.29Z"/><path class="cls-1" d="M79,43.93a1.94,1.94,0,0,0-.85-3,1.56,1.56,0,0,0-1.85.31c1.47.72,2.62,1.55,1.4,3.14A1.37,1.37,0,0,0,79,43.93Z"/><path class="cls-1" d="M77.43,30.5a1.2,1.2,0,0,0,.65-.12l-1.3-.28C76.8,30.43,77.14,30.47,77.43,30.5Z"/><path class="cls-1" d="M77.58,25.75a1.87,1.87,0,0,0-1.53.54l3.47.95C78.94,26.59,78.52,25.93,77.58,25.75Z"/><path class="cls-1" d="M100.54,68.5l-1,.4a2,2,0,0,1-1.94-.14,25.17,25.17,0,0,1-2.05-1.62,1.69,1.69,0,0,1-.44-1.82c.07-.25.18-.5.32-.91a6.93,6.93,0,0,0-1.1.44,7,7,0,0,0-1.06,1c-.34.36-.54.71,0,1.08.19.12.2.42.32.63.44.8,1,1,2,.73a1.93,1.93,0,0,0,.1,1.28h4.36A2.18,2.18,0,0,0,100.54,68.5Z"/><path class="cls-1" d="M131.83,58.44l-1.44,1a1.8,1.8,0,0,0,.92-.16C131.64,59.08,132,58.86,131.83,58.44Z"/><path class="cls-1" d="M101.3,69.46c-.08-.11-.29-.16-.45-.24a.87.87,0,0,0-.11.32h.61Z"/><path class="cls-1" d="M122.32,67.51l-3.29.34,1.14-.53c-1.88-.57-3.84.51-3.71,1.92l2.71.3H121A1.77,1.77,0,0,0,122.32,67.51Z"/><path class="cls-1" d="M132.47,59.74a4.07,4.07,0,0,0-.85-.07,3.51,3.51,0,0,0,.85,1.42Z"/><path class="cls-1" d="M132.48,64.13v.25h0Z"/><path class="cls-1" d="M78.63,27.41c-.64,0-.88.42-1.1.94l2.32-.13A1.27,1.27,0,0,0,78.63,27.41Z"/><path class="cls-1" d="M74.09,30a4.33,4.33,0,0,0,1,.14,1.22,1.22,0,0,0,.74-.43c.23-.31-.12-1.14-.49-1.39a2.49,2.49,0,0,0-2-.28.5.5,0,0,0-.19.19v.58A2.5,2.5,0,0,0,74.09,30Z"/><path class="cls-1" d="M131.76,63.91a2.12,2.12,0,0,0-2,.11,6.9,6.9,0,0,0,.55,1,1,1,0,0,0,.58.34c.54.12,1.09.21,1.64.3,0-.45,0-.89,0-1.33A2.49,2.49,0,0,0,131.76,63.91Z"/><path class="cls-1" d="M74.3,31a2.25,2.25,0,0,0-.83,1.76c0,.41.22.55.73.53.74,0,.89-.2,1.14-.75a5.86,5.86,0,0,1,.86-1.17,3.38,3.38,0,0,1,.53-.42A2.1,2.1,0,0,0,74.3,31Z"/><path class="cls-1" d="M73.65,39a3.84,3.84,0,0,0,.32.76h.25l.46-1.08.1.27.09.28c.62-.18.81-.42.73-.88a2.43,2.43,0,0,0-2.31-1.59C73.41,37.52,73.51,38.26,73.65,39Z"/><path class="cls-1" d="M76.5,30.15a12.48,12.48,0,0,0,.41-1.27c.11-.56-.47-.77-1-1.17A3.31,3.31,0,0,0,76.5,30.15Z"/><path class="cls-1" d="M76.29,50.8c.36.38.7.75,1.06,1.11a3.83,3.83,0,0,0,.46.33l.13-.07-.17-.7.16.12.16.13c.26-.26.27-.44,0-.66A1.81,1.81,0,0,0,76.29,50.8Z"/><path class="cls-1" d="M73.19,57.33v1.4l2.3.86C74.83,58.64,74.37,57.72,73.19,57.33Z"/><path class="cls-1" d="M73.19,41a1.91,1.91,0,0,1,.83-.81,2.39,2.39,0,0,0-.83,0Z"/><path class="cls-1" d="M82.31,68.35c-.53.17-1,.31-1.38.43a2.63,2.63,0,0,1-2.56-.41A30.9,30.9,0,0,1,75.92,66a2.22,2.22,0,0,1-.27-2.47c.14-.33.33-.65.59-1.18a7.57,7.57,0,0,0-1.54.46,9.73,9.73,0,0,0-1.51,1.1v1.91a3.38,3.38,0,0,0,.11.48c.46,1.11,1.1,1.42,2.58,1.21a2.54,2.54,0,0,0,0,2.06h5.82A3.22,3.22,0,0,0,82.31,68.35Z"/><path class="cls-1" d="M75.31,69.16A6.9,6.9,0,0,0,75.42,68a2.08,2.08,0,0,0-2,.44,2.73,2.73,0,0,0-.23.25v.84H75A.8.8,0,0,0,75.31,69.16Z"/><path class="cls-1" d="M74,45.61A1.57,1.57,0,0,0,73.36,44l-.17-.19v1.53l.35.19A1.48,1.48,0,0,0,74,45.61Z"/><path class="cls-1" d="M84.39,65a1.87,1.87,0,0,0-.87-2.65,2.74,2.74,0,0,0-2.87.72C82,63.54,83.74,63.57,84.39,65Z"/><path class="cls-1" d="M84.55,61.51c-.29-.88-1.32-1.28-2.12-1.81a2.3,2.3,0,0,0-2.5.07,10.61,10.61,0,0,0-.88.61A2.14,2.14,0,0,0,76,62.16c.76-.33,1.5-.67,2.26-1a2.62,2.62,0,0,1,2.71.28,1.12,1.12,0,0,0,.79.21c1.28-.26,1.73-.15,2.46.72.23.27.41.57.61.85l.28-.05c-.08-.32-.16-.65-.26-1,0-.12-.18-.22-.19-.33a3.61,3.61,0,0,0-.08-.38Z"/><path class="cls-1" d="M83.33,69.07c.86-.26,1.71-.54,2.55-.83a.93.93,0,0,0,.43-.35c.53-.76,1-1.53,1.55-2.3a1.34,1.34,0,0,0-.31-1.9,12.83,12.83,0,0,1-1.14-1.32,2.28,2.28,0,0,0-1.86-.86h0c1.47,1.22.8,2.53.65,3.82A2.06,2.06,0,0,1,84.13,67a2.51,2.51,0,0,0-1.53,2.13A2.57,2.57,0,0,0,83.33,69.07Z"/><path class="cls-1" d="M79.88,63.8a1.82,1.82,0,0,0-1.23,1.5c0,.39.21.57.72.52.8-.09,1.6-.18,2.4-.23s.93-.3.6-.82a5.57,5.57,0,0,0-.49-.61A2.14,2.14,0,0,0,79.88,63.8Z"/><path class="cls-1" d="M78.49,61.55c-1.88.39-3.14,2.59-2.26,4a1.78,1.78,0,0,0,1.65,1c-1.13-2.52.78-3.42,3.1-4.08A2.14,2.14,0,0,0,78.49,61.55Z"/><path class="cls-1" d="M81.65,68.06a18.54,18.54,0,0,0,2.47-1.92.47.47,0,0,0,.11-.5.83.83,0,0,0-.62-.12c-2,.36-3.91.75-5.92,1.14A2.84,2.84,0,0,0,81.65,68.06Z"/><path class="cls-1" d="M84.69,32.89a12,12,0,0,0,1.59-1.52c.08-.08.1-.3,0-.36a.58.58,0,0,0-.44-.05l-4.12,1.18A2.1,2.1,0,0,0,84.69,32.89Z"/><path class="cls-1" d="M81.84,28.45a2,2,0,0,0-1.24,3,1.36,1.36,0,0,0,1.27.58c-1.05-1.73.23-2.49,1.82-3.1A1.57,1.57,0,0,0,81.84,28.45Z"/><path class="cls-1" d="M78.23,30.49c-.33.34-.52.69,0,1,.19.11.19.41.3.61.43.76.92.94,2,.7a1.82,1.82,0,0,0,.35,1.67,1.18,1.18,0,0,0,1.44.45c.3-.06.61-.12.92-.16,1.24-.14,1.8-.62,2-1.74l-.94.39a1.89,1.89,0,0,1-1.86-.14,20.15,20.15,0,0,1-2-1.56A1.58,1.58,0,0,1,80,30c.07-.25.17-.49.31-.88a5.68,5.68,0,0,0-1.06.42A7,7,0,0,0,78.23,30.49Z"/><path class="cls-1" d="M82.86,31.44c.56-.12,1.12-.23,1.69-.31s.63-.28.35-.62a5.39,5.39,0,0,0-.4-.41A1.55,1.55,0,0,0,83,30a1.24,1.24,0,0,0-.74,1.14C82.31,31.39,82.51,31.51,82.86,31.44Z"/><path class="cls-1" d="M85.49,28.72a1.89,1.89,0,0,0-2,.69c1,.24,2.25.16,2.84,1.15A1.38,1.38,0,0,0,85.49,28.72Z"/><path class="cls-1" d="M91.78,65.41c0,.34.37.39.67.42a1.37,1.37,0,0,0,.69-.13Z"/><path class="cls-1" d="M91.73,66.29a2.21,2.21,0,0,0-2.54.06,2.34,2.34,0,0,0-.86,1.83c0,.43.22.58.76.55.77,0,.92-.21,1.18-.78a6.34,6.34,0,0,1,.91-1.22A3.3,3.3,0,0,1,91.73,66.29Z"/><path class="cls-1" d="M93.71,62.61c-.67,0-.92.43-1.15,1L95,63.45A1.33,1.33,0,0,0,93.71,62.61Z"/><path class="cls-1" d="M98,62.28a7.22,7.22,0,0,0-.6.5,1.54,1.54,0,0,0-2.11,1.53c.54-.3,1.05-.6,1.59-.87a2,2,0,0,1,2,0,.94.94,0,0,0,.61.1,1.54,1.54,0,0,1,1.9.38c.19.18.36.39.54.59l.2-.05c-.1-.24-.18-.48-.29-.71,0-.08-.16-.15-.18-.24-.18-.85-1.11-1.09-1.85-1.48A1.69,1.69,0,0,0,98,62.28Z"/><path class="cls-1" d="M95.22,60.86A1.32,1.32,0,0,0,95.4,63c-.05-1.08.91-1.67,1.63-2.36A1.58,1.58,0,0,0,95.22,60.86Z"/><path class="cls-1" d="M92.4,66.2c-1.29.43-2.17,1.86-1.83,2.83A2.28,2.28,0,0,0,92.4,66.2Z"/><path class="cls-1" d="M88.23,63.24a.51.51,0,0,0-.25.33,2.19,2.19,0,0,0,1,1.72,4.26,4.26,0,0,0,1.1.14,1.27,1.27,0,0,0,.77-.45c.23-.32-.13-1.19-.51-1.45A2.63,2.63,0,0,0,88.23,63.24Z"/><path class="cls-1" d="M91.48,65.46a11.91,11.91,0,0,0,.43-1.32c.12-.58-.49-.81-1-1.22A3.42,3.42,0,0,0,91.48,65.46Z"/><path class="cls-1" d="M92.61,60.88a1.91,1.91,0,0,0-1.59.56l3.61,1C94,61.75,93.59,61.06,92.61,60.88Z"/><path class="cls-1" d="M79.12,45.7a4.85,4.85,0,0,0-.12.8.53.53,0,0,0,.2.38c.38.31.79.59,1.19.89a1.16,1.16,0,0,0,0-1.54A1.37,1.37,0,0,0,79.12,45.7Z"/><path class="cls-1" d="M82.87,54.09a4.12,4.12,0,0,0,.25.47.44.44,0,0,0,.25.14l1,.18a.82.82,0,0,0-.58-.83A.93.93,0,0,0,82.87,54.09Z"/><path class="cls-1" d="M82.87,41.74A9.67,9.67,0,0,0,83.12,43a3.29,3.29,0,0,0,.8-2.32C83.41,41,82.82,41.19,82.87,41.74Z"/><path class="cls-1" d="M82.85,42.93l-1.3.17a1.24,1.24,0,0,0,.63.17C82.46,43.26,82.79,43.24,82.85,42.93Z"/><path class="cls-1" d="M83,49.41a1.21,1.21,0,0,0-1,0c-.46.29-.48.74-.6,1.22Z"/><path class="cls-1" d="M85.74,45.76A2.11,2.11,0,0,0,85.15,44a2.05,2.05,0,0,0-2.35-.24,4,4,0,0,1,.46.45,5.44,5.44,0,0,1,.7,1.2c.18.55.3.72,1,.82C85.47,46.28,85.71,46.16,85.74,45.76Z"/><path class="cls-1" d="M82.19,43.62a2,2,0,0,0,1.38,2.76A2.3,2.3,0,0,0,82.19,43.62Z"/><path class="cls-1" d="M79.47,53.56c0,.25.08.33.38.27l1-.19c.22,0,.29-.14.2-.29a.91.91,0,0,0-.75-.47.83.83,0,0,0-.77.37A2.46,2.46,0,0,0,79.47,53.56Z"/><path class="cls-1" d="M80.33,54.82a1.07,1.07,0,0,0,1.38-1l-2.62.2a.34.34,0,0,0-.23.12c0,.06,0,.17.12.2A9.53,9.53,0,0,0,80.33,54.82Z"/><path class="cls-1" d="M82.12,53.18c.12-.68-.77-1.44-1.61-1.38-.51,0-.83.26-.87.63,1.06,0,2,.16,2,1.33A.66.66,0,0,0,82.12,53.18Z"/><path class="cls-1" d="M78.59,52.7a.79.79,0,0,0,.09,1.19c0-.67.71-.88,1.21-1.22A1.23,1.23,0,0,0,78.59,52.7Z"/><path class="cls-1" d="M81.52,51.25l1.32-.4a.85.85,0,0,0-.89-.29A.62.62,0,0,0,81.52,51.25Z"/><path class="cls-1" d="M78.58,51.48c-.27.35-.69.66-.53,1.15,0,0,0,.11,0,.16l.06.43h.12c0-.14.06-.28.11-.42.15-.44.32-.54.89-.58a.44.44,0,0,0,.29-.17,1,1,0,0,1,1.06-.42c.36,0,.73.09,1.09.14a1,1,0,0,0-1.56-.38c-.16-.05-.31-.11-.47-.15A1,1,0,0,0,78.58,51.48Z"/><path class="cls-1" d="M80.17,38.44a1.48,1.48,0,0,0-1.66-.38c.59.7,1.42,1.32,1.26,2.32A1.27,1.27,0,0,0,80.17,38.44Z"/><path class="cls-1" d="M79.59,50.16c.59.22,1.27.34,1.57.92a.82.82,0,0,0-.53-1.14A.91.91,0,0,0,79.59,50.16Z"/><path class="cls-1" d="M80.28,34.07a4.74,4.74,0,0,0,0-.83,1.44,1.44,0,0,0-1.38.44,1.19,1.19,0,0,0-.17,1.57c.44-.27.9-.53,1.33-.81A.61.61,0,0,0,80.28,34.07Z"/><path class="cls-1" d="M80.53,40,84,39.3a1.72,1.72,0,0,0-1.42-.64A3.54,3.54,0,0,0,80.53,40Z"/><path class="cls-1" d="M81.37,40.19a1.28,1.28,0,0,0-1.27.68l2.23.31C82.18,40.66,82,40.26,81.37,40.19Z"/><path class="cls-1" d="M81.74,36.94A2.62,2.62,0,0,0,84.31,38c-.86-1.14-.48-2.22.38-3.34-1.14.41-2.22.72-2,1.89H82.5a5,5,0,0,1,0-.66,4.84,4.84,0,0,1,.23-.71C81.69,35.48,81.3,36.26,81.74,36.94Z"/><path class="cls-1" d="M71,111.57c-3.74-.23-7.44-.38-11.06-.48v-5.76h3.18l-4-2.54-4-2.55-4,2.55-4,2.54h3.19V111c-5.83,0-11.37.25-16.44.66l-2.29.18,1.58,1.36c.41.36.84.71,1.26,1.06,9.13,7.58,20.88,14.49,35.9,21.12l1.66.73V111.63ZM55.11,101.41l4.71,3h-1v6.06H51.45v-6.06h-1Zm15.76,12.2v21C56,128,44.4,121.2,35.24,113.61l-1.24-1a263,263,0,0,1,36.87-.07Z"/><path class="cls-1" d="M33,79.45l-.35-1.57-1.32,1.18-1.94-.21,1,1.38-.85,1.44,1.91-.32,1.42,1.1.21-1.59,1.73-.76Zm-.64,1-.09.67-.6-.47-.82.14.36-.61-.41-.59.82.09.56-.5.15.66.76.28Z"/><path class="cls-1" d="M35,91.93l-1.93.27L31.7,91.05l-.29,1.58-1.75.71,1.75.7.28,1.59,1.37-1.15,1.93.28-.91-1.42Zm-1.37,2-.82-.11-.58.48-.12-.67-.75-.3.75-.3.12-.67.58.48.82-.11-.39.6Z"/><path class="cls-1" d="M43,85.24l-2-.06-1.06-1.34-.67,1.5-1.89.4,1.54,1-.12,1.6,1.63-.9,1.82.59-.54-1.54ZM41.11,87l-.78-.25-.69.39,0-.68L39,86l.8-.17.29-.64.45.57.83,0-.53.52Z"/><path class="cls-1" d="M27,85.47h-2L24,84.15l-.6,1.52-1.88.45,1.58.94L23,88.66l1.58-.94,1.85.53-.6-1.52Zm-1.77,1.79L24.46,87l-.67.39,0-.68-.67-.4.8-.19.25-.64.48.56h.83l-.51.54Z"/><path class="cls-1" d="M67.17,82.65A12.2,12.2,0,0,0,56.8,78.8a8.16,8.16,0,0,1,2.65,2c2.7,3.18,1.71,7.55-2.19,9.75a10.24,10.24,0,0,1-9.73,0,8.55,8.55,0,0,0,1.4,2.32c3.48,4.1,10.38,5.14,15.41,2.3S70.65,86.75,67.17,82.65ZM63.7,94.46a11.5,11.5,0,0,1-5.64,1.43h0a10.78,10.78,0,0,1-8.12-3.41,11.73,11.73,0,0,0,2.46.25,11.19,11.19,0,0,0,5.5-1.4c4.41-2.48,5.52-7.43,2.48-11-.15-.18-.3-.34-.46-.5a10.26,10.26,0,0,1,6.32,3.36C69.36,86.85,68.22,91.92,63.7,94.46Z"/><path d="M114.08,80.75l1.15-.29v0l-.79-.26c.06-.12.11-.25.18-.36s.13,0,.19,0c.4.13.8.27,1.21.39a.46.46,0,0,0,.26,0L117,80l-1.23-.44.21-.41.76.25,1,.36a.24.24,0,0,0,.12,0l1.34-.32-.28-.23-.67-.51a.49.49,0,0,0-.24-.08c-.57,0-1.14-.07-1.72-.09-.14,0-.17,0-.16-.15,0-.36-.06-.32.43-.3.29,0,.58,0,.89,0-.31-.19-.47-.53-1-.53s-.78,0-1.17-.07c-.1,0-.13,0-.12-.11a1,1,0,0,0,0-.24c0-.1,0-.11.16-.11a5.61,5.61,0,0,0,.72,0l-.87-.67.45-.41.88.67h0l-.11-.69.46,0s.1,0,.1.08c.07.35.13.7.19,1a.32.32,0,0,0,.15.26c.18.13.35.26.56.39l-.16-1,.46,0c.08,0,.11,0,.12.08.06.49.13,1,.21,1.45a.37.37,0,0,0,.16.22l.85.64.08,0,0-.18a4,4,0,0,1,.18-.59.7.7,0,0,0-.14-.75c-.22-.33-.41-.67-.62-1l0-.1.49-.19.58.93h0a2.19,2.19,0,0,1,.1-.34.69.69,0,0,0-.09-.7c-.19-.27-.34-.56-.51-.85l.5-.2.4.66c0-.07,0-.1,0-.14l.21-.73c0-.1.07-.12.19-.1l.33.07c.13,0,.17.06.13.17l-.25.86.26-.15.37-.24c.07,0,.11,0,.17,0l.27.28L122,76l-.76.49a.36.36,0,0,0-.14.18,2.39,2.39,0,0,0-.14.6l1-.63.34.36-.75.46-.78.49s-.09.06-.1.1l-.31,1.09.13,0c.37-.09.75-.17,1.11-.27a.65.65,0,0,0,.24-.15c.31-.37.62-.75.92-1.14.08-.11.15-.12.27,0l.3.17-.73.91c.21,0,.37-.1.54-.13a.81.81,0,0,0,.57-.34c.19-.25.42-.5.62-.75a.13.13,0,0,1,.2,0c.1.07.22.13.34.2l-.48.58,0,0,1.16-.29.2.53-1.15.28v0l.79.27-.2.42-.88-.28-.27-.09a1,1,0,0,0-.74,0c-.14,0-.3.08-.47.15l1.19.41c-.07.13-.12.25-.2.37s-.09,0-.13,0l-1.62-.56a.51.51,0,0,0-.21,0l-1.31.32.38.3c.17.14.35.26.51.4a.56.56,0,0,0,.37.13l1.63.08h.18c0,.12,0,.24,0,.35s0,.11-.15.1L122.33,81a1.94,1.94,0,0,1,.29.24,1.22,1.22,0,0,0,.94.32c.3,0,.59,0,.89,0,.12,0,.19,0,.16.15a3.16,3.16,0,0,0,0,.32l-.85,0,0,0,.87.68-.45.4-.89-.67h0l.11.7-.55.07c0-.21-.07-.41-.11-.62s-.07-.36-.09-.54a.39.39,0,0,0-.18-.27c-.17-.12-.33-.25-.53-.37l.16,1.05-.56.06c0-.28-.08-.55-.13-.82s-.06-.48-.1-.72a.24.24,0,0,0-.07-.13c-.32-.26-.66-.51-1-.78l0,.11c-.09.31-.18.63-.26.94a.24.24,0,0,0,0,.2l.84,1.38-.5.21-.61-1c-.07.26-.14.49-.2.71,0,0,0,.1.06.15.2.35.41.7.63,1.07l-.5.2-.38-.62h0l-.19.64c-.09.31-.09.31-.47.24s-.28,0-.21-.28l.21-.72,0,0-.67.42-.34-.36c.29-.18.55-.38.85-.54a.87.87,0,0,0,.54-.69,1.38,1.38,0,0,1,.08-.27l0,0-1,.63-.34-.36.89-.55.61-.38s.11-.07.12-.11c.11-.36.21-.72.32-1.1l-.16,0c-.35.09-.71.17-1.06.27a.57.57,0,0,0-.26.16c-.33.39-.64.78-1,1.18l-.07.07-.46-.25.7-.88,0,0c-.27.07-.55.13-.82.21-.05,0-.09.07-.12.11-.27.32-.54.65-.82,1l-.39-.2c-.08-.05,0-.09,0-.14l.43-.52-.18,0-.88.22c-.11,0-.16,0-.19-.09S114.13,80.9,114.08,80.75Z"/><path d="M80.72,124.8l.47-1.06,0,0-.84.41a3.58,3.58,0,0,1-.29-.39s.07-.11.13-.14l1.28-.64a.47.47,0,0,0,.19-.18c.11-.22.2-.44.32-.7l-1.34.62-.32-.45.8-.39,1.12-.53a.31.31,0,0,0,.11-.08l.56-1.23-.45,0c-.34.05-.69.09-1,.15a.56.56,0,0,0-.27.12l-1.28,1.23a.18.18,0,0,1-.28,0c-.38-.29-.41-.18,0-.53.21-.21.43-.42.64-.65-.43.1-.92,0-1.26.35s-.59.55-.88.83c-.08.07-.13.08-.21,0a2.27,2.27,0,0,0-.25-.18c-.12-.07-.1-.12,0-.2a4.29,4.29,0,0,0,.51-.53l-1.36.19-.13-.62,1.36-.19v0l-.86-.4c.1-.13.17-.26.27-.38a.27.27,0,0,1,.16,0l1.31.59a.68.68,0,0,0,.4.07c.27,0,.54-.08.82-.15l-1.29-.61c.09-.13.18-.25.26-.38s.1-.06.18,0c.59.28,1.18.57,1.77.84a.73.73,0,0,0,.36,0l1.31-.2.09,0-.17-.17a5.5,5.5,0,0,1-.54-.54,1.29,1.29,0,0,0-.94-.42c-.52-.06-1-.15-1.55-.23l-.14,0,.12-.5,1.45.21,0,0a3.14,3.14,0,0,1-.32-.31,1.15,1.15,0,0,0-.85-.42c-.43,0-.86-.13-1.31-.21l.13-.51,1,.16c-.06-.06-.08-.1-.12-.13-.22-.23-.45-.45-.68-.66s-.08-.15,0-.21l.3-.2a.18.18,0,0,1,.29,0c.24.26.5.5.79.78,0-.12,0-.21,0-.29s0-.3,0-.44,0-.12.13-.12h.5c0,.17,0,.33,0,.48,0,.31,0,.61,0,.91a.34.34,0,0,0,.1.23,5,5,0,0,0,.58.53V116h.64c0,.3,0,.59,0,.88s0,.61,0,.92a.21.21,0,0,0,0,.14l1,1a.76.76,0,0,0,.08-.11c.15-.34.31-.68.45-1a.32.32,0,0,0,0-.27c-.2-.5-.42-1-.65-1.48-.06-.14,0-.2.15-.24l.4-.1.52,1.18a4.82,4.82,0,0,1,.23-.5.65.65,0,0,0,0-.66c-.16-.32-.27-.66-.41-1,0-.09,0-.13.1-.16l.46-.12.32.76h0l.49-1.07.72.21-.47,1.06,0,0,.85-.41.33.45-.93.46-.29.13a.79.79,0,0,0-.54.54c0,.14-.12.28-.16.45l1.29-.6a4,4,0,0,1,.27.4s0,.09-.07.11l-1.74.83a.37.37,0,0,0-.18.14c-.19.39-.36.78-.55,1.2l.6-.07c.27,0,.54-.09.81-.12a.62.62,0,0,0,.4-.18c.4-.39.8-.78,1.21-1.16l.15-.13.37.25c.1.07.08.12,0,.19l-.89.85a2.91,2.91,0,0,1,.46-.06,1.28,1.28,0,0,0,1-.48c.21-.22.45-.41.67-.62s.17-.13.28,0a2.93,2.93,0,0,0,.34.24l-.64.6v0l1.37-.19.13.62-1.36.2,0,0,.87.39-.31.46-.77-.34c-.23-.1-.46-.19-.68-.31a.61.61,0,0,0-.42,0c-.25,0-.51.08-.78.14l1.29.61-.32.46-1-.47-.88-.42a.33.33,0,0,0-.19,0l-1.57.21a.53.53,0,0,0,.09.11c.28.28.57.57.87.85a.45.45,0,0,0,.24.11l2.13.33-.1.51-1.53-.22c.25.24.45.45.67.64a.39.39,0,0,0,.2.06l1.65.28-.13.51-1-.15,0,0,.6.59c.28.28.29.28-.06.51s-.22.2-.46,0l-.67-.66h0v.8h-.64a8.72,8.72,0,0,1,0-1,.88.88,0,0,0-.4-.87l-.26-.25h0v1.2h-.64c0-.36,0-.7,0-1.05s0-.48,0-.72a.23.23,0,0,0,0-.16c-.33-.33-.66-.66-1-1a.88.88,0,0,0-.07.13c-.15.33-.31.65-.44,1a.44.44,0,0,0,0,.3c.22.52.44,1,.67,1.54a.54.54,0,0,0,0,.1l-.6.18-.5-1.14h0c-.11.25-.23.5-.33.76,0,.05,0,.11,0,.17.17.43.35.85.53,1.29l-.5.14c-.11,0-.13,0-.16-.09s-.18-.42-.28-.68l-.09.16c-.12.27-.25.54-.36.81-.05.1-.1.12-.22.08Z"/><path d="M95.85,115l.9-.35v0l-.69-.14c0-.11,0-.21.09-.32s.11,0,.16,0l1.06.2a.49.49,0,0,0,.21,0c.19-.06.38-.14.6-.23l-1.08-.23.11-.36.66.13.92.18a.17.17,0,0,0,.1,0l1.06-.41-.27-.16-.63-.35a.5.5,0,0,0-.21,0l-1.43.11c-.12,0-.15,0-.16-.11,0-.3-.1-.26.31-.29.24,0,.48,0,.73-.07-.28-.13-.46-.39-.86-.34s-.65,0-1,.07c-.08,0-.12,0-.12-.08a1.27,1.27,0,0,0,0-.2c0-.08,0-.1.11-.11a4.2,4.2,0,0,0,.6-.06l-.82-.46.31-.38.83.46h0l-.2-.56a3,3,0,0,1,.38-.09s.08,0,.09.05c.11.29.22.57.32.85a.3.3,0,0,0,.17.2,4.85,4.85,0,0,0,.51.26l-.29-.85.37-.09c.07,0,.09,0,.11.06.13.4.25.79.4,1.18a.35.35,0,0,0,.16.16l.81.44.06,0,0-.16a2.73,2.73,0,0,1,0-.5.61.61,0,0,0-.22-.61c-.24-.25-.45-.5-.67-.76l0-.07.37-.22.63.71h0a2.58,2.58,0,0,1,0-.29.58.58,0,0,0-.19-.57c-.19-.2-.36-.42-.54-.65l.38-.21.43.5a1,1,0,0,0,0-.12l.06-.62c0-.09,0-.11.14-.1l.28,0c.12,0,.16,0,.14.13s-.05.46-.07.73l.19-.15.26-.23a.09.09,0,0,1,.15,0l.26.2-.29.26-.55.48a.29.29,0,0,0-.09.16,3,3,0,0,0,0,.52l.75-.63.34.27-.55.45L101,112s-.06.06-.06.09l-.09.94.11,0,.87-.34a.41.41,0,0,0,.17-.15c.2-.34.39-.68.58-1,.05-.1.11-.12.22-.06l.27.11-.46.82c.17-.06.29-.12.43-.16a.66.66,0,0,0,.42-.34c.11-.23.26-.45.39-.68a.1.1,0,0,1,.16,0l.31.13-.3.52v0l.92-.35.24.41-.9.36v0l.69.14-.1.37-.77-.15-.24,0a.77.77,0,0,0-.61,0c-.11.06-.24.1-.36.17l1,.22a3,3,0,0,1-.11.32s-.07,0-.1,0l-1.42-.29a.37.37,0,0,0-.18,0l-1,.39.36.21c.17.09.34.18.49.28a.51.51,0,0,0,.32.07l1.36-.1h.15c0,.1,0,.19,0,.29s0,.09-.11.09l-1,.08a1.6,1.6,0,0,1,.27.16,1,1,0,0,0,.83.17c.24,0,.49,0,.74,0,.1,0,.16,0,.16.1a1.23,1.23,0,0,0,0,.27l-.71,0v0l.82.47-.31.38-.83-.47h0l.2.56-.44.12c-.07-.17-.13-.34-.19-.5a3.89,3.89,0,0,1-.16-.44.34.34,0,0,0-.19-.2c-.16-.08-.31-.17-.49-.25l.29.85-.45.1c-.08-.23-.16-.44-.23-.66s-.13-.39-.2-.58a.18.18,0,0,0-.07-.1l-1-.54a.51.51,0,0,0,0,.09c0,.27-.06.54-.08.8a.23.23,0,0,0,.06.16l.9,1.06-.37.22-.65-.75c0,.23,0,.42-.06.61,0,0,0,.08.07.12l.68.82-.38.21-.41-.47h0l0,.55c0,.26,0,.26-.35.24s-.24,0-.22-.21l.06-.62h0l-.5.42-.34-.26c.22-.19.41-.38.63-.54a.68.68,0,0,0,.34-.62,1,1,0,0,1,0-.24h0l-.74.62-.34-.27.65-.54.45-.37a.35.35,0,0,0,.08-.1c0-.31.06-.62.09-1l-.12,0c-.28.11-.57.21-.84.33a.41.41,0,0,0-.19.15c-.21.36-.41.72-.61,1.08l-.05.06-.42-.15.45-.8,0,0-.65.26s-.06.07-.08.11c-.17.29-.35.58-.52.88l-.35-.13c-.08,0-.06-.07,0-.11s.17-.3.28-.47l-.15,0-.69.27c-.08,0-.13,0-.16,0Z"/><path d="M74.54,107.45l.78-.51v0H74.6a1.74,1.74,0,0,1,0-.32s.1-.06.15-.06h1.09a.49.49,0,0,0,.2,0l.52-.34-1.12,0v-.38h1.62a.15.15,0,0,0,.1,0l.91-.6-.3-.1-.71-.22a.41.41,0,0,0-.22,0l-1.36.37c-.11,0-.15,0-.19-.07-.1-.29-.17-.23.22-.34q.34-.09.69-.21c-.31-.07-.56-.29-.94-.16s-.62.16-.93.24c-.08,0-.11,0-.13,0a1.07,1.07,0,0,0-.07-.19c-.05-.08,0-.1.08-.12a4.52,4.52,0,0,0,.56-.18l-.93-.3.19-.42.94.29,0,0-.35-.51L75,103a.15.15,0,0,1,.11,0l.55.77a.41.41,0,0,0,.22.16c.19,0,.37.11.58.15l-.53-.77.33-.15a.09.09,0,0,1,.13,0c.24.36.47.72.72,1.07a.43.43,0,0,0,.21.12l.91.28h.07l0-.15a3,3,0,0,1-.1-.5c0-.25-.17-.4-.39-.55s-.58-.4-.86-.61l-.08-.06.31-.28.8.57h0c0-.1,0-.19-.06-.29a.65.65,0,0,0-.34-.52c-.25-.16-.47-.34-.72-.52l.31-.28.56.4a.57.57,0,0,1,0-.12c0-.2-.08-.41-.13-.62s0-.11.11-.12a1.27,1.27,0,0,0,.28,0c.12,0,.16,0,.18.1s.09.46.14.72l.14-.18c.06-.09.13-.18.19-.28s.07-.07.14,0l.31.15-.2.3c-.14.19-.28.38-.4.58a.25.25,0,0,0,0,.17,2.27,2.27,0,0,0,.12.5l.56-.75.4.19-.4.55-.42.58a.13.13,0,0,0,0,.1c0,.3.11.61.18.92l.09,0c.26-.17.51-.33.75-.5a.41.41,0,0,0,.13-.17l.27-1.12c0-.11.07-.14.19-.11a2.27,2.27,0,0,0,.3.06l-.21.89.37-.24A.56.56,0,0,0,81,103a7.33,7.33,0,0,1,.19-.74c0-.07,0-.09.13-.07l.35.07-.15.57h0l.79-.51.35.35-.77.52v0h.71v.37h-1a.76.76,0,0,0-.58.17c-.09.08-.2.14-.3.23l1.08,0c0,.11,0,.22,0,.33s-.06.05-.09.05l-1.46,0a.34.34,0,0,0-.18,0l-.89.58.41.14c.18,0,.37.1.55.17a.56.56,0,0,0,.34,0l1.28-.36.15,0q.06.15.12.27c0,.07,0,.1-.08.12l-.94.26.31.11a1.12,1.12,0,0,0,.86,0c.22-.08.47-.13.7-.19s.16,0,.18.07a2.77,2.77,0,0,0,.1.26l-.67.18v0l.94.3-.2.43-.94-.29h0l.35.51-.4.19-.32-.44a3.6,3.6,0,0,1-.28-.4.41.41,0,0,0-.24-.16c-.18-.05-.35-.11-.55-.15l.52.77L81,107l-.42-.6-.36-.53a.2.2,0,0,0-.1-.08L79,105.41a.34.34,0,0,1,0,.09c0,.27.1.53.16.79a.25.25,0,0,0,.1.15l1.18.85-.3.29-.85-.6c0,.22.08.41.12.6s.06.07.1.1l.9.67-.31.28-.53-.39,0,0,.1.54c.06.26.06.26-.27.3s-.22.06-.27-.16l-.12-.61h0l-.36.5-.4-.19a7.33,7.33,0,0,1,.45-.64.63.63,0,0,0,.15-.67,1.89,1.89,0,0,1-.05-.23h0l-.54.74-.41-.19c.17-.22.32-.44.48-.65l.33-.45s0-.08,0-.11c0-.31-.11-.62-.18-.94l-.11.06-.72.48a.35.35,0,0,0-.13.19c-.11.38-.2.77-.29,1.16l0,.07-.45-.07.21-.86,0,0-.55.38s0,.08,0,.12c-.09.32-.17.63-.26,1-.13,0-.25,0-.38-.06s-.07-.06,0-.1l.13-.52-.13.08-.59.39a.11.11,0,0,1-.18,0Z"/><path d="M113.58,95.61l1,0v0l-.56-.36a3.07,3.07,0,0,1,.25-.26.33.33,0,0,1,.15,0l.87.54a.43.43,0,0,0,.2.06h.66l-.87-.58.29-.29.54.34.73.47a.21.21,0,0,0,.1,0l1.17,0c-.07-.09-.11-.16-.17-.23s-.26-.36-.4-.53a.31.31,0,0,0-.16-.11L116,94.27c-.11,0-.13-.06-.09-.14.13-.29,0-.27.42-.17s.47.13.71.18c-.19-.21-.23-.51-.62-.59s-.61-.18-.92-.27c-.08,0-.1-.06-.07-.12a.76.76,0,0,0,.09-.18c0-.08.07-.08.16-.06a3.17,3.17,0,0,0,.57.14l-.51-.69.47-.24.53.69h0l.1-.58.39.05s.06.06,0,.08c0,.3-.08.59-.14.88a.3.3,0,0,0,.06.24c.11.13.2.27.34.41l.16-.87.38,0c.07,0,.08,0,.07.09-.08.4-.16.8-.23,1.2a.33.33,0,0,0,.07.21l.52.67s0,0,.05,0l.09-.14a4.27,4.27,0,0,1,.3-.44.59.59,0,0,0,.1-.63c-.09-.3-.15-.61-.22-.91a.25.25,0,0,1,0-.09l.45-.07.21.86h0a1.45,1.45,0,0,1,.17-.26.57.57,0,0,0,.12-.58,6.33,6.33,0,0,1-.17-.78l.45-.06.14.6.08-.1.37-.55c0-.08.09-.09.18,0l.24.11c.11,0,.13.08.07.16s-.28.41-.44.65l.25-.08.36-.12c.07,0,.11,0,.13,0l.14.27-.39.14-.75.26a.38.38,0,0,0-.16.12,2.35,2.35,0,0,0-.28.46l1-.32.18.35-.73.24-.76.24-.11.06-.55.82a.22.22,0,0,0,.11,0c.33,0,.65,0,1,0a.45.45,0,0,0,.23-.07q.52-.36,1-.75c.1-.07.16-.07.23,0l.2.19-.84.6c.18,0,.32,0,.47,0a.8.8,0,0,0,.55-.17c.22-.18.47-.33.71-.49a.1.1,0,0,1,.16,0l.22.22-.54.38v0h1l0,.45-1,0,0,0,.56.36-.28.3-.62-.39-.19-.12a.76.76,0,0,0-.59-.16c-.13,0-.27,0-.42,0l.84.56-.25.25a.11.11,0,0,1-.11,0c-.39-.24-.77-.49-1.15-.74a.35.35,0,0,0-.17-.06l-1.14,0,.22.31c.1.13.22.27.31.41a.4.4,0,0,0,.26.17l1.28.36.15,0c0,.09-.08.18-.11.27s-.07.08-.16,0l-.93-.26a2,2,0,0,1,.16.24A.92.92,0,0,0,121,98c.24,0,.47.13.7.2s.14.06.09.15a1.92,1.92,0,0,0-.12.25l-.66-.2,0,0,.52.7-.48.24-.52-.7h0l-.1.58-.46,0c0-.18.05-.35.08-.52s0-.3.07-.45A.26.26,0,0,0,120,98a3.66,3.66,0,0,0-.32-.39l-.16.87-.47,0c0-.24.09-.46.13-.69s.07-.39.11-.59c0,0,0-.09,0-.12l-.59-.81-.07.08-.47.7a.26.26,0,0,0,0,.17c.09.42.19.83.3,1.26l-.46.08-.22-.9-.36.54s0,.08,0,.13l.21,1-.46.07-.13-.57h0l-.33.48c-.16.23-.16.23-.44.1s-.22-.07-.1-.26l.37-.54,0,0-.66.22-.18-.35c.29-.1.56-.21.84-.28a.85.85,0,0,0,.62-.45,1.28,1.28,0,0,1,.14-.21l0,0-1,.31-.17-.35.86-.28.6-.19a.27.27,0,0,0,.12-.07l.57-.83h-1.07a.73.73,0,0,0-.25.08l-1.09.78-.08,0-.3-.28.81-.58v0c-.24,0-.48,0-.72,0,0,0-.09,0-.13.07-.31.2-.61.41-.93.63l-.25-.24c0-.05,0-.08,0-.11s.31-.21.49-.34h-.92c-.09,0-.13,0-.12-.1S113.58,95.74,113.58,95.61Z"/><path d="M88,80.21v-.82h0l-.45.45a3.53,3.53,0,0,1-.32-.21s0-.09,0-.12l.69-.69a.28.28,0,0,0,.07-.17c0-.17,0-.33,0-.54l-.73.69L87,78.55l.43-.42.6-.59a.1.1,0,0,0,0-.08c0-.31,0-.62,0-.95l-.29.12-.66.32a.3.3,0,0,0-.14.13c-.18.36-.35.73-.51,1.1,0,.09-.08.1-.18.07-.35-.12-.33,0-.19-.35s.17-.38.24-.58c-.26.15-.63.18-.75.49s-.24.5-.36.75c0,.06-.06.07-.14,0l-.22-.08c-.1,0-.1-.06-.07-.13a2.62,2.62,0,0,0,.19-.46l-.87.39-.28-.39.87-.41v0l-.7-.1A2.44,2.44,0,0,1,84,77.1s.07,0,.11,0l1.07.14a.47.47,0,0,0,.29,0l.52-.26L85,76.73l.06-.31c0-.06,0-.06.12,0l1.46.22a.5.5,0,0,0,.26-.06c.28-.12.55-.26.83-.4,0,0,0,0,0,0L87.58,76a5.29,5.29,0,0,1-.54-.25,1,1,0,0,0-.77-.1c-.37.06-.75.1-1.12.15H85L85,75.45l1-.15,0,0a2.23,2.23,0,0,1-.31-.15A.92.92,0,0,0,85,75c-.31,0-.63.08-1,.12L84,74.76l.73-.09-.12-.07L84,74.29c-.09-.05-.1-.08,0-.15a1,1,0,0,0,.15-.2c0-.08.1-.1.2,0s.5.24.78.38l-.09-.21a2.59,2.59,0,0,0-.14-.29c0-.06,0-.09.06-.11l.34-.11.16.33c.1.2.19.41.29.61a.37.37,0,0,0,.14.14,3.63,3.63,0,0,0,.56.24L86,74l.44-.13.27.6c.09.21.18.42.28.63a.14.14,0,0,0,.07.08l1,.48a.51.51,0,0,0,0-.09c0-.27,0-.53,0-.79a.27.27,0,0,0-.08-.19c-.29-.3-.59-.59-.89-.88-.09-.08-.08-.13,0-.19a2.29,2.29,0,0,0,.24-.15l.72.7c0-.15,0-.27,0-.38a.49.49,0,0,0-.19-.46c-.2-.19-.38-.39-.58-.59s-.05-.09,0-.13l.28-.18.45.46h0V72h.56v.82h0l.46-.45.36.24-.5.5s-.09.1-.15.15a.5.5,0,0,0-.21.47c0,.11,0,.22,0,.34l.7-.66.31.21a.1.1,0,0,1,0,.09l-.94.92a.18.18,0,0,0-.08.13c0,.3,0,.61,0,.93l.39-.17c.17-.08.34-.17.51-.24a.33.33,0,0,0,.22-.21l.48-1a.45.45,0,0,1,.06-.12l.33.1c.08,0,.09.06.06.12-.12.25-.22.49-.35.76l.3-.13a.77.77,0,0,0,.55-.53,5.77,5.77,0,0,1,.27-.56c0-.08.08-.12.19-.07l.3.1-.26.54,0,0,.88-.4.28.39-.87.41v0l.7.1-.07.37L92,75.1,91.42,75a.43.43,0,0,0-.3,0c-.16.08-.33.15-.49.25l1.06.16-.08.38-.83-.12-.73-.11a.22.22,0,0,0-.14,0l-1,.46.09.06.85.4a.35.35,0,0,0,.2,0c.52-.06,1-.14,1.56-.21l.08.38-1.1.15.64.31s.11,0,.16,0l1.21-.15.07.38-.71.09v0l.58.28c.28.13.28.13.11.36s-.09.18-.32.07L91.66,78l0,0,.24.55-.43.13a7.09,7.09,0,0,1-.32-.69.8.8,0,0,0-.54-.52,1.92,1.92,0,0,1-.25-.12l0,0,.36.82-.44.13c-.11-.25-.21-.48-.32-.71s-.14-.33-.22-.5a.23.23,0,0,0-.07-.1l-1-.48a.49.49,0,0,0,0,.11c0,.26,0,.51,0,.76a.36.36,0,0,0,.09.21l.92.91,0,.07-.35.23-.69-.67h0v.58s.06.08.09.11l.75.77-.3.2a.09.09,0,0,1-.13,0c-.13-.13-.26-.25-.41-.41,0,.06,0,.1,0,.13v.62c0,.08,0,.11-.13.1Z"/><path d="M78.31,87v-.66h0l-.37.36a1.53,1.53,0,0,1-.25-.16s0-.08,0-.11l.55-.56a.16.16,0,0,0,.06-.13c0-.14,0-.27,0-.44l-.59.56-.28-.19.35-.35.48-.47s0,0,0-.06c0-.26,0-.51,0-.78l-.23.1-.54.26a.22.22,0,0,0-.12.11c-.14.29-.27.59-.41.88,0,.08-.06.09-.15.06-.28-.1-.26,0-.15-.28s.14-.31.2-.47c-.21.12-.51.14-.61.4s-.19.4-.29.6c0,0,0,.06-.11,0l-.18-.06c-.08,0-.08,0-.06-.1a2.17,2.17,0,0,0,.16-.38l-.71.32-.22-.32.7-.33v0L75,84.72c0-.09,0-.17,0-.25a.13.13,0,0,1,.09,0l.87.11a.31.31,0,0,0,.23,0,4.11,4.11,0,0,0,.42-.21l-.86-.13a2.21,2.21,0,0,1,0-.25s0,0,.09,0l1.19.18a.49.49,0,0,0,.2,0l.68-.32,0,0L78,83.59a3.42,3.42,0,0,1-.43-.21.87.87,0,0,0-.62-.08c-.3.06-.61.09-.91.13H75.9l-.06-.29L76.7,83v0l-.26-.12a.74.74,0,0,0-.57-.09c-.25,0-.5.06-.77.09l0-.3.59-.08-.1,0L75,82.19c-.08,0-.08-.06,0-.12l.12-.16c0-.07.08-.08.16,0l.63.3L75.82,82l-.11-.24s0-.07,0-.09L76,81.6c0,.09.09.17.13.26s.15.34.23.5a.32.32,0,0,0,.12.11,2.65,2.65,0,0,0,.45.19l-.3-.67.36-.1.21.48c.08.17.16.34.23.51a.11.11,0,0,0,.06.07l.8.39a.45.45,0,0,0,0-.08v-.64a.23.23,0,0,0-.07-.15c-.24-.24-.47-.48-.72-.71-.07-.07-.07-.11,0-.15l.2-.13.57.57a2.91,2.91,0,0,1,0-.31.41.41,0,0,0-.16-.37c-.16-.15-.31-.32-.47-.48s0-.07,0-.1l.22-.14.37.36h0v-.67h.45V81h0l.37-.36.3.19c-.14.14-.27.28-.41.41l-.12.12a.41.41,0,0,0-.17.38c0,.09,0,.18,0,.28l.57-.54.25.17a.11.11,0,0,1,0,.08l-.76.74a.15.15,0,0,0-.07.11c0,.24,0,.49,0,.75l.32-.14.41-.19a.3.3,0,0,0,.18-.17c.13-.28.26-.56.38-.84l0-.09.27.07c.07,0,.08,0,0,.11l-.28.61.24-.11a.65.65,0,0,0,.45-.43c.06-.15.14-.3.21-.45a.11.11,0,0,1,.16-.06l.24.08-.21.44,0,0,.71-.33.23.32-.71.33v0l.57.08-.06.3-.5-.06-.45-.06a.35.35,0,0,0-.25,0,3.6,3.6,0,0,0-.39.2l.85.13-.06.3-.67-.09L80,83.28h-.12l-.81.37.07,0,.69.33a.3.3,0,0,0,.16,0l1.26-.17.07.31-.9.12.53.25a.48.48,0,0,0,.12,0l1-.12.06.3-.57.08v0l.48.23c.22.1.22.1.09.29s-.08.14-.26.06l-.54-.26,0,0,.2.44-.35.11c-.09-.19-.19-.37-.26-.56a.65.65,0,0,0-.43-.42l-.21-.1,0,0,.29.66-.36.1c-.09-.19-.17-.38-.25-.57l-.18-.4s0-.07-.06-.08L78.8,84a.31.31,0,0,0,0,.09c0,.2,0,.4,0,.61a.25.25,0,0,0,.08.16c.24.26.49.5.74.75l0,0-.29.19-.55-.55h0c0,.16,0,.32,0,.47s0,.07.07.09l.6.63a2,2,0,0,0-.24.16.08.08,0,0,1-.11,0l-.32-.34a.49.49,0,0,0,0,.11c0,.16,0,.33,0,.5s0,.09-.11.08Z"/><path d="M95.68,108.87l-1.58-.17-1-.21a15.64,15.64,0,0,1-6.18-2.7,15.3,15.3,0,0,1-3.58-3.89,9.71,9.71,0,0,1-1.72-5.55c0-.26,0-.51,0-.77l.23-1.42.07-.18a12.17,12.17,0,0,1,2.15-4.49,12.69,12.69,0,0,1,4.09-3.37,16.14,16.14,0,0,1,8.39-2.26,5.26,5.26,0,0,0,1-.1c.29-.06.35-.28.13-.45a1.19,1.19,0,0,0-.38-.22,4.88,4.88,0,0,1-2-1.36A1.19,1.19,0,0,1,95,80.9c0-.44,0-.87.06-1.3a1.52,1.52,0,0,1,.42-1,7.83,7.83,0,0,1,.78-.74,2.86,2.86,0,0,1,1.8-.62h.86l1.7.18.23.06a14.23,14.23,0,0,1,1.49.43,2.3,2.3,0,0,1,1.64,2,5.46,5.46,0,0,1-.06,1.21c-.15,1.13-.94,1.79-2.27,2.06-.43.09-.86.22-1.27.35a1,1,0,0,0-.32.23,1.2,1.2,0,0,0,.34.21c.77.26,1.56.49,2.33.76a13.94,13.94,0,0,1,8.2,6.41,9.83,9.83,0,0,1,1.35,5.21c0,.28,0,.57,0,.85L112,99a2.25,2.25,0,0,0-.08.24,9,9,0,0,1-1.41,3.24,16.4,16.4,0,0,1-5.75,4.85,12.83,12.83,0,0,1-4.19,1.43,23.5,23.5,0,0,1-3.66.16Zm14.71-11.2c.06-.78.13-1.56.16-2.34,0-1-.59-1.88-.83-2.83a12.61,12.61,0,0,0-3.07-3.89,15.5,15.5,0,0,0-11.74-3.27A13.77,13.77,0,0,0,87,88.79a9.63,9.63,0,0,0-3.64,7.88,10.29,10.29,0,0,0,4.2,7.73,14,14,0,0,0,7.9,3.13,16.49,16.49,0,0,0,5-.26,14.2,14.2,0,0,0,6.07-3,12.14,12.14,0,0,0,3-3.61A9.43,9.43,0,0,0,110.39,97.67ZM99.47,78.53v0l-.53-.06a1.52,1.52,0,0,0-.82.14,6,6,0,0,0-.73.45,1.37,1.37,0,0,0-.45,2,1.22,1.22,0,0,0,1,.54c.17,0,.36,0,.4-.18s-.14-.18-.25-.25a1.29,1.29,0,0,1-.4-.31,1.16,1.16,0,0,1,.75-1.69,3.19,3.19,0,0,1,2.41.19.81.81,0,0,1,.52.59,1.37,1.37,0,0,1-.39,1.16.69.69,0,0,1-.32.16c-.35.07-.47.16-.49.45s.13.39.46.27a3.19,3.19,0,0,0,1.1-.61,1.42,1.42,0,0,0-.66-2.5C100.53,78.72,100,78.65,99.47,78.53Zm-1,1a.75.75,0,0,0-.31.85A.89.89,0,0,0,98.51,79.56Zm.55.44a.64.64,0,0,0,.07.91A1.5,1.5,0,0,0,99.06,80Zm1,.14H100l-.11.68h0A.83.83,0,0,0,100,80.14Zm.59.55h.06a.87.87,0,0,0,.11-.68h-.06Z"/><path d="M89.78,89l.35.27c.36.32.71.65,1.08,1a5.76,5.76,0,0,0,.72.44c.27.15.49.31.53.61a.77.77,0,0,0,.24.4,13.58,13.58,0,0,0,2,1.78,4,4,0,0,1,1.39,1.61,1,1,0,0,0,.79.58,1.21,1.21,0,0,1,.95.74.32.32,0,0,1-.09.37.79.79,0,0,0-.17.31,8.83,8.83,0,0,0-.28,3.31,6.54,6.54,0,0,1,0,1.25c0,.55-.14,1.11-.21,1.67,0,.07,0,.13-.06.21a.34.34,0,0,1-.24-.34c0-.44,0-.89-.09-1.33s-.11-.67-.15-1a2.92,2.92,0,0,1,0-.66,9.37,9.37,0,0,0,0-2.48,1.88,1.88,0,0,0-.42-.92.58.58,0,0,1-.15-.6.3.3,0,0,0-.11-.25,3.86,3.86,0,0,0-.58-.49,5.85,5.85,0,0,1-1.69-1.71c-.35-.52-.71-1-1.11-1.53a3.43,3.43,0,0,0-.76-.57,1.07,1.07,0,0,1-.51-.58,3.47,3.47,0,0,0-.58-.85l-.77-1a.75.75,0,0,1-.1-.2Z"/><path d="M108.83,92.72l-.16-.2A18.67,18.67,0,0,0,105,88.66a13.11,13.11,0,0,0-7.43-2.55,14.16,14.16,0,0,0-7.44,1.73,11.31,11.31,0,0,0-5,5.15c-.1.21-.23.41-.34.61l-.08,0a.59.59,0,0,1,0-.23,12.93,12.93,0,0,1,.78-1.64c2.41-3.8,6.27-5.79,11.51-5.85a13.36,13.36,0,0,1,9.12,3.2,12,12,0,0,1,2.46,3c.13.22.21.46.32.69Z"/><path d="M108.08,101.67a1.68,1.68,0,0,1-.2.34,10.17,10.17,0,0,1-.84.9c-.69.61-1.39,1.21-2.11,1.79a9.76,9.76,0,0,1-3.57,1.65,18.19,18.19,0,0,1-5.16.6,13.62,13.62,0,0,1-4.52-1,11.68,11.68,0,0,1-5.88-4.58,8.91,8.91,0,0,1-1.53-4.31c0-.41-.07-.82-.08-1.23a2.46,2.46,0,0,1,.08-.46h.1a.79.79,0,0,1,.08.23c0,.32,0,.64,0,.95a8.36,8.36,0,0,0,1,3.69A10.78,10.78,0,0,0,88.53,104a12.49,12.49,0,0,0,4.64,2.13,16.19,16.19,0,0,0,8.15,0,9.74,9.74,0,0,0,2.35-1,15.65,15.65,0,0,0,3.12-2.28c.3-.3.58-.62.88-.92a2.18,2.18,0,0,1,.34-.26Z"/><path d="M98.86,86.7c.17,0,.21.12.19.24-.1.58-.19,1.16-.3,1.74a.57.57,0,0,1-.11.27.42.42,0,0,1-.24.14.93.93,0,0,1-1-.47.34.34,0,0,0-.6-.08c-.09.11-.15.23-.24.33s-.25.28-.45.19-.07-.26,0-.38a2.72,2.72,0,0,1,.31-.47.83.83,0,0,0,.1-1,2.11,2.11,0,0,1-.19-.47.47.47,0,0,1,0-.23.82.82,0,0,1,.25.1,3.58,3.58,0,0,1,.27.29.29.29,0,0,0,.45.06c.15-.1.29-.21.46-.31a.66.66,0,0,1,.25,0c0,.07,0,.15,0,.21a1.36,1.36,0,0,1-.24.38.8.8,0,0,0-.17.86,1.44,1.44,0,0,0,.18.4c0,.08.14.13.22.2s.17-.13.19-.2c.11-.28.19-.57.28-.85s.15-.47.24-.71A.87.87,0,0,1,98.86,86.7Z"/><path d="M89.31,92.61a.79.79,0,0,1-.16-.15l-.38-.58c0-.09-.09-.18-.14-.26a.66.66,0,0,0-.63-.34h-1l-.26-.11c.06-.07.1-.19.18-.21a3.1,3.1,0,0,1,.75-.13c.45,0,.49-.06.32-.4a.79.79,0,0,1-.11-.29c0-.06,0-.14,0-.21a1,1,0,0,1,.27.06,3.32,3.32,0,0,1,.38.37c.07.07.12.16.19.24a1,1,0,0,0,.89.34,3.2,3.2,0,0,1,.44,0,1,1,0,0,1,.27.15c-.07.07-.12.16-.21.2a1.76,1.76,0,0,1-.41.1,1.66,1.66,0,0,1-.22,0c-.25,0-.29.12-.21.32a2.88,2.88,0,0,1,.15.5.36.36,0,0,1-.05.24S89.37,92.57,89.31,92.61Z"/><path d="M87,94.8l.66.39a1.8,1.8,0,0,1,.34.26s.09.17,0,.21a.41.41,0,0,1-.27.11,1.16,1.16,0,0,1-.37-.13,4.68,4.68,0,0,1-.44-.27.93.93,0,0,0-.8-.13c-.25.07-.5.13-.76.18a1,1,0,0,1-.34,0c-.16,0-.21-.12-.1-.22a1.42,1.42,0,0,1,.36-.21,3,3,0,0,1,.32-.11c.2-.08.21-.14.06-.28s-.22-.18-.32-.28a.66.66,0,0,1-.14-.2c-.06-.14,0-.23.2-.18a1.52,1.52,0,0,1,.5.22,1.23,1.23,0,0,0,1.42.12,3.22,3.22,0,0,1,.71-.19c.12,0,.27,0,.33.1s0,.22-.16.27l-.94.26Z"/><path d="M92.37,89.31c0,.14,0,.27,0,.4s-.1.38-.22.35-.19-.21-.2-.34a1,1,0,0,1,0-.35.77.77,0,0,0-.41-.79,3.91,3.91,0,0,1-.61-.43c-.07-.06-.06-.17-.09-.25a1.38,1.38,0,0,1,.34,0,3,3,0,0,1,.41.19c.21.1.28.07.34-.12a1.34,1.34,0,0,1,.14-.38.31.31,0,0,1,.19-.09s.12.08.13.13a.79.79,0,0,1,0,.34.76.76,0,0,0,.4.78c.19.13.39.25.57.4a1.21,1.21,0,0,1,.25.3s0,.11,0,.17a1.23,1.23,0,0,1-.2,0,5.44,5.44,0,0,1-.5-.22c-.12,0-.25-.11-.38-.15S92.37,89.18,92.37,89.31Z"/><path d="M100.46,103.25l.24.14a10.56,10.56,0,0,1,1.72,1.53c.08.08.23.19.1.3a.32.32,0,0,1-.42,0,7.77,7.77,0,0,1-.74-.54l-.32-.24-.06,0a2,2,0,0,1,0,.24c0,.27.12.54.15.82a.25.25,0,0,1-.12.22.21.21,0,0,1-.28-.13,3.47,3.47,0,0,1-.25-.65c-.08-.41-.12-.83-.16-1.24a2,2,0,0,1,0-.42Z"/><path d="M103.51,101.42a1.06,1.06,0,0,1,.28.06c.7.28,1.4.57,2.09.87a.84.84,0,0,1,.29.2c.12.1.08.2-.09.2a1.71,1.71,0,0,1-.5-.1c-.21-.08-.39-.2-.6-.29a.39.39,0,0,0-.26,0s0,.14,0,.2.19.33.27.5a1.73,1.73,0,0,1,.14.44c0,.07-.08.17-.16.21a.22.22,0,0,1-.27-.08,8.58,8.58,0,0,1-1.18-2,.18.18,0,0,1,0-.1A.41.41,0,0,1,103.51,101.42Z"/><path d="M96.59,105c-.13.22-.22.41-.34.58a3.89,3.89,0,0,1-.41.5.61.61,0,0,1-.26.08.52.52,0,0,1,0-.21c.06-.17.15-.34.22-.51.15-.36.3-.73.46-1.1a1.68,1.68,0,0,1,.2-.34c.12-.17.19-.17.31,0l.08.13a6.25,6.25,0,0,1,.62,1.74.88.88,0,0,1,0,.39c0,.12-.16.14-.26,0a1.27,1.27,0,0,1-.25-.37c-.1-.25-.17-.5-.25-.75A1.24,1.24,0,0,0,96.59,105Z"/><path d="M89.43,100.31a1.7,1.7,0,0,1-.15.21l-1.77,1.63a.37.37,0,0,1-.25.08c-.11-.07-.21-.18-.11-.3a5.07,5.07,0,0,1,.49-.55c.17-.16.37-.3.54-.48l-.57,0-.87.08c-.06,0-.17,0-.17-.06a.15.15,0,0,1,.06-.16.52.52,0,0,1,.25-.11,10.06,10.06,0,0,1,2.2-.41Z"/><path d="M91.48,105.33a1,1,0,0,1,0-.25c.09-.31.2-.63.31-.94l.06-.21-.15.07-.91.51a.62.62,0,0,1-.24.08c-.1,0-.15,0-.11-.1a.87.87,0,0,1,.16-.23,9.44,9.44,0,0,1,1.76-1.35.61.61,0,0,1,.14-.07c.16,0,.25,0,.23.13a2.47,2.47,0,0,1-.13.52c-.21.48-.42,1-.64,1.43a1.36,1.36,0,0,1-.24.31,1,1,0,0,1-.15.14Z"/><path d="M104.55,88.93a2.23,2.23,0,0,1-.17.25c-.46.46-.91.92-1.38,1.37a.68.68,0,0,1-.29.18.51.51,0,0,1-.3-.06s0-.16,0-.21a6.87,6.87,0,0,1,1.71-1.59.88.88,0,0,1,.3-.1C104.54,88.74,104.58,88.8,104.55,88.93Z"/><path d="M99.24,88.58c.16-.44.31-.88.48-1.31A.84.84,0,0,1,99.9,87s.12-.07.19-.11a.76.76,0,0,1,.11.16.37.37,0,0,1,0,.18,4.85,4.85,0,0,1-.55,1.88c-.06.12-.11.31-.31.28s-.11-.23-.12-.36a3,3,0,0,1,.06-.42Z"/><path d="M108.34,93.1a.58.58,0,0,1-.19.16c-.77.32-1.53.64-2.31.95a.31.31,0,0,1-.46-.27s.07-.12.13-.14a4.3,4.3,0,0,1,.54-.2l1.85-.52c.13,0,.28,0,.42,0Z"/><path d="M91.57,102.24a4,4,0,0,1-.35.56c-.34.4-.7.78-1.06,1.15a1.47,1.47,0,0,1-.38.25s-.14,0-.21,0a.85.85,0,0,1,0-.16.81.81,0,0,1,.1-.18A8.46,8.46,0,0,1,91,102.34a1.73,1.73,0,0,1,.31-.22.28.28,0,0,1,.18,0S91.54,102.18,91.57,102.24Z"/><path d="M108.53,98.73a4.21,4.21,0,0,1-.5,0,12.5,12.5,0,0,1-2.29-.31c-.11,0-.28-.05-.25-.19a.27.27,0,0,1,.34-.18l1.94.32a4.17,4.17,0,0,1,.57.18,1.06,1.06,0,0,1,.21.11Z"/><path d="M104.52,100.45c.11,0,.23.08.32.13l1.78,1.19c.09.06.25.15.12.27a.47.47,0,0,1-.34,0,9.85,9.85,0,0,1-1.89-1.18.54.54,0,0,1-.15-.15s-.07-.13,0-.17S104.45,100.47,104.52,100.45Z"/><path d="M105.05,93.25l.21-.18a8,8,0,0,1,2.24-.89,2.62,2.62,0,0,1,.57,0A6.65,6.65,0,0,1,105.05,93.25Z"/><path d="M88.45,98.27l-.28.11c-.38.1-.75.22-1.13.31s-1,.2-1.51.29c-.09,0-.22.07-.25,0s.08-.15.15-.18a11.57,11.57,0,0,1,2.48-.63,2.11,2.11,0,0,1,.36,0S88.35,98.19,88.45,98.27Z"/><path d="M94.66,106.07a3.23,3.23,0,0,1,0-.53c.07-.47.16-.94.25-1.4a.61.61,0,0,1,.15-.27.3.3,0,0,1,.21-.1c.06,0,.15.12.14.17a5.31,5.31,0,0,1-.13.89,9.16,9.16,0,0,1-.33,1,1.2,1.2,0,0,1-.15.24Z"/><path d="M105.76,97.39a6.13,6.13,0,0,1,3.21.33,1.54,1.54,0,0,1-.27.07A9.3,9.3,0,0,1,106,97.5,2.41,2.41,0,0,1,105.76,97.39Z"/><path d="M88.61,98.77a2.07,2.07,0,0,1-.25.15,11.11,11.11,0,0,1-2.15.64,3.88,3.88,0,0,1-.58.09.58.58,0,0,1-.21-.07s.07-.11.13-.14a8,8,0,0,1,.83-.27c.63-.16,1.26-.3,1.9-.44a2.83,2.83,0,0,1,.3,0Z"/><path d="M90.7,101.72a1.23,1.23,0,0,1-.09.24,5.56,5.56,0,0,1-1.52,1.58.77.77,0,0,1-.27.08c0-.09,0-.19,0-.26a6.19,6.19,0,0,1,1.63-1.55A.86.86,0,0,1,90.7,101.72Z"/><path d="M88,96.49a5.87,5.87,0,0,1-3.09-.35,1.14,1.14,0,0,1,.3-.06,7.91,7.91,0,0,1,2.47.27A2.84,2.84,0,0,1,88,96.49Z"/><path d="M109,96.76a1.57,1.57,0,0,1-.3,0,10.11,10.11,0,0,1-2.52-.3,1.6,1.6,0,0,1-.23-.1v0a.82.82,0,0,1,.26-.06,8,8,0,0,1,2.53.28,1.59,1.59,0,0,1,.27.12Z"/><path d="M85.89,100.24a8.66,8.66,0,0,1,2.92-.91l0,.06c-.07,0-.12.11-.19.15a8.92,8.92,0,0,1-2.47.79,1.4,1.4,0,0,1-.29,0Z"/><path d="M93.37,87a1,1,0,0,1,.17.19c.3.6.61,1.21.9,1.81a.85.85,0,0,1,0,.35,1.24,1.24,0,0,1-.3-.23,5.61,5.61,0,0,1-.8-1.83,1.29,1.29,0,0,1,0-.28Z"/><path d="M109.55,97.48l0-2C110,95.72,109.85,97.1,109.55,97.48Z"/><path d="M108.66,100.46a2.87,2.87,0,0,1,.69-1.6A3.13,3.13,0,0,1,108.66,100.46Z"/><path d="M109.23,93.8c.38.28.58,1.11.32,1.33A3,3,0,0,1,109.23,93.8Z"/><path d="M84.52,94.3c.14,0,.22.11.2.23a.22.22,0,0,1-.27.16c-.15,0-.23-.1-.21-.22S84.37,94.29,84.52,94.3Z"/></g></g></svg>