<svg xmlns="http://www.w3.org/2000/svg" viewBox="0 0 32 32"><defs><style>.cls-1{fill:#231f20;}</style></defs><g id="Layer_2" data-name="Layer 2"><g id="Layer_1-2" data-name="Layer 1"><path class="cls-1" d="M32,15.85c-.1-1.84,0-3.67,0-5.51,0-2.51,0-5,0-7.54,0-.78-.26-1.08-1.31-.88a18.75,18.75,0,0,1-3.19.33A24.74,24.74,0,0,1,17,.23a2.56,2.56,0,0,0-2.18,0A24.67,24.67,0,0,1,1.48,2C0,1.76,0,1.79,0,3c0,4.67,0,9.34,0,14a9.71,9.71,0,0,0,2.26,6c3.15,4,7.75,6.68,12.86,8.84a2.28,2.28,0,0,0,1.93-.1,36.55,36.55,0,0,0,10.23-6.14C30.38,22.84,32.19,19.68,32,15.85Zm-5.31,9.28a35.35,35.35,0,0,1-10,6,2,2,0,0,1-.73.19,1.07,1.07,0,0,1-.44-.1C9.51,28.7,5.64,26,3,22.62A9.12,9.12,0,0,1,.85,17c0-4.83,0-9.76,0-14,0-.12,0-.29,0-.42l.48.07a25.83,25.83,0,0,0,3.81.29A26.48,26.48,0,0,0,15.23.87,2,2,0,0,1,16,.68a1.77,1.77,0,0,1,.66.15A25.87,25.87,0,0,0,26.77,2.94h.74a21.14,21.14,0,0,0,3.36-.34,1,1,0,0,1,.26,0,1.49,1.49,0,0,1,0,.24c0,1.82,0,3.67,0,5.45v2.1c0,.57,0,1.14,0,1.71,0,1.25,0,2.55,0,3.83C31.33,19.26,29.87,22.29,26.67,25.13Z"/><path class="cls-1" d="M30.32,15.91c-.07-1.3-.05-2.6,0-3.87,0-.57,0-1.13,0-1.7V8.24c0-1.59,0-3.23,0-4.86a24.2,24.2,0,0,1-2.76.23h-.77A27.08,27.08,0,0,1,16.26,1.44.81.81,0,0,0,16,1.36a1.09,1.09,0,0,0-.3.08h0l-.07,0A27.16,27.16,0,0,1,5.14,3.62a27.2,27.2,0,0,1-3.47-.23c0,4.16,0,8.94,0,13.61a8.57,8.57,0,0,0,2,5.26c2.58,3.31,6.35,5.89,12.21,8.36l.06,0a1.28,1.28,0,0,0,.34-.11,34.77,34.77,0,0,0,9.77-5.85C29.1,22,30.49,19.1,30.32,15.91ZM26.77,4.3h.8c.67,0,1.3-.06,1.9-.12,0,1.38,0,2.74,0,4.07,0,.7,0,1.4,0,2.1,0,.54,0,1.09,0,1.63V12c0,1.11,0,2.26,0,3.4H16.26V2.2A27.91,27.91,0,0,0,26.77,4.3ZM2.51,4.17a25.87,25.87,0,0,0,2.63.13A28.24,28.24,0,0,0,15.67,2.2V15.43H2.51C2.5,11.52,2.5,7.63,2.51,4.17ZM4.38,21.89A7.92,7.92,0,0,1,2.52,17c0-.36,0-.72,0-1.08H15.67V29.75C10.29,27.42,6.79,25,4.38,21.89Zm21.06,2.33a33.2,33.2,0,0,1-9.18,5.55V15.92H29.48v0C29.65,18.94,28.33,21.65,25.44,24.22Z"/><path class="cls-1" d="M12.87,8.82h0s-.72-4.31-1.61-3.49a3,3,0,0,1-2,.77H8.92a3,3,0,0,1-2-.77C6.14,4.6,5.48,8,5.36,8.7a3.52,3.52,0,0,0-.2,1.18,3.69,3.69,0,0,0,1.15,2.67h0a4.11,4.11,0,0,0,.62.48l.77.6,1.39,1.08,1.39-1.08.78-.6A3.74,3.74,0,0,0,13,9.88,3.67,3.67,0,0,0,12.87,8.82Zm-4-.7h.52s0,0,0,0l-.14.17-.13.17h0l-.13-.17-.13-.17S8.81,8.12,8.83,8.12Zm.88,4.27a2.28,2.28,0,0,0-1.16,0c-1.23.3-1.78-.6-1.78-1.55a2.18,2.18,0,0,1,2.32-2,2.18,2.18,0,0,1,2.32,2C11.41,11.71,10.74,12.77,9.71,12.39Z"/><path class="cls-1" d="M4.94,4.34,5,4.3h-.2s0,.06,0,.09Z"/><path class="cls-1" d="M11.18,3.72l-.1-.08-.34.07h.44Z"/><path class="cls-1" d="M6.52,14.3l-.1-.09s0-.06,0-.08l.19-.34.06,0a.36.36,0,0,0,.27-.07l.08,0h.58L9,13.77l1.78.12.81,0L12,14l.37,0a8.25,8.25,0,0,0,1.22,0,5.24,5.24,0,0,1,1,0l.13,0a1.19,1.19,0,0,1-.34.26.09.09,0,0,1-.12,0,.65.65,0,0,0-.41-.08.69.69,0,0,0-.51.38,2.32,2.32,0,0,0-.13.37c0,.05,0,.08.07.08h.54a.78.78,0,0,0,.48-.18.3.3,0,0,0,.07-.41l0-.06.33-.21h.08a1.33,1.33,0,0,0,.21,0,2.12,2.12,0,0,1,.71,0h0v-.28s-.08,0-.1,0a.3.3,0,0,1-.21,0,1.37,1.37,0,0,1-.5-.24,3.73,3.73,0,0,1-.3-.26,1.13,1.13,0,0,1-.23-.26.52.52,0,0,0-.14-.16s0,0,0-.07a.87.87,0,0,0-.07-.17s0-.07,0-.11a.52.52,0,0,1,0-.21s0-.06.07-.07.25-.11.36-.18a.83.83,0,0,0,.43-.63.15.15,0,0,1,.1-.14l.09,0H15a2.6,2.6,0,0,1-.39,0,.77.77,0,0,0-.65.44,2,2,0,0,0,0,.42,2.54,2.54,0,0,0,0,.39s0,0,0,.05h0l0,0a1.3,1.3,0,0,0-.36-.38.71.71,0,0,1-.1-.14.55.55,0,0,0-.28-.34,2,2,0,0,0-.46-.13,7.85,7.85,0,0,0-.84,0v.06a2.23,2.23,0,0,1,.72.27,1.1,1.1,0,0,0,.6.2.41.41,0,0,1,.35.13l0,0a1.15,1.15,0,0,1,.26.4c-.12,0-.22-.06-.27-.16s-.09-.08-.14-.12a.81.81,0,0,0-.77,0,3.51,3.51,0,0,1-.64.24v.1c.17.06.35.11.51.18a1.07,1.07,0,0,0,.86,0,.35.35,0,0,0,.15-.12c.07-.11.06-.11.2-.07a.16.16,0,0,1,.14.09.16.16,0,0,0,.09.07c.09.05.13.11.1.2s0,.08.07.08a.23.23,0,0,1,.16.08l.51.47.09.07-.6,0h-.93L12,13.68h-.05l-1.46-.09h-.17l-.82-.06a2.88,2.88,0,0,1-.42,0l-1.6-.1H7.25a5.3,5.3,0,0,1-.8-.1.56.56,0,0,0-.46.11l.11,0-.32,0-.27-.05a3.61,3.61,0,0,1-.67-.27l0,0-.16-.18s0,0,0,0a1.76,1.76,0,0,1,.14-.23s.07,0,.12,0a1.07,1.07,0,0,0,1,.18,2.11,2.11,0,0,1,.25,0l.13,0v0l-.08,0a2.55,2.55,0,0,0-1-.21c-.36,0-.54.09-.63.37l0,.11c-.19-.12-.34-.23-.52-.32a.72.72,0,0,1-.4-.44c0-.07,0-.11.05-.15l.06,0A.54.54,0,0,0,4,11.38a1.1,1.1,0,0,0-.35-.54.44.44,0,0,1-.1-.16l-.06-.09a.41.41,0,0,1,0,.1,4.16,4.16,0,0,1-.16.5.8.8,0,0,0-.08.37.37.37,0,0,0,.12.26.65.65,0,0,1,.18.31.77.77,0,0,0,.08.19s0,.08,0,.12,0,.05,0,.05a.18.18,0,0,1-.19-.06.65.65,0,0,0-.76-.24l-.17,0v.56a1.37,1.37,0,0,0,.41,0,.6.6,0,0,0,.53-.26c0-.06.1,0,.15,0a1.43,1.43,0,0,1,.21.12,2.72,2.72,0,0,1,.56.37.67.67,0,0,0,.14.09l.58.25.37.13.08,0H5.09c-.11,0-.12,0-.12.08l-.74.21L4,13.89a1.7,1.7,0,0,0-.34.12.72.72,0,0,1-.48.07.37.37,0,0,0-.23,0s-.11,0-.16,0A.12.12,0,0,1,2.66,14a.49.49,0,0,0-.15-.41v.53s0,0,.06,0a.37.37,0,0,1,.3.13l0,0-.33.21v.27l.29-.19.08,0a1,1,0,0,1,0,.17.43.43,0,0,1,0,.16.42.42,0,0,0,.27.44,1.6,1.6,0,0,1,.3.13h.18s0,0,0,0a.23.23,0,0,1-.11-.19.87.87,0,0,0-.06-.32.49.49,0,0,0-.4-.28s-.1,0-.11-.05A.1.1,0,0,1,3,14.45a4.45,4.45,0,0,1,.54-.25c.26-.09.52-.16.79-.24a.5.5,0,0,1,.13,0L5,13.86l1.42-.23h.16l-.1.16a.91.91,0,0,0-.19.7.14.14,0,0,1,0,.12.43.43,0,0,0-.06.47c0,.07.07.15.1.23l.06.14h.25l.15-.56A.57.57,0,0,0,6.52,14.3Z"/><path class="cls-1" d="M9.41,4.17l-.05.06s.06.06.1.07a1.54,1.54,0,0,0,.77,0,.42.42,0,0,0,.33-.25,2.47,2.47,0,0,0,.06-.29,1.11,1.11,0,0,1,.51,0c-.07.09-.23.08-.25.21H11c.2,0,.38-.09.58-.08a5,5,0,0,0,.54-.07.14.14,0,0,1,.09,0L12.16,4a.71.71,0,0,1-.1.14.37.37,0,0,0,0,.49,2.33,2.33,0,0,1,.27.37l.06.07h0a.59.59,0,0,0,0-.14.2.2,0,0,1,0-.21,1.35,1.35,0,0,0,.14-.3A.39.39,0,0,0,12.35,4s-.09,0-.07-.08.06-.1.13-.1H13c.28,0,.56.07.84.1A.61.61,0,0,1,14,4l.47.13,1.2.32V4.18L15.43,4l-.21-.15a2.48,2.48,0,0,1-.42-.5s0,0,0,0l0-.22a0,0,0,0,1,0,0A2.29,2.29,0,0,1,15,3a.07.07,0,0,1,.1,0,.83.83,0,0,0,.53.49V3.1L15.49,3a.63.63,0,0,0-.77.08l-.1.08a4,4,0,0,0-.25-.46l-.14,0a1.3,1.3,0,0,1,.2.41c0,.05,0,.09.07.13s.23.3.36.45a2.85,2.85,0,0,0,.23.26l.06.06-.39-.18c-.1-.06-.1-.06-.15,0l-.77-.11-.3,0a1.55,1.55,0,0,0-.37,0,.68.68,0,0,1-.45-.12.35.35,0,0,0-.23-.07s-.1,0-.12-.07a.11.11,0,0,1,0-.12h0l-.2.05,0,0c.1,0,.2.14.19.23h0l-.65.08a.41.41,0,0,1-.19,0l-.23-.1-.2.05.1.08h-.44l-1.13.21-.12.16Z"/><path class="cls-1" d="M15.23,5.17a.17.17,0,0,1-.11.09.56.56,0,0,0-.33.38c0,.09,0,.17,0,.25a.67.67,0,0,1-.3.51l0,0c.05.06.06.07.1,0a2,2,0,0,0,.23-.18l.63-.58a.56.56,0,0,0,.16-.6s0-.08,0-.12,0-.06,0-.07l.13-.09V4.72A1.06,1.06,0,0,0,15.23,5.17Z"/><path class="cls-1" d="M15.67,4.17V4.1h0Z"/><path class="cls-1" d="M2.84,5.64l.05,0,.34-.13a.36.36,0,0,1,.39.08c.09-.05,0-.11,0-.18a.61.61,0,0,1,.13,0,.82.82,0,0,1,.34.23c.08.1.08.16,0,.25A.47.47,0,0,0,4,6.45a3.14,3.14,0,0,0,.18.31c.08.14.19.26.18.42s0,0,0,.06a1.16,1.16,0,0,0,.21-.86A1.44,1.44,0,0,0,3.5,5.28l.36-.19A.39.39,0,0,1,4.16,5s.1,0,.11,0a.24.24,0,0,1,.18-.09,1.41,1.41,0,0,1,.58,0L5.46,5a2.15,2.15,0,0,1,.36.11.88.88,0,0,0,.23.07s.06,0,.08,0l.18.12a.36.36,0,0,1,.1.07.76.76,0,0,1,.12.19.15.15,0,0,1,0,.09c-.06.11-.14.21-.19.32a.71.71,0,0,0,.09.71c0,.06,0,.11,0,.16s0,0,0,.08l.09,0a3.3,3.3,0,0,1,.3-.22A.57.57,0,0,0,7,6a3,3,0,0,0-.25-.37l-.28-.32s0,0,0,0h0l0,0a1.94,1.94,0,0,0,.55.15.67.67,0,0,1,.18.07.74.74,0,0,0,.46.14,1.29,1.29,0,0,0,.48-.1c.24-.11.45-.26.68-.39l-.06,0a2.26,2.26,0,0,1-.78.1,1.12,1.12,0,0,0-.63.12.46.46,0,0,1-.38,0H7a1.56,1.56,0,0,1-.48-.21c.12,0,.22-.06.33,0a.42.42,0,0,0,.2,0,.69.69,0,0,0,.64-.35A2.13,2.13,0,0,1,8,4.33L8,4.25c-.18,0-.36.07-.54.09a.92.92,0,0,0-.71.39.35.35,0,0,0,0,.17c0,.12,0,.12-.12.16a.2.2,0,0,1-.17,0,.28.28,0,0,0-.13,0A.19.19,0,0,1,6,4.91a.07.07,0,0,0-.11,0c-.06,0-.12,0-.19,0L5,4.73l-.12,0,.49-.3.22-.11H5l-.09,0-.12,0s0-.06,0-.09H4.72a1,1,0,0,0-.16.12A1.77,1.77,0,0,1,4,4.77s0,0,0,0-.15,0-.21.06a1,1,0,0,1-.2.15L3,5.26l-.46.19v.29C2.63,5.73,2.76,5.76,2.84,5.64Z"/><path d="M24.25,9.91c.2.28.36.53.55.78A4.28,4.28,0,0,1,26,13.17,1.92,1.92,0,0,1,24.53,13a2.1,2.1,0,0,0-2.05.28,1.3,1.3,0,0,1-1.27.32c-1.5-.25-2.39-1.47-1.85-2.68a25.46,25.46,0,0,0,1.29-3.57,2.45,2.45,0,0,1,2.19-1.83l-.18-.39c.41-.08.79-.17,1.18-.21.08,0,.2.19.3.3a9.54,9.54,0,0,1,1.19,0c.49.06.72.41.45.75-.41.51-.15,1.05-.2,1.57,0,.24-.13.55.25.72,0,0,0,.08,0,.11-.05.26-.08.51-.15.77C25.54,9.8,25.38,9.88,24.25,9.91Zm.44.92-.08.1-.74,0c-.23,0-.46-.08-.69-.08s-.72.07-1.08.09a1,1,0,0,1-1.1-.78c0-.11,0-.21,0-.31A.87.87,0,0,0,21.52,11l-.12,1.24c.4-.43.72-.79,1.06-1.12a.46.46,0,0,1,.39-.06,12.73,12.73,0,0,1,1.88,1.59A.93.93,0,0,0,25.8,13,3.67,3.67,0,0,0,24.69,10.83Zm-2.38-3,1.53-2.66-1,.11.27.31C22.42,6.5,22.14,7.27,22.31,7.82Zm1.27-.52c1-.2,1.77-.83,1.79-1.43C25.11,6.59,24.26,6.82,23.58,7.3Z"/><path class="cls-1" d="M26.44,7.67s-.05,0-.05.07a.47.47,0,0,0,.22.39,1,1,0,0,0,.24,0,.25.25,0,0,0,.17-.1c.06-.07,0-.27-.11-.32A.61.61,0,0,0,26.44,7.67Z"/><path class="cls-1" d="M27.17,8.17c0-.1.07-.2.09-.3s-.11-.18-.22-.27A.75.75,0,0,0,27.17,8.17Z"/><path class="cls-1" d="M27.42,7.15a.43.43,0,0,0-.36.12l.81.22C27.73,7.34,27.64,7.19,27.42,7.15Z"/><path class="cls-1" d="M28,7.14a.3.3,0,0,0,0,.47c0-.24.2-.37.36-.53A.34.34,0,0,0,28,7.14Z"/><path class="cls-1" d="M27.66,7.53c-.15,0-.2.1-.25.22l.53,0A.29.29,0,0,0,27.66,7.53Z"/><path class="cls-1" d="M25.91,14.29a.4.4,0,0,0,.12.15l.52.39a.26.26,0,0,0,.12.05l.6,0a.76.76,0,0,0,.16,0,.68.68,0,0,0-.51-.36.5.5,0,0,1-.36-.28c-.15-.26-.4-.49-.2-.83h0a.43.43,0,0,0-.31.29c0,.11-.07.23-.12.34a.19.19,0,0,0,0,.12l.12,0Z"/><path class="cls-1" d="M25.48,12.56l.54.56c.07.06.16.11.24.17l.06,0-.08-.35.08.06.08.06c.13-.13.14-.22,0-.33A.91.91,0,0,0,25.48,12.56Z"/><path class="cls-1" d="M25.44,14.48l0,0,.05,0-.06.22.05,0a.71.71,0,0,0,.14-.1l.24-.25a.22.22,0,0,1,0-.14.58.58,0,0,0-.47.12C25.35,14.34,25.36,14.4,25.44,14.48Z"/><path class="cls-1" d="M26.65,13.52a.4.4,0,0,0,.05.6c0-.34.36-.44.61-.61A.6.6,0,0,0,26.65,13.52Z"/><path class="cls-1" d="M26.36,13.4a.19.19,0,0,0,0,.08s0,.06,0,.09a1.52,1.52,0,0,0,0,.21h.06a1.29,1.29,0,0,1,.05-.21c.08-.23.16-.28.45-.3a.24.24,0,0,0,.15-.09.53.53,0,0,1,.54-.21l.55.07a.51.51,0,0,0-.79-.19l-.24-.08a.49.49,0,0,0-.52.13c-.12.16-.3.3-.29.5Z"/><path class="cls-1" d="M28.4,7.77a.48.48,0,0,0-.28.7.31.31,0,0,0,.29.13c-.24-.4.05-.58.42-.72A.38.38,0,0,0,28.4,7.77Z"/><path class="cls-1" d="M29.07,8.8a3,3,0,0,0,.36-.35.1.1,0,0,0,0-.09.19.19,0,0,0-.11,0l-.95.28A.5.5,0,0,0,29.07,8.8Z"/><path class="cls-1" d="M29.22,10.73l0,0,0,0,0,.17h0a.67.67,0,0,0,.11-.07l.06-.07v-.23a.37.37,0,0,0-.25.09C29.16,10.62,29.16,10.67,29.22,10.73Z"/><path class="cls-1" d="M29.45,12.27l-.05.07a.41.41,0,0,0,0,.4C29.44,12.59,29.45,12.43,29.45,12.27Z"/><path class="cls-1" d="M29,8.16a.35.35,0,0,0-.34,0,.31.31,0,0,0-.17.27c0,.06,0,.09.13.07L29,8.39c.12,0,.15-.06.08-.14Z"/><path class="cls-1" d="M27.57,8.25c-.08.07-.12.15,0,.24s0,.09.07.14.21.21.45.16a.46.46,0,0,0,.08.39.29.29,0,0,0,.34.1l.21,0c.28,0,.41-.14.45-.4L29,8.93a.44.44,0,0,1-.43,0,3.94,3.94,0,0,1-.45-.36.38.38,0,0,1-.1-.41c0-.05,0-.11.07-.2a1.61,1.61,0,0,0-.25.1A1.58,1.58,0,0,0,27.57,8.25Z"/><path class="cls-1" d="M29.38,13a1,1,0,0,0-.24-.73c-.07.16-.19.28-.07.42A3,3,0,0,0,29.38,13Z"/><path class="cls-1" d="M29.12,11.89l.33,0v-.07a.3.3,0,0,0-.37-.13l.12.06-.35,0C28.84,11.84,28.94,11.91,29.12,11.89Z"/><path class="cls-1" d="M27.38,8.25a.37.37,0,0,0,.15,0l-.3-.07C27.24,8.23,27.31,8.24,27.38,8.25Z"/><path class="cls-1" d="M28,12.7a.41.41,0,0,0-.26-.58.46.46,0,0,0-.53.11C27.46,12.34,27.8,12.4,28,12.7Z"/><path class="cls-1" d="M24.67,14.5c-.27,0-.55.23-.52.44a.22.22,0,0,0,.17.19c0-.37.29-.42.62-.42C24.93,14.59,24.83,14.51,24.67,14.5Z"/><path class="cls-1" d="M23.23,13.87a.08.08,0,0,0-.07,0,.34.34,0,0,0,0,.35.7.7,0,0,0,.17.09.32.32,0,0,0,.17,0,.26.26,0,0,0,.06-.28A.43.43,0,0,0,23.23,13.87Z"/><path class="cls-1" d="M23.57,14.45c.06-.07.14-.13.19-.2s0-.16-.05-.26A.63.63,0,0,0,23.57,14.45Z"/><path class="cls-1" d="M23.84,15.38a.61.61,0,0,0,.07-.14.28.28,0,0,0-.28,0,.26.26,0,0,0-.18.23h.17l.14,0Z"/><path class="cls-1" d="M22.89,14.17a.41.41,0,0,0-.32-.11c.27.18.18.41.19.62a.33.33,0,0,1-.15.29.38.38,0,0,0-.2.37.27.27,0,0,0,.12,0l.4-.17a.12.12,0,0,0,.06-.06l.21-.4a.23.23,0,0,0-.09-.31A2.18,2.18,0,0,1,22.89,14.17Z"/><path class="cls-1" d="M23.69,14.57a.3.3,0,0,0,.13,0l-.2-.13C23.59,14.52,23.64,14.55,23.69,14.57Z"/><path class="cls-1" d="M21.57,14.15a.48.48,0,0,0-.29.7.31.31,0,0,0,.29.13c-.24-.4.06-.58.43-.72A.38.38,0,0,0,21.57,14.15Z"/><path class="cls-1" d="M22.23,15.18a2.39,2.39,0,0,0,.36-.35s0-.07,0-.08-.07,0-.1,0l-1,.28A.49.49,0,0,0,22.23,15.18Z"/><path class="cls-1" d="M21.84,14.51a.29.29,0,0,0-.17.26c0,.06,0,.09.13.08l.4-.08c.11,0,.14-.06.08-.14l-.1-.09A.33.33,0,0,0,21.84,14.51Z"/><path class="cls-1" d="M22.61,14.64a.31.31,0,0,0-.2-.42.41.41,0,0,0-.45.16C22.2,14.43,22.48,14.41,22.61,14.64Z"/><path class="cls-1" d="M25.25,15.17a.25.25,0,0,0,0-.38.39.39,0,0,0-.42,0C25,14.89,25.24,15,25.25,15.17Z"/><path class="cls-1" d="M28.44,13.76c.06-.34-.39-.73-.81-.7-.26,0-.42.13-.45.32.54,0,1,.08,1,.68A.34.34,0,0,0,28.44,13.76Z"/><path class="cls-1" d="M27.1,14c0,.13,0,.17.19.14l.52-.09c.11,0,.15-.07.11-.15a.5.5,0,0,0-.39-.24.41.41,0,0,0-.38.19A.86.86,0,0,0,27.1,14Z"/><path class="cls-1" d="M25.15,15.31s.05-.05,0-.07,0,0-.07,0l-.84-.07a.32.32,0,0,0,.24.31h.25A2.46,2.46,0,0,0,25.15,15.31Z"/><path class="cls-1" d="M26.85,14.34a6.31,6.31,0,0,0,.68.26.56.56,0,0,0,.71-.52l-1.34.1a.14.14,0,0,0-.11.06S26.82,14.32,26.85,14.34Z"/><path class="cls-1" d="M23.74,14.81s0,.08,0,.12.07.23.27.25a.38.38,0,0,0-.1.27h.43a.1.1,0,0,1,0-.06,3.62,3.62,0,0,1-.19-.4.35.35,0,0,1,.1-.34l.14-.13a.85.85,0,0,0-.23,0l-.27.09C23.74,14.66,23.68,14.71,23.74,14.81Z"/><path class="cls-1" d="M23.87,13.74l.51.4c0-.15,0-.3-.19-.39A.43.43,0,0,0,23.87,13.74Z"/><path class="cls-1" d="M24.21,14.11a.27.27,0,0,0-.29.09l.42.13A.19.19,0,0,0,24.21,14.11Z"/><path class="cls-1" d="M29.09,11.61l.06,0,.25-.19a.16.16,0,0,0,.06-.08v-.08a0,0,0,0,1,0,0,.52.52,0,0,1-.06-.16.21.21,0,0,0-.15-.14c.09.16,0,.27-.09.39a.28.28,0,0,1-.18.14.31.31,0,0,0-.24.17h.36Z"/><path class="cls-1" d="M24.73,14.85a.29.29,0,0,0-.25.15c0,.05,0,.08.07.09l.33.06q.14,0,.12-.09A.47.47,0,0,1,25,15,.25.25,0,0,0,24.73,14.85Z"/><path class="cls-1" d="M29.46,7.73h0v.06h0Z"/><path class="cls-1" d="M29.46,7V6.9a.56.56,0,0,0-.38.3c0,.11,0,.17.15.23l0-.07,0-.06.08.27h.06l0-.05V7Z"/><path class="cls-1" d="M29.46,8.06V7.94h0v.12Z"/><path class="cls-1" d="M29.46,7.52h0v.16h0Z"/><path class="cls-1" d="M22.25,13.59c0,.1,0,.16.14.22l0-.07,0-.06.08.27h.06a1,1,0,0,0,.1-.17l.15-.53A.59.59,0,0,0,22.25,13.59Z"/><path class="cls-1" d="M29.46,9.26V8.9h0v.36Z"/><path class="cls-1" d="M29.25,9s0,.06,0,.08a2.26,2.26,0,0,0,.25.28v-.1l-.11-.21Z"/><path class="cls-1" d="M29.25,7.84a.42.42,0,0,0-.46.16c.24.05.52,0,.66.26a0,0,0,0,0,0,0V8.06A.35.35,0,0,0,29.25,7.84Z"/><path class="cls-1" d="M29,7.41a.37.37,0,0,0-.41,0l-.13.11a.34.34,0,0,0-.47.34l.36-.19a.43.43,0,0,1,.45,0,.19.19,0,0,0,.13,0,.33.33,0,0,1,.42.08.52.52,0,0,1,.1.11V7.79l0,0C29.38,7.55,29.18,7.5,29,7.41Z"/><path class="cls-1" d="M29.46,8.57h0V8.23h0v.34Z"/><path class="cls-1" d="M29.46,6.86v0h0Z"/><path class="cls-1" d="M21.2,15.26a.35.35,0,0,0-.32.1.24.24,0,0,0-.06.09h.39C21.21,15.39,21.2,15.33,21.2,15.26Z"/><path class="cls-1" d="M16.49,13.27a.31.31,0,0,0-.22.07v.2h.57A.37.37,0,0,0,16.49,13.27Z"/><path class="cls-1" d="M28.46,15a1.36,1.36,0,0,1,.17.17,1.74,1.74,0,0,1,.1.19l0,0c-.14-.35-.49-.32-.87-.32a1.88,1.88,0,0,1,.48.36H29s0,0,0,0C29,15.18,28.78,15,28.46,15Z"/><path class="cls-1" d="M29,13.25a2.19,2.19,0,0,0-.43-.15,1.37,1.37,0,0,0-.36,0l.23.21a.5.5,0,0,1,.15.53,4.12,4.12,0,0,1-.3.64.51.51,0,0,1-.49.24h-.33a.69.69,0,0,0,.82.28,2.8,2.8,0,0,1,.28-.06c.23,0,.3-.09.33-.27a.6.6,0,0,0-.17-.51c.33,0,.44-.14.43-.4,0-.06,0-.15,0-.2S29.1,13.31,29,13.25Z"/><path class="cls-1" d="M25,14a.29.29,0,0,0-.33-.07.26.26,0,0,0-.17.36C24.56,14.09,24.77,14.05,25,14Z"/><path class="cls-1" d="M25.34,15.24a.31.31,0,0,1-.23.17l-.1,0h.55l.11-.08a.18.18,0,0,0,.06-.26,1.72,1.72,0,0,1-.07-.21.26.26,0,0,0-.2-.18h0C25.59,14.93,25.43,15.08,25.34,15.24Z"/><path class="cls-1" d="M29.4,7.68s0,0,.06.05V7.68Z"/><path class="cls-1" d="M24.31,14.49l.35,0a.31.31,0,0,1,.33.13.18.18,0,0,0,.09.06c.19,0,.24,0,.29.18l0,.13h0c0-.05,0-.09,0-.14a.43.43,0,0,0,0-.05.11.11,0,0,0,0,0h0c0-.13-.1-.22-.18-.32a.31.31,0,0,0-.33-.08l-.15,0A.32.32,0,0,0,24.31,14.49Z"/><path class="cls-1" d="M27.9,10.8a.16.16,0,0,0,.1,0l-.16-.1S27.86,10.78,27.9,10.8Z"/><path class="cls-1" d="M28.86,10.35a.21.21,0,0,0-.25,0,.19.19,0,0,0-.13.27C28.55,10.43,28.72,10.41,28.86,10.35Z"/><path class="cls-1" d="M28,10.17l.39.3c0-.11,0-.22-.14-.29A.3.3,0,0,0,28,10.17Z"/><path class="cls-1" d="M27.72,9a.28.28,0,0,0,0,.37l.3-.19A.13.13,0,0,0,28,9.07a1.2,1.2,0,0,0,0-.19A.35.35,0,0,0,27.72,9Z"/><path class="cls-1" d="M28.29,10.45a.21.21,0,0,0-.22.07l.32.1A.14.14,0,0,0,28.29,10.45Z"/><path class="cls-1" d="M28,11.41l.06-.11a.24.24,0,0,0-.22,0,.2.2,0,0,0-.14.2l.24,0S28,11.43,28,11.41Z"/><path class="cls-1" d="M28.21,11.63l.13,0a.32.32,0,0,0,.39-.14h-.15a.26.26,0,0,1-.24-.11,2.92,2.92,0,0,1-.14-.31.25.25,0,0,1,.08-.25s.06,0,.1-.1h-.17l-.2.08c-.07,0-.12.06-.07.14s0,.06,0,.09.05.17.2.19a.31.31,0,0,0-.08.24C28.07,11.59,28.1,11.62,28.21,11.63Z"/><path class="cls-1" d="M27.49,10.3a.27.27,0,0,0,0,.26.33.33,0,0,0,.13.07.21.21,0,0,0,.13,0,.2.2,0,0,0,0-.21.33.33,0,0,0-.25-.13Z"/><path class="cls-1" d="M28.55,11.71c-.19,0-.35,0-.42.15h0l.05-.09.08-.08c-.15,0-.26.07-.25.19a.28.28,0,0,0,.19.24.39.39,0,0,1,.1-.16A.59.59,0,0,1,28.55,11.71Z"/><path class="cls-1" d="M27.92,10.36a.48.48,0,0,0-.12.34c.05,0,.11-.09.15-.14S28,10.43,27.92,10.36Z"/><path class="cls-1" d="M29.1,11a.29.29,0,0,0-.31,0c.12.08.28.13.29.29A.19.19,0,0,0,29.1,11Z"/><path class="cls-1" d="M27.37,8.33A.58.58,0,0,0,27,9,.51.51,0,0,0,27.37,8.33Z"/><path class="cls-1" d="M27.22,8.35a.48.48,0,0,0-.56,0,.51.51,0,0,0-.19.41c0,.09.05.13.16.12s.21,0,.27-.17a1.26,1.26,0,0,1,.2-.27S27.18,8.39,27.22,8.35Z"/><path class="cls-1" d="M28.14,12.79l.67-.21a.45.45,0,0,0-.46-.15A.34.34,0,0,0,28.14,12.79Z"/><path class="cls-1" d="M28.38,11.86l-.1.09a.28.28,0,0,0,0,.19l-.06,0a2,2,0,0,0-.1.37l.81-.63A.6.6,0,0,0,28.38,11.86Z"/><path class="cls-1" d="M28.64,10.75c-.2,0-.42.17-.39.33a.15.15,0,0,0,.12.14c0-.28.22-.32.48-.32C28.84,10.81,28.76,10.76,28.64,10.75Z"/><path class="cls-1" d="M28.68,11.48a3,3,0,0,0,.32-.12.09.09,0,0,0,0,0l-.06,0-.63,0A.26.26,0,0,0,28.68,11.48Z"/><path class="cls-1" d="M28.55,11.19l.25.05c.07,0,.1,0,.09-.07a.24.24,0,0,0,0-.07.19.19,0,0,0-.18-.09.23.23,0,0,0-.18.11S28.5,11.18,28.55,11.19Z"/><path class="cls-1" d="M28.38,9.74A.61.61,0,0,0,29,10c-.2-.27-.12-.51.08-.78-.26.1-.51.17-.47.44h0a.38.38,0,0,1,0-.15,1.42,1.42,0,0,1,.05-.16C28.37,9.4,28.28,9.58,28.38,9.74Z"/><path class="cls-1" d="M29.1,10.67a.22.22,0,0,0-.25-.06l-.11,0a.25.25,0,0,0-.38.09l.27,0a.24.24,0,0,1,.25.11.13.13,0,0,0,.07,0c.14,0,.18,0,.22.14s0,.06,0,.1h0s0-.07,0-.1,0,0,0,0S29.17,10.76,29.1,10.67Z"/><path class="cls-1" d="M29.24,9s.09,0,.12,0l.1,0V8.57h0A.41.41,0,0,0,29.24,9Z"/><path class="cls-1" d="M16.9,10.44l.19.05a.25.25,0,0,0,.32-.07.38.38,0,0,0,.12-.36c.22.07.33,0,.44-.11s0-.11.08-.13.1-.14,0-.22a1.37,1.37,0,0,0-.2-.22,1.9,1.9,0,0,0-.21-.11c0,.09,0,.14,0,.2a.35.35,0,0,1-.14.36,3.64,3.64,0,0,1-.46.3.38.38,0,0,1-.4,0l-.19-.1C16.53,10.27,16.64,10.39,16.9,10.44Z"/><path class="cls-1" d="M17.56,12.76a.48.48,0,0,0-.55,0,.4.4,0,0,0,0,.63C17,13.1,17.32,13,17.56,12.76Z"/><path class="cls-1" d="M16.75,9.41l-.1.08c-.07.07,0,.11.06.14l.36.09c.07,0,.12,0,.13-.06a.27.27,0,0,0-.13-.26A.36.36,0,0,0,16.75,9.41Z"/><path class="cls-1" d="M16.64,10a.45.45,0,0,0,.65-.11l-.85-.32h-.1s0,.06,0,.08A2,2,0,0,0,16.64,10Z"/><path class="cls-1" d="M17,9.28a.4.4,0,0,0-.41-.19c-.17.06-.3.24-.23.38C16.49,9.27,16.75,9.31,17,9.28Z"/><path class="cls-1" d="M17.17,10.93c.11-.14,0-.32-.16-.39a.8.8,0,0,1,0,.15.7.7,0,0,1,0,.14h0c.07-.25-.16-.33-.39-.44.16.26.21.49,0,.72A.58.58,0,0,0,17.17,10.93Z"/><path class="cls-1" d="M18.84,5.78c0,.1,0,.16.14.21l0-.06,0-.06.07.25h.06A.91.91,0,0,0,19.26,6l.15-.5A.57.57,0,0,0,18.84,5.78Z"/><path class="cls-1" d="M19.24,7.79a1.94,1.94,0,0,1-.15-.24s-.06,0-.09,0,0,.06,0,.08a1.55,1.55,0,0,0,.94.65c.1,0,.17,0,.19-.1A1.06,1.06,0,0,1,19.24,7.79Z"/><path class="cls-1" d="M18.38,6a.69.69,0,0,0-.13.11.32.32,0,0,0-.45.32l.34-.18a.42.42,0,0,1,.43,0,.22.22,0,0,0,.13,0,.33.33,0,0,1,.41.08l.11.12h.05s0-.1-.07-.15,0,0,0,0c0-.18-.24-.23-.4-.31A.35.35,0,0,0,18.38,6Z"/><path class="cls-1" d="M19.46,6.34a.41.41,0,0,0-.32-.11c.26.18.18.39.19.6a.31.31,0,0,1-.14.27.39.39,0,0,0-.2.36h.12l.39-.17a.15.15,0,0,0,.05-.06c.07-.13.14-.26.2-.39a.2.2,0,0,0-.09-.29A1.89,1.89,0,0,1,19.46,6.34Z"/><path class="cls-1" d="M16.8,7.46a.47.47,0,0,0,.39-.6A.55.55,0,0,0,16.8,7.46Z"/><path class="cls-1" d="M18.16,12.35l.12,0c.1,0,.13,0,.15-.13a.28.28,0,0,0-.08-.22c.15,0,.19-.06.19-.17s0-.07,0-.09,0-.1-.07-.13a1.06,1.06,0,0,0-.19-.06h-.15l.09.1a.2.2,0,0,1,.07.23,1.75,1.75,0,0,1-.13.28.24.24,0,0,1-.22.1H17.8A.3.3,0,0,0,18.16,12.35Z"/><path class="cls-1" d="M18.25,12.79a.29.29,0,0,0,.24-.25c0-.1-.09-.18-.23-.17l.07.08a.2.2,0,0,1,0,.08h0c-.06-.15-.22-.14-.39-.14C18.16,12.5,18.28,12.61,18.25,12.79Z"/><path class="cls-1" d="M17.8,12.3a.27.27,0,0,0-.22-.15.26.26,0,0,1-.16-.13c-.06-.11-.17-.21-.08-.36a.19.19,0,0,0-.14.12c0,.05,0,.11-.05.15a.12.12,0,0,0,0,.18l.23.18,0,0h.27Z"/><path class="cls-1" d="M18.6,13.31a.22.22,0,0,0,0-.08l.06-.08.05.36.08,0a1.12,1.12,0,0,0,.16-.22c.1-.22.19-.45.29-.68a.83.83,0,0,0-.84.37C18.38,13.14,18.42,13.23,18.6,13.31Z"/><path class="cls-1" d="M17.13,12.53l.31,0c.17,0,.26,0,.26-.2l-.32,0,.11-.05C17.3,12.29,17.11,12.39,17.13,12.53Z"/><path class="cls-1" d="M16.42,9s0,0,0,0-.05.09-.08.14h0a.69.69,0,0,1,.13-.11.33.33,0,0,1,.4-.05A.15.15,0,0,0,17,9a.42.42,0,0,1,.42,0l.3.2a.3.3,0,0,0-.39-.34l-.11-.12a.34.34,0,0,0-.38-.07C16.68,8.78,16.48,8.82,16.42,9Z"/><path class="cls-1" d="M17.8,5.72a.27.27,0,0,0,0,.44c0-.23.2-.35.35-.5A.32.32,0,0,0,17.8,5.72Z"/><path class="cls-1" d="M18.76,9.18c-.09,0-.19.22-.14.29a.24.24,0,0,0,.14.1.6.6,0,0,0,.23,0,.47.47,0,0,0,.25-.34.13.13,0,0,0,0-.07A.53.53,0,0,0,18.76,9.18Z"/><path class="cls-1" d="M17.55,9.76a.42.42,0,0,0-.18-.66.34.34,0,0,0-.41.07c.32.16.58.34.31.69A.28.28,0,0,0,17.55,9.76Z"/><path class="cls-1" d="M17.21,6.78a.32.32,0,0,0,.14,0l-.29-.06C17.07,6.76,17.14,6.77,17.21,6.78Z"/><path class="cls-1" d="M17.24,5.72a.43.43,0,0,0-.34.12l.77.21C17.54,5.91,17.45,5.76,17.24,5.72Z"/><path class="cls-1" d="M22.34,15.22l-.22.09a.44.44,0,0,1-.43,0,3.94,3.94,0,0,1-.45-.36.36.36,0,0,1-.1-.4l.07-.21a1.45,1.45,0,0,0-.24.1,1.26,1.26,0,0,0-.24.22c-.08.08-.12.15,0,.24s.05.09.07.14.21.22.45.16a.45.45,0,0,0,0,.28h1A.4.4,0,0,0,22.34,15.22Z"/><path class="cls-1" d="M29.29,13,29,13.2a.35.35,0,0,0,.2,0C29.25,13.13,29.34,13.08,29.29,13Z"/><path class="cls-1" d="M22.51,15.44s-.06,0-.1-.06,0,0,0,.07h.12Z"/><path class="cls-1" d="M27.18,15l-.73.08L26.7,15c-.41-.13-.85.11-.82.43l.6.06h.41A.39.39,0,0,0,27.18,15Z"/><path class="cls-1" d="M29.44,13.28l-.19,0a.76.76,0,0,0,.19.32Z"/><path class="cls-1" d="M29.44,14.25v.06h0Z"/><path class="cls-1" d="M17.47,6.09c-.14,0-.19.09-.24.21l.52,0A.31.31,0,0,0,17.47,6.09Z"/><path class="cls-1" d="M16.46,6.66a1,1,0,0,0,.24,0,.24.24,0,0,0,.16-.09c.05-.07,0-.26-.11-.31a.54.54,0,0,0-.44-.06l0,0V6.4A.49.49,0,0,0,16.46,6.66Z"/><path class="cls-1" d="M29.28,14.2a.45.45,0,0,0-.45,0,1.67,1.67,0,0,0,.12.23.2.2,0,0,0,.13.08l.36.06v-.29A.64.64,0,0,0,29.28,14.2Z"/><path class="cls-1" d="M16.51,6.89a.48.48,0,0,0-.18.39c0,.09.05.12.16.12s.2-.05.25-.17A1.15,1.15,0,0,1,16.93,7l.12-.09A.45.45,0,0,0,16.51,6.89Z"/><path class="cls-1" d="M16.37,8.67a.61.61,0,0,0,.07.17h0l.11-.24a.14.14,0,0,0,0,.06.19.19,0,0,0,0,.07c.13,0,.18-.1.16-.2a.53.53,0,0,0-.51-.35C16.31,8.34,16.34,8.5,16.37,8.67Z"/><path class="cls-1" d="M17,6.7c0-.1.07-.19.09-.28s-.1-.17-.21-.26A.72.72,0,0,0,17,6.7Z"/><path class="cls-1" d="M17,11.29l.24.25.1.07,0,0,0-.15,0,0,0,0c.06-.05.06-.09,0-.14A.4.4,0,0,0,17,11.29Z"/><path class="cls-1" d="M16.27,12.74v.31l.51.19C16.63,13,16.53,12.83,16.27,12.74Z"/><path class="cls-1" d="M16.27,9.12a.35.35,0,0,1,.18-.18.33.33,0,0,0-.18,0Z"/><path class="cls-1" d="M18.29,15.19l-.31.09a.53.53,0,0,1-.56-.09,5.53,5.53,0,0,1-.55-.53.5.5,0,0,1-.06-.55l.13-.26a1.56,1.56,0,0,0-.34.1,2,2,0,0,0-.33.25v.42a.43.43,0,0,0,0,.11c.1.24.24.31.57.27a.54.54,0,0,0,0,.45h1.3A.79.79,0,0,0,18.29,15.19Z"/><path class="cls-1" d="M16.74,15.37a2.11,2.11,0,0,0,0-.26.45.45,0,0,0-.44.1.13.13,0,0,0-.05.06v.18h.4A.18.18,0,0,0,16.74,15.37Z"/><path class="cls-1" d="M16.45,10.14a.36.36,0,0,0-.15-.37l0,0v.34l.07,0Z"/><path class="cls-1" d="M18.75,14.45a.42.42,0,0,0-.19-.59.61.61,0,0,0-.64.16C18.23,14.12,18.61,14.13,18.75,14.45Z"/><path class="cls-1" d="M18.79,13.67c-.07-.2-.29-.29-.47-.4a.52.52,0,0,0-.56,0,1.33,1.33,0,0,0-.19.14.48.48,0,0,0-.69.39l.51-.21a.57.57,0,0,1,.6.06.25.25,0,0,0,.17,0c.29,0,.39,0,.55.16l.14.19h.06l-.06-.21s0-.05,0-.08a.24.24,0,0,0,0-.08Z"/><path class="cls-1" d="M18.52,15.35l.57-.19a.2.2,0,0,0,.09-.07c.12-.17.23-.34.34-.52a.29.29,0,0,0-.06-.42,2.35,2.35,0,0,1-.26-.29.48.48,0,0,0-.41-.19h0c.33.27.18.56.15.85a.48.48,0,0,1-.25.36.54.54,0,0,0-.33.47Z"/><path class="cls-1" d="M17.75,14.18a.4.4,0,0,0-.27.33c0,.09,0,.13.16.12l.53-.05c.16,0,.21-.07.13-.19s-.08-.1-.1-.13A.47.47,0,0,0,17.75,14.18Z"/><path class="cls-1" d="M17.44,13.68a.66.66,0,0,0-.5.89.41.41,0,0,0,.37.21c-.26-.56.17-.76.68-.91C17.9,13.69,17.7,13.63,17.44,13.68Z"/><path class="cls-1" d="M18.14,15.12a3.33,3.33,0,0,0,.55-.42s0-.09,0-.11-.1,0-.14,0l-1.32.25A.63.63,0,0,0,18.14,15.12Z"/><path class="cls-1" d="M18.82,7.31A2.26,2.26,0,0,0,19.17,7a.08.08,0,0,0,0-.08.11.11,0,0,0-.1,0l-.92.26A.46.46,0,0,0,18.82,7.31Z"/><path class="cls-1" d="M18.19,6.32a.46.46,0,0,0-.28.67.3.3,0,0,0,.28.12c-.23-.38,0-.55.41-.68A.36.36,0,0,0,18.19,6.32Z"/><path class="cls-1" d="M17.38,6.78c-.07.07-.11.15,0,.23s0,.09.06.13.21.21.44.16a.38.38,0,0,0,.07.37.28.28,0,0,0,.32.1l.21,0c.27,0,.4-.13.43-.38l-.21.08a.4.4,0,0,1-.41,0c-.15-.11-.3-.22-.44-.34a.36.36,0,0,1-.09-.39,1.6,1.6,0,0,1,.07-.19.93.93,0,0,0-.24.09A1.51,1.51,0,0,0,17.38,6.78Z"/><path class="cls-1" d="M18.41,7l.38-.07c.11,0,.14-.06.08-.14l-.09-.09a.36.36,0,0,0-.33,0,.28.28,0,0,0-.16.25C18.29,7,18.33,7,18.41,7Z"/><path class="cls-1" d="M19,6.38a.43.43,0,0,0-.44.16c.23,0,.5,0,.63.25A.31.31,0,0,0,19,6.38Z"/><path class="cls-1" d="M20.39,14.54c0,.07.09.08.15.09a.29.29,0,0,0,.16,0Z"/><path class="cls-1" d="M20.38,14.73a.48.48,0,0,0-.56,0,.51.51,0,0,0-.19.41c0,.1.05.13.17.12s.2,0,.26-.17a1.71,1.71,0,0,1,.2-.27S20.34,14.77,20.38,14.73Z"/><path class="cls-1" d="M20.82,13.91c-.14,0-.2.1-.25.22l.54,0A.31.31,0,0,0,20.82,13.91Z"/><path class="cls-1" d="M21.77,13.84l-.14.11a.34.34,0,0,0-.46.34l.35-.19a.43.43,0,0,1,.45,0,.16.16,0,0,0,.13,0c.21-.06.29-.05.43.08l.12.13h0l-.06-.16s0,0,0-.05c0-.19-.25-.24-.41-.33A.38.38,0,0,0,21.77,13.84Z"/><path class="cls-1" d="M21.16,13.52a.3.3,0,0,0,0,.47c0-.24.2-.37.36-.53A.38.38,0,0,0,21.16,13.52Z"/><path class="cls-1" d="M20.53,14.71a.57.57,0,0,0-.4.63A.5.5,0,0,0,20.53,14.71Z"/><path class="cls-1" d="M19.61,14.05s-.06,0-.06.08a.47.47,0,0,0,.22.38,1.07,1.07,0,0,0,.25,0,.3.3,0,0,0,.17-.1c0-.07,0-.26-.12-.32A.6.6,0,0,0,19.61,14.05Z"/><path class="cls-1" d="M20.33,14.55c0-.1.08-.2.1-.3s-.11-.18-.22-.27A.75.75,0,0,0,20.33,14.55Z"/><path class="cls-1" d="M20.58,13.53a.41.41,0,0,0-.35.12l.8.22C20.9,13.72,20.8,13.57,20.58,13.53Z"/><path class="cls-1" d="M17.58,10.16l0,.17a.16.16,0,0,0,.05.09l.26.2a.26.26,0,0,0,0-.35A.3.3,0,0,0,17.58,10.16Z"/><path class="cls-1" d="M18.42,12a.93.93,0,0,0,0,.1s0,0,.06,0l.22,0a.18.18,0,0,0-.13-.18A.2.2,0,0,0,18.42,12Z"/><path class="cls-1" d="M18.41,9.28c0,.09,0,.18.06.28A.73.73,0,0,0,18.65,9C18.54,9.12,18.4,9.15,18.41,9.28Z"/><path class="cls-1" d="M18.41,9.54l-.29,0a.33.33,0,0,0,.14,0C18.32,9.61,18.4,9.61,18.41,9.54Z"/><path class="cls-1" d="M18.45,11a.3.3,0,0,0-.23,0,.37.37,0,0,0-.13.28Z"/><path class="cls-1" d="M19.05,10.17a.44.44,0,0,0-.65-.45.93.93,0,0,1,.1.1,1.28,1.28,0,0,1,.16.27c0,.12.07.16.22.18S19.05,10.26,19.05,10.17Z"/><path class="cls-1" d="M18.26,9.69a.47.47,0,0,0,.31.62A.52.52,0,0,0,18.26,9.69Z"/><path class="cls-1" d="M17.66,11.9c0,.06,0,.07.09.06l.22,0c.05,0,.07,0,.05-.06a.21.21,0,0,0-.17-.11.2.2,0,0,0-.17.08S17.66,11.87,17.66,11.9Z"/><path class="cls-1" d="M17.85,12.18a.24.24,0,0,0,.31-.22l-.59,0-.05,0,0,0A1.82,1.82,0,0,0,17.85,12.18Z"/><path class="cls-1" d="M18.25,11.82c0-.15-.17-.32-.36-.31s-.18.06-.19.14c.23,0,.44,0,.43.3A.15.15,0,0,0,18.25,11.82Z"/><path class="cls-1" d="M17.46,11.71a.18.18,0,0,0,0,.27c0-.15.15-.2.26-.28A.3.3,0,0,0,17.46,11.71Z"/><path class="cls-1" d="M18.12,11.39l.29-.09a.19.19,0,0,0-.2-.06A.13.13,0,0,0,18.12,11.39Z"/><path class="cls-1" d="M17.46,11.44c-.06.08-.15.15-.12.26s0,0,0,0,0,.06,0,.1h0s0-.06,0-.09.07-.12.2-.13a.08.08,0,0,0,.06,0,.26.26,0,0,1,.24-.09l.24,0a.22.22,0,0,0-.34-.08l-.11,0A.23.23,0,0,0,17.46,11.44Z"/><path class="cls-1" d="M17.82,8.54a.33.33,0,0,0-.37-.08c.13.15.31.29.28.51A.28.28,0,0,0,17.82,8.54Z"/><path class="cls-1" d="M17.69,11.15c.13,0,.28.07.34.2a.18.18,0,0,0-.11-.25A.18.18,0,0,0,17.69,11.15Z"/><path class="cls-1" d="M17.84,7.57a.55.55,0,0,0,0-.18.29.29,0,0,0-.3.09.26.26,0,0,0,0,.35,2.82,2.82,0,0,0,.29-.18S17.84,7.6,17.84,7.57Z"/><path class="cls-1" d="M17.9,8.88l.77-.15a.43.43,0,0,0-.32-.14C18.14,8.61,18,8.75,17.9,8.88Z"/><path class="cls-1" d="M18.08,8.93a.29.29,0,0,0-.28.15l.49.07C18.26,9,18.22,9,18.08,8.93Z"/><path class="cls-1" d="M18.16,8.21a.6.6,0,0,0,.58.24c-.2-.25-.11-.49.08-.74-.25.09-.49.16-.45.42h0a.75.75,0,0,1,0-.15,1.24,1.24,0,0,1,0-.16C18.15,7.88,18.07,8.06,18.16,8.21Z"/><path class="cls-1" d="M15.77,24.79c-.83-.05-1.65-.08-2.46-.1V23.41H14l-.89-.57-.88-.56-.89.56-.88.57h.7v1.25c-1.29,0-2.52.06-3.65.15l-.51,0,.35.3.28.24a33.73,33.73,0,0,0,8,4.69l.37.16V24.81Zm-3.52-2.25,1,.66h-.23v1.35H11.43V23.2H11.2Zm3.5,2.71V29.9a33.5,33.5,0,0,1-7.92-4.65L7.55,25a59.87,59.87,0,0,1,8.2,0Z"/><path class="cls-1" d="M7.34,17.66l-.08-.35L7,17.57l-.44-.05.22.31-.19.32L7,18.08l.31.24,0-.35.38-.17Zm-.15.22,0,.15L7,17.93l-.18,0,.08-.14-.09-.13.18,0,.12-.11,0,.15.17.06Z"/><path class="cls-1" d="M7.78,20.43l-.43.06L7,20.23,7,20.58l-.39.16L7,20.9l.06.35L7.35,21l.43.06-.21-.32Zm-.31.45-.18,0L7.16,21l0-.15L7,20.74l.16-.06,0-.15.13.1.18,0-.09.13Z"/><path class="cls-1" d="M9.55,18.94H9.11l-.23-.3L8.73,19l-.42.09.34.22,0,.36.36-.2.41.13-.12-.34Zm-.42.39L9,19.27l-.15.09v-.15l-.15-.09.18,0,.07-.14.1.12H9.2l-.12.11Z"/><path class="cls-1" d="M6,19H5.57l-.25-.29L5.19,19l-.42.1.35.21v.35l.35-.21.41.12-.13-.34Zm-.39.4-.17-.05-.15.09v-.15l-.15-.09.18,0L5.38,19l.1.13h.19l-.12.12Z"/><path class="cls-1" d="M14.93,18.37a2.7,2.7,0,0,0-2.31-.86,1.75,1.75,0,0,1,.59.45,1.39,1.39,0,0,1-.49,2.17,2.29,2.29,0,0,1-2.16,0,2.17,2.17,0,0,0,.31.52,2.84,2.84,0,0,0,3.43.51A1.79,1.79,0,0,0,14.93,18.37ZM14.16,21a2.56,2.56,0,0,1-1.26.32h0a2.36,2.36,0,0,1-1.8-.76,2.42,2.42,0,0,0,.54.06,2.58,2.58,0,0,0,1.23-.31,1.57,1.57,0,0,0,.55-2.45l-.1-.11a2.26,2.26,0,0,1,1.4.74A1.61,1.61,0,0,1,14.16,21Z"/><path d="M25.35,17.94l.26-.06h0l-.18-.05a.36.36,0,0,1,0-.09h0l.27.09h.06l.17,0-.27-.09,0-.1.17.06.23.08h0l.3-.07-.06-.05-.15-.11-.06,0-.38,0s0,0,0,0,0-.08.1-.07h.2c-.07,0-.11-.11-.21-.11l-.27,0s0,0,0,0,0,0,0-.06,0,0,0,0a.85.85,0,0,0,.16,0L25.63,17l.1-.09.19.15h0l0-.15H26s0,0,0,0a2,2,0,0,1,0,.24.1.1,0,0,0,0,.05l.12.09,0-.23h.1s0,0,0,0,0,.21.05.32l0,.05.19.14h0v-.05s0-.09,0-.13a.14.14,0,0,0,0-.16L26.5,17s0,0,0,0l.11,0,.12.21h0s0-.06,0-.08a.16.16,0,0,0,0-.16c0-.05-.07-.12-.11-.18l.11-.05.09.15v0a1.09,1.09,0,0,0,.05-.17s0,0,0,0l.07,0s0,0,0,0l-.06.19.06,0,.08-.05h0l.06.07-.09.06L27,17a.05.05,0,0,0,0,0,.35.35,0,0,0,0,.14l.23-.14.07.08-.16.1-.18.11a0,0,0,0,0,0,0c0,.08,0,.16-.07.24h0l.25-.06.05,0c.07-.09.14-.17.2-.26a0,0,0,0,1,.06,0l.07,0-.16.2.12,0a.17.17,0,0,0,.12-.08,2.09,2.09,0,0,0,.14-.17s0,0,.05,0l.07,0-.1.13h0l.26-.06,0,.12-.25.06h0l.18.06-.05.09-.19-.06-.06,0a.18.18,0,0,0-.16,0l-.11,0,.27.09,0,.08s0,0,0,0l-.36-.12h0l-.3.07.09.07.11.09a.13.13,0,0,0,.08,0l.37,0h0s0,0,0,.08,0,0,0,0l-.27,0,.07.06a.28.28,0,0,0,.21.07h.19s.05,0,0,0a.15.15,0,0,1,0,.07h-.19l.19.15-.1.09-.19-.15h0l0,.16h-.13c0-.05,0-.09,0-.13a.69.69,0,0,1,0-.13.21.21,0,0,0,0-.06l-.12-.08,0,.24H27l0-.18a.78.78,0,0,0,0-.16.1.1,0,0,0,0,0l-.23-.17s0,0,0,0l-.06.21a.06.06,0,0,0,0,0l.19.31-.11.05-.14-.22a1.24,1.24,0,0,0,0,.16s0,0,0,0,.09.15.14.24l-.11,0-.09-.14h0l0,.15c0,.06,0,.06-.1.05s-.06,0-.05-.06,0-.11.05-.16h0l-.15.1-.08-.08.19-.12a.19.19,0,0,0,.12-.16s0,0,0-.06h0l-.23.14-.07-.09.2-.12.13-.08s0,0,0,0,.05-.16.07-.24h0l-.24.05-.06,0-.21.26,0,0-.1-.06.16-.19h0l-.18.05,0,0-.18.22-.08-.05s0,0,0,0l.1-.11h0l-.2,0s0,0,0,0Z"/><path d="M17.94,27.73l.1-.23h0l-.19.09-.07-.08a0,0,0,0,1,0,0l.29-.14a.1.1,0,0,0,0,0l.07-.15-.3.14-.07-.1.18-.09.25-.12a0,0,0,0,0,0,0l.13-.27h-.1l-.23,0-.06,0-.29.28s0,0-.06,0-.09,0,0-.12l.14-.14c-.09,0-.2,0-.27.08l-.2.18s0,0-.05,0l-.05,0s0,0,0,0l.12-.12-.3,0,0-.14.3,0h0l-.19-.08a.7.7,0,0,1,.06-.09s0,0,0,0l.29.13a.13.13,0,0,0,.09,0l.18,0-.29-.14.06-.08s0,0,0,0l.39.19h.08l.29,0h0l0,0-.12-.12a.31.31,0,0,0-.21-.09l-.35-.05h0l0-.11.32,0h0l-.07-.07a.23.23,0,0,0-.19-.09l-.29,0,0-.11.22,0,0,0-.15-.15s0,0,0,0l.06-.05s.05,0,.07,0l.18.17V25.7a.28.28,0,0,0,0-.09,0,0,0,0,1,0,0H18v.11a1.41,1.41,0,0,0,0,.2l0,.05a.69.69,0,0,0,.13.11v-.26h.14v.4s0,0,0,0l.23.22,0,0c0-.07.06-.15.1-.23v-.06l-.15-.33s0,0,0-.05l.09,0,.12.26a1.17,1.17,0,0,1,.05-.11.14.14,0,0,0,0-.15l-.09-.21s0,0,0,0l.11,0,.07.17h0l.1-.23.16,0-.1.24h0l.18-.09.08.1-.21.1-.06,0a.15.15,0,0,0-.12.11,1,1,0,0,1,0,.1l.29-.13.06.09,0,0-.38.19,0,0-.13.27.14,0,.18,0a.16.16,0,0,0,.09-.05l.27-.25,0,0,.08.05s0,0,0,0l-.19.18h.1a.28.28,0,0,0,.23-.11l.14-.13a0,0,0,0,1,.07,0l.07.06-.14.13h0l.31,0,0,.13-.31.05h0l.19.09-.07.1-.17-.07-.15-.07a.1.1,0,0,0-.09,0l-.18,0,.29.13-.07.11-.23-.11-.19-.09h0l-.35.05,0,0c.06.06.12.13.19.19l.05,0,.48.08,0,.11L19.1,27l.14.15h.05l.36.06,0,.11-.22,0h0l.13.13c.06.06.06.06,0,.11s-.05,0-.11,0a.93.93,0,0,1-.14-.14h0v.18h-.15a1.77,1.77,0,0,1,0-.23.2.2,0,0,0-.09-.19L19,27.1h0v.26h-.14V27a.06.06,0,0,0,0,0l-.23-.22s0,0,0,0a2.14,2.14,0,0,0-.1.22.09.09,0,0,0,0,.07c0,.11.1.22.14.34v0l-.13,0-.11-.25h0s-.05.11-.08.17,0,0,0,0,.07.19.11.29l-.11,0s0,0,0,0l-.07-.15,0,0-.08.17s0,0-.05,0Z"/><path d="M21.3,25.56l.2-.08h0l-.15,0a.19.19,0,0,1,0-.07s0,0,0,0l.24,0h.05l.13-.05-.24-.06,0-.08.15,0,.2,0a0,0,0,0,0,0,0l.23-.09-.06,0L22,25.09H22l-.31,0s0,0,0,0,0-.06.07-.06l.16,0c-.06,0-.1-.09-.19-.07h-.22s0,0,0,0a.06.06,0,0,0,0,0,0,0,0,0,1,0,0h.13l-.18-.1.07-.09.18.11h0l0-.12.08,0h0l.07.19a.08.08,0,0,0,0,0l.11.06-.06-.19.08,0,0,0,.09.26,0,0,.18.1h0v0a.37.37,0,0,1,0-.11.15.15,0,0,0-.05-.14l-.15-.17h0l.08,0,.14.16h0v-.07c0-.05,0-.08,0-.12l-.12-.15.09,0,.09.11v0c0-.05,0-.09,0-.14s0,0,0,0h.06s0,0,0,0,0,.11,0,.17l0,0,.06-.05a0,0,0,0,1,0,0l.06,0-.06.06-.13.11,0,0v.12l.17-.14.07.06-.12.1-.13.11a0,0,0,0,0,0,0,1.23,1.23,0,0,0,0,.2h0l.2-.08,0,0,.13-.23s0,0,.05,0l.06,0-.1.18.09,0a.16.16,0,0,0,.1-.08,1.19,1.19,0,0,1,.09-.15s0,0,0,0l.07,0-.07.12h0l.2-.08.05.09-.2.08h0l.16,0,0,.08-.17,0h-.05a.23.23,0,0,0-.14,0l-.08,0,.24.05,0,.07h0l-.32-.07h0l-.23.09.08.05a.39.39,0,0,1,.11.06h.07l.3,0h0a.13.13,0,0,0,0,.06s0,0,0,0l-.22,0a.09.09,0,0,1,.06,0,.25.25,0,0,0,.19,0h.16s0,0,0,0,0,0,0,.06h-.16l.18.11-.07.08-.18-.1h0l0,.12-.1,0,0-.11,0-.1s0,0,0,0l-.11-.06.07.19-.1,0-.06-.14a.5.5,0,0,0,0-.13l0,0-.21-.12v0c0,.05,0,.11,0,.17s0,0,0,0l.21.23-.09.05-.14-.16c0,.05,0,.09,0,.13s0,0,0,0l.15.18-.08.05-.09-.11h0v.13c0,.05,0,.05-.08.05s0,0,0-.05,0-.09,0-.13h0l-.11.1L22,26l.14-.12a.17.17,0,0,0,.08-.14s0,0,0-.05h0l-.16.13L22,25.73l.15-.12.1-.08s0,0,0,0a1.49,1.49,0,0,0,0-.21h0l-.19.07,0,0-.14.24v0l-.09,0,.1-.17h0l-.14.06,0,0-.11.2-.08,0s0,0,0,0l.06-.11h0l-.15.06s0,0,0,0A.25.25,0,0,0,21.3,25.56Z"/><path d="M16.56,23.88l.18-.12h-.16s0-.05,0-.07,0,0,0,0h.29l.11-.08h-.25V23.5h.39l.2-.13-.07,0-.16-.05h-.05l-.3.08s0,0,0,0,0-.06.05-.08l.15-.05c-.07,0-.12-.06-.21,0l-.2.05s0,0,0,0,0,0,0,0,0,0,0,0l.12,0-.2-.06,0-.1.21.07h0l-.08-.11.08,0h0l.13.17a.07.07,0,0,0,.05,0l.12,0L16.87,23l.07,0h0l.16.24.05,0,.2.06h0v0a.52.52,0,0,1,0-.11.2.2,0,0,0-.09-.13l-.19-.13,0,0,.07-.06.18.13h0s0-.05,0-.07a.14.14,0,0,0-.07-.11l-.16-.12.07-.06.12.09v0l0-.14s0,0,0,0h.07s0,0,0,0a1.24,1.24,0,0,0,0,.16l0,0,0-.06h0l.07,0-.05.06-.08.13s0,0,0,0a.43.43,0,0,0,0,.11l.13-.17.09.05-.09.12-.09.13s0,0,0,0a1.91,1.91,0,0,0,0,.21l0,0,.17-.11s0,0,0,0l.06-.25s0,0,.05,0l.06,0,0,.19.08-.05a.13.13,0,0,0,.07-.09.94.94,0,0,1,0-.16s0,0,0,0h.07l0,.13h0l.17-.12.08.08-.17.11h.16V23h-.23a.2.2,0,0,0-.13,0l-.07.05h.24v.07s0,0,0,0H17.8l-.2.13.09,0,.12,0a.22.22,0,0,0,.08,0l.28-.08h0l0,.06s0,0,0,0l-.21.05.07,0a.25.25,0,0,0,.19,0l.16,0s0,0,0,0,0,0,0,.06l-.15,0h0l.21.06,0,.1-.21-.07h0l.08.11-.09,0-.07-.1-.06-.09-.06,0-.12,0,.12.17-.09,0-.09-.13-.08-.12,0,0-.24-.08v0l0,.17s0,0,0,0l.27.19-.07.07-.19-.14,0,.14,0,0,.2.15-.07.06-.12-.09h0l0,.12c0,.06,0,.06-.06.07s-.05,0-.06,0l0-.14h0l-.08.11-.09,0a1.71,1.71,0,0,1,.11-.14.16.16,0,0,0,0-.15.09.09,0,0,1,0-.05h0l-.12.16-.09,0,.1-.14.08-.11a0,0,0,0,0,0,0c0-.07,0-.14,0-.21l0,0-.16.1,0,0-.06.26v0l-.1,0,.05-.19h0l-.12.08a0,0,0,0,0,0,0l-.06.21h-.08s0,0,0,0l0-.11,0,0-.14.08s0,0,0,0Z"/><path d="M25.24,21.25h.22l-.12-.08.05-.06h0l.19.12h.19l-.19-.13.06-.07.12.08.17.11h.28l0-.05-.09-.12,0,0L25.78,21s0,0,0,0,0-.06.1,0l.16,0c-.05-.05-.06-.11-.14-.13l-.21-.06s0,0,0,0,0,0,0,0,0,0,0,0l.13,0-.11-.15.1-.06.12.16h0l0-.13h.08a0,0,0,0,1,0,0l0,.19a0,0,0,0,0,0,.06l.07.09,0-.2h.08s0,0,0,0a2.56,2.56,0,0,0-.05.27.11.11,0,0,0,0,.05l.12.14h0l0,0a.61.61,0,0,1,.07-.1.14.14,0,0,0,0-.14c0-.06,0-.13,0-.2v0h.1l0,.19h0l0-.06a.15.15,0,0,0,0-.13.85.85,0,0,1,0-.17h.1l0,.13,0,0,.08-.13h0l.05,0s0,0,0,0a1.7,1.7,0,0,0-.1.14l.06,0,.08,0s0,0,0,0,0,0,0,.06l-.09,0-.17.05,0,0a.61.61,0,0,0-.07.1l.23-.07,0,.08-.17,0-.16.06h0l-.12.18h.24l.05,0L27,21s0,0,.06,0a.08.08,0,0,0,0,0l-.19.14H27a.19.19,0,0,0,.12,0l.16-.11a0,0,0,0,1,0,0l.05.05-.12.09h.23v.1h-.23l.13.08-.06.07-.14-.09,0,0a.17.17,0,0,0-.14,0h-.09l.19.12L27,21.5s0,0,0,0l-.26-.16,0,0h-.26l.05.07.07.09a.09.09,0,0,0,.06,0l.28.08h0a.14.14,0,0,1,0,.06h0l-.21-.06,0,.05a.2.2,0,0,0,.15.1l.16,0s0,0,0,0l0,.06-.15-.05h0L27,22l-.1.06-.12-.16h0l0,.13h-.1l0-.12s0-.06,0-.1,0,0,0,0l-.07-.09,0,.19h-.1a.77.77,0,0,0,0-.15l0-.13v0l-.14-.18v0l-.11.16v0l.06.28-.1,0-.05-.2-.08.12a0,0,0,0,0,0,0c0,.07,0,.14,0,.22H26l0-.13h0l-.07.11c0,.05,0,.05-.1,0s0,0,0-.05a.57.57,0,0,0,.08-.13h0l-.15.05,0-.08.19-.06a.22.22,0,0,0,.14-.1s0,0,0-.05h0l-.22.07,0-.08.2-.06.13,0h0l.12-.19H26l-.25.18h0l-.07-.07.18-.12h-.16l0,0-.21.14-.05-.05a0,0,0,0,1,0,0l.11-.07h-.2s0,0,0,0Z"/><path d="M19.56,17.82v-.18h0l-.1.1-.07,0v0l.15-.16,0,0v-.12l-.16.15-.08-.05.1-.1.13-.13s0,0,0,0V17l-.06,0-.15.07,0,0a2.56,2.56,0,0,0-.11.24s0,0,0,0-.08,0,0-.08,0-.08.05-.13-.14,0-.17.11a1.3,1.3,0,0,1-.08.17h0l0,0s0,0,0,0a1,1,0,0,0,0-.1l-.19.09-.07-.09.2-.09h0l-.16,0s0-.05,0-.07h0l.24,0a0,0,0,0,0,.06,0l.12-.05-.24,0a.17.17,0,0,0,0-.07h0l.33.05h.05l.19-.09h0l0,0a.67.67,0,0,1-.12-.06.25.25,0,0,0-.17,0l-.25,0h0l0-.08.24,0h0l-.07,0a.22.22,0,0,0-.16,0l-.21,0v-.09l.16,0h0l-.14-.07s0,0,0,0l0-.05s0,0,0,0l.18.08,0,0a.25.25,0,0,0,0-.07s0,0,0,0l.07,0a.3.3,0,0,1,0,.08l.06.13s0,0,0,0l.13.06-.08-.19.09,0,.06.14.07.14v0l.22.1s0,0,0,0v-.17s0,0,0-.05l-.2-.19s0,0,0,0l.05,0,.16.16v-.09a.1.1,0,0,0,0-.1l-.13-.13a0,0,0,0,1,0,0l.06,0,.1.1h0V16h.13v.18h0l.1-.1.08.06-.11.11,0,0a.13.13,0,0,0,0,.11s0,.05,0,.07l.16-.15.06.05s0,0,0,0l-.21.21s0,0,0,0v.2l.09,0,.11-.05a.07.07,0,0,0,.05,0c0-.08.07-.16.11-.23v0l.07,0s0,0,0,0,0,.11-.08.17,0,0,.07,0a.2.2,0,0,0,.12-.12,1.39,1.39,0,0,1,.06-.13s0,0,0,0l.07,0-.06.12h0l.2-.09.06.08-.19.1h0l.15,0v.09l-.14,0-.12,0h-.07l-.11.06.24,0,0,.09-.19,0-.16,0h0l-.22.1h0L20,17h0l.35-.05v.09l-.24,0,.14.07h0l.26,0,0,.08-.16,0h0l.13.06c.06,0,.06,0,0,.08s0,0-.07,0l-.15-.07h0l.06.12-.1,0-.07-.15a.16.16,0,0,0-.12-.12l-.05,0h0l.08.18-.1,0L20,17.24a1.17,1.17,0,0,1-.05-.11v0L19.69,17v.2a.08.08,0,0,0,0,0l.2.2v0l-.07.05-.16-.15h0v.13s0,0,0,0l.16.17-.06,0h0l-.09-.09v.16s0,0,0,0Z"/><path d="M17.4,19.33v-.15h0l-.08.08-.06,0a0,0,0,0,1,0,0l.12-.12a0,0,0,0,0,0,0,.33.33,0,0,0,0-.1l-.13.13-.06,0,.08-.07.11-.11h0a1,1,0,0,0,0-.17l-.06,0-.11,0s0,0,0,0l-.09.2h0c-.07,0-.06,0,0-.07a.3.3,0,0,0,0-.1s-.11,0-.13.09L16.9,19s0,0,0,0h0s0,0,0,0l0-.09L16.7,19l-.05-.07.15-.07h0l-.12,0a.13.13,0,0,1,0-.06h0l.19,0H17l.09-.05-.19,0v-.05h0l.27,0h0l.15-.07h0l-.09,0a.18.18,0,0,0-.14,0l-.2,0h0l0-.06.19,0h0l-.06,0a.15.15,0,0,0-.13,0l-.17,0v-.07l.13,0h0l-.12-.05s0,0,0,0l0,0h0l.14.07v0l0-.06s0,0,0,0l.07,0s0,0,0,.06l.06.11,0,0,.1,0L17,18.22l.08,0,0,.11a.37.37,0,0,1,.05.11h0l.17.09v-.16l0,0a1.21,1.21,0,0,0-.16-.16s0,0,0,0l0,0,.13.12v-.07s0-.05,0-.08l-.11-.1s0,0,0,0l0,0,.08.08h0v-.15h.1V18h0l.08-.08.07,0-.09.09,0,0a.11.11,0,0,0,0,.09.13.13,0,0,0,0,.06l.12-.12.06,0h0l-.16.17s0,0,0,0v.17l.07,0,.09,0a.08.08,0,0,0,0,0l.09-.19v0l.06,0s0,0,0,0l-.06.14.05,0a.13.13,0,0,0,.1-.09.31.31,0,0,1,.05-.1s0,0,0,0l.05,0,0,.1h0l.16-.07.05.07-.16.08h0l.13,0v.06H18s0,0-.05,0l-.09,0,.19,0v.07l-.15,0-.13,0h0l-.18.08h0l.15.07h0l.28,0v.07l-.2,0,.12.05s0,0,0,0l.21,0,0,.06-.13,0h0l.1.05c.05,0,.05,0,0,.06s0,0-.06,0l-.12-.05h0l.05.1-.08,0L18,18.93a.13.13,0,0,0-.09-.1l-.05,0h0l.07.14-.08,0-.06-.13a.36.36,0,0,0,0-.09v0l-.18-.08v.15a.06.06,0,0,0,0,0l.17.16v0l-.07,0L17.51,19h0a.34.34,0,0,0,0,.1,0,0,0,0,0,0,0l.14.14-.06,0h0l-.07-.07v.13s0,0,0,0Z"/><path d="M21.26,24.19l-.35,0-.23-.05a3.25,3.25,0,0,1-2.17-1.47,2.2,2.2,0,0,1-.38-1.23c0-.06,0-.11,0-.17l.05-.31s0,0,0-.05a2.76,2.76,0,0,1,.48-1,2.8,2.8,0,0,1,.91-.75,3.59,3.59,0,0,1,1.87-.51.62.62,0,0,0,.23,0c.06,0,.08-.06,0-.1l-.09,0a1.17,1.17,0,0,1-.44-.31.25.25,0,0,1-.08-.18c0-.1,0-.2,0-.29a.29.29,0,0,1,.09-.21,1.37,1.37,0,0,1,.17-.17.69.69,0,0,1,.4-.14H22l.38,0,.05,0a3.18,3.18,0,0,1,.33.09.52.52,0,0,1,.37.44,1.22,1.22,0,0,1,0,.27c0,.25-.21.39-.51.45l-.28.08s0,0-.07.05a.18.18,0,0,0,.07.05l.52.17a3.11,3.11,0,0,1,1.82,1.42,2.19,2.19,0,0,1,.3,1.16,1.21,1.21,0,0,1,0,.19l-.06.4a.17.17,0,0,1,0,.05,2,2,0,0,1-.31.72,3.67,3.67,0,0,1-1.28,1.08,2.62,2.62,0,0,1-.93.31,5.49,5.49,0,0,1-.81,0Zm3.27-2.48c0-.18,0-.35,0-.53a3,3,0,0,0-.19-.63,2.9,2.9,0,0,0-.68-.86A3.43,3.43,0,0,0,21.09,19a3,3,0,0,0-1.76.76,2.14,2.14,0,0,0-.81,1.75,2.31,2.31,0,0,0,.93,1.72,3.21,3.21,0,0,0,1.76.7,3.69,3.69,0,0,0,1.1-.06,3.17,3.17,0,0,0,1.35-.66,2.71,2.71,0,0,0,.68-.8A2.23,2.23,0,0,0,24.53,21.71ZM22.1,17.45h0l-.11,0a.4.4,0,0,0-.19,0l-.16.1a.3.3,0,0,0-.1.44.26.26,0,0,0,.22.12s.08,0,.09,0,0,0-.06-.05A.31.31,0,0,1,21.7,18a.27.27,0,0,1,.17-.38.65.65,0,0,1,.53.05.19.19,0,0,1,.12.13.27.27,0,0,1-.09.25.08.08,0,0,1-.07,0c-.08,0-.1,0-.11.1s0,.09.11.06a.72.72,0,0,0,.24-.14.31.31,0,0,0-.15-.55A3.59,3.59,0,0,0,22.1,17.45Zm-.21.23a.17.17,0,0,0-.07.19A.21.21,0,0,0,21.89,17.68Zm.12.1a.14.14,0,0,0,0,.2A.35.35,0,0,0,22,17.78Zm.22,0h0l0,.15h0A.17.17,0,0,0,22.23,17.81Zm.13.12h0a.2.2,0,0,0,0-.15h0Z"/><path d="M20,19.78l.08.06.24.21.16.1a.19.19,0,0,1,.12.13s0,.06.05.09a3,3,0,0,0,.46.4.83.83,0,0,1,.3.35.21.21,0,0,0,.18.13.27.27,0,0,1,.21.17.07.07,0,0,1,0,.08.25.25,0,0,0,0,.07,2,2,0,0,0-.06.73,2.61,2.61,0,0,1,0,.28c0,.13,0,.25-.05.37s0,0,0,.05a.08.08,0,0,1-.06-.08c0-.09,0-.19,0-.29a1.46,1.46,0,0,0,0-.22.76.76,0,0,1,0-.15,1.69,1.69,0,0,0,0-.55.39.39,0,0,0-.09-.21.12.12,0,0,1,0-.13.11.11,0,0,0,0-.06l-.13-.1a1.48,1.48,0,0,1-.37-.38c-.08-.12-.16-.23-.25-.34a.76.76,0,0,0-.17-.13.24.24,0,0,1-.11-.13.59.59,0,0,0-.13-.19L20,19.83a.08.08,0,0,1,0,0Z"/><path d="M24.18,20.61l0-.05a4.44,4.44,0,0,0-.82-.86,2.92,2.92,0,0,0-1.65-.56,3.13,3.13,0,0,0-1.66.38,2.49,2.49,0,0,0-1.11,1.14l-.08.14h0s0,0,0-.05.1-.25.17-.37a2.88,2.88,0,0,1,2.56-1.3,3,3,0,0,1,2,.71,2.88,2.88,0,0,1,.55.66c0,.05,0,.1.07.15Z"/><path d="M24,22.59a.56.56,0,0,1-.05.08,1.71,1.71,0,0,1-.18.2l-.47.4a2.16,2.16,0,0,1-.8.36,4,4,0,0,1-1.14.14,3.15,3.15,0,0,1-1-.22,2.53,2.53,0,0,1-1.3-1,1.89,1.89,0,0,1-.34-1c0-.1,0-.19,0-.28a.36.36,0,0,1,0-.1h0s0,0,0,.05,0,.14,0,.21a1.82,1.82,0,0,0,.21.82,2.48,2.48,0,0,0,.68.84,2.69,2.69,0,0,0,1,.47,3.51,3.51,0,0,0,1.82,0,1.87,1.87,0,0,0,.52-.23,3.48,3.48,0,0,0,.69-.5l.2-.21.07-.06Z"/><path d="M22,19.27s.05,0,0,.05,0,.26-.07.39a.14.14,0,0,1,0,.06.09.09,0,0,1-.05,0,.22.22,0,0,1-.23-.11c0-.06-.08-.06-.13,0l-.05.07s-.06.06-.1,0,0-.06,0-.08a.41.41,0,0,1,.07-.11.18.18,0,0,0,0-.22.49.49,0,0,1,0-.11s0,0,0-.05,0,0,0,0l.06.06a.07.07,0,0,0,.1,0l.1-.07h.06s0,0,0,.05a.16.16,0,0,1-.06.08.17.17,0,0,0,0,.19.25.25,0,0,0,0,.09s0,0,.05.05l0-.05.06-.19.05-.15Z"/><path d="M19.85,20.58l0,0-.08-.13,0-.06a.15.15,0,0,0-.14-.07h-.22l-.05,0s0,0,0-.05l.16,0c.1,0,.11,0,.07-.09a.14.14,0,0,1,0-.07s0,0,0,0h.06a.3.3,0,0,1,.08.08s0,0,0,.05a.19.19,0,0,0,.19.08H20l.06,0-.05,0-.09,0H19.9s-.06,0,0,.07l0,.11a.13.13,0,0,1,0,.06Z"/><path d="M19.34,21.07l.15.08.07.06s0,0,0,.05l-.06,0a.16.16,0,0,1-.09,0l-.09-.06a.29.29,0,0,0-.18,0l-.17.05h-.08s0,0,0-.05l.08-.05.07,0c.05,0,.05,0,0-.06L19,21l0,0s0-.05.05,0l.11.05a.29.29,0,0,0,.31,0,.49.49,0,0,1,.16-.05.08.08,0,0,1,.08,0s0,0,0,0a1.66,1.66,0,0,1-.21.06Z"/><path d="M20.53,19.85v.09s0,.08-.05.07,0,0-.05-.07,0-.05,0-.08a.16.16,0,0,0-.09-.17l-.14-.1s0,0,0-.06.06,0,.08,0l.09,0c.05,0,.06,0,.07,0a.3.3,0,0,1,0-.08s0,0,0,0l0,0s0,.05,0,.07a.19.19,0,0,0,.09.18.57.57,0,0,1,.13.08l.06.07v0h-.05l-.11-.05-.08,0S20.53,19.82,20.53,19.85Z"/><path d="M22.32,22.94l.06,0a2.43,2.43,0,0,1,.38.33s0,.05,0,.07-.07,0-.09,0l-.17-.12-.07-.06h0s0,0,0,.05a1.13,1.13,0,0,1,0,.18,0,0,0,0,1,0,0s-.05,0-.06,0a.58.58,0,0,1-.05-.14,2.36,2.36,0,0,1,0-.28s0-.06,0-.09Z"/><path d="M23,22.54h.07l.46.19a.15.15,0,0,1,.06.05s0,0,0,0l-.11,0-.13-.06a.06.06,0,0,0-.06,0s0,0,0,0l.06.11a.38.38,0,0,1,0,.1.09.09,0,0,1,0,.05.06.06,0,0,1-.07,0,2.28,2.28,0,0,1-.26-.45v0Z"/><path d="M21.46,23.33a.54.54,0,0,1-.07.13l-.09.11-.06,0s0,0,0-.05,0-.07,0-.11.07-.16.11-.25a.25.25,0,0,1,0-.07s0,0,.07,0l0,0a1.74,1.74,0,0,1,.14.38.28.28,0,0,1,0,.09s0,0-.06,0a.24.24,0,0,1-.06-.08l-.05-.17Z"/><path d="M19.87,22.29l0,.05-.39.36-.06,0s-.05,0,0-.07l.11-.12a1.31,1.31,0,0,1,.12-.11h-.13l-.2,0h0s0,0,0,0l.06,0a1.93,1.93,0,0,1,.49-.09Z"/><path d="M20.33,23.41s0,0,0-.06l.06-.21,0,0h0l-.21.11-.05,0s0,0,0,0a.09.09,0,0,1,0,0,1.93,1.93,0,0,1,.39-.3l0,0s.06,0,.05,0a.27.27,0,0,1,0,.12l-.14.32-.05.07,0,0Z"/><path d="M23.23,19.76l0,.06-.31.3a.1.1,0,0,1-.07,0,.06.06,0,0,1-.06,0,0,0,0,0,1,0,0,1.43,1.43,0,0,1,.38-.35l.06,0S23.24,19.73,23.23,19.76Z"/><path d="M22.05,19.69l.11-.3,0-.06,0,0,0,0v0a1.2,1.2,0,0,1-.12.42s0,.07-.07.06,0-.05,0-.08a.29.29,0,0,1,0-.09Z"/><path d="M24.08,20.69s0,0,0,0l-.51.22a.07.07,0,0,1-.1-.06.05.05,0,0,1,0,0l.12,0,.41-.11h.1Z"/><path d="M20.35,22.72a1.25,1.25,0,0,1-.08.12,2,2,0,0,1-.24.26l-.08.06h0s0,0,0,0,0,0,0,0a1.88,1.88,0,0,1,.3-.34l.06,0s0,0,0,0S20.34,22.71,20.35,22.72Z"/><path d="M24.12,21.94H24a2.73,2.73,0,0,1-.51-.07s-.07,0-.06,0,0,0,.08,0l.43.07.13,0,0,0Z"/><path d="M23.23,22.32l.07,0,.39.26s.06,0,0,.06h-.08a3,3,0,0,1-.42-.26l0,0a.06.06,0,0,1,0,0Z"/><path d="M23.34,20.72l.05,0a2,2,0,0,1,.5-.2H24A1.42,1.42,0,0,1,23.34,20.72Z"/><path d="M19.66,21.84l-.07,0-.25.07L19,22S19,22,19,22a0,0,0,0,1,0,0,2,2,0,0,1,.55-.14h.08Z"/><path d="M21,23.57a.25.25,0,0,1,0-.12c0-.1,0-.2,0-.31l0-.06,0,0a.05.05,0,0,1,0,0,1.5,1.5,0,0,1,0,.2,2,2,0,0,1-.08.22.09.09,0,0,1,0,.05Z"/><path d="M23.5,21.64a1.36,1.36,0,0,1,.72.08h-.06a2,2,0,0,1-.6-.06Z"/><path d="M19.69,22l-.05,0a2.67,2.67,0,0,1-.48.15H19s0,0,0,0A1.06,1.06,0,0,1,19.2,22l.42-.1h.07Z"/><path d="M20.16,22.6s0,0,0,.06a1.41,1.41,0,0,1-.34.35l-.06,0s0-.05,0-.06a1.71,1.71,0,0,1,.36-.35Z"/><path d="M19.56,21.44a1.2,1.2,0,0,1-.68-.08h.06a1.69,1.69,0,0,1,.55.06Z"/><path d="M24.22,21.5h-.06a2.53,2.53,0,0,1-.56-.06l-.06,0h.06a1.75,1.75,0,0,1,.56.06l.06,0Z"/><path d="M19.09,22.28a2,2,0,0,1,.65-.21v0l-.05,0a2,2,0,0,1-.54.18h-.07Z"/><path d="M20.75,19.33s0,0,0,0l.2.4s0,.05,0,.08l-.07-.05a1.32,1.32,0,0,1-.17-.41s0,0,0-.06Z"/><path d="M24.34,21.66v-.44C24.44,21.27,24.41,21.58,24.34,21.66Z"/><path d="M24.15,22.32A.61.61,0,0,1,24.3,22,.68.68,0,0,1,24.15,22.32Z"/><path d="M24.27,20.84c.09.07.13.25.08.3A.58.58,0,0,1,24.27,20.84Z"/><path d="M18.78,21a0,0,0,0,1,0,.05,0,0,0,0,1-.06,0s-.05,0-.05-.05S18.75,21,18.78,21Z"/></g></g></svg>