<svg xmlns="http://www.w3.org/2000/svg" viewBox="0 0 33.01 32.01"><defs><style>.cls-1{fill:#231f20;}</style></defs><g id="Layer_2" data-name="Layer 2"><g id="Layer_1-2" data-name="Layer 1"><path class="cls-1" d="M33,15.85c-.1-1.83,0-3.67,0-5.5,0-2.52,0-5,0-7.55,0-.78-.27-1.08-1.35-.88a20,20,0,0,1-3.29.33,26.2,26.2,0,0,1-10.78-2,2.72,2.72,0,0,0-2.25,0A26.17,26.17,0,0,1,1.53,2C0,1.76,0,1.79,0,3c0,4.67,0,9.34,0,14a9.57,9.57,0,0,0,2.33,6c3.25,4,8,6.69,13.27,8.84a2.42,2.42,0,0,0,2-.09,38.4,38.4,0,0,0,10.55-6.14C31.34,22.85,33.21,19.69,33,15.85Zm-5.47,9.3a36.84,36.84,0,0,1-10.32,6,1.86,1.86,0,0,1-.75.19,1.29,1.29,0,0,1-.45-.09C9.81,28.71,5.82,26.06,3.07,22.63A9,9,0,0,1,.87,17c0-4.83,0-9.76,0-14V2.58l.5.07a27.49,27.49,0,0,0,3.94.29A28.06,28.06,0,0,0,15.71.87,2.13,2.13,0,0,1,16.5.68a1.7,1.7,0,0,1,.67.16,27.65,27.65,0,0,0,10.45,2.1h.76a22.25,22.25,0,0,0,3.46-.34,1.16,1.16,0,0,1,.27,0,1.29,1.29,0,0,1,0,.25c0,1.81,0,3.66,0,5.45,0,.7,0,1.4,0,2.1s0,1.13,0,1.7c0,1.26,0,2.55,0,3.83C32.33,19.27,30.81,22.3,27.52,25.15Z"/><path class="cls-1" d="M31.28,15.92c-.08-1.3-.06-2.6,0-3.88,0-.56,0-1.13,0-1.69s0-1.4,0-2.1c0-1.59,0-3.23,0-4.87a25.92,25.92,0,0,1-2.85.23h-.79A28.47,28.47,0,0,1,16.78,1.44a1,1,0,0,0-.28-.08,1,1,0,0,0-.31.08h0l-.06,0A28.87,28.87,0,0,1,5.31,3.62a28.69,28.69,0,0,1-3.58-.23c0,4.16,0,9,0,13.62A8.44,8.44,0,0,0,3.8,22.27c2.66,3.31,6.55,5.89,12.6,8.36l.06,0a1.54,1.54,0,0,0,.35-.11,36.22,36.22,0,0,0,10.07-5.85C30,22,31.46,19.11,31.28,15.92ZM27.62,4.3h.82c.7,0,1.35-.06,2-.12,0,1.38,0,2.75,0,4.08,0,.7,0,1.4,0,2.1,0,.54,0,1.08,0,1.63V12c0,1.11,0,2.25,0,3.4H16.78V2.2A29.55,29.55,0,0,0,27.62,4.3Zm-25-.13c.91.09,1.82.13,2.72.13A30,30,0,0,0,16.16,2.21V15.44H2.59C2.58,11.53,2.58,7.64,2.59,4.17ZM4.52,21.9A7.85,7.85,0,0,1,2.59,17V15.93H16.16V29.77C10.62,27.44,7,25,4.52,21.9Zm21.73,2.33a34.59,34.59,0,0,1-9.47,5.55V15.93H30.42v0C30.59,19,29.22,21.66,26.25,24.23Z"/></g><g id="Layer_2-2" data-name="Layer 2"><path class="cls-1" d="M13.27,8.82h0s-.74-4.31-1.66-3.49a3.24,3.24,0,0,1-2,.77H9.2a3.24,3.24,0,0,1-2-.77C6.33,4.6,5.65,8,5.52,8.7a3.57,3.57,0,0,0-.2,1.18,3.68,3.68,0,0,0,1.19,2.68h0a4.77,4.77,0,0,0,.63.48l.8.6,1.44,1.08,1.44-1.08.79-.6a3.73,3.73,0,0,0,1.83-3.16A3.41,3.41,0,0,0,13.27,8.82ZM9.11,8.13h.54s0,0,0,0l-.13.17-.14.16a0,0,0,0,1-.05,0l-.13-.16-.14-.17S9.09,8.13,9.11,8.13ZM10,12.39a2.56,2.56,0,0,0-1.2,0c-1.26.3-1.83-.6-1.83-1.55a2.22,2.22,0,0,1,2.39-2,2.22,2.22,0,0,1,2.39,2C11.77,11.71,11.08,12.78,10,12.39Z"/><path class="cls-1" d="M5.09,4.35l.1,0H5a.29.29,0,0,0,0,.09Z"/><path class="cls-1" d="M11.53,3.72l-.1-.08-.36.07h.46Z"/><path class="cls-1" d="M6.73,14.3l-.11-.08a.08.08,0,0,1,0-.08,2.9,2.9,0,0,1,.19-.34l.06,0a.51.51,0,0,0,.28-.07l.08,0,.37,0H7.8l1.46.09,1.84.11.83,0,.46,0,.38,0A8.84,8.84,0,0,0,14,14a5.57,5.57,0,0,1,1,0l.13,0a1.28,1.28,0,0,1-.35.26.13.13,0,0,1-.12,0,.62.62,0,0,0-.43-.08.69.69,0,0,0-.52.38,2.2,2.2,0,0,0-.13.36c0,.05,0,.08.07.08h.56a.84.84,0,0,0,.49-.18.29.29,0,0,0,.07-.41l0-.06a3.24,3.24,0,0,1,.35-.21.1.1,0,0,1,.07,0,1.64,1.64,0,0,0,.23,0,2.18,2.18,0,0,1,.72,0h0v-.29a.17.17,0,0,0-.11,0,.26.26,0,0,1-.21,0,1.46,1.46,0,0,1-.52-.24L15,13.28a2,2,0,0,1-.24-.26.43.43,0,0,0-.14-.16.2.2,0,0,1,0-.08s0-.11-.07-.17a.21.21,0,0,1,0-.1,1.3,1.3,0,0,1,0-.21.18.18,0,0,1,.07-.08,3.34,3.34,0,0,0,.38-.17.84.84,0,0,0,.44-.64.14.14,0,0,1,.11-.13l.09,0H15.5c-.14,0-.27,0-.41,0a.84.84,0,0,0-.67.44,3,3,0,0,0,0,.42,2.54,2.54,0,0,0,0,.39.14.14,0,0,1,0,.06h0l0,0a1.43,1.43,0,0,0-.36-.38.28.28,0,0,1-.1-.14c-.07-.12-.12-.26-.29-.33a1.74,1.74,0,0,0-.48-.14c-.29,0-.58,0-.86,0v.07a2.34,2.34,0,0,1,.74.27,1.08,1.08,0,0,0,.62.19.47.47,0,0,1,.36.13l0,0a1,1,0,0,1,.26.4c-.12-.05-.22-.06-.27-.16a.36.36,0,0,0-.15-.12.82.82,0,0,0-.79,0,3.71,3.71,0,0,1-.66.24v.09l.53.18a1.17,1.17,0,0,0,.88,0,.38.38,0,0,0,.15-.13c.08-.1.07-.1.22-.07a.23.23,0,0,1,.14.09.24.24,0,0,0,.09.08c.1.05.14.11.11.2s0,.07.07.08a.23.23,0,0,1,.16.08l.53.47.09.07-.62,0-.68,0a2.62,2.62,0,0,1-.28,0l-1.42-.08h0l-1.51-.1h-.17l-.85-.05c-.15,0-.3,0-.43,0l-1.65-.1H7.47a5.6,5.6,0,0,1-.81-.1.63.63,0,0,0-.48.1l.11,0-.33,0-.28,0A2.94,2.94,0,0,1,5,13.09l0,0-.16-.18a0,0,0,0,1,0,0l.15-.24a.08.08,0,0,1,.12,0,1.16,1.16,0,0,0,1,.18,2.48,2.48,0,0,1,.27,0h.13v0a.26.26,0,0,0-.09-.05,2.86,2.86,0,0,0-1-.21c-.37,0-.55.09-.65.38l0,.1a5,5,0,0,0-.54-.31.8.8,0,0,1-.41-.44.11.11,0,0,1,.06-.16l.06,0a.53.53,0,0,0,.28-.63,1,1,0,0,0-.36-.53s-.06-.11-.1-.16a.35.35,0,0,0-.06-.09.62.62,0,0,1,0,.1,3.17,3.17,0,0,1-.17.49.7.7,0,0,0-.07.37.37.37,0,0,0,.12.27.55.55,0,0,1,.18.3.84.84,0,0,0,.08.2.54.54,0,0,1,0,.11s0,.06,0,.06a.22.22,0,0,1-.19-.07.72.72,0,0,0-.79-.24l-.17,0v.57a1.44,1.44,0,0,0,.42,0,.64.64,0,0,0,.55-.26c0-.06.1,0,.16,0l.21.11a3.42,3.42,0,0,1,.58.38.53.53,0,0,0,.15.08l.59.25.38.14.09,0H5.25c-.12,0-.12,0-.12.07l-.76.22-.29.08a3.07,3.07,0,0,0-.36.11.7.7,0,0,1-.49.07.41.41,0,0,0-.24,0s-.11,0-.16,0S2.74,14,2.74,14a.47.47,0,0,0-.15-.41v.53h.06a.39.39,0,0,1,.31.13l0,0-.34.21v.27l.29-.19.09,0a.68.68,0,0,1,0,.17.49.49,0,0,1,0,.17.41.41,0,0,0,.28.43l.31.13h.18a.19.19,0,0,1-.11-.19.88.88,0,0,0-.07-.32.47.47,0,0,0-.41-.28s-.1,0-.12-.05a.1.1,0,0,1,.06-.13c.19-.09.37-.18.56-.25L4.51,14l.13,0,.51-.06,1.46-.23h.17l-.1.16a.86.86,0,0,0-.2.7.19.19,0,0,1,0,.12.42.42,0,0,0-.07.46,2.56,2.56,0,0,1,.11.24l.06.13H6.8L7,14.89A.57.57,0,0,0,6.73,14.3Z"/><path class="cls-1" d="M9.7,4.17l0,.06s.06.06.1.07a1.66,1.66,0,0,0,.8,0,.4.4,0,0,0,.33-.25c0-.09,0-.19.07-.29a1.59,1.59,0,0,1,.53,0c-.08.09-.25.09-.27.21h.14c.21,0,.39-.09.6-.08s.37,0,.56-.07h.09a.77.77,0,0,1-.07.16,1.3,1.3,0,0,1-.1.15.36.36,0,0,0,0,.49,2,2,0,0,1,.28.37l.06.06h0a.59.59,0,0,0,0-.14.2.2,0,0,1,0-.21.91.91,0,0,0,.14-.3.37.37,0,0,0-.19-.4s-.09,0-.07-.09a.17.17,0,0,1,.13-.1h.64l.87.1.13,0,.49.13,1.24.32V4.18A2,2,0,0,1,15.92,4l-.22-.15a2.53,2.53,0,0,1-.43-.5s0,0,0,0,0-.14,0-.22l0,0L15.51,3a.07.07,0,0,1,.11,0,.85.85,0,0,0,.55.49V3.1L16,3a.68.68,0,0,0-.8.08l-.1.08a4,4,0,0,0-.26-.46l-.14,0a1.3,1.3,0,0,1,.2.41.33.33,0,0,0,.07.13l.37.45.25.27.06,0-.41-.18c-.09-.05-.1-.06-.15,0l-.8-.11-.3,0a1.67,1.67,0,0,0-.38,0,.81.81,0,0,1-.47-.13.31.31,0,0,0-.23-.06.26.26,0,0,1-.13-.08.11.11,0,0,1,0-.12h0l-.2.06h0c.1,0,.2.15.19.24h0l-.67.08a.44.44,0,0,1-.2,0l-.23-.1-.21.05.1.08h-.46l-1.16.22-.12.15Z"/><path class="cls-1" d="M15.71,5.18a.25.25,0,0,1-.11.09.52.52,0,0,0-.34.38c0,.08,0,.16,0,.24a.67.67,0,0,1-.3.51l0,0c.06.06.07.06.11,0s.17-.11.24-.17l.65-.59a.56.56,0,0,0,.16-.6S16,5,16,5s0-.06,0-.07l.14-.09V4.72A1.08,1.08,0,0,0,15.71,5.18Z"/><path class="cls-1" d="M16.17,4.17V4.1h-.05Z"/><path class="cls-1" d="M2.93,5.65s0,0,0,0l.36-.12a.33.33,0,0,1,.39.08c.09,0,0-.12,0-.19a.61.61,0,0,1,.13,0,1,1,0,0,1,.35.24c.09.09.08.15,0,.24a.45.45,0,0,0-.14.55,2.69,2.69,0,0,0,.19.32.89.89,0,0,1,.18.41s0,0,0,.06a1.12,1.12,0,0,0,.22-.86A1.46,1.46,0,0,0,3.61,5.29L4,5.09A.41.41,0,0,1,4.29,5s.11,0,.12,0,.1-.07.18-.09a1.52,1.52,0,0,1,.6,0L5.63,5A2.38,2.38,0,0,1,6,5.06a.56.56,0,0,0,.23.07s.06,0,.09,0l.18.11a.36.36,0,0,1,.1.07.76.76,0,0,1,.12.19.09.09,0,0,1,0,.09c-.06.11-.14.21-.19.32a.72.72,0,0,0,.09.72.12.12,0,0,1,0,.16s0,0,0,.08l.1,0A1.34,1.34,0,0,1,7,6.65.58.58,0,0,0,7.23,6,2.7,2.7,0,0,0,7,5.62L6.69,5.3l0,0h0l0,0a2.18,2.18,0,0,0,.57.15.62.62,0,0,1,.19.07A.78.78,0,0,0,8,5.63a1.93,1.93,0,0,0,.5-.1c.24-.12.47-.26.7-.4l-.06,0a2.38,2.38,0,0,1-.8.1,1.26,1.26,0,0,0-.65.12.47.47,0,0,1-.4,0H7.2a1.51,1.51,0,0,1-.49-.21.47.47,0,0,1,.33,0,.49.49,0,0,0,.21,0,.71.71,0,0,0,.66-.35,2.52,2.52,0,0,1,.37-.49L8.2,4.25c-.18,0-.37.07-.56.09a.94.94,0,0,0-.73.4.24.24,0,0,0,0,.17c0,.12,0,.11-.13.15a.23.23,0,0,1-.18,0,.31.31,0,0,0-.13,0,.2.2,0,0,1-.23-.11.07.07,0,0,0-.11,0,.28.28,0,0,1-.2,0l-.77-.15L5,4.71l.51-.3.23-.11H5.19l-.1,0L5,4.39A.29.29,0,0,1,5,4.3H4.87l-.17.12a1.71,1.71,0,0,1-.57.35l-.06,0c-.1-.06-.15,0-.21,0S3.73,5,3.66,5l-.6.27a3.85,3.85,0,0,1-.47.19v.29C2.71,5.73,2.85,5.76,2.93,5.65Z"/><path d="M25,9.91c.2.28.37.54.56.78a4.25,4.25,0,0,1,1.19,2.48A1.92,1.92,0,0,1,25.31,13a2.26,2.26,0,0,0-2.12.28,1.38,1.38,0,0,1-1.31.33C20.33,13.39,19.41,12.17,20,11a24.83,24.83,0,0,0,1.34-3.57,2.51,2.51,0,0,1,2.25-1.83l-.18-.39c.42-.08.81-.17,1.21-.21.09,0,.21.2.31.3a10.19,10.19,0,0,1,1.23,0c.51.06.75.41.47.75-.42.52-.16,1.05-.21,1.57,0,.25-.14.56.26.73,0,0,0,.07,0,.1-.05.26-.09.52-.16.77C26.35,9.81,26.19,9.89,25,9.91Zm.45.92-.08.11c-.26,0-.51,0-.77,0a5.69,5.69,0,0,0-.71-.07c-.37,0-.74.06-1.11.08a1,1,0,0,1-1.14-.78c0-.1,0-.21,0-.31-.22.53,0,.92.54,1.17l-.13,1.25c.42-.43.74-.79,1.1-1.13a.58.58,0,0,1,.4-.06,13.44,13.44,0,0,1,1.94,1.6,1,1,0,0,0,1.11.37A3.71,3.71,0,0,0,25.47,10.83ZM23,7.82l1.58-2.66-1,.11.29.31C23.13,6.5,22.84,7.27,23,7.82Zm1.31-.51c1-.21,1.83-.84,1.85-1.44C25.91,6.6,25,6.82,24.32,7.31Z"/><path class="cls-1" d="M27.28,7.68a.11.11,0,0,0-.06.07.51.51,0,0,0,.23.38,1.07,1.07,0,0,0,.25,0,.25.25,0,0,0,.18-.1c.05-.07,0-.26-.12-.32A.6.6,0,0,0,27.28,7.68Z"/><path class="cls-1" d="M28,8.17c0-.1.07-.2.09-.29S28,7.7,27.9,7.6A.75.75,0,0,0,28,8.17Z"/><path class="cls-1" d="M28.28,7.15a.47.47,0,0,0-.36.12l.83.23C28.61,7.34,28.51,7.19,28.28,7.15Z"/><path class="cls-1" d="M28.88,7.15a.29.29,0,0,0,0,.46c0-.24.21-.37.38-.52A.38.38,0,0,0,28.88,7.15Z"/><path class="cls-1" d="M28.53,7.54c-.15,0-.21.09-.26.21l.56,0A.3.3,0,0,0,28.53,7.54Z"/><path class="cls-1" d="M26.73,14.3a.4.4,0,0,0,.12.15l.54.39.12.05.62,0a.38.38,0,0,0,.16,0,.68.68,0,0,0-.52-.35.61.61,0,0,1-.38-.28c-.14-.26-.4-.49-.2-.83h0a.44.44,0,0,0-.32.28,2,2,0,0,1-.12.34.43.43,0,0,0-.05.13.25.25,0,0,1,.13,0Z"/><path class="cls-1" d="M26.29,12.56l.56.57a1.43,1.43,0,0,0,.24.16l.07,0-.09-.36.08.06.08.07c.14-.13.14-.22,0-.34A1,1,0,0,0,26.29,12.56Z"/><path class="cls-1" d="M26.24,14.49s0,0,.05-.05l.06,0-.06.22,0,0a.78.78,0,0,0,.15-.1l.25-.25a.35.35,0,0,1,0-.14.57.57,0,0,0-.47.11C26.15,14.35,26.16,14.4,26.24,14.49Z"/><path class="cls-1" d="M27.49,13.53a.39.39,0,0,0,.05.6c0-.34.37-.44.63-.62A.66.66,0,0,0,27.49,13.53Z"/><path class="cls-1" d="M27.19,13.41s0,.05,0,.08,0,.06,0,.08l0,.22h.06a1.66,1.66,0,0,1,.06-.21c.08-.22.16-.27.46-.29a.2.2,0,0,0,.15-.09.55.55,0,0,1,.56-.21,5.54,5.54,0,0,1,.57.07.55.55,0,0,0-.82-.2L28,12.78a.49.49,0,0,0-.54.13c-.13.15-.31.3-.3.5Z"/><path class="cls-1" d="M29.3,7.78a.46.46,0,0,0-.29.69.3.3,0,0,0,.3.13c-.25-.4.05-.57.43-.72A.38.38,0,0,0,29.3,7.78Z"/><path class="cls-1" d="M30,8.81a2.6,2.6,0,0,0,.38-.36s0-.07,0-.08a.14.14,0,0,0-.11,0l-1,.27A.5.5,0,0,0,30,8.81Z"/><path class="cls-1" d="M30.14,10.73l0,0,0,0,0,.17,0,0a1.25,1.25,0,0,0,.12-.08l.06-.07c0-.07,0-.15,0-.23a.51.51,0,0,0-.27.09C30.08,10.63,30.08,10.67,30.14,10.73Z"/><path class="cls-1" d="M30.38,12.28l-.05.06a.43.43,0,0,0,0,.41C30.37,12.59,30.38,12.43,30.38,12.28Z"/><path class="cls-1" d="M29.94,8.16a.4.4,0,0,0-.35,0,.29.29,0,0,0-.18.26c0,.07.05.09.14.08L30,8.4c.12,0,.15-.07.08-.15Z"/><path class="cls-1" d="M28.44,8.25c-.08.08-.12.16,0,.24s.05.09.07.14.22.22.47.16a.4.4,0,0,0,.08.39c.1.12.17.14.35.11l.22,0c.29,0,.43-.15.46-.41l-.22.09a.45.45,0,0,1-.45,0A5.32,5.32,0,0,1,29,8.54a.36.36,0,0,1-.1-.4,2.05,2.05,0,0,1,.08-.2,1.52,1.52,0,0,0-.26.09A1.7,1.7,0,0,0,28.44,8.25Z"/><path class="cls-1" d="M30.31,13a1,1,0,0,0-.24-.74c-.08.16-.21.28-.09.43S30.2,12.87,30.31,13Z"/><path class="cls-1" d="M30.05,11.9l.33,0v-.07a.32.32,0,0,0-.39-.13l.13.05-.36,0C29.75,11.84,29.86,11.92,30.05,11.9Z"/><path class="cls-1" d="M28.25,8.25a.25.25,0,0,0,.15,0l-.31-.06C28.1,8.23,28.18,8.24,28.25,8.25Z"/><path class="cls-1" d="M28.84,12.7a.42.42,0,0,0-.28-.58.49.49,0,0,0-.54.12C28.33,12.35,28.68,12.41,28.84,12.7Z"/><path class="cls-1" d="M25.45,14.51c-.28,0-.57.22-.53.44a.19.19,0,0,0,.17.18c0-.37.29-.41.64-.42C25.72,14.59,25.61,14.52,25.45,14.51Z"/><path class="cls-1" d="M24,13.87s-.07,0-.08,0a.34.34,0,0,0,0,.35.64.64,0,0,0,.18.1.29.29,0,0,0,.18,0,.25.25,0,0,0,.05-.27A.44.44,0,0,0,24,13.87Z"/><path class="cls-1" d="M24.31,14.45a1.21,1.21,0,0,0,.2-.19c.08-.09,0-.17-.05-.27A.67.67,0,0,0,24.31,14.45Z"/><path class="cls-1" d="M24.59,15.39a1,1,0,0,0,.08-.15.3.3,0,0,0-.29,0,.26.26,0,0,0-.19.23h.18l.14,0Z"/><path class="cls-1" d="M23.61,14.18a.39.39,0,0,0-.33-.11c.28.18.19.4.2.62a.33.33,0,0,1-.15.28c-.14.1-.24.21-.21.38,0,0,.08,0,.12,0l.42-.17a.14.14,0,0,0,.06-.07l.21-.4a.23.23,0,0,0-.09-.31Z"/><path class="cls-1" d="M24.44,14.58a.3.3,0,0,0,.13,0l-.2-.14C24.34,14.52,24.39,14.55,24.44,14.58Z"/><path class="cls-1" d="M22.25,14.16a.47.47,0,0,0-.3.69.31.31,0,0,0,.3.14c-.24-.4.06-.58.44-.72A.38.38,0,0,0,22.25,14.16Z"/><path class="cls-1" d="M22.93,15.19a2.55,2.55,0,0,0,.38-.35.1.1,0,0,0,0-.09.2.2,0,0,0-.11,0l-1,.28A.52.52,0,0,0,22.93,15.19Z"/><path class="cls-1" d="M22.53,14.51a.29.29,0,0,0-.17.27c0,.06.05.09.13.07l.41-.07c.12,0,.15-.06.08-.14l-.1-.1A.4.4,0,0,0,22.53,14.51Z"/><path class="cls-1" d="M23.33,14.65a.32.32,0,0,0-.21-.43.48.48,0,0,0-.47.16C22.9,14.44,23.19,14.42,23.33,14.65Z"/><path class="cls-1" d="M26.05,15.18a.25.25,0,0,0,0-.38.41.41,0,0,0-.43,0C25.81,14.9,26,15,26.05,15.18Z"/><path class="cls-1" d="M29.34,13.77c.06-.34-.4-.73-.84-.7-.27,0-.43.13-.46.32.56,0,1.05.08,1,.67A.32.32,0,0,0,29.34,13.77Z"/><path class="cls-1" d="M28,14c0,.13.05.17.21.14a4.51,4.51,0,0,1,.53-.09c.12,0,.15-.08.11-.15a.46.46,0,0,0-.4-.24.43.43,0,0,0-.4.19Z"/><path class="cls-1" d="M26,15.31s.05,0,0-.06,0,0-.08,0l-.86-.06a.32.32,0,0,0,.25.31h.25A2.74,2.74,0,0,0,26,15.31Z"/><path class="cls-1" d="M27.7,14.35a4.5,4.5,0,0,0,.7.25.56.56,0,0,0,.73-.52l-1.38.11s-.11,0-.12.06S27.66,14.33,27.7,14.35Z"/><path class="cls-1" d="M24.49,14.81s0,.09,0,.13.07.22.28.25a.36.36,0,0,0-.11.27h.45l-.05-.06a3.11,3.11,0,0,1-.2-.41.33.33,0,0,1,.1-.33l.15-.13h-.23l-.28.1C24.49,14.67,24.42,14.71,24.49,14.81Z"/><path class="cls-1" d="M24.63,13.75l.52.4c0-.16,0-.3-.19-.39A.38.38,0,0,0,24.63,13.75Z"/><path class="cls-1" d="M25,14.12a.28.28,0,0,0-.29.09l.43.13A.18.18,0,0,0,25,14.12Z"/><path class="cls-1" d="M30,11.62l.06,0,.26-.18a.21.21,0,0,0,.06-.08v-.08s0,0,0,0a.52.52,0,0,1-.06-.16c0-.06-.06-.1-.16-.14.1.17,0,.28-.09.4a.27.27,0,0,1-.18.13.33.33,0,0,0-.25.17l.08,0Z"/><path class="cls-1" d="M25.51,14.85a.32.32,0,0,0-.25.16s0,.08.07.09l.33.06c.1,0,.14,0,.13-.09a.93.93,0,0,1,0-.1A.29.29,0,0,0,25.51,14.85Z"/><path class="cls-1" d="M30.39,7.73h0V7.8h0Z"/><path class="cls-1" d="M30.39,7V6.9a.57.57,0,0,0-.39.31c0,.1,0,.17.15.22l0-.06a.43.43,0,0,0,0-.07l.08.27h.06l0-.06V7Z"/><path class="cls-1" d="M30.39,8.06V7.94h0v.12Z"/><path class="cls-1" d="M30.39,7.52h0v.17h0Z"/><path class="cls-1" d="M23,13.59c0,.11,0,.17.15.23l0-.07,0-.06.08.26h.06a.75.75,0,0,0,.1-.17c.06-.18.11-.35.16-.53A.63.63,0,0,0,23,13.59Z"/><path class="cls-1" d="M30.4,9.26V8.9h0v.36Z"/><path class="cls-1" d="M30.17,9s0,.07,0,.09a1.62,1.62,0,0,0,.25.28V9.26a2.12,2.12,0,0,1-.12-.2S30.21,9,30.17,9Z"/><path class="cls-1" d="M30.17,7.84A.46.46,0,0,0,29.7,8c.25.05.54,0,.68.26l0,0V8.06A.37.37,0,0,0,30.17,7.84Z"/><path class="cls-1" d="M29.93,7.41a.4.4,0,0,0-.42,0l-.14.11c-.28-.06-.47.07-.48.34l.36-.19a.44.44,0,0,1,.47,0,.22.22,0,0,0,.14,0c.21-.06.29,0,.43.08l.1.11V7.8s0,0,0-.06C30.31,7.55,30.1,7.5,29.93,7.41Z"/><path class="cls-1" d="M30.4,8.58h0V8.23h0v.35Z"/><path class="cls-1" d="M30.39,6.87v0h0Z"/><path class="cls-1" d="M21.87,15.27a.35.35,0,0,0-.33.1.24.24,0,0,0-.06.09h.4C21.88,15.4,21.87,15.34,21.87,15.27Z"/><path class="cls-1" d="M17,13.28a.3.3,0,0,0-.24.07v.19l.59,0A.38.38,0,0,0,17,13.28Z"/><path class="cls-1" d="M29.36,15c.06.06.13.11.18.17a1.11,1.11,0,0,1,.09.19h0c-.14-.34-.5-.31-.89-.31a1.73,1.73,0,0,1,.49.36h.72v0C29.93,15.18,29.69,15,29.36,15Z"/><path class="cls-1" d="M29.87,13.25c-.14-.05-.29-.11-.45-.15a2.26,2.26,0,0,0-.37,0l.23.21a.49.49,0,0,1,.17.53c-.09.22-.2.43-.31.64a.56.56,0,0,1-.52.23h-.33a.7.7,0,0,0,.84.28l.29-.05c.24,0,.31-.09.34-.28a.55.55,0,0,0-.17-.5c.34,0,.45-.14.44-.4,0-.07,0-.15,0-.2S30,13.32,29.87,13.25Z"/><path class="cls-1" d="M25.75,14a.3.3,0,0,0-.34-.07c-.17.07-.25.21-.18.36C25.33,14.1,25.56,14.06,25.75,14Z"/><path class="cls-1" d="M26.14,15.25a.34.34,0,0,1-.24.17l-.1,0h.57l.11-.08a.19.19,0,0,0,.07-.26.83.83,0,0,1-.08-.22.3.3,0,0,0-.2-.18h0C26.4,14.94,26.23,15.08,26.14,15.25Z"/><path class="cls-1" d="M30.33,7.68l.06.05v0Z"/><path class="cls-1" d="M25.07,14.5l.36-.05a.33.33,0,0,1,.35.14.16.16,0,0,0,.1.05c.19,0,.24,0,.29.19l0,.13h0a.59.59,0,0,0,0-.13s0,0,0-.05a.13.13,0,0,1,0-.06h0c0-.12-.11-.21-.19-.31a.31.31,0,0,0-.34-.08l-.15.05A.35.35,0,0,0,25.07,14.5Z"/><path class="cls-1" d="M28.78,10.8a.18.18,0,0,0,.1,0l-.16-.1S28.74,10.78,28.78,10.8Z"/><path class="cls-1" d="M29.77,10.36a.25.25,0,0,0-.26-.06.21.21,0,0,0-.13.28C29.45,10.44,29.62,10.41,29.77,10.36Z"/><path class="cls-1" d="M28.92,10.18l.4.3c0-.12,0-.23-.15-.3A.31.31,0,0,0,28.92,10.18Z"/><path class="cls-1" d="M28.59,9a.27.27,0,0,0,0,.36,3.37,3.37,0,0,0,.32-.19s.06-.05.06-.08a.62.62,0,0,0,0-.19A.35.35,0,0,0,28.59,9Z"/><path class="cls-1" d="M29.18,10.45a.27.27,0,0,0-.22.07l.33.1A.15.15,0,0,0,29.18,10.45Z"/><path class="cls-1" d="M28.89,11.42a.6.6,0,0,0,.06-.11.22.22,0,0,0-.22,0c-.1,0-.16.12-.14.2l.24-.05A.11.11,0,0,0,28.89,11.42Z"/><path class="cls-1" d="M29.1,11.64l.14,0a.33.33,0,0,0,.4-.13h-.16a.23.23,0,0,1-.24-.11,2.1,2.1,0,0,1-.15-.3.25.25,0,0,1,.08-.25l.11-.1H29.1l-.21.07c-.07,0-.12.07-.07.14s0,.06,0,.1.05.17.21.19a.27.27,0,0,0-.08.24C29,11.59,29,11.62,29.1,11.64Z"/><path class="cls-1" d="M28.36,10.3a.26.26,0,0,0,0,.27.54.54,0,0,0,.13.07.19.19,0,0,0,.13,0,.17.17,0,0,0,0-.21.32.32,0,0,0-.25-.14A.11.11,0,0,0,28.36,10.3Z"/><path class="cls-1" d="M29.45,11.72c-.19,0-.36,0-.43.15h0l.05-.09.08-.08c-.15,0-.27.07-.26.18a.3.3,0,0,0,.2.25.59.59,0,0,1,.1-.17A.74.74,0,0,1,29.45,11.72Z"/><path class="cls-1" d="M28.8,10.36a.5.5,0,0,0-.12.35l.16-.15C28.9,10.49,28.83,10.44,28.8,10.36Z"/><path class="cls-1" d="M30,11a.33.33,0,0,0-.32,0c.12.09.29.14.3.3A.19.19,0,0,0,30,11Z"/><path class="cls-1" d="M28.23,8.33a.59.59,0,0,0-.42.63A.5.5,0,0,0,28.23,8.33Z"/><path class="cls-1" d="M28.08,8.35a.53.53,0,0,0-.58,0,.52.52,0,0,0-.2.4c0,.1.05.13.18.13a.25.25,0,0,0,.27-.18A1.24,1.24,0,0,1,28,8.45Z"/><path class="cls-1" d="M29,12.79l.69-.2a.46.46,0,0,0-.47-.15A.31.31,0,0,0,29,12.79Z"/><path class="cls-1" d="M29.28,11.87l-.11.08a.31.31,0,0,0,0,.19l-.07,0a2,2,0,0,0-.1.37l.84-.64A.68.68,0,0,0,29.28,11.87Z"/><path class="cls-1" d="M29.54,10.75c-.21,0-.43.17-.4.34a.16.16,0,0,0,.13.14c0-.29.22-.32.49-.32C29.75,10.82,29.67,10.76,29.54,10.75Z"/><path class="cls-1" d="M29.59,11.48a2.19,2.19,0,0,0,.33-.12s0,0,0,0l-.05,0-.66,0A.27.27,0,0,0,29.59,11.48Z"/><path class="cls-1" d="M29.45,11.2l.26,0q.11,0,.09-.06s0-.06,0-.08a.25.25,0,0,0-.19-.09.23.23,0,0,0-.19.12S29.4,11.19,29.45,11.2Z"/><path class="cls-1" d="M29.28,9.74a.61.61,0,0,0,.61.25c-.2-.26-.11-.51.09-.77-.27.1-.53.17-.49.44h0a.86.86,0,0,1,0-.16,1.42,1.42,0,0,1,.05-.16C29.27,9.41,29.17,9.58,29.28,9.74Z"/><path class="cls-1" d="M30,10.68a.23.23,0,0,0-.26-.06l-.11,0a.26.26,0,0,0-.39.09l.27,0a.28.28,0,0,1,.27.1.08.08,0,0,0,.07,0c.14,0,.18,0,.22.14l0,.1h0s0-.07,0-.11,0,0,0,0S30.09,10.76,30,10.68Z"/><path class="cls-1" d="M30.17,9h.12l.11,0V8.58h0C30.25,8.69,30.15,8.79,30.17,9Z"/><path class="cls-1" d="M17.43,10.45l.2.05c.16,0,.23,0,.33-.08a.4.4,0,0,0,.13-.35c.22.07.33,0,.45-.12s0-.1.08-.12.1-.15,0-.23a1.31,1.31,0,0,0-.2-.21.75.75,0,0,0-.22-.11c0,.08,0,.14,0,.19a.37.37,0,0,1-.14.37,3.88,3.88,0,0,1-.48.3.46.46,0,0,1-.41,0l-.2-.1C17.05,10.28,17.16,10.39,17.43,10.45Z"/><path class="cls-1" d="M18.11,12.76a.52.52,0,0,0-.56,0,.38.38,0,0,0,0,.62C17.55,13.1,17.86,13,18.11,12.76Z"/><path class="cls-1" d="M17.28,9.41l-.1.08c-.07.07-.05.12.06.14l.37.1c.07,0,.12,0,.13-.06a.24.24,0,0,0-.13-.26A.35.35,0,0,0,17.28,9.41Z"/><path class="cls-1" d="M17.16,10a.5.5,0,0,0,.68-.11L17,9.57s-.09,0-.1,0,0,.05,0,.07A3.47,3.47,0,0,0,17.16,10Z"/><path class="cls-1" d="M17.52,9.28a.43.43,0,0,0-.42-.18.32.32,0,0,0-.25.38C17,9.27,17.28,9.31,17.52,9.28Z"/><path class="cls-1" d="M17.71,10.93c.12-.14.05-.31-.16-.39a1.1,1.1,0,0,1,0,.16.89.89,0,0,1,0,.14h0c.07-.25-.16-.34-.41-.45a.53.53,0,0,1,0,.73A.62.62,0,0,0,17.71,10.93Z"/><path class="cls-1" d="M19.43,5.78c0,.1,0,.16.15.21l0-.06,0-.06.08.26h.05a.54.54,0,0,0,.1-.16L20,5.46A.6.6,0,0,0,19.43,5.78Z"/><path class="cls-1" d="M19.85,7.79a1.14,1.14,0,0,1-.15-.23s-.07,0-.1-.06,0,.07,0,.08a1.56,1.56,0,0,0,1,.65c.12,0,.18,0,.21-.1A1.11,1.11,0,0,1,19.85,7.79Z"/><path class="cls-1" d="M19,6l-.13.11a.35.35,0,0,0-.47.33l.35-.19a.45.45,0,0,1,.45,0,.2.2,0,0,0,.13,0c.21-.06.28,0,.42.08l.12.13,0,0-.06-.15,0,0c0-.18-.24-.23-.41-.31A.37.37,0,0,0,19,6Z"/><path class="cls-1" d="M20.07,6.35a.35.35,0,0,0-.32-.11c.27.17.19.38.19.59a.34.34,0,0,1-.14.28c-.13.09-.23.19-.21.35h.12l.4-.17a.12.12,0,0,0,.06-.06l.21-.38a.23.23,0,0,0-.09-.3Z"/><path class="cls-1" d="M17.34,7.46a.49.49,0,0,0,.4-.6C17.45,7,17.26,7.26,17.34,7.46Z"/><path class="cls-1" d="M18.73,12.35l.13,0c.1,0,.13,0,.15-.12a.22.22,0,0,0-.08-.22c.15,0,.2-.06.2-.18s0-.06,0-.08,0-.11-.06-.13l-.2-.07H18.7l.1.09a.21.21,0,0,1,.07.23,2.39,2.39,0,0,1-.13.28.25.25,0,0,1-.23.11h-.15A.31.31,0,0,0,18.73,12.35Z"/><path class="cls-1" d="M18.83,12.8a.3.3,0,0,0,.25-.25c0-.11-.1-.18-.25-.17l.08.07a.36.36,0,0,1,0,.09h0c-.07-.15-.22-.14-.4-.13C18.73,12.5,18.86,12.62,18.83,12.8Z"/><path class="cls-1" d="M18.37,12.31c0-.1-.13-.13-.23-.16A.27.27,0,0,1,18,12c-.06-.11-.18-.22-.09-.37a.23.23,0,0,0-.14.13.88.88,0,0,1,0,.15.13.13,0,0,0,0,.18l.24.17.05,0h.35Z"/><path class="cls-1" d="M19.19,13.32a.56.56,0,0,1,0-.08l.06-.08.06.36.08,0c0-.08.12-.15.16-.22.11-.23.2-.45.3-.69A.88.88,0,0,0,19,13C19,13.14,19,13.23,19.19,13.32Z"/><path class="cls-1" d="M17.67,12.54l.32,0c.18,0,.27-.05.27-.2l-.33,0,.11-.05C17.85,12.29,17.65,12.4,17.67,12.54Z"/><path class="cls-1" d="M16.94,9l0,0-.08.14,0,0L17,9.08a.33.33,0,0,1,.41,0,.28.28,0,0,0,.13,0,.43.43,0,0,1,.44,0l.31.21c0-.25-.14-.39-.41-.35l-.11-.11a.37.37,0,0,0-.39-.08C17.21,8.79,17,8.82,16.94,9Z"/><path class="cls-1" d="M18.36,5.72a.28.28,0,0,0,0,.45c0-.23.2-.36.36-.51A.38.38,0,0,0,18.36,5.72Z"/><path class="cls-1" d="M19.35,9.18c-.09.05-.19.22-.15.29a.26.26,0,0,0,.16.11,1.85,1.85,0,0,0,.23,0,.49.49,0,0,0,.26-.34.08.08,0,0,0-.05-.07A.55.55,0,0,0,19.35,9.18Z"/><path class="cls-1" d="M18.11,9.77a.43.43,0,0,0-.19-.67.38.38,0,0,0-.43.07c.34.16.6.35.32.7A.34.34,0,0,0,18.11,9.77Z"/><path class="cls-1" d="M17.75,6.78a.25.25,0,0,0,.15,0l-.3-.06C17.61,6.76,17.68,6.77,17.75,6.78Z"/><path class="cls-1" d="M17.78,5.73a.38.38,0,0,0-.34.11l.79.22C18.1,5.91,18,5.76,17.78,5.73Z"/><path class="cls-1" d="M23.05,15.23l-.23.09a.46.46,0,0,1-.44,0l-.47-.36a.38.38,0,0,1-.1-.41s0-.11.07-.2a1.61,1.61,0,0,0-.25.1,1.64,1.64,0,0,0-.24.21c-.08.08-.13.16,0,.24s0,.1.07.14.22.22.47.17a.39.39,0,0,0,0,.28h1A.48.48,0,0,0,23.05,15.23Z"/><path class="cls-1" d="M30.22,13l-.33.22a.49.49,0,0,0,.21,0C30.18,13.13,30.27,13.09,30.22,13Z"/><path class="cls-1" d="M23.22,15.44l-.1,0a.21.21,0,0,0,0,.07h.14Z"/><path class="cls-1" d="M28,15l-.75.07.26-.11c-.43-.13-.88.11-.85.42l.62.07h.41A.39.39,0,0,0,28,15Z"/><path class="cls-1" d="M30.37,13.28a.67.67,0,0,0-.2,0,.79.79,0,0,0,.2.31Z"/><path class="cls-1" d="M30.37,14.26v.05h0Z"/><path class="cls-1" d="M18,6.1c-.15,0-.21.09-.26.2l.54,0A.29.29,0,0,0,18,6.1Z"/><path class="cls-1" d="M17,6.67a1,1,0,0,0,.24,0,.25.25,0,0,0,.16-.1c.06-.07,0-.25-.11-.31a.59.59,0,0,0-.46-.06.08.08,0,0,0,0,0V6.4A.54.54,0,0,0,17,6.67Z"/><path class="cls-1" d="M30.2,14.21a.5.5,0,0,0-.46,0,1.34,1.34,0,0,0,.12.24.31.31,0,0,0,.14.07l.37.07v-.3A.69.69,0,0,0,30.2,14.21Z"/><path class="cls-1" d="M17,6.89a.54.54,0,0,0-.19.39c0,.09.05.13.17.12s.2,0,.26-.17a1.51,1.51,0,0,1,.2-.26l.12-.09A.52.52,0,0,0,17,6.89Z"/><path class="cls-1" d="M16.88,8.67a1.3,1.3,0,0,0,.08.17H17l.11-.24a.14.14,0,0,1,0,.06.14.14,0,0,1,0,.06c.15,0,.19-.09.17-.2a.56.56,0,0,0-.53-.35C16.83,8.34,16.85,8.51,16.88,8.67Z"/><path class="cls-1" d="M17.54,6.7a2.29,2.29,0,0,0,.09-.28c0-.12-.11-.17-.22-.26A.68.68,0,0,0,17.54,6.7Z"/><path class="cls-1" d="M17.49,11.29l.24.25a.41.41,0,0,0,.11.07h0l0-.16,0,0,0,0c.06-.06.06-.1,0-.15A.42.42,0,0,0,17.49,11.29Z"/><path class="cls-1" d="M16.78,12.75v.31l.53.19C17.16,13,17.05,12.83,16.78,12.75Z"/><path class="cls-1" d="M16.78,9.12A.37.37,0,0,1,17,8.94a.56.56,0,0,0-.19,0Z"/><path class="cls-1" d="M18.87,15.2l-.32.09A.59.59,0,0,1,18,15.2a7.11,7.11,0,0,1-.56-.53.47.47,0,0,1-.07-.55,2.36,2.36,0,0,1,.14-.26,1.79,1.79,0,0,0-.36.1,2.62,2.62,0,0,0-.34.24v.43s0,.07,0,.1c.11.25.26.32.6.27a.5.5,0,0,0,0,.46h1.33A.79.79,0,0,0,18.87,15.2Z"/><path class="cls-1" d="M17.26,15.38a2.06,2.06,0,0,0,0-.26.5.5,0,0,0-.46.1l0,0v.19h.42S17.26,15.41,17.26,15.38Z"/><path class="cls-1" d="M17,10.14a.35.35,0,0,0-.15-.36l0,0v.34l.08,0Z"/><path class="cls-1" d="M19.35,14.46a.41.41,0,0,0-.2-.59.62.62,0,0,0-.66.16C18.81,14.13,19.2,14.13,19.35,14.46Z"/><path class="cls-1" d="M19.38,13.68c-.06-.2-.3-.29-.48-.41a.55.55,0,0,0-.58,0l-.2.13a.49.49,0,0,0-.7.4l.52-.22a.62.62,0,0,1,.62.06.23.23,0,0,0,.18.05c.29-.06.4,0,.56.16l.14.19h.07l-.06-.22s-.05-.05-.05-.07a.19.19,0,0,0,0-.08Z"/><path class="cls-1" d="M19.1,15.36l.59-.19s.07-.05.1-.08l.35-.51a.29.29,0,0,0-.07-.42,2.35,2.35,0,0,1-.26-.29.52.52,0,0,0-.43-.19h0c.34.27.19.56.15.84a.45.45,0,0,1-.24.37.55.55,0,0,0-.35.47Z"/><path class="cls-1" d="M18.31,14.19a.39.39,0,0,0-.28.33c0,.08,0,.13.16.11l.56-.05c.16,0,.21-.06.13-.18a.52.52,0,0,0-.11-.13A.49.49,0,0,0,18.31,14.19Z"/><path class="cls-1" d="M18,13.68c-.43.09-.72.58-.52.89a.43.43,0,0,0,.38.22c-.26-.57.18-.77.71-.91A.49.49,0,0,0,18,13.68Z"/><path class="cls-1" d="M18.72,15.13a4,4,0,0,0,.56-.43.09.09,0,0,0,0-.11.21.21,0,0,0-.14,0l-1.36.25A.66.66,0,0,0,18.72,15.13Z"/><path class="cls-1" d="M19.42,7.31A2.31,2.31,0,0,0,19.78,7s0-.06,0-.08a.16.16,0,0,0-.1,0l-.94.27A.49.49,0,0,0,19.42,7.31Z"/><path class="cls-1" d="M18.76,6.33a.44.44,0,0,0-.28.66.31.31,0,0,0,.29.13c-.24-.39.05-.55.42-.69A.37.37,0,0,0,18.76,6.33Z"/><path class="cls-1" d="M17.93,6.78c-.07.08-.11.15,0,.23s0,.09.07.13.2.21.44.16a.41.41,0,0,0,.08.37.26.26,0,0,0,.33.1l.21,0c.29,0,.41-.14.45-.39l-.22.09a.47.47,0,0,1-.42,0,5.37,5.37,0,0,1-.45-.35.35.35,0,0,1-.1-.39s0-.1.07-.19a1.54,1.54,0,0,0-.24.09A2.41,2.41,0,0,0,17.93,6.78Z"/><path class="cls-1" d="M19,7l.38-.07c.12,0,.15-.06.08-.14l-.09-.09a.36.36,0,0,0-.33,0,.27.27,0,0,0-.17.26C18.87,7,18.91,7,19,7Z"/><path class="cls-1" d="M19.6,6.39a.42.42,0,0,0-.45.15c.23,0,.51,0,.65.25A.3.3,0,0,0,19.6,6.39Z"/><path class="cls-1" d="M21,14.54c0,.08.08.09.15.1a.41.41,0,0,0,.16,0Z"/><path class="cls-1" d="M21,14.74a.5.5,0,0,0-.78.42c0,.09.05.13.17.12s.22,0,.27-.17a1.39,1.39,0,0,1,.21-.27A.45.45,0,0,1,21,14.74Z"/><path class="cls-1" d="M21.48,13.92c-.15,0-.21.1-.26.22l.55,0A.29.29,0,0,0,21.48,13.92Z"/><path class="cls-1" d="M22.45,13.85l-.13.11a.36.36,0,0,0-.49.34c.13-.07.24-.14.37-.2a.47.47,0,0,1,.46,0,.23.23,0,0,0,.14,0c.22-.06.29-.05.44.09l.12.13h.05a.77.77,0,0,0-.07-.16l0,0c0-.19-.26-.25-.42-.33A.4.4,0,0,0,22.45,13.85Z"/><path class="cls-1" d="M21.83,13.53a.29.29,0,0,0,0,.47c0-.24.21-.37.37-.53A.36.36,0,0,0,21.83,13.53Z"/><path class="cls-1" d="M21.18,14.72a.58.58,0,0,0-.42.63A.51.51,0,0,0,21.18,14.72Z"/><path class="cls-1" d="M20.23,14.06a.1.1,0,0,0-.06.07.43.43,0,0,0,.23.38.73.73,0,0,0,.25,0,.32.32,0,0,0,.17-.1c.06-.07,0-.27-.11-.33A.64.64,0,0,0,20.23,14.06Z"/><path class="cls-1" d="M21,14.55a1.66,1.66,0,0,0,.1-.29c0-.13-.11-.18-.23-.27A.73.73,0,0,0,21,14.55Z"/><path class="cls-1" d="M21.23,13.53a.44.44,0,0,0-.36.13l.82.22A.82.82,0,0,0,21.23,13.53Z"/><path class="cls-1" d="M18.14,10.16a1.13,1.13,0,0,0,0,.18.1.1,0,0,0,.05.08c.08.07.18.13.27.2a.25.25,0,0,0,0-.34A.32.32,0,0,0,18.14,10.16Z"/><path class="cls-1" d="M19,12l.05.1.06,0,.23,0A.17.17,0,0,0,19.2,12,.2.2,0,0,0,19,12Z"/><path class="cls-1" d="M19,9.28a1.51,1.51,0,0,0,.05.28A.74.74,0,0,0,19.24,9C19.12,9.12,19,9.16,19,9.28Z"/><path class="cls-1" d="M19,9.54l-.29,0a.33.33,0,0,0,.14,0C18.9,9.62,19,9.61,19,9.54Z"/><path class="cls-1" d="M19,11a.3.3,0,0,0-.23,0c-.11.06-.11.16-.14.27Z"/><path class="cls-1" d="M19.66,10.17a.47.47,0,0,0-.14-.39.48.48,0,0,0-.54,0,.52.52,0,0,1,.11.1,1,1,0,0,1,.16.26c0,.13.07.16.23.18S19.65,10.26,19.66,10.17Z"/><path class="cls-1" d="M18.84,9.7a.45.45,0,0,0,.32.61A.52.52,0,0,0,18.84,9.7Z"/><path class="cls-1" d="M18.22,11.91q0,.08.09.06l.23,0c.05,0,.07,0,.05-.07a.2.2,0,0,0-.18-.1.18.18,0,0,0-.17.08A.31.31,0,0,0,18.22,11.91Z"/><path class="cls-1" d="M18.41,12.19a.24.24,0,0,0,.32-.23l-.6,0-.05,0s0,0,0,.05Z"/><path class="cls-1" d="M18.83,11.82c0-.15-.18-.32-.37-.3s-.19.05-.2.14c.24,0,.46,0,.45.29C18.8,11.92,18.82,11.88,18.83,11.82Z"/><path class="cls-1" d="M18,11.72A.17.17,0,0,0,18,12c0-.15.16-.19.27-.27A.27.27,0,0,0,18,11.72Z"/><path class="cls-1" d="M18.69,11.4l.3-.1a.19.19,0,0,0-.2-.06A.13.13,0,0,0,18.69,11.4Z"/><path class="cls-1" d="M18,11.45c-.06.07-.15.14-.12.25s0,0,0,0,0,.06,0,.09h0s0-.06,0-.09.07-.12.21-.13a.08.08,0,0,0,.06,0,.25.25,0,0,1,.25-.09l.25,0a.24.24,0,0,0-.36-.09l-.11,0A.22.22,0,0,0,18,11.45Z"/><path class="cls-1" d="M18.38,8.55A.35.35,0,0,0,18,8.46c.13.16.32.29.29.52A.28.28,0,0,0,18.38,8.55Z"/><path class="cls-1" d="M18.25,11.15c.13,0,.29.08.35.21.06-.11,0-.21-.12-.26A.21.21,0,0,0,18.25,11.15Z"/><path class="cls-1" d="M18.4,7.57a1.07,1.07,0,0,0,0-.18.35.35,0,0,0-.32.1.25.25,0,0,0,0,.35l.31-.18A.16.16,0,0,0,18.4,7.57Z"/><path class="cls-1" d="M18.46,8.88l.8-.14a.38.38,0,0,0-.33-.14A.82.82,0,0,0,18.46,8.88Z"/><path class="cls-1" d="M18.65,8.93a.31.31,0,0,0-.29.16l.51.07C18.84,9,18.8,9,18.65,8.93Z"/><path class="cls-1" d="M18.74,8.21a.59.59,0,0,0,.59.24c-.2-.25-.11-.49.09-.74-.27.09-.51.16-.47.42h0c0-.05,0-.1,0-.15A.94.94,0,0,1,19,7.83C18.73,7.89,18.64,8.06,18.74,8.21Z"/><path class="cls-1" d="M16.27,24.81c-.86-.06-1.71-.09-2.54-.11V23.42h.73l-.91-.57-.92-.56-.91.56-.91.57h.73v1.26c-1.34,0-2.61.05-3.77.14l-.53,0,.37.31.29.23a35,35,0,0,0,8.22,4.7l.39.16V24.82Zm-3.64-2.26,1.08.66h-.24v1.35H11.8V23.21h-.24Zm3.62,2.71v4.66a34.82,34.82,0,0,1-8.17-4.66L7.79,25a61.6,61.6,0,0,1,8.46,0Z"/><path class="cls-1" d="M7.57,17.66l-.08-.35-.3.27-.45,0,.22.31-.19.32.44-.07.32.24,0-.35.4-.17Zm-.15.23,0,.15-.14-.1-.19,0,.09-.14-.1-.13.19,0,.13-.11,0,.15.18.06Z"/><path class="cls-1" d="M8,20.44l-.44.06-.31-.26-.07.35-.4.16.4.16.06.35L7.58,21l.44.06-.21-.32Zm-.31.45-.19,0L7.39,21l0-.15-.17-.07.17-.07,0-.14.13.1.19,0-.09.13Z"/><path class="cls-1" d="M9.85,19H9.4l-.24-.3L9,19l-.43.09.35.22,0,.35.37-.19.42.13-.13-.35Zm-.43.39-.17-.06-.16.09v-.15L9,19.12l.18,0,.07-.15.1.13h.19l-.12.11Z"/><path class="cls-1" d="M6.19,19H5.75l-.26-.29-.14.34-.43.1.36.21v.35l.37-.21.42.12-.14-.34Zm-.4.4-.18,0-.16.09v-.15L5.3,19.2l.19,0L5.55,19l.1.13h.2l-.12.12Z"/><path class="cls-1" d="M15.4,18.37A2.85,2.85,0,0,0,13,17.52a1.93,1.93,0,0,1,.61.45,1.37,1.37,0,0,1-.5,2.17,2.44,2.44,0,0,1-2.23,0,1.93,1.93,0,0,0,.32.52,3,3,0,0,0,3.53.51A1.77,1.77,0,0,0,15.4,18.37ZM14.6,21a2.68,2.68,0,0,1-1.29.32h0a2.5,2.5,0,0,1-1.86-.76,2.6,2.6,0,0,0,.56.06,2.67,2.67,0,0,0,1.26-.31,1.56,1.56,0,0,0,.57-2.46l-.1-.11a2.45,2.45,0,0,1,1.45.75A1.59,1.59,0,0,1,14.6,21Z"/><path d="M26.15,18l.27-.06h0l-.18-.06,0-.08h0l.28.09s0,0,.06,0l.17,0-.28-.1.05-.09.17.06.24.08h0l.3-.07-.06-.05-.15-.12h-.06l-.39,0s0,0,0,0,0-.07.1-.06h.2c-.07,0-.11-.12-.22-.12h-.26s0,0,0,0v-.05s0,0,0,0h.17l-.2-.15.1-.09.2.15h0l0-.16h.1a0,0,0,0,1,0,0c0,.08,0,.16,0,.23a.06.06,0,0,0,0,.06l.13.09,0-.23.11,0s0,0,0,0,0,.22,0,.33,0,0,0,0l.2.15h0l0,0a.65.65,0,0,1,0-.13c0-.06,0-.11,0-.17a1.7,1.7,0,0,1-.15-.22,0,0,0,0,0,0,0l.12,0,.13.2h0s0,0,0-.07a.14.14,0,0,0,0-.16l-.12-.19.12,0,.09.15s0,0,0,0,0-.1.05-.16,0,0,0,0l.08,0s0,0,0,0l-.06.2.06,0,.09,0a0,0,0,0,1,0,0l.07.06-.1.06L27.8,17s0,0,0,0a.32.32,0,0,0,0,.14l.23-.14.08.08-.17.1-.18.11,0,0a2.17,2.17,0,0,0-.07.24h0l.25-.06a.1.1,0,0,0,.05,0,1.64,1.64,0,0,0,.21-.25,0,0,0,0,1,.07,0l.07,0-.17.2.12,0a.19.19,0,0,0,.13-.07l.15-.17s0,0,0,0l.08.05-.11.13h0l.27-.06,0,.12-.26.06h0l.18.06-.05.09-.2-.06-.06,0a.2.2,0,0,0-.17,0l-.1,0,.27.1a.56.56,0,0,0-.05.08h0L28,17.66H28l-.3.07.09.07.12.09a.11.11,0,0,0,.08,0h.42a.17.17,0,0,0,0,.07,0,0,0,0,1,0,0L28,18l.07.06a.32.32,0,0,0,.22.07h.2s0,0,0,0a.2.2,0,0,0,0,.07h-.2l.2.15-.1.09-.21-.15h0l0,.16h-.12l0-.14a.5.5,0,0,1,0-.12s0,0,0-.06l-.12-.08,0,.23-.13,0a1.41,1.41,0,0,1,0-.18l0-.16v0l-.23-.18a0,0,0,0,0,0,0,1.72,1.72,0,0,0-.07.21.06.06,0,0,0,0,0c.06.1.13.2.19.31l-.11,0-.14-.21a.83.83,0,0,0,0,.15s0,0,0,0,.09.15.14.24l-.11,0-.09-.14h0l0,.15c0,.06,0,.06-.11.05s-.06,0-.05-.06l.05-.17h0l-.15.09-.08-.08.2-.12a.18.18,0,0,0,.12-.15.14.14,0,0,1,0-.06h0l-.24.14L27,18.26l.2-.12.14-.08,0,0a2.17,2.17,0,0,1,.07-.24h0l-.24.06s-.05,0-.06,0l-.22.26,0,0-.1-.06.16-.19h0l-.19.05,0,0c-.06.07-.12.15-.19.22l-.09-.05s0,0,0,0l.1-.11h0l-.2,0s0,0,0,0A.79.79,0,0,1,26.15,18Z"/><path d="M18.51,27.75l.1-.24h0l-.2.09a.47.47,0,0,1-.06-.09s0,0,0,0l.29-.14,0,0,.08-.16-.31.14-.07-.1.18-.09.26-.12h0l.13-.28-.1,0-.24,0a.07.07,0,0,0-.06,0l-.3.27s0,0-.06,0-.09,0,0-.11l.15-.15c-.1,0-.21,0-.29.08l-.2.18s0,0-.05,0l-.06,0s0,0,0,0a.68.68,0,0,0,.12-.12l-.31,0,0-.13.32,0h0l-.2-.09.06-.09s0,0,0,0l.3.13a.14.14,0,0,0,.09,0,1.25,1.25,0,0,0,.19,0l-.29-.13a.41.41,0,0,0,.05-.09h.05l.4.18h.08l.3,0h0l0,0a.74.74,0,0,1-.13-.12.29.29,0,0,0-.21-.09l-.36-.05h0l0-.11.33.05h0l-.08-.07A.25.25,0,0,0,18.3,26L18,26l0-.11.23,0,0,0-.15-.14s0,0,0-.05a.18.18,0,0,0,.07,0s0,0,.07,0l.18.17v-.16s0,0,0,0h.11a.41.41,0,0,1,0,.11v.2l0,.05.13.12V25.8h.15v.4a0,0,0,0,0,0,0l.23.22,0,0,.11-.22v-.06l-.15-.33s0,0,0-.06l.09,0,.12.26.05-.11a.14.14,0,0,0,0-.14l-.1-.22s0,0,0,0l.11,0,.07.17h0l.11-.23.17,0-.11.24h0l.19-.09.08.09-.21.11-.07,0a.15.15,0,0,0-.12.12,1,1,0,0,0,0,.1l.3-.14.06.09s0,0,0,0l-.4.18,0,0-.12.27.13,0,.19,0,.09,0a3.45,3.45,0,0,1,.28-.26l0,0,.09.06s0,0,0,0l-.21.19.11,0a.28.28,0,0,0,.23-.1l.16-.14s0,0,.06,0l.08.06-.15.13h0l.31,0,0,.14-.31,0h0l.2.08-.07.11-.17-.08-.16-.07a.16.16,0,0,0-.1,0l-.18,0,.3.14-.07.1-.24-.11-.2-.09h0l-.36.05,0,0,.2.19,0,0,.49.07,0,.11-.35,0,.15.15h0l.38.06,0,.12-.22,0h0l.14.13c.06.06.06.06,0,.11s-.05.05-.1,0l-.16-.15h0v.18h-.15c0-.07,0-.15,0-.22a.19.19,0,0,0-.09-.2l-.06-.05h0v.27h-.15V27a0,0,0,0,0,0,0c-.07-.08-.15-.15-.23-.23s0,0,0,0-.07.15-.1.22a.09.09,0,0,0,0,.07l.15.34v0l-.14,0L19,27.2h0l-.08.17s0,0,0,0l.12.28-.11,0s0,0,0,0a1.16,1.16,0,0,1-.06-.15s0,0,0,0a1.42,1.42,0,0,0-.08.18,0,0,0,0,1-.06,0Z"/><path d="M22,25.57l.21-.08h0l-.16,0a.64.64,0,0,0,0-.07h0l.24,0h.05l.14-.05-.25-.05,0-.08.15,0,.21,0h0l.24-.09-.06,0-.14-.08h-.05l-.33,0s0,0,0,0,0-.06.07-.06l.17,0c-.06,0-.1-.08-.2-.07h-.22s0,0,0,0v0s0,0,0,0l.13,0-.18-.1.07-.09.19.11h0l0-.12.08,0h0c0,.07.05.13.07.19l0,.05s.07,0,.12.05l-.07-.19.08,0s0,0,0,0l.09.26a0,0,0,0,0,0,0l.18.1h0v0A.41.41,0,0,1,23,25c0-.05,0-.09-.05-.14l-.15-.16v0l.08-.05.15.16h0a.2.2,0,0,1,0-.07.12.12,0,0,0,0-.12l-.13-.15.09,0,.1.11v0s0-.09,0-.14,0,0,0,0h.06s0,0,0,0a1,1,0,0,0,0,.17l0,0,.06,0s0,0,0,0l.06,0-.07.05-.13.11,0,0v.11l.17-.14.08.06-.13.1-.13.11v0a1.36,1.36,0,0,0,0,.21h0l.2-.08s0,0,0,0a1.71,1.71,0,0,0,.13-.23s0,0,0,0l.07,0-.11.19.1,0a.11.11,0,0,0,.09-.08l.1-.15h0l.07,0-.07.12h0l.21-.08.05.1L23.9,25h0l.15,0,0,.08-.18,0h-.05a.23.23,0,0,0-.14,0l-.08,0,.24.05,0,.07h0l-.33-.07h0l-.24.09.09.05.11.06a.08.08,0,0,0,.07,0l.31,0h0a.13.13,0,0,0,0,.06s0,0,0,0h-.23l.07,0a.24.24,0,0,0,.19,0H24s0,0,0,0a.13.13,0,0,0,0,.06h-.17l.19.11-.07.08-.19-.1h0l0,.13-.1,0-.05-.11,0-.1a.07.07,0,0,0-.05,0l-.11-.06.07.19-.11,0a.78.78,0,0,0-.05-.14c0-.05,0-.09,0-.13l0,0-.22-.12v0a1.11,1.11,0,0,0,0,.17s0,0,0,0l.21.23-.09,0-.15-.16s0,.09,0,.13l0,0,.15.18-.08,0L23,26h0v.12c0,.06,0,.06-.08.05s-.05,0-.05,0,0-.1,0-.14h0l-.11.09L22.71,26l.14-.12a.17.17,0,0,0,.08-.14v0h0l-.18.14-.07-.06.15-.12.1-.09a0,0,0,0,0,0,0,1.49,1.49,0,0,1,0-.21h0l-.19.07a.1.1,0,0,0-.05,0,1.76,1.76,0,0,1-.14.23v0l-.09,0,.1-.17h0l-.15.06s0,0,0,0l-.12.2-.08,0s0,0,0,0l.07-.11h0l-.16.06s0,0,0,0Z"/><path d="M17.09,23.89l.18-.12H17.1V23.7l0,0h.3l.12-.08h-.26v-.08h.4l.21-.13-.07,0-.17-.05h-.05l-.31.08s0,0,0,0,0-.06,0-.08l.16-.05c-.07,0-.13-.06-.22,0l-.21.05s0,0,0,0,0,0,0,0,0,0,0,0l.13,0-.22-.06,0-.1.21.07h0l-.08-.11.08,0h0l.13.17a.07.07,0,0,0,.05,0l.13,0L17.4,23l.08,0s0,0,0,0l.17.24,0,0,.21.06h0v0l0-.11c0-.06,0-.09-.09-.13l-.19-.13,0,0,.07-.06.18.13h0s0-.05,0-.07,0-.08-.08-.11l-.16-.12.07-.06.12.09v0l0-.14s0,0,0,0h.06s0,0,0,0l0,.16,0,0,0-.06h0l.08,0-.05.06-.09.13a.06.06,0,0,0,0,0,.23.23,0,0,0,0,.11l.12-.16.09,0-.09.12L18,23s0,0,0,0,0,.14,0,.21h0l.17-.12a0,0,0,0,0,0,0,1.29,1.29,0,0,0,.06-.25s0,0,0,0l.07,0,0,.2L18.5,23a.09.09,0,0,0,.07-.09c0-.05,0-.11.05-.16s0,0,0,0l.08,0,0,.12h0l.18-.12.08.08-.18.11H19V23h-.24a.15.15,0,0,0-.13,0s0,0-.07.06h.25v.07h-.4l-.21.13.1,0,.12,0a.11.11,0,0,0,.08,0l.3-.08h0l0,.06s0,0,0,0l-.22.05.08,0a.25.25,0,0,0,.19,0l.16,0s0,0,0,0l0,.05-.16,0h0l.22.06-.05.1-.22-.07h0l.08.11-.09,0-.07-.1-.07-.08a.1.1,0,0,0-.05,0l-.13,0,.12.17-.09,0-.1-.13-.08-.12s0,0,0,0l-.25-.08v0a1.36,1.36,0,0,0,0,.17s0,0,0,0l.27.19-.07.07-.19-.14s0,.1,0,.14l0,0,.2.15-.07.06-.12-.08h0l0,.12c0,.06,0,.06-.06.07s-.06,0-.07,0,0-.09,0-.14h0l-.08.11-.1,0L18,24a.14.14,0,0,0,0-.15.43.43,0,0,1,0-.05h0l-.12.16-.1,0,.11-.14.08-.1s0,0,0,0,0-.13,0-.21l0,0-.16.1a.05.05,0,0,0,0,0c0,.09-.05.18-.07.26v0l-.1,0,.05-.19h0l-.12.08,0,0c0,.07,0,.14-.05.21h-.09s0,0,0,0a.53.53,0,0,1,0-.12l0,0-.14.09s0,0,0,0Z"/><path d="M26,21.26h.23l-.13-.08.06-.06h0l.2.12h.2l-.2-.13.07-.07.12.08.17.11h.29l0,0L27,21.07l0,0L26.6,21s0,0,0,0,0-.06.1,0l.16,0c-.05-.05-.06-.11-.14-.13l-.22-.06s0,0,0,0,0,0,0,0,0,0,0,0l.13,0-.12-.15.11-.06.12.16h0l0-.13h.09v0l0,.19a.07.07,0,0,0,0,.06l.08.09,0-.2h.08s0,0,0,0a2.56,2.56,0,0,0-.05.27s0,0,0,.05l.12.14h0l0,0s0-.07.07-.1a.14.14,0,0,0,0-.14l-.06-.2v0h.1l0,.19h0a.21.21,0,0,1,0-.06.13.13,0,0,0,0-.13.85.85,0,0,1,0-.17h.1l0,.13,0,0,.09-.13s0,0,0,0l.05,0s0,0,0,0l-.1.14.06,0,.08,0a0,0,0,0,1,0,0l0,.07-.09,0-.17.05,0,0-.06.1.23-.07,0,.08-.17.05-.17.06h0l-.12.18h.24l.05,0,.25-.16s0,0,0,0l0,0-.19.14a.4.4,0,0,1,.11,0,.2.2,0,0,0,.13,0l.16-.11h0s0,0,0,.05l-.13.09h.23v.1h-.23l.12.08-.06.07L28,21.39l-.05,0a.15.15,0,0,0-.13,0h-.1l.19.12s0,0-.05.05h0l-.26-.16,0,0h-.26l.05.07.07.09a.09.09,0,0,0,.06,0l.29.08h0l0,.06s0,0,0,0l-.22-.06,0,.05a.18.18,0,0,0,.15.1l.16.05s0,0,0,0,0,0,0,.06l-.16-.05h0l.12.15-.11.06-.12-.16h0l0,.13h-.11l0-.12a.44.44,0,0,1,0-.1.06.06,0,0,0,0-.05l-.07-.09,0,.19h-.11l0-.15,0-.13a0,0,0,0,0,0,0l-.13-.18,0,0-.11.16s0,0,0,0a2.29,2.29,0,0,0,.07.28l-.11,0L27,21.7l-.08.12s0,0,0,0a2.25,2.25,0,0,0,.05.22h-.11l0-.13h0l-.07.11c0,.05,0,.05-.1,0s-.05,0,0,0a.83.83,0,0,1,.08-.12h0l-.16.05,0-.08a1.52,1.52,0,0,1,.2-.06.24.24,0,0,0,.14-.1l0-.05h0l-.23.07,0-.08.2-.06.13-.05h0c0-.06.09-.12.13-.19h-.3l-.25.18h0l-.07-.07.19-.13h-.17l0,0-.21.14-.06-.05s0,0,0,0l.11-.07h-.21s0,0,0,0Z"/><path d="M20.18,17.83v-.18h0l-.1.1L20,17.7s0,0,0,0l.16-.15a.05.05,0,0,0,0,0v-.12l-.17.16-.08-.06.1-.09.14-.13s0,0,0,0V17l-.06,0-.16.07s0,0,0,0a2.56,2.56,0,0,0-.11.24s0,0-.05,0-.07,0,0-.08l.06-.13c-.06,0-.15,0-.18.11a.8.8,0,0,1-.08.16s0,0,0,0l-.05,0s0,0,0,0l.05-.1-.2.09-.07-.09.2-.09h0l-.16,0a.64.64,0,0,1,0-.07h0l.25,0h.06a.67.67,0,0,0,.12-.06l-.24,0s0,0,0-.07h0l.33.05h.06l.19-.09h0l0,0a.75.75,0,0,1-.13-.06.25.25,0,0,0-.17,0l-.26,0h0l0-.09.24,0h0l-.07,0a.22.22,0,0,0-.16,0l-.22,0v-.08l.16,0h0l-.16-.07s0,0,0,0l0,0s0,0,0,0l.18.08,0,0,0-.07s0,0,0,0l.08,0a.43.43,0,0,0,0,.07l.06.14,0,0,.12.05-.08-.18.1,0,.06.14.07.13a0,0,0,0,0,0,0l.23.11v0a.54.54,0,0,0,0-.18.06.06,0,0,0,0,0L20,16.4s0,0,0,0,0,0,.05,0l.17.16s0-.06,0-.09a.11.11,0,0,0-.05-.1L20,16.16s0,0,0,0l.06,0,.1.1h0V16h.13v.18h0l.1-.1.08.06-.11.11,0,0a.11.11,0,0,0,0,.11v.07l.16-.15.07.05s0,0,0,0a2.09,2.09,0,0,1-.22.2s0,0,0,0a1.48,1.48,0,0,0,0,.21l.09,0,.12-.05a.08.08,0,0,0,.05,0c0-.07.07-.15.11-.23v0l.08,0s0,0,0,0-.05.1-.08.16l.07,0a.22.22,0,0,0,.13-.12.52.52,0,0,1,.06-.13s0,0,0,0l.07,0-.06.12h0l.2-.09.06.09-.2.09h0l.17,0,0,.08h-.14l-.13,0a.08.08,0,0,0-.07,0,.39.39,0,0,0-.11.06l.24,0,0,.08-.19,0-.17,0h0l-.23.1h0l.2.09h0L21,17l0,.09-.26,0,.15.07h0l.28,0v.08l-.16,0h0l.13.06c.07,0,.07,0,0,.08s0,0-.08,0L21,17.33h0l0,.12-.1,0s-.05-.1-.07-.16a.19.19,0,0,0-.12-.11l-.06,0h0l.09.18-.11,0-.07-.16a.54.54,0,0,0-.05-.11,0,0,0,0,0,0,0L20.31,17v.19a.08.08,0,0,0,0,.05l.21.2v0l-.08.05-.15-.15h0v.13s0,0,0,0,.11.11.17.17l-.07,0s0,0,0,0l-.09-.1v.17s0,0,0,0Z"/><path d="M18,19.34v-.15h0l-.09.08a.1.1,0,0,1-.05,0s0,0,0,0l.13-.12a0,0,0,0,0,0,0,.33.33,0,0,0,0-.1l-.13.13L17.75,19l.08-.07.12-.11h0a1.09,1.09,0,0,0,0-.18l-.06,0-.12.05,0,0-.09.19s0,0,0,0-.07,0,0-.07l.05-.1c-.05,0-.12,0-.14.09l-.07.13s0,0,0,0h0s0,0,0,0l0-.08-.17.07,0-.07.16-.07H17.2a.13.13,0,0,0,0-.06h0l.2,0h.06l.09-.05-.19,0v-.05s0,0,0,0l.27,0h0l.15-.07h0l0,0-.1,0a.17.17,0,0,0-.14,0l-.21,0h0v-.07l.19,0h0l0,0a.15.15,0,0,0-.13,0l-.18,0v-.07l.13,0h0l-.12-.06s0,0,0,0l0,0s0,0,0,0l.15.07,0,0a.08.08,0,0,1,0-.05s0,0,0,0l.06,0,0,.06.05.11,0,0a.31.31,0,0,0,.1.05l-.06-.15.08,0,.05.1a.61.61,0,0,0,.05.12h0l.18.09v-.16s0,0,0,0l-.16-.16s0,0,0,0l0,0,.13.12v-.07s0-.05,0-.08L17.82,18s0,0,0,0l.05,0L18,18h0v-.15h.11V18h0l.09-.08.06,0-.09.09,0,0a.1.1,0,0,0,0,.09.13.13,0,0,1,0,.06l.13-.12.06,0h0l-.17.17,0,0v.17l.07,0,.1-.05s0,0,0,0l.09-.19v0l.06,0s0,0,0,0l-.06.14.05,0a.15.15,0,0,0,.11-.09.31.31,0,0,1,.05-.1s0,0,0,0l.06,0-.05.1h0l.17-.07.05.07-.16.07h0l.13,0,0,.06h-.22s0,0,0,0l-.09,0,.19,0v.07l-.16,0-.13,0h0l-.18.08h0l.16.07h0l.29,0v.07l-.2,0,.12.05h0l.22,0v.06l-.13,0h0l.11.05c.05,0,.05,0,0,.07s0,0-.06,0l-.12,0h0l.05.1-.08,0-.06-.12a.17.17,0,0,0-.1-.1l-.05,0h0l.06.14-.08,0-.06-.13a.36.36,0,0,0,0-.09s0,0,0,0l-.19-.09v.16a.08.08,0,0,0,0,0l.17.16h0l-.07.05L18.06,19h0v.1l0,0,.13.14-.05,0h0l-.07-.07v.13s0,0,0,0Z"/><path d="M21.93,24.2l-.36,0-.23-.05a3.55,3.55,0,0,1-1.42-.6,3.38,3.38,0,0,1-.82-.87,2.14,2.14,0,0,1-.39-1.23v-.17l.05-.31s0,0,0-.05a2.63,2.63,0,0,1,.49-1,2.81,2.81,0,0,1,.94-.75,3.77,3.77,0,0,1,1.92-.51.93.93,0,0,0,.24,0c.07,0,.08-.06,0-.1l-.09-.05a1.06,1.06,0,0,1-.46-.3.27.27,0,0,1-.08-.18c0-.1,0-.2,0-.29a.4.4,0,0,1,.1-.22l.18-.16a.7.7,0,0,1,.41-.14h.2l.39,0h.05l.34.1a.53.53,0,0,1,.38.44,1.22,1.22,0,0,1,0,.27c0,.25-.22.39-.53.45l-.29.08s-.05,0-.07.05l.08.05.53.17a3.19,3.19,0,0,1,1.88,1.42,2.11,2.11,0,0,1,.31,1.16,1.21,1.21,0,0,1,0,.19l-.06.4a.08.08,0,0,0,0,0,2,2,0,0,1-.32.72A3.82,3.82,0,0,1,24,23.86a3.1,3.1,0,0,1-1,.32,5.9,5.9,0,0,1-.84,0Zm3.38-2.48c0-.18,0-.35,0-.53a2.17,2.17,0,0,0-.19-.63,3,3,0,0,0-.7-.86A3.63,3.63,0,0,0,21.76,19a3.21,3.21,0,0,0-1.82.77,2.12,2.12,0,0,0-.84,1.75,2.31,2.31,0,0,0,1,1.72,3.34,3.34,0,0,0,1.81.7A4,4,0,0,0,23,23.85a3.27,3.27,0,0,0,1.39-.66,2.79,2.79,0,0,0,.7-.8A2,2,0,0,0,25.31,21.72ZM22.8,17.46h-.12a.4.4,0,0,0-.19,0,1,1,0,0,0-.17.1.3.3,0,0,0-.1.44.27.27,0,0,0,.23.12s.08,0,.09,0,0,0-.06-.05L22.39,18a.26.26,0,0,1,.17-.38.74.74,0,0,1,.55,0,.22.22,0,0,1,.12.13.28.28,0,0,1-.09.26l-.07,0c-.08,0-.11,0-.11.1s0,.08.1.06a.82.82,0,0,0,.26-.14c.21-.17.13-.46-.16-.55A2.09,2.09,0,0,0,22.8,17.46Zm-.22.23a.16.16,0,0,0-.07.19S22.61,17.74,22.58,17.69Zm.13.1a.13.13,0,0,0,0,.2A.34.34,0,0,0,22.71,17.79Zm.22,0h0l0,.15h0A.2.2,0,0,0,22.93,17.82Zm.14.12h0a.17.17,0,0,0,0-.15h0Z"/><path d="M20.58,19.79l.08.06.25.21.16.1c.07,0,.12.07.13.13s0,.06.05.09a3.09,3.09,0,0,0,.47.4.89.89,0,0,1,.32.35.2.2,0,0,0,.18.13.28.28,0,0,1,.22.17.08.08,0,0,1,0,.08.25.25,0,0,0,0,.07,2,2,0,0,0-.07.73.88.88,0,0,1,0,.28c0,.13,0,.25,0,.37s0,0,0,.05-.06-.05-.06-.07,0-.2,0-.3a1.66,1.66,0,0,0,0-.22.76.76,0,0,1,0-.15,1.69,1.69,0,0,0,0-.55.48.48,0,0,0-.09-.21.11.11,0,0,1,0-.13s0,0,0-.06l-.14-.1a1.57,1.57,0,0,1-.39-.38,2.7,2.7,0,0,0-.25-.34.76.76,0,0,0-.17-.13.22.22,0,0,1-.12-.13.59.59,0,0,0-.13-.19l-.18-.21a.08.08,0,0,1,0-.05Z"/><path d="M25,20.61l0,0a4.27,4.27,0,0,0-.84-.86,3.18,3.18,0,0,0-1.71-.57,3.36,3.36,0,0,0-1.7.39,2.61,2.61,0,0,0-1.16,1.14l-.07.14h0a.13.13,0,0,1,0-.06,2,2,0,0,1,.18-.36,2.94,2.94,0,0,1,2.63-1.3,3.1,3.1,0,0,1,2.09.71,2.53,2.53,0,0,1,.57.66,1,1,0,0,1,.07.15Z"/><path d="M24.78,22.6a.56.56,0,0,1-.05.08,1.8,1.8,0,0,1-.19.2l-.48.4a2.33,2.33,0,0,1-.82.36,4.31,4.31,0,0,1-1.19.14,3,3,0,0,1-1-.22,2.58,2.58,0,0,1-1.35-1,1.9,1.9,0,0,1-.35-.95c0-.1,0-.19,0-.28a.36.36,0,0,1,0-.1h0s0,0,0,.05a1.48,1.48,0,0,1,0,.21,1.71,1.71,0,0,0,.22.82,2.35,2.35,0,0,0,.71.84,2.69,2.69,0,0,0,1.06.47,3.7,3.7,0,0,0,1.87,0,2.55,2.55,0,0,0,.54-.22,4.14,4.14,0,0,0,.71-.51l.2-.21.08-.06Z"/><path d="M22.66,19.28s.05,0,.05,0-.05.26-.07.39,0,0,0,.06a.09.09,0,0,1-.05,0,.21.21,0,0,1-.23-.11c0-.06-.09-.07-.14,0l-.05.07s-.06.06-.11,0,0-.06,0-.08l.07-.11a.18.18,0,0,0,0-.22.54.54,0,0,1-.05-.11.43.43,0,0,0,0-.05l.06,0,.06.07s.06,0,.1,0l.11-.07h.06s0,0,0,.05a.24.24,0,0,1-.06.08.2.2,0,0,0,0,.19l0,.09s0,0,.06.05l0-.05.06-.19.06-.15A.05.05,0,0,1,22.66,19.28Z"/><path d="M20.47,20.59s0,0,0,0l-.09-.13,0-.06a.16.16,0,0,0-.15-.08H20l-.05,0s0,0,0-.05l.17,0c.1,0,.11,0,.07-.09a.14.14,0,0,1,0-.07s0,0,0,0h.06l.09.08a.1.1,0,0,0,0,.05.22.22,0,0,0,.2.08h.11l.06,0-.05,0-.1,0h0c-.05,0-.06,0-.05.07a.49.49,0,0,1,0,.11.13.13,0,0,1,0,.06Z"/><path d="M20,21.08l.15.08.08.06s0,0,0,.05l-.06,0a.11.11,0,0,1-.08,0,.33.33,0,0,1-.1-.06.31.31,0,0,0-.19,0l-.17,0h-.08s-.05,0,0,0l.08-.05.07,0c.05,0,.05,0,0-.06a.23.23,0,0,1-.07-.07.08.08,0,0,1,0,0s0-.05.05,0l.11.05A.32.32,0,0,0,20,21a.49.49,0,0,1,.16,0,.08.08,0,0,1,.08,0s0,.05,0,.05a1.41,1.41,0,0,1-.22.06Z"/><path d="M21.17,19.86a.28.28,0,0,1,0,.09s0,.08-.05.07-.05,0-.05-.07a.19.19,0,0,1,0-.08.19.19,0,0,0-.1-.18l-.14-.09s0,0,0-.06h.08a.18.18,0,0,1,.09,0c.05,0,.07,0,.08,0l0-.08.05,0s0,0,0,0,0,.05,0,.07a.18.18,0,0,0,.09.17l.14.09,0,.07s0,0,0,0h0l-.11,0-.09,0A0,0,0,0,0,21.17,19.86Z"/><path d="M23,23s0,0,.06,0a2.5,2.5,0,0,1,.39.34s.05,0,0,.06-.07,0-.09,0l-.17-.12-.08-.06h0s0,0,0,.05a1.13,1.13,0,0,1,0,.18,0,0,0,0,1,0,.05s-.05,0-.06,0a.59.59,0,0,1-.06-.14l0-.27a.33.33,0,0,1,0-.1Z"/><path d="M23.73,22.55h.06l.48.19a.18.18,0,0,1,.07.05s0,0,0,0l-.12,0-.13-.06a.06.06,0,0,0-.06,0s0,0,0,0l.07.11,0,.1a.07.07,0,0,1,0,0s0,0-.06,0a1.74,1.74,0,0,1-.27-.45s0,0,0,0Z"/><path d="M22.14,23.34l-.08.13a.31.31,0,0,1-.09.11l-.06,0s0,0,0-.05a.54.54,0,0,1,.05-.11l.1-.24a.22.22,0,0,1,.05-.08s0,0,.07,0l0,0a1.64,1.64,0,0,1,.14.39.12.12,0,0,1,0,.08s0,0-.06,0l-.06-.08-.05-.17Z"/><path d="M20.5,22.3s0,0,0,.05l-.41.36-.06,0s0,0,0-.07l.11-.12.13-.11h-.14l-.2,0h0l0,0,.06,0a2.1,2.1,0,0,1,.5-.09Z"/><path d="M21,23.42s0,0,0-.06.05-.14.07-.21v0h0l-.21.12h0s0,0,0,0l0-.05a1.74,1.74,0,0,1,.4-.3l0,0s.06,0,.06,0a.56.56,0,0,1,0,.12c0,.11-.09.21-.14.32L21,23.4l0,0Z"/><path d="M24,19.77a.21.21,0,0,1,0,.06l-.32.3s0,0-.06,0a.08.08,0,0,1-.07,0s0,0,0-.05a1.71,1.71,0,0,1,.4-.35l.06,0S24,19.74,24,19.77Z"/><path d="M22.75,19.69c0-.09.07-.19.11-.29l0-.06,0,0s0,0,0,0,0,0,0,0a1,1,0,0,1-.12.42s0,.07-.08.06,0-.05,0-.08,0-.06,0-.09Z"/><path d="M24.84,20.7s0,0-.05,0l-.53.22a.07.07,0,0,1-.1-.06s0,0,0,0l.12,0,.42-.12h.11Z"/><path d="M21,22.73a.46.46,0,0,1-.08.13l-.24.25-.09.06h0v0l0-.05a2.36,2.36,0,0,1,.3-.34l.07-.05H21A.1.1,0,0,1,21,22.73Z"/><path d="M24.88,22h-.12a3.09,3.09,0,0,1-.52-.07s-.06,0-.06,0,.05,0,.08,0l.44.07.14,0,0,0Z"/><path d="M24,22.33l.07,0,.41.27s.06,0,0,.06h-.08a3.07,3.07,0,0,1-.43-.26l0,0s0,0,0,0Z"/><path d="M24.08,20.73l.05,0a2.25,2.25,0,0,1,.51-.2h.13A1.42,1.42,0,0,1,24.08,20.73Z"/><path d="M20.28,21.85l-.07,0-.26.07-.34.07s-.05,0-.06,0a0,0,0,0,1,0,0,2.19,2.19,0,0,1,.56-.14.27.27,0,0,1,.09,0Z"/><path d="M21.7,23.58s0-.08,0-.12l.06-.31s0,0,0-.06l0,0a.05.05,0,0,1,0,0,.75.75,0,0,1,0,.2,1.87,1.87,0,0,1-.07.22.1.1,0,0,1,0,0Z"/><path d="M24.25,21.65a1.39,1.39,0,0,1,.73.08h-.06a2.14,2.14,0,0,1-.62-.06Z"/><path d="M20.31,22l0,0a2.88,2.88,0,0,1-.5.15h-.13s0,0-.05,0l0,0,.19-.06.44-.1h.07Z"/><path d="M20.79,22.61s0,.05,0,.06a1.29,1.29,0,0,1-.35.35l-.06,0s0,0,0-.06a1.6,1.6,0,0,1,.38-.35Z"/><path d="M20.18,21.45a1.32,1.32,0,0,1-.71-.08h.07a1.85,1.85,0,0,1,.57.06Z"/><path d="M25,21.51h-.07a2.78,2.78,0,0,1-.58-.06l-.05,0h.06a1.88,1.88,0,0,1,.58.06l.06,0Z"/><path d="M19.69,22.29a2.1,2.1,0,0,1,.67-.21v0l0,0a2.23,2.23,0,0,1-.57.18H19.7Z"/><path d="M21.4,19.34s0,0,0,0l.21.4a.12.12,0,0,1,0,.08s-.05,0-.06-.05a1.38,1.38,0,0,1-.19-.41v-.06Z"/><path d="M25.11,21.67v-.44C25.21,21.28,25.18,21.59,25.11,21.67Z"/><path d="M24.91,22.34a.62.62,0,0,1,.16-.36A.65.65,0,0,1,24.91,22.34Z"/><path d="M25,20.85c.09.07.13.25.07.3A.7.7,0,0,1,25,20.85Z"/><path d="M19.38,21s.05,0,0,.05,0,0-.06,0a0,0,0,0,1-.05-.05A.06.06,0,0,1,19.38,21Z"/></g></g></svg>