<svg xmlns="http://www.w3.org/2000/svg" viewBox="0 0 108.8 133.43"><defs><style>.cls-1{fill:#231f20;}</style></defs><g id="Layer_2" data-name="Layer 2"><g id="Layer_1-2" data-name="Layer 1"><path class="cls-1" d="M108.75,66.08c-.34-7.64-.06-15.31-.06-23,0-10.48,0-21,0-31.45,0-3.23-.87-4.51-4.43-3.65A55,55,0,0,1,93.43,9.37C80.84,9.82,69,6.71,57.9,1c-2.69-1.39-4.78-1.2-7.41.12C36.14,8.35,21.05,11.24,5,8.25c-4.9-.91-5-.8-5,4.26q0,29.21,0,58.4A46.16,46.16,0,0,0,7.73,95.85c10.71,16.84,26.33,27.88,43.71,36.86,2.39,1.23,4.38.74,6.57-.4,12.93-6.72,24.87-14.78,34.77-25.59C103.31,95.23,109.46,82.06,108.75,66.08ZM90.69,104.8c-8.73,9.53-19.53,17.47-34,25a5.55,5.55,0,0,1-2.48.79,3.26,3.26,0,0,1-1.48-.4c-20.4-10.54-33.55-21.6-42.62-35.86A43.63,43.63,0,0,1,2.88,70.9c-.07-20.13,0-40.69,0-58.38,0-.53,0-1.2,0-1.77.53.08,1.12.19,1.64.29a71.4,71.4,0,0,0,13,1.21A75.51,75.51,0,0,0,51.77,3.61a5.93,5.93,0,0,1,2.6-.78,4.86,4.86,0,0,1,2.23.65A74.57,74.57,0,0,0,91,12.25c.83,0,1.67,0,2.51-.05A57.85,57.85,0,0,0,105,10.78a6.78,6.78,0,0,1,.88-.16,8.64,8.64,0,0,1,0,1c0,7.58,0,15.27,0,22.72v8.75q0,3.56,0,7.11c-.06,5.22-.12,10.63.11,16C106.54,80.31,101.56,92.94,90.69,104.8Z"/><path class="cls-1" d="M103.08,66.33c-.24-5.41-.17-10.84-.11-16.14,0-2.35,0-4.71,0-7.07,0-2.92,0-5.83,0-8.75,0-6.63,0-13.47,0-20.29a65.63,65.63,0,0,1-9.4,1c-.87,0-1.74,0-2.61,0A77.33,77.33,0,0,1,55.3,6a2.26,2.26,0,0,0-.93-.33,3,3,0,0,0-1,.33h-.09V6l-.22.1a78.35,78.35,0,0,1-35.56,9,73.66,73.66,0,0,1-11.8-1c0,17.35,0,37.31,0,56.77a40.83,40.83,0,0,0,6.79,21.92c8.79,13.82,21.6,24.57,41.53,34.86l.2.09a4.57,4.57,0,0,0,1.15-.48c14.16-7.36,24.71-15.11,33.21-24.39C98.94,91.61,103.67,79.65,103.08,66.33ZM91,17.92c.9,0,1.8,0,2.71-.05,2.3-.08,4.44-.25,6.45-.49,0,5.75,0,11.45,0,17v8.74c0,2.26,0,4.53-.05,6.79v.25c0,4.65-.09,9.42.05,14.19H55.3V9.17A79.77,79.77,0,0,0,91,17.92Zm-82.5-.54a75.35,75.35,0,0,0,9,.54A80.79,80.79,0,0,0,53.27,9.19V64.35H8.53C8.49,48,8.5,31.82,8.52,17.38ZM14.9,91.29A38.13,38.13,0,0,1,8.55,70.88c0-1.5,0-3,0-4.5H53.27v57.68C35,114.35,23.1,104.18,14.9,91.29ZM86.51,101c-8,8.76-18,16.14-31.21,23.15V66.38h45v.08C100.81,79,96.31,90.28,86.51,101Z"/></g><g id="Layer_2-2" data-name="Layer 2"><path class="cls-1" d="M43.74,36.77h0s-2.43-18-5.46-14.54a9.24,9.24,0,0,1-6.73,3.21l0,0c-.22,0-.44,0-.67,0s-.4,0-.6,0l0,0a9.22,9.22,0,0,1-6.73-3.21c-2.72-3.07-5,11.1-5.39,14a18,18,0,0,0-.68,4.93,17.2,17.2,0,0,0,3.93,11.15h0a14,14,0,0,0,2.08,2l2.62,2.5,4.74,4.51,4.74-4.51,2.62-2.5a16.63,16.63,0,0,0,6-13.15A18.2,18.2,0,0,0,43.74,36.77ZM30,33.86H31.8a.09.09,0,0,1,.08.13l-.45.71-.44.7a.09.09,0,0,1-.16,0l-.44-.7L29.94,34A.09.09,0,0,1,30,33.86Zm3,17.79a6.6,6.6,0,0,0-4,0c-4.16,1.25-6-2.5-6-6.47a8.15,8.15,0,0,1,7.88-8.4,8.15,8.15,0,0,1,7.88,8.4C38.79,48.81,36.51,53.24,33,51.65Z"/><path class="cls-1" d="M16.78,18.11l.32-.18-.67,0c0,.13-.05.25-.05.39Z"/><path class="cls-1" d="M38,15.51l-.31-.35-1.19.31,1.24,0Z"/><path class="cls-1" d="M22.17,59.61a3.82,3.82,0,0,1-.34-.36.44.44,0,0,1-.09-.32c.19-.47.41-.94.63-1.41a.26.26,0,0,1,.22-.13,1.19,1.19,0,0,0,.9-.31.58.58,0,0,1,.29-.13L25,57h.18l.57,0h0l4.8.35,6.07.49,2.74.2,1.51.14c.47,0,.85.08,1.24.1a23.18,23.18,0,0,0,4.16.17,15.18,15.18,0,0,1,3.3-.08l.44.08a4.44,4.44,0,0,1-1.17,1.09.31.31,0,0,1-.4-.05,1.7,1.7,0,0,0-1.4-.33,2.4,2.4,0,0,0-1.72,1.59,9.66,9.66,0,0,0-.43,1.51c-.06.2,0,.34.23.34.61,0,1.23,0,1.84,0a2.4,2.4,0,0,0,1.61-.76,1.39,1.39,0,0,0,.24-1.7c0-.09-.09-.17-.14-.27L49.79,59A.54.54,0,0,1,50,59a4.4,4.4,0,0,0,.74-.09,5.68,5.68,0,0,1,2.39-.15l.12,0v-1.2c-.1-.09-.28-.17-.36-.13a.78.78,0,0,1-.7,0,4,4,0,0,1-1.7-1c-.35-.35-.71-.7-1-1.08a5.44,5.44,0,0,1-.77-1.08,2,2,0,0,0-.48-.66.93.93,0,0,1-.13-.32l-.24-.72a1.39,1.39,0,0,1-.12-.43,4.45,4.45,0,0,1,.13-.89.63.63,0,0,1,.24-.3,14.16,14.16,0,0,0,1.25-.74,3.56,3.56,0,0,0,1.44-2.63.62.62,0,0,1,.36-.57c.08,0,.15-.1.3-.19a1.41,1.41,0,0,0-.39,0,9.26,9.26,0,0,1-1.36.19,2.76,2.76,0,0,0-2.2,1.84,14.74,14.74,0,0,0-.14,1.75c0,.54,0,1.09,0,1.63a.8.8,0,0,1-.05.21s-.08,0-.09,0a.71.71,0,0,1-.1-.14A5.64,5.64,0,0,0,46,50.65a1.94,1.94,0,0,1-.33-.58c-.23-.53-.4-1.12-1-1.39a4.3,4.3,0,0,0-1.58-.57,22.52,22.52,0,0,0-2.84.09l0,.26a6.6,6.6,0,0,1,2.45,1.13,3.16,3.16,0,0,0,2,.8A1.33,1.33,0,0,1,46,51s.1.09.14.15A5,5,0,0,1,47,52.74c-.39-.17-.75-.23-.91-.64a1.26,1.26,0,0,0-.49-.51,2.24,2.24,0,0,0-2.6,0,11.32,11.32,0,0,1-2.18,1l0,.4c.58.24,1.17.47,1.74.75a3.09,3.09,0,0,0,2.91,0,1.32,1.32,0,0,0,.5-.52c.24-.44.22-.45.71-.31a.65.65,0,0,1,.46.38.78.78,0,0,0,.29.33.66.66,0,0,1,.36.82c-.05.18,0,.32.23.32a.77.77,0,0,1,.56.35c.57.66,1.15,1.31,1.73,2l.3.3c-.74,0-1.4.09-2.06.09s-1.49-.07-2.23-.09c-.31,0-.61.06-.92,0-1.56-.1-3.11-.23-4.67-.33l-.15,0-5-.39-.57,0h0l-2.82-.22c-.48,0-1-.08-1.41-.11l-5.44-.43h-.16l-.6,0h0A12.87,12.87,0,0,1,22,55.38a1.69,1.69,0,0,0-1.57.44l.34.21a9.47,9.47,0,0,1-1.07-.13c-.31-.06-.62-.11-.93-.19a9.56,9.56,0,0,1-2.25-1.15.35.35,0,0,1-.11-.1l-.54-.74a.18.18,0,0,1,0-.14c.16-.33.3-.66.49-1,.09-.14.24-.16.4,0a3.2,3.2,0,0,0,3.39.75,5.16,5.16,0,0,1,.88-.11l.43-.06v-.1l-.29-.19A7.56,7.56,0,0,0,17.74,52a1.82,1.82,0,0,0-2.14,1.56c0,.12-.07.23-.14.43a16.63,16.63,0,0,0-1.77-1.3,3.09,3.09,0,0,1-1.36-1.83.49.49,0,0,1,.18-.66c.08,0,.14-.12.22-.17a2.46,2.46,0,0,0,.93-2.62,4.62,4.62,0,0,0-1.19-2.23,3,3,0,0,1-.33-.67c-.05-.1-.11-.19-.2-.37,0,.21-.07.31-.1.42a18.49,18.49,0,0,1-.57,2.06A4.07,4.07,0,0,0,11,48.19a1.68,1.68,0,0,0,.4,1.1,2.68,2.68,0,0,1,.6,1.27,4.92,4.92,0,0,0,.27.82,3.9,3.9,0,0,1,.17.48.3.3,0,0,1-.13.23.61.61,0,0,1-.65-.27,2,2,0,0,0-2.59-1L8.53,51v2.35a3.5,3.5,0,0,0,1.38.13,2,2,0,0,0,1.82-1.09c.12-.26.34-.17.51-.07a5,5,0,0,1,.73.46,10.94,10.94,0,0,1,1.9,1.57,1.65,1.65,0,0,0,.47.35c.66.36,1.31.71,2,1,.4.21.83.38,1.24.57l.28.09c-.56,0-1.05,0-1.54,0s-.4,0-.39.31l-2.52.9-1,.33a5.12,5.12,0,0,0-1.18.48,2,2,0,0,1-1.61.29,1,1,0,0,0-.79.14c-.11.08-.38,0-.53-.07S9,58.51,9,58.38a2.25,2.25,0,0,0-.51-1.7c0,.74,0,1.47,0,2.21h.18a1.1,1.1,0,0,1,1,.54l-.08.08-1.12.86v1.15c.33-.25.64-.54,1-.8a1,1,0,0,1,.28-.11,5.22,5.22,0,0,1,.14.71,3.09,3.09,0,0,1,0,.68,1.8,1.8,0,0,0,.93,1.82,7,7,0,0,1,1,.54h.63l-.05-.06a.9.9,0,0,1-.35-.8,5.51,5.51,0,0,0-.21-1.34A1.74,1.74,0,0,0,10.5,61c-.14,0-.33,0-.37-.21s0-.43.19-.55a19.49,19.49,0,0,1,1.84-1c.88-.39,1.79-.69,2.7-1a2,2,0,0,1,.42-.12L17,57.8l4.83-.95c.15,0,.32,0,.55-.05-.14.27-.22.48-.34.67a4.37,4.37,0,0,0-.65,2.91.82.82,0,0,1-.13.5A2.13,2.13,0,0,0,21,62.82c.12.33.26.64.37,1l.18.57h.86c.17-.77.34-1.54.49-2.31A2.64,2.64,0,0,0,22.17,59.61Z"/><path class="cls-1" d="M32,17.37l-.15.26c.1.1.19.25.31.29a4.34,4.34,0,0,0,2.64.14A1.48,1.48,0,0,0,35.9,17c.1-.38.14-.77.21-1.21a3.85,3.85,0,0,1,1.75,0c-.26.39-.8.38-.87.89a3.87,3.87,0,0,0,.46.06c.67,0,1.27-.37,2-.36a11.82,11.82,0,0,0,1.85-.28,1.05,1.05,0,0,1,.3,0,7.06,7.06,0,0,1-.22.69,2.66,2.66,0,0,1-.34.59,1.85,1.85,0,0,0-.08,2A8.75,8.75,0,0,1,41.87,21a1.64,1.64,0,0,0,.2.26l.08,0a2.12,2.12,0,0,0-.06-.57.93.93,0,0,1,.07-.87,5,5,0,0,0,.47-1.27A1.74,1.74,0,0,0,42,16.86c-.11-.1-.31-.14-.22-.36s.19-.39.43-.4a18.38,18.38,0,0,1,2.1,0c1,.08,1.91.26,2.86.41a2.07,2.07,0,0,1,.43.1c.54.18,1.07.39,1.6.57l4.1,1.32V17.42a8.13,8.13,0,0,1-.82-.59c-.25-.2-.5-.4-.73-.61a10.57,10.57,0,0,1-1.41-2.1.33.33,0,0,1,0-.14c0-.31-.08-.61-.11-.92a.16.16,0,0,1,0-.13,8.93,8.93,0,0,1,.91-.6c.14-.09.29,0,.35.18a3.13,3.13,0,0,0,1.81,2.05V12.92c-.2-.14-.4-.28-.61-.4a1.83,1.83,0,0,0-2.63.33l-.34.31a20.13,20.13,0,0,0-.87-1.92l-.44.19a6.43,6.43,0,0,1,.65,1.71,1.38,1.38,0,0,0,.24.54c.4.63.8,1.26,1.22,1.87.25.38.54.74.81,1.1l.2.22c-.49-.27-.94-.48-1.34-.75s-.33-.24-.5.08L47,15.76l-1-.17a5,5,0,0,0-1.26-.15,2,2,0,0,1-1.55-.53,1,1,0,0,0-.76-.26c-.14,0-.34-.17-.43-.32a.54.54,0,0,1-.06-.47h0l-.67.22.14.07a1.12,1.12,0,0,1,.63,1l-.11,0c-.73.12-1.47.25-2.2.35a1.48,1.48,0,0,1-.66-.1c-.26-.12-.51-.28-.77-.41l-.66.19.31.35h-.26l-1.24,0c-1.28.33-2.55.63-3.83.89-.13.21-.26.43-.4.64S32.08,17.25,32,17.37Z"/><path class="cls-1" d="M51.78,21.57a.83.83,0,0,1-.36.38,2.11,2.11,0,0,0-1.13,1.59c-.06.34-.08.69-.15,1a3.1,3.1,0,0,1-1,2.12.38.38,0,0,0-.09.13c.18.25.22.27.37.15s.54-.47.77-.73c.72-.81,1.44-1.62,2.13-2.45a2.65,2.65,0,0,0,.55-2.49,2.7,2.7,0,0,1-.12-.49.36.36,0,0,1,.07-.31l.47-.36v-.48A4.27,4.27,0,0,0,51.78,21.57Z"/><path class="cls-1" d="M53.29,17.37V17.1h-.15Z"/><path class="cls-1" d="M9.65,23.53c0-.05.11-.08.17-.11L11,22.9a1,1,0,0,1,1.29.34c.31-.21,0-.49.09-.76a1.74,1.74,0,0,1,.45.11,3,3,0,0,1,1.13,1,.71.71,0,0,1,0,1,2.23,2.23,0,0,0-.46,2.28c.17.45.42.87.62,1.32a3.9,3.9,0,0,1,.6,1.72c0,.06.08.12.17.25a5.64,5.64,0,0,0-3-8.15c.44-.29.84-.54,1.21-.82a1.19,1.19,0,0,1,1-.28c.13,0,.36,0,.4-.09.14-.26.35-.3.6-.38a4,4,0,0,1,2-.12c.49.09,1,.17,1.46.3a6.06,6.06,0,0,1,1.25.47,2.12,2.12,0,0,0,.76.28c.11,0,.2.12.29.19l.6.46a1.42,1.42,0,0,1,.35.29,5.91,5.91,0,0,1,.39.8.59.59,0,0,1,0,.39,14.16,14.16,0,0,0-.62,1.31,3.57,3.57,0,0,0,.29,3,.64.64,0,0,1,0,.68,1.79,1.79,0,0,0-.14.32,3.15,3.15,0,0,0,.34-.21,8.65,8.65,0,0,1,1-.91,2.76,2.76,0,0,0,.78-2.77A16.39,16.39,0,0,0,23,23.41c-.29-.46-.63-.89-.94-1.33a1,1,0,0,1-.08-.21c.06,0,.08,0,.1,0a.52.52,0,0,1,.16.06,5.72,5.72,0,0,0,1.88.63,1.63,1.63,0,0,1,.61.29,2.33,2.33,0,0,0,1.57.61A4.55,4.55,0,0,0,27.91,23a24.94,24.94,0,0,0,2.3-1.67l-.17-.2a6.53,6.53,0,0,1-2.66.43,3.27,3.27,0,0,0-2.14.49,1.32,1.32,0,0,1-1.3.21l-.21,0a4.91,4.91,0,0,1-1.63-.88c.42-.08.75-.23,1.11,0a1.23,1.23,0,0,0,.69.15,2.24,2.24,0,0,0,2.16-1.45A10.44,10.44,0,0,1,27.3,18L27,17.73c-.62.12-1.23.27-1.86.35a3.1,3.1,0,0,0-2.4,1.66,1.32,1.32,0,0,0-.12.71c.05.49.07.49-.41.65a.67.67,0,0,1-.6-.05.68.68,0,0,0-.42-.11.67.67,0,0,1-.76-.48c-.06-.18-.19-.26-.37-.14a.76.76,0,0,1-.66,0c-.84-.23-1.69-.44-2.54-.65l-.41-.08c.59-.44,1.11-.86,1.66-1.23.24-.17.5-.32.76-.48l-1.41,0h-.4l-.32.18-.4.19c0-.14,0-.26.05-.39H16.1l0,0a3.78,3.78,0,0,0-.56.49,5.72,5.72,0,0,1-1.89,1.46c-.06,0-.16.08-.19.05-.35-.23-.5.07-.69.25a6.46,6.46,0,0,1-.68.61c-.64.4-1.3.78-2,1.13s-1,.56-1.56.79v1.21C8.94,23.9,9.39,24,9.65,23.53Z"/><path d="M82.46,41.31c.66,1.17,1.21,2.24,1.85,3.25,2,3.17,3.85,6.4,3.91,10.35a5.37,5.37,0,0,1-4.81-.55c-1.91-1.17-5.62-.61-7,1.17a3.88,3.88,0,0,1-4.3,1.36,8.39,8.39,0,0,1-6.31-11.21,120.85,120.85,0,0,0,4.4-14.88c.88-3.93,3.15-6.77,7.42-7.62l-.59-1.62a35.64,35.64,0,0,1,4-.87c.29,0,.68.8,1,1.24a26.19,26.19,0,0,1,4,0c1.67.26,2.47,1.7,1.55,3.11-1.39,2.16-.53,4.38-.68,6.56-.07,1-.47,2.31.85,3,.08,0,.07.3,0,.45-.16,1.07-.28,2.14-.51,3.19C86.84,40.88,86.31,41.21,82.46,41.31Zm1.47,3.83-.26.45c-.84-.06-1.68-.1-2.52-.19a15.79,15.79,0,0,0-2.35-.32c-1.22,0-2.44.29-3.66.37a3.38,3.38,0,0,1-3.74-3.26c0-.43,0-.87,0-1.3a3.92,3.92,0,0,0,1.77,4.87L72.75,51c1.37-1.8,2.44-3.29,3.62-4.69.24-.28,1.12-.45,1.31-.26,2.22,2.14,4.67,4.15,6.41,6.64,1.07,1.53,1.88,2.06,3.65,1.58A17,17,0,0,0,83.93,45.14ZM75.84,32.6l5.22-11.1L77.71,22l1,1.31C76.24,27.09,75.29,30.29,75.84,32.6Zm4.33-2.15c3.41-.86,6-3.49,6.08-6C85.38,27.49,82.49,28.42,80.17,30.45Z"/><path class="cls-1" d="M89.91,32a.49.49,0,0,0-.19.3,2.18,2.18,0,0,0,.75,1.6,2.76,2.76,0,0,0,.83.13,1,1,0,0,0,.58-.41,1.49,1.49,0,0,0-.38-1.35A1.69,1.69,0,0,0,89.91,32Z"/><path class="cls-1" d="M92.37,34.05c.11-.42.25-.82.32-1.23s-.37-.74-.74-1.13A3.71,3.71,0,0,0,92.37,34.05Z"/><path class="cls-1" d="M93.22,29.8a1.29,1.29,0,0,0-1.2.52l2.73.92C94.29,30.61,94,30,93.22,29.8Z"/><path class="cls-1" d="M95.19,29.78a1.41,1.41,0,0,0,.13,1.94c0-1,.7-1.54,1.24-2.19A1.05,1.05,0,0,0,95.19,29.78Z"/><path class="cls-1" d="M94.05,31.41c-.51,0-.7.4-.87.9L95,32.18A1,1,0,0,0,94.05,31.41Z"/><path class="cls-1" d="M88.1,59.6a1.47,1.47,0,0,0,.39.61l1.78,1.63a.8.8,0,0,0,.4.2c.69.05,1.37.09,2.06.1a1.49,1.49,0,0,0,.52-.15,2.32,2.32,0,0,0-1.71-1.48,2,2,0,0,1-1.25-1.16c-.48-1.08-1.34-2.05-.66-3.46h0a1.61,1.61,0,0,0-1.06,1.19,9.68,9.68,0,0,1-.42,1.42A2.13,2.13,0,0,0,88,59a1.4,1.4,0,0,1,.42.15Z"/><path class="cls-1" d="M86.65,52.35c.62.81,1.21,1.6,1.83,2.36a5.92,5.92,0,0,0,.8.69l.23-.15c-.1-.49-.2-1-.3-1.48.09.09.19.17.27.26l.27.27c.46-.54.47-.93.09-1.4A2.67,2.67,0,0,0,86.65,52.35Z"/><path class="cls-1" d="M86.49,60.37l.17-.17.18-.16-.19.93.14.09a3.43,3.43,0,0,0,.5-.43c.27-.33.54-.68.81-1A1.22,1.22,0,0,1,88,59a1.69,1.69,0,0,0-1.58.49C86.2,59.79,86.21,60,86.49,60.37Z"/><path class="cls-1" d="M90.62,56.38a1.9,1.9,0,0,0,.16,2.51c0-1.41,1.22-1.85,2.08-2.58A1.79,1.79,0,0,0,90.62,56.38Z"/><path class="cls-1" d="M89.63,55.89a2.15,2.15,0,0,0,.05.34c0,.1,0,.22,0,.34,0,.3.06.6.1.9l.21,0c.06-.29.1-.59.18-.88.26-.93.54-1.13,1.53-1.22a.74.74,0,0,0,.5-.37A1.66,1.66,0,0,1,94,54.08c.63.08,1.25.2,1.89.3-.68-1.34-1.77-1.66-2.7-.81-.27-.1-.53-.23-.8-.31a1.46,1.46,0,0,0-1.79.54c-.41.65-1,1.24-1,2.08h0Z"/><path class="cls-1" d="M96.57,32.41a2.13,2.13,0,0,0-1,2.89,1,1,0,0,0,1,.55c-.83-1.67.18-2.4,1.43-3A1.11,1.11,0,0,0,96.57,32.41Z"/><path class="cls-1" d="M98.82,36.7a11,11,0,0,0,1.25-1.47.37.37,0,0,0,0-.35.38.38,0,0,0-.35-.05L96.5,36A1.49,1.49,0,0,0,98.82,36.7Z"/><path class="cls-1" d="M99.35,44.74l.13-.13.13-.13c0,.25-.09.48-.14.71l.11.07a3,3,0,0,0,.38-.33c.07-.09.14-.19.22-.28v-1a1.24,1.24,0,0,0-.87.39C99.13,44.29,99.14,44.48,99.35,44.74Z"/><path class="cls-1" d="M100.12,51.17a2.09,2.09,0,0,0-.17.28,2.18,2.18,0,0,0,.15,1.69C100.11,52.48,100.12,51.83,100.12,51.17Z"/><path class="cls-1" d="M98.67,34a1,1,0,0,0-1.15-.13,1.2,1.2,0,0,0-.58,1.1c0,.27.16.38.44.31.44-.11.88-.21,1.33-.3s.5-.26.28-.6A3,3,0,0,0,98.67,34Z"/><path class="cls-1" d="M93.73,34.38c-.26.33-.41.66,0,1,.15.11.15.39.24.59.34.73.72.91,1.54.67a2.08,2.08,0,0,0,.27,1.62A.85.85,0,0,0,97,38.7a5.9,5.9,0,0,1,.73-.15,1.61,1.61,0,0,0,1.53-1.69l-.74.38A1.26,1.26,0,0,1,97,37.11a18.41,18.41,0,0,1-1.55-1.51,1.83,1.83,0,0,1-.34-1.68c.06-.24.14-.47.25-.84a3.79,3.79,0,0,0-.83.4A5.78,5.78,0,0,0,93.73,34.38Z"/><path class="cls-1" d="M99.9,54.09A5,5,0,0,0,99.09,51c-.24.67-.67,1.18-.26,1.77A16,16,0,0,0,99.9,54.09Z"/><path class="cls-1" d="M99,49.58l1.11-.15v-.31a1,1,0,0,0-1.28-.54l.41.23-1.18-.15C98.06,49.36,98.41,49.67,99,49.58Z"/><path class="cls-1" d="M93.1,34.39a.8.8,0,0,0,.52-.12l-1-.27C92.61,34.32,92.87,34.36,93.1,34.39Z"/><path class="cls-1" d="M95.05,52.94a1.86,1.86,0,0,0-.92-2.41,1.38,1.38,0,0,0-1.79.46C93.36,51.47,94.54,51.72,95.05,52.94Z"/><path class="cls-1" d="M83.87,60.47a1.78,1.78,0,0,0-1.75,1.84.85.85,0,0,0,.56.77c0-1.55,1-1.75,2.13-1.76A.92.92,0,0,0,83.87,60.47Z"/><path class="cls-1" d="M79,57.83a.38.38,0,0,0-.25.16,1.77,1.77,0,0,0,0,1.46,2,2,0,0,0,.58.39.75.75,0,0,0,.58-.11,1.21,1.21,0,0,0,.18-1.15A1.37,1.37,0,0,0,79,57.83Z"/><path class="cls-1" d="M80.12,60.24c.24-.28.48-.53.68-.81s0-.7-.17-1.12A3.18,3.18,0,0,0,80.12,60.24Z"/><path class="cls-1" d="M81.05,64.14c.1-.19.17-.39.26-.61a.85.85,0,0,0-1-.07,1.12,1.12,0,0,0-.62,1h.59l.46-.09A.49.49,0,0,0,81.05,64.14Z"/><path class="cls-1" d="M77.83,59.1a1.23,1.23,0,0,0-1.11-.47c.92.75.64,1.69.65,2.58a1.44,1.44,0,0,1-.48,1.19,1.73,1.73,0,0,0-.7,1.56,1.39,1.39,0,0,0,.4-.06c.47-.23.93-.47,1.38-.73a.61.61,0,0,0,.21-.26c.24-.56.47-1.12.7-1.68a1.08,1.08,0,0,0-.31-1.29A7.41,7.41,0,0,1,77.83,59.1Z"/><path class="cls-1" d="M80.55,60.75a.75.75,0,0,0,.44.09l-.68-.56C80.21,60.52,80.39,60.65,80.55,60.75Z"/><path class="cls-1" d="M73.33,59a2.14,2.14,0,0,0-1,2.89,1,1,0,0,0,1,.55c-.82-1.67.18-2.4,1.44-3A1.1,1.1,0,0,0,73.33,59Z"/><path class="cls-1" d="M75.58,63.3a9.84,9.84,0,0,0,1.24-1.47.35.35,0,0,0,0-.34.41.41,0,0,0-.36-.05l-3.24,1.14A1.5,1.5,0,0,0,75.58,63.3Z"/><path class="cls-1" d="M74.27,60.48a1.25,1.25,0,0,0-.58,1.11c0,.26.16.38.44.31.44-.11.89-.21,1.33-.3s.5-.26.28-.6a4.21,4.21,0,0,0-.32-.39A1,1,0,0,0,74.27,60.48Z"/><path class="cls-1" d="M76.89,61.05a1.43,1.43,0,0,0-.68-1.77,1.37,1.37,0,0,0-1.56.67C75.47,60.17,76.42,60.1,76.89,61.05Z"/><path class="cls-1" d="M85.85,63.25a1.19,1.19,0,0,0,.1-1.57,1.12,1.12,0,0,0-1.41,0C85.08,62.09,85.83,62.37,85.85,63.25Z"/><path class="cls-1" d="M96.71,57.39a2.81,2.81,0,0,0-2.78-2.93,1.46,1.46,0,0,0-1.5,1.35c1.84,0,3.45.33,3.39,2.8A1.33,1.33,0,0,0,96.71,57.39Z"/><path class="cls-1" d="M92.14,58.19c-.08.52.14.69.66.56s1.18-.26,1.77-.38c.37-.07.5-.3.35-.62a1.59,1.59,0,0,0-1.31-1c-.55-.07-.94.24-1.31.79A5.12,5.12,0,0,0,92.14,58.19Z"/><path class="cls-1" d="M85.52,63.82a.3.3,0,0,0,.14-.25c0-.08-.16-.15-.25-.16-.94-.1-1.88-.18-2.84-.27a1.31,1.31,0,0,0,.8,1.29h.85A9.58,9.58,0,0,0,85.52,63.82Z"/><path class="cls-1" d="M91.3,59.79a13.87,13.87,0,0,0,2.32,1.07A2,2,0,0,0,96,58.7l-4.53.43c-.15,0-.37.14-.4.25A.49.49,0,0,0,91.3,59.79Z"/><path class="cls-1" d="M80.72,61.74c.07.13,0,.34,0,.52,0,.68.22.94.92,1.05a1.78,1.78,0,0,0-.36,1.12h1.49a.88.88,0,0,1-.19-.26,17.06,17.06,0,0,1-.64-1.68,1.5,1.5,0,0,1,.34-1.38c.12-.16.26-.31.48-.56a3.71,3.71,0,0,0-.77,0A4.42,4.42,0,0,0,81,61C80.73,61.12,80.5,61.32,80.72,61.74Z"/><path class="cls-1" d="M81.16,57.3,82.9,59c-.12-.63-.15-1.23-.65-1.62C82,57.1,81.61,57.15,81.16,57.3Z"/><path class="cls-1" d="M82.31,58.83c-.39-.15-.66.06-1,.38l1.43.54A.85.85,0,0,0,82.31,58.83Z"/><path class="cls-1" d="M98.92,48.41a.31.31,0,0,0,.19-.09c.28-.25.57-.51.84-.77a.8.8,0,0,0,.21-.33v-.33a.75.75,0,0,0,0-.16,4.07,4.07,0,0,1-.2-.68.76.76,0,0,0-.51-.56c.33.67-.08,1.13-.31,1.65a.94.94,0,0,1-.6.55,1.08,1.08,0,0,0-.81.7.67.67,0,0,0,.25.08C98.27,48.46,98.59,48.44,98.92,48.41Z"/><path class="cls-1" d="M84.07,61.91a1,1,0,0,0-.82.63c-.09.2,0,.34.22.39s.74.15,1.11.24.47,0,.42-.36c0-.16-.09-.32-.11-.4C84.66,62.06,84.41,61.87,84.07,61.91Z"/><path class="cls-1" d="M100.18,32.22h0v.27h0Z"/><path class="cls-1" d="M100.17,29.12v-.37A2,2,0,0,0,98.88,30c-.11.45,0,.71.51.93l.09-.27.11-.26c.09.38.18.74.26,1.1l.21,0c0-.08.08-.16.12-.24V31C100.17,30.36,100.17,29.74,100.17,29.12Z"/><path class="cls-1" d="M100.18,33.59V33.1h0v.49Z"/><path class="cls-1" d="M100.18,31.34h0V32h0Z"/><path class="cls-1" d="M75.64,56.65c-.12.44,0,.7.5.93,0-.09.06-.18.1-.27s.07-.17.1-.27c.1.39.18.75.27,1.11l.2,0a5.17,5.17,0,0,0,.33-.72c.18-.72.34-1.45.51-2.2A2,2,0,0,0,75.64,56.65Z"/><path class="cls-1" d="M100.18,38.6V37.11h0V38.6Z"/><path class="cls-1" d="M99.45,37.53c0,.11-.13.26-.09.34a9.15,9.15,0,0,0,.82,1.18V38.6c-.15-.26-.24-.58-.4-.84C99.72,37.65,99.56,37.6,99.45,37.53Z"/><path class="cls-1" d="M99.45,32.67a1.35,1.35,0,0,0-1.55.67c.81.22,1.77.15,2.24,1.1a.56.56,0,0,0,0-.12v-.73A1.48,1.48,0,0,0,99.45,32.67Z"/><path class="cls-1" d="M98.65,30.9a1.11,1.11,0,0,0-1.4.2c-.16.14-.3.31-.45.47-.91-.29-1.55.28-1.59,1.41.4-.27.79-.55,1.2-.81a1.25,1.25,0,0,1,1.53,0,.6.6,0,0,0,.46.1c.71-.26,1-.21,1.44.35.12.14.23.3.34.45v-.61c0-.08-.12-.14-.13-.22C99.9,31.48,99.2,31.26,98.65,30.9Z"/><path class="cls-1" d="M100.18,35.74h0V34.32h0v1.42Z"/><path class="cls-1" d="M100.17,28.61v.14h0Z"/><path class="cls-1" d="M72.08,63.64a1,1,0,0,0-1.09.42,1.48,1.48,0,0,0-.2.37H72.1A7.18,7.18,0,0,0,72.08,63.64Z"/><path class="cls-1" d="M56.08,55.34a1,1,0,0,0-.78.28v.82l2,.07C57.08,55.83,56.67,55.37,56.08,55.34Z"/><path class="cls-1" d="M96.76,62.66a6,6,0,0,1,.59.72,5,5,0,0,1,.32.79l-.14.07c-.46-1.44-1.65-1.32-3-1.31a5.8,5.8,0,0,1,1.63,1.5h2.36a.78.78,0,0,0,0-.16A1.55,1.55,0,0,0,96.76,62.66Z"/><path class="cls-1" d="M98.44,55.24A8.93,8.93,0,0,0,97,54.61a5.4,5.4,0,0,0-1.23,0c.34.39.57.62.76.88a2.38,2.38,0,0,1,.54,2.2,25.31,25.31,0,0,1-1,2.67,1.68,1.68,0,0,1-1.69,1l-1.1,0A2.13,2.13,0,0,0,96,62.45a7.7,7.7,0,0,1,1-.22c.77-.15,1-.39,1.12-1.16a2.81,2.81,0,0,0-.57-2.1c1.11-.17,1.47-.59,1.46-1.66,0-.29-.15-.63,0-.84C99.3,55.81,98.94,55.5,98.44,55.24Z"/><path class="cls-1" d="M84.87,58.3A.87.87,0,0,0,83.74,58a1.17,1.17,0,0,0-.57,1.51C83.49,58.75,84.23,58.59,84.87,58.3Z"/><path class="cls-1" d="M86.16,63.54a1.2,1.2,0,0,1-.79.73,3.73,3.73,0,0,0-.35.16H86.9l.38-.34A.9.9,0,0,0,87.5,63a5.36,5.36,0,0,1-.26-.89,1,1,0,0,0-.67-.74h0C87,62.26,86.46,62.86,86.16,63.54Z"/><path class="cls-1" d="M100,32l.21.2V32Z"/><path class="cls-1" d="M82.64,60.43c.4-.07.79-.15,1.19-.19A1,1,0,0,1,85,60.8a.48.48,0,0,0,.31.23c.62,0,.8.18,1,.76,0,.19.08.37.12.56h.13c0-.19,0-.37.06-.56s0-.15,0-.22a.76.76,0,0,0,0-.21h0c0-.53-.35-.9-.61-1.31a.91.91,0,0,0-1.12-.34,5.38,5.38,0,0,0-.51.2C83.75,59.38,83.07,59.58,82.64,60.43Z"/><path class="cls-1" d="M94.86,45a.48.48,0,0,0,.33.07l-.52-.42C94.6,44.85,94.74,45,94.86,45Z"/><path class="cls-1" d="M98.12,43.17a.67.67,0,0,0-.85-.23.89.89,0,0,0-.43,1.15C97.08,43.51,97.64,43.39,98.12,43.17Z"/><path class="cls-1" d="M95.32,42.41l1.31,1.25c-.09-.48-.11-.93-.49-1.22C95.92,42.26,95.66,42.29,95.32,42.41Z"/><path class="cls-1" d="M94.24,37.46A1.34,1.34,0,0,0,94.1,39c.35-.26.71-.51,1.05-.79a.57.57,0,0,0,.2-.35,5.45,5.45,0,0,0,0-.8A1,1,0,0,0,94.24,37.46Z"/><path class="cls-1" d="M96.19,43.57c-.3-.12-.5,0-.73.29l1.08.41A.65.65,0,0,0,96.19,43.57Z"/><path class="cls-1" d="M95.23,47.59a4.15,4.15,0,0,0,.2-.47.63.63,0,0,0-.73,0,.82.82,0,0,0-.48.83c.26-.06.54-.1.8-.17A.36.36,0,0,0,95.23,47.59Z"/><path class="cls-1" d="M95.92,48.51a3.63,3.63,0,0,1,.45.1,1,1,0,0,0,1.33-.56l-.53,0a.79.79,0,0,1-.8-.46,11.42,11.42,0,0,1-.48-1.27,1.13,1.13,0,0,1,.25-1.05c.09-.12.2-.23.36-.42a2.61,2.61,0,0,0-.58,0,3.88,3.88,0,0,0-.7.3c-.23.12-.4.26-.24.58,0,.1,0,.26,0,.4,0,.51.17.71.7.79a1.29,1.29,0,0,0-.27,1C95.44,48.32,95.55,48.43,95.92,48.51Z"/><path class="cls-1" d="M93.48,42.93a1.38,1.38,0,0,0,0,1.11,2,2,0,0,0,.44.3.63.63,0,0,0,.44-.09.94.94,0,0,0,.14-.87,1.06,1.06,0,0,0-.84-.57A.3.3,0,0,0,93.48,42.93Z"/><path class="cls-1" d="M97.06,48.84c-.62,0-1.18-.06-1.4.62l-.07,0a2,2,0,0,1,.15-.37c.08-.12.18-.22.28-.35a.74.74,0,0,0-.87.77,1.22,1.22,0,0,0,.65,1,2.34,2.34,0,0,1,.36-.68A2.26,2.26,0,0,1,97.06,48.84Z"/><path class="cls-1" d="M94.91,43.18a2.4,2.4,0,0,0-.38,1.46A7.28,7.28,0,0,0,95,44C95.24,43.74,95,43.5,94.91,43.18Z"/><path class="cls-1" d="M98.94,45.72a.85.85,0,0,0-1.06,0c.4.35,1,.56,1,1.23A.91.91,0,0,0,98.94,45.72Z"/><path class="cls-1" d="M93.06,34.73a2.44,2.44,0,0,0-1.38,2.62C92.62,37.26,93.31,36,93.06,34.73Z"/><path class="cls-1" d="M92.55,34.82a1.43,1.43,0,0,0-1.92,0,2.47,2.47,0,0,0-.65,1.7c0,.39.18.53.58.51.58,0,.7-.19.89-.72a5.7,5.7,0,0,1,.69-1.13A3.17,3.17,0,0,1,92.55,34.82Z"/><path class="cls-1" d="M95.68,53.31,98,52.45c-.49-.51-.92-.85-1.54-.6A1.33,1.33,0,0,0,95.68,53.31Z"/><path class="cls-1" d="M96.51,49.46a2,2,0,0,0-.35.36,1.53,1.53,0,0,0-.13.79,1.2,1.2,0,0,1-.23-.11A12.59,12.59,0,0,0,95.47,52l2.77-2.63A1.7,1.7,0,0,0,96.51,49.46Z"/><path class="cls-1" d="M97.37,44.81a1.34,1.34,0,0,0-1.32,1.39.61.61,0,0,0,.42.58c0-1.17.74-1.32,1.61-1.32A.7.7,0,0,0,97.37,44.81Z"/><path class="cls-1" d="M97.52,47.86a6.83,6.83,0,0,0,1.1-.51.21.21,0,0,0,.1-.2S98.6,47,98.53,47l-2.15-.2A1,1,0,0,0,97.52,47.86Z"/><path class="cls-1" d="M97.06,46.67c.29.06.57.11.85.18s.35,0,.31-.27a2,2,0,0,0-.08-.3.65.65,0,0,0-.62-.38.77.77,0,0,0-.62.48C96.83,46.53,96.89,46.64,97.06,46.67Z"/><path class="cls-1" d="M96.5,40.61a1.91,1.91,0,0,0,2,1,2.84,2.84,0,0,1,.3-3.23c-.9.41-1.75.7-1.61,1.83H97.1a2.77,2.77,0,0,1,0-.64,4.82,4.82,0,0,1,.17-.68A1.17,1.17,0,0,0,96.5,40.61Z"/><path class="cls-1" d="M99,44.5a.69.69,0,0,0-.85-.26c-.13,0-.25.1-.38.15-.44-.4-1-.25-1.28.39l.9-.15a.8.8,0,0,1,.87.43.33.33,0,0,0,.23.17c.47,0,.61.14.73.58,0,.14.06.28.09.42h.1c0-.14,0-.28,0-.43s0-.11,0-.16C99.52,45.16,99.17,44.85,99,44.5Z"/><path class="cls-1" d="M99.43,37.35a1.2,1.2,0,0,0,.41-.06,3.65,3.65,0,0,0,.34-.18V35.74l-.05.06A1.75,1.75,0,0,0,99.43,37.35Z"/><path class="cls-1" d="M57.46,43.53q.33.09.66.21a.78.78,0,0,0,1.09-.3,1.94,1.94,0,0,0,.4-1.48c.74.3,1.11.17,1.49-.48.1-.18.13-.44.27-.53.45-.27.34-.59.14-.92a6.1,6.1,0,0,0-.67-.91,4,4,0,0,0-.73-.46c.06.36.11.59.14.81A1.65,1.65,0,0,1,59.79,41a17.45,17.45,0,0,1-1.58,1.26,1.19,1.19,0,0,1-1.37,0l-.65-.42A1.49,1.49,0,0,0,57.46,43.53Z"/><path class="cls-1" d="M59.7,53.2a1.41,1.41,0,0,0-1.87.14,1.88,1.88,0,0,0-.09,2.6C57.83,54.6,58.88,54,59.7,53.2Z"/><path class="cls-1" d="M57,39.23a3.33,3.33,0,0,0-.33.33c-.23.29-.15.47.2.58s.81.26,1.21.4.41,0,.44-.25A1.15,1.15,0,0,0,58,39.21,1,1,0,0,0,57,39.23Z"/><path class="cls-1" d="M56.57,41.71a1.39,1.39,0,0,0,2.22-.46c-1-.46-1.94-.92-2.9-1.36a.4.4,0,0,0-.34,0,.36.36,0,0,0,0,.32A9.75,9.75,0,0,0,56.57,41.71Z"/><path class="cls-1" d="M57.73,38.68a1.24,1.24,0,0,0-1.38-.76,1.34,1.34,0,0,0-.8,1.58C56.07,38.65,57,38.81,57.73,38.68Z"/><path class="cls-1" d="M58.37,45.56a1.09,1.09,0,0,0-.54-1.63,4,4,0,0,1,.1.65,3.13,3.13,0,0,1-.09.59h-.1c.23-1-.53-1.39-1.33-1.85a2.65,2.65,0,0,1,0,3A1.8,1.8,0,0,0,58.37,45.56Z"/><path class="cls-1" d="M64.05,24.09c-.11.43,0,.68.48.89l.09-.25.11-.26L65,25.53l.2,0a4.71,4.71,0,0,0,.31-.69c.18-.69.32-1.39.49-2.11A1.94,1.94,0,0,0,64.05,24.09Z"/><path class="cls-1" d="M65.42,32.48a6.15,6.15,0,0,1-.51-1c0-.1-.21-.15-.32-.22,0,.11-.13.26-.09.33a5.33,5.33,0,0,0,3.18,2.7c.37.09.58,0,.67-.41A3.33,3.33,0,0,1,65.42,32.48Z"/><path class="cls-1" d="M62.48,25.11c-.15.13-.28.29-.43.45-.87-.28-1.48.26-1.52,1.35.38-.26.76-.53,1.15-.78a1.22,1.22,0,0,1,1.47,0,.55.55,0,0,0,.44.1c.67-.25.92-.21,1.38.33.14.17.26.35.39.52l.14,0c-.07-.21-.13-.42-.21-.63s-.11-.13-.13-.21c-.13-.76-.81-1-1.34-1.32A1.07,1.07,0,0,0,62.48,25.11Z"/><path class="cls-1" d="M66.15,26.45A1.14,1.14,0,0,0,65.09,26c.89.72.62,1.62.63,2.48a1.44,1.44,0,0,1-.47,1.14,1.67,1.67,0,0,0-.67,1.5,1.37,1.37,0,0,0,.39-.06c.44-.22.88-.46,1.31-.7a.57.57,0,0,0,.21-.25c.23-.54.45-1.07.67-1.61a1,1,0,0,0-.3-1.24A9,9,0,0,1,66.15,26.45Z"/><path class="cls-1" d="M57.13,31.11c.91-.1,1.57-1.33,1.33-2.52A2.38,2.38,0,0,0,57.13,31.11Z"/><path class="cls-1" d="M61.75,51.49a2.71,2.71,0,0,1,.41-.09c.34-.07.44-.17.5-.51a1.23,1.23,0,0,0-.25-.92c.48-.07.64-.26.64-.73,0-.12-.07-.27,0-.36.15-.29,0-.43-.22-.54a3.75,3.75,0,0,0-.65-.28,2.24,2.24,0,0,0-.53,0c.15.17.25.27.33.38a1.08,1.08,0,0,1,.24,1,11.78,11.78,0,0,1-.45,1.17A.74.74,0,0,1,61,51l-.48,0A.92.92,0,0,0,61.75,51.49Z"/><path class="cls-1" d="M62.06,53.34a1.12,1.12,0,0,0,.81-1.05.67.67,0,0,0-.8-.7,3.56,3.56,0,0,1,.26.31,3.65,3.65,0,0,1,.14.35l-.06,0c-.21-.63-.72-.58-1.3-.57A1.64,1.64,0,0,1,62.06,53.34Z"/><path class="cls-1" d="M60.53,51.29a1,1,0,0,0-.75-.65.82.82,0,0,1-.54-.5c-.22-.48-.59-.9-.29-1.52a.71.71,0,0,0-.47.52,4.4,4.4,0,0,1-.18.62.61.61,0,0,0,.15.75c.25.25.51.48.78.72a.27.27,0,0,0,.17.08c.3,0,.6,0,.9,0A.88.88,0,0,0,60.53,51.29Z"/><path class="cls-1" d="M63.25,55.52c.06-.12.11-.24.17-.35l.18-.34c.07.53.13,1,.2,1.52l.26.07a6.14,6.14,0,0,0,.54-.92c.35-.93.66-1.88,1-2.85a2.69,2.69,0,0,0-2.87,1.56C62.5,54.78,62.64,55.15,63.25,55.52Z"/><path class="cls-1" d="M58.23,52.24l1.07.15c.57.08.89-.21.87-.85l-1.09.14.38-.22A.88.88,0,0,0,58.23,52.24Z"/><path class="cls-1" d="M55.84,37.49c0,.07-.11.12-.15.19l-.26.59.14.06c.14-.16.27-.33.42-.47.49-.48.74-.5,1.37-.2a.5.5,0,0,0,.43,0,1.17,1.17,0,0,1,1.43.11c.36.27.69.57,1,.86.07-1.06-.48-1.64-1.35-1.46-.12-.16-.24-.32-.37-.47a1,1,0,0,0-1.28-.32C56.71,36.63,56,36.77,55.84,37.49Z"/><path class="cls-1" d="M60.51,23.84a1.34,1.34,0,0,0,.13,1.86c0-.95.66-1.48,1.18-2.1A1,1,0,0,0,60.51,23.84Z"/><path class="cls-1" d="M63.77,38.26a1.38,1.38,0,0,0-.47,1.22.87.87,0,0,0,.5.44,2.63,2.63,0,0,0,.78-.05,2,2,0,0,0,.84-1.41.42.42,0,0,0-.15-.3A1.56,1.56,0,0,0,63.77,38.26Z"/><path class="cls-1" d="M59.69,40.71a2,2,0,0,0-.64-2.77,1,1,0,0,0-1.4.28c1.11.67,2,1.44,1.06,2.91A1,1,0,0,0,59.69,40.71Z"/><path class="cls-1" d="M58.5,28.26a.8.8,0,0,0,.5-.11l-1-.26C58,28.19,58.28,28.23,58.5,28.26Z"/><path class="cls-1" d="M58.62,23.86c-.42-.1-.77.12-1.16.5l2.62.88C59.65,24.63,59.33,24,58.62,23.86Z"/><path class="cls-1" d="M76,63.47l-.75.37a1.23,1.23,0,0,1-1.46-.13,18.3,18.3,0,0,1-1.55-1.5,1.81,1.81,0,0,1-.33-1.68c.05-.24.13-.47.24-.85a4.57,4.57,0,0,0-.83.41,6.34,6.34,0,0,0-.81.9c-.25.33-.4.66,0,1,.14.11.15.39.24.59.33.73.71.91,1.53.67a2.13,2.13,0,0,0,.07,1.18h3.3A2.31,2.31,0,0,0,76,63.47Z"/><path class="cls-1" d="M99.6,54.15l-1.08.9a1.19,1.19,0,0,0,.69-.15C99.47,54.74,99.76,54.54,99.6,54.15Z"/><path class="cls-1" d="M76.54,64.36c-.06-.1-.22-.15-.34-.22a.91.91,0,0,0-.08.29h.45Z"/><path class="cls-1" d="M92.42,62.55l-2.48.32.86-.49A2,2,0,0,0,88,64.16l2,.27h1.37C92.09,64.23,92.45,63.6,92.42,62.55Z"/><path class="cls-1" d="M100.09,55.36a2.33,2.33,0,0,0-.64-.07,3.41,3.41,0,0,0,.64,1.31Z"/><path class="cls-1" d="M100.1,59.42v.24h0Z"/><path class="cls-1" d="M59.41,25.4c-.48,0-.66.38-.83.87l1.76-.13A1,1,0,0,0,59.41,25.4Z"/><path class="cls-1" d="M56,27.78a2.51,2.51,0,0,0,.79.13.87.87,0,0,0,.56-.4A1.43,1.43,0,0,0,57,26.22,1.61,1.61,0,0,0,55.44,26a.51.51,0,0,0-.14.18v.54A2.29,2.29,0,0,0,56,27.78Z"/><path class="cls-1" d="M99.55,59.22a1.34,1.34,0,0,0-1.54.1,8,8,0,0,0,.42,1,.75.75,0,0,0,.44.31c.41.11.82.19,1.24.27,0-.41,0-.81,0-1.22A1.84,1.84,0,0,0,99.55,59.22Z"/><path class="cls-1" d="M56.14,28.72a2.37,2.37,0,0,0-.63,1.63c0,.38.17.52.55.49.56,0,.68-.18.86-.69a5.49,5.49,0,0,1,.66-1.08,3,3,0,0,1,.4-.4A1.37,1.37,0,0,0,56.14,28.72Z"/><path class="cls-1" d="M55.65,36.14a4.45,4.45,0,0,0,.24.7h.19l.35-1c0,.09,0,.17.07.25a2,2,0,0,0,.07.26c.47-.16.61-.39.55-.81a1.89,1.89,0,0,0-1.74-1.48C55.47,34.77,55.54,35.46,55.65,36.14Z"/><path class="cls-1" d="M57.8,27.94a10.84,10.84,0,0,0,.31-1.18c.09-.52-.35-.72-.72-1.08A3.63,3.63,0,0,0,57.8,27.94Z"/><path class="cls-1" d="M57.64,47.07c.27.35.53.7.8,1a3.27,3.27,0,0,0,.35.3l.1-.06-.13-.65.12.11.12.12c.2-.23.21-.4,0-.61A1.17,1.17,0,0,0,57.64,47.07Z"/><path class="cls-1" d="M55.3,53.12v1.29l1.74.81C56.54,54.34,56.19,53.48,55.3,53.12Z"/><path class="cls-1" d="M55.3,38a1.58,1.58,0,0,1,.63-.75,1.38,1.38,0,0,0-.63.05Z"/><path class="cls-1" d="M62.19,63.33c-.4.16-.72.29-1,.4a1.71,1.71,0,0,1-1.94-.38,24.47,24.47,0,0,1-1.84-2.23,2.4,2.4,0,0,1-.21-2.28c.11-.31.24-.61.44-1.09a5.42,5.42,0,0,0-1.16.42,7.85,7.85,0,0,0-1.14,1V61a3.26,3.26,0,0,0,.09.45c.34,1,.82,1.31,1.94,1.12a2.81,2.81,0,0,0,0,1.9h4.39A3.32,3.32,0,0,0,62.19,63.33Z"/><path class="cls-1" d="M56.9,64.09A7.27,7.27,0,0,0,57,63a1.35,1.35,0,0,0-1.51.4,2.07,2.07,0,0,0-.17.24v.77h1.38A.71.71,0,0,0,56.9,64.09Z"/><path class="cls-1" d="M55.94,42.26a1.61,1.61,0,0,0-.51-1.5l-.13-.18V42l.27.17A1,1,0,0,0,55.94,42.26Z"/><path class="cls-1" d="M63.76,60.25a1.92,1.92,0,0,0-.66-2.46,1.82,1.82,0,0,0-2.17.67C62,58.87,63.27,58.91,63.76,60.25Z"/><path class="cls-1" d="M63.89,57c-.23-.81-1-1.18-1.61-1.68a1.5,1.5,0,0,0-1.89.07c-.23.17-.44.37-.66.56-1.18-.5-2.11.15-2.32,1.66.57-.31,1.13-.63,1.71-.91a1.68,1.68,0,0,1,2,.26.75.75,0,0,0,.6.19c1-.24,1.31-.14,1.86.67.17.25.31.52.46.79l.21-.05c-.06-.3-.12-.6-.2-.9,0-.11-.13-.2-.14-.31a1.86,1.86,0,0,0-.06-.34h0Z"/><path class="cls-1" d="M63,64c.65-.24,1.3-.5,1.93-.77a.78.78,0,0,0,.32-.33q.6-1,1.17-2.13A1.43,1.43,0,0,0,66.15,59a10.67,10.67,0,0,1-.86-1.22,1.64,1.64,0,0,0-1.4-.8h0c1.11,1.13.61,2.34.49,3.53a2,2,0,0,1-.82,1.52,2.32,2.32,0,0,0-1.15,2A1.71,1.71,0,0,0,63,64Z"/><path class="cls-1" d="M60.35,59.12a1.61,1.61,0,0,0-.92,1.39c0,.35.16.53.54.47.6-.08,1.21-.15,1.81-.2s.7-.28.46-.76a4.76,4.76,0,0,0-.37-.57A1.39,1.39,0,0,0,60.35,59.12Z"/><path class="cls-1" d="M59.3,57a2.85,2.85,0,0,0-1.7,3.71,1.33,1.33,0,0,0,1.24.88c-.85-2.34.59-3.17,2.34-3.78A1.48,1.48,0,0,0,59.3,57Z"/><path class="cls-1" d="M61.69,63.06a13.07,13.07,0,0,0,1.87-1.78.47.47,0,0,0,.08-.46.52.52,0,0,0-.46-.11c-1.48.33-3,.69-4.48,1.06A2,2,0,0,0,61.69,63.06Z"/><path class="cls-1" d="M64,30.48a10.15,10.15,0,0,0,1.2-1.41.38.38,0,0,0,0-.34.39.39,0,0,0-.34,0c-1,.35-2.05.72-3.11,1.09A1.44,1.44,0,0,0,64,30.48Z"/><path class="cls-1" d="M61.83,26.36a2.06,2.06,0,0,0-.93,2.78,1,1,0,0,0,1,.53c-.79-1.61.17-2.31,1.37-2.88A1.06,1.06,0,0,0,61.83,26.36Z"/><path class="cls-1" d="M59.11,28.25c-.25.32-.39.64,0,1,.14.1.14.37.23.56.32.7.69.87,1.47.65A2,2,0,0,0,61.11,32a.82.82,0,0,0,1.09.42,5.67,5.67,0,0,1,.69-.15c.94-.14,1.36-.58,1.48-1.62-.28.14-.49.26-.72.36a1.19,1.19,0,0,1-1.4-.12,17,17,0,0,1-1.49-1.45,1.74,1.74,0,0,1-.32-1.61c.06-.23.13-.45.24-.81a4.27,4.27,0,0,0-.8.39A5.71,5.71,0,0,0,59.11,28.25Z"/><path class="cls-1" d="M62.61,29.13c.42-.11.85-.21,1.28-.29s.47-.25.26-.57a2.89,2.89,0,0,0-.31-.38,1,1,0,0,0-1.1-.12,1.16,1.16,0,0,0-.55,1.06C62.19,29.09,62.34,29.19,62.61,29.13Z"/><path class="cls-1" d="M64.6,26.61a1.32,1.32,0,0,0-1.5.64c.79.22,1.7.15,2.15,1.06A1.38,1.38,0,0,0,64.6,26.61Z"/><path class="cls-1" d="M69.34,60.61c0,.31.29.36.51.39a.93.93,0,0,0,.52-.12Z"/><path class="cls-1" d="M69.31,61.43a1.42,1.42,0,0,0-1.92,0,2.38,2.38,0,0,0-.65,1.69c0,.4.17.54.57.52.58,0,.7-.2.9-.72a5.22,5.22,0,0,1,.68-1.13A2.74,2.74,0,0,1,69.31,61.43Z"/><path class="cls-1" d="M70.8,58c-.5,0-.69.39-.86.9l1.82-.13A1,1,0,0,0,70.8,58Z"/><path class="cls-1" d="M74,57.71c-.16.14-.31.31-.46.47-.91-.29-1.54.27-1.59,1.41.41-.28.8-.56,1.2-.81a1.26,1.26,0,0,1,1.54,0,.59.59,0,0,0,.46.1c.7-.26,1-.21,1.43.34.15.18.27.37.41.55l.15,0c-.07-.22-.14-.44-.22-.65s-.12-.14-.13-.22c-.14-.79-.85-1-1.4-1.37A1.09,1.09,0,0,0,74,57.71Z"/><path class="cls-1" d="M71.94,56.39a1.41,1.41,0,0,0,.14,1.94c0-1,.69-1.54,1.23-2.19A1,1,0,0,0,71.94,56.39Z"/><path class="cls-1" d="M69.81,61.34A2.47,2.47,0,0,0,68.43,64C69.37,63.86,70.06,62.58,69.81,61.34Z"/><path class="cls-1" d="M66.66,58.6a.51.51,0,0,0-.19.3,2.12,2.12,0,0,0,.76,1.59,2.4,2.4,0,0,0,.82.14.88.88,0,0,0,.58-.42,1.47,1.47,0,0,0-.38-1.34A1.69,1.69,0,0,0,66.66,58.6Z"/><path class="cls-1" d="M69.12,60.66a11.84,11.84,0,0,0,.33-1.23c.09-.54-.37-.75-.75-1.13A3.78,3.78,0,0,0,69.12,60.66Z"/><path class="cls-1" d="M70,56.41c-.43-.1-.79.12-1.2.52l2.73.92C71.05,57.21,70.72,56.58,70,56.41Z"/><path class="cls-1" d="M59.78,42.35a6.77,6.77,0,0,0-.09.74.56.56,0,0,0,.15.34c.29.29.6.56.9.83a1.25,1.25,0,0,0,0-1.42A.93.93,0,0,0,59.78,42.35Z"/><path class="cls-1" d="M62.62,50.12a3.48,3.48,0,0,0,.18.43.38.38,0,0,0,.19.14l.74.16a.77.77,0,0,0-.44-.77A.59.59,0,0,0,62.62,50.12Z"/><path class="cls-1" d="M62.61,38.68c0,.38.12.77.19,1.16a3.46,3.46,0,0,0,.61-2.14C63,38,62.58,38.17,62.61,38.68Z"/><path class="cls-1" d="M62.6,39.78l-1,.16a.8.8,0,0,0,.47.15C62.31,40.09,62.56,40.07,62.6,39.78Z"/><path class="cls-1" d="M62.72,45.78a.75.75,0,0,0-.76,0c-.35.27-.37.69-.45,1.13Z"/><path class="cls-1" d="M64.79,42.4a2.3,2.3,0,0,0-.45-1.64,1.34,1.34,0,0,0-1.78-.22,2.6,2.6,0,0,1,.35.42,5.37,5.37,0,0,1,.53,1.11c.13.51.23.67.76.75C64.58,42.88,64.76,42.77,64.79,42.4Z"/><path class="cls-1" d="M62.1,40.42c-.35,1.12.18,2.38,1,2.55A2.27,2.27,0,0,0,62.1,40.42Z"/><path class="cls-1" d="M60,49.63c0,.23.07.3.3.24l.77-.16c.16,0,.22-.13.16-.27a.7.7,0,0,0-.58-.44c-.24,0-.41.1-.57.34A1.85,1.85,0,0,0,60,49.63Z"/><path class="cls-1" d="M60.69,50.8a.87.87,0,0,0,1.05-.95l-2,.19a.26.26,0,0,0-.18.11.24.24,0,0,0,.1.18A5.77,5.77,0,0,0,60.69,50.8Z"/><path class="cls-1" d="M62.05,49.28A1.25,1.25,0,0,0,60.83,48a.66.66,0,0,0-.66.6c.81,0,1.51.14,1.49,1.22A.58.58,0,0,0,62.05,49.28Z"/><path class="cls-1" d="M59.38,48.83a.84.84,0,0,0,.07,1.1c0-.61.54-.81.91-1.12A.78.78,0,0,0,59.38,48.83Z"/><path class="cls-1" d="M61.6,47.49l1-.37c-.21-.23-.4-.38-.67-.27A.58.58,0,0,0,61.6,47.49Z"/><path class="cls-1" d="M59.37,47.7c-.2.33-.52.62-.4,1.07,0,0,0,.1,0,.15s0,.26,0,.39h.09c0-.13,0-.26.08-.39.11-.4.24-.49.67-.53a.36.36,0,0,0,.22-.16.71.71,0,0,1,.8-.39c.28,0,.55.09.83.13-.3-.59-.77-.73-1.18-.35l-.36-.14A.64.64,0,0,0,59.37,47.7Z"/><path class="cls-1" d="M60.57,35.62a1,1,0,0,0-1.25-.35c.45.64,1.07,1.22,1,2.14A1.31,1.31,0,0,0,60.57,35.62Z"/><path class="cls-1" d="M60.13,46.48c.45.2,1,.31,1.19.85a.82.82,0,0,0-.4-1.06A.61.61,0,0,0,60.13,46.48Z"/><path class="cls-1" d="M60.66,31.57a6.83,6.83,0,0,0,0-.77,1,1,0,0,0-1,.41,1.3,1.3,0,0,0-.13,1.45c.34-.24.68-.49,1-.75A.58.58,0,0,0,60.66,31.57Z"/><path class="cls-1" d="M60.85,37l2.62-.61c-.34-.4-.66-.64-1.07-.59C61.69,35.91,61.33,36.47,60.85,37Z"/><path class="cls-1" d="M61.48,37.24a.94.94,0,0,0-1,.63l1.68.29C62.09,37.67,62,37.31,61.48,37.24Z"/><path class="cls-1" d="M61.76,34.23a1.85,1.85,0,0,0,2,1,2.72,2.72,0,0,1,.28-3.1c-.86.39-1.68.67-1.54,1.76h-.12a4.15,4.15,0,0,1,0-.61,3.48,3.48,0,0,1,.17-.65A1.12,1.12,0,0,0,61.76,34.23Z"/><path class="cls-1" d="M53.61,103.38c-2.82-.21-5.61-.36-8.35-.45V97.6h2.4l-3-2.36-3-2.35-3,2.35-3,2.36H38v5.24c-4.41,0-8.59.23-12.43.61l-1.73.17,1.2,1.26.95,1c6.9,7,15.77,13.42,27.12,19.56l1.26.68V103.44ZM41.64,94l3.56,2.78h-.79v5.61H38.88V96.75h-.79Zm11.91,11.3v19.41c-11.27-6.1-20-12.37-26.92-19.41-.32-.32-.63-.65-.94-1a161.93,161.93,0,0,1,27.86-.07Z"/><path class="cls-1" d="M24.94,73.62l-.26-1.46-1,1.1-1.46-.2L23,74.34l-.64,1.34,1.45-.31,1.07,1L25,74.93l1.3-.71Zm-.48.95-.07.62-.46-.43-.61.13.27-.57-.31-.55.62.09.42-.47.12.62.57.26Z"/><path class="cls-1" d="M26.44,85.18,25,85.43l-1-1.06-.21,1.46-1.33.65,1.32.66.21,1.47,1-1.06,1.46.25-.69-1.31Zm-1,1.87-.62-.11-.44.45-.09-.62-.56-.28.56-.28.1-.62.43.45.62-.11-.29.56Z"/><path class="cls-1" d="M32.45,79l-1.48,0-.79-1.25-.51,1.39-1.43.37,1.17.92-.09,1.47L30.54,81l1.38.55-.41-1.43ZM31.06,80.6l-.59-.23-.52.35,0-.63-.49-.39.6-.15.22-.59.34.53.63,0-.4.48Z"/><path class="cls-1" d="M20.42,79.19H18.94L18.1,78l-.46,1.41-1.42.42,1.2.87,0,1.48,1.19-.87,1.4.5-.46-1.41Zm-1.34,1.67-.6-.21L18,81l0-.63L17.48,80l.61-.18.19-.6.36.52h.63l-.39.5Z"/><path class="cls-1" d="M50.75,76.58A8.35,8.35,0,0,0,42.92,73a6.49,6.49,0,1,1-7,10.92A9,9,0,0,0,37,86.09a8.37,8.37,0,0,0,13.78-9.51ZM48.13,87.52a7.46,7.46,0,0,1-4.26,1.33h0a7.54,7.54,0,0,1-6.14-3.16,7.7,7.7,0,0,0,1.86.23,7.25,7.25,0,0,0,4.15-1.29,7.35,7.35,0,0,0,1.88-10.22c-.11-.16-.23-.31-.35-.46a7.51,7.51,0,0,1,2.86,13.57Z"/><path d="M86.19,74.82l.87-.26v0l-.59-.24A2.68,2.68,0,0,1,86.6,74s.1,0,.15,0l.91.37a.45.45,0,0,0,.2,0l.57-.18-.93-.4.16-.38.57.23.79.33s.06,0,.09,0l1-.31-.21-.2L89.41,73a.42.42,0,0,0-.18-.08c-.44,0-.87-.06-1.3-.07-.11,0-.13,0-.12-.14,0-.34,0-.3.32-.28l.67,0c-.23-.18-.35-.49-.72-.49s-.59,0-.89-.06c-.07,0-.1,0-.09-.11a.75.75,0,0,0,0-.21c0-.1,0-.11.12-.1a5,5,0,0,0,.55,0l-.66-.62.35-.38.66.62h0l-.09-.65.35,0s.07,0,.08.08c0,.32.1.65.14,1a.35.35,0,0,0,.12.25,5.19,5.19,0,0,0,.42.35l-.12-1,.34-.05c.07,0,.08,0,.09.08,0,.45.1.9.16,1.35a.47.47,0,0,0,.12.2l.65.59.06,0,0-.17a3.65,3.65,0,0,1,.13-.55.77.77,0,0,0-.1-.69c-.17-.31-.32-.62-.47-.93a.46.46,0,0,1,0-.09l.37-.18.43.86h0a3,3,0,0,1,.08-.32.71.71,0,0,0-.07-.65c-.14-.25-.25-.52-.38-.79l.38-.18.29.61a.58.58,0,0,0,0-.13c.06-.23.11-.45.16-.68s.06-.11.14-.08l.25,0c.11,0,.14.06.11.17s-.12.5-.19.79l.19-.14.28-.22s.09-.05.13,0l.21.26-.31.25c-.19.15-.38.29-.57.45a.39.39,0,0,0-.11.17,3.27,3.27,0,0,0-.11.56L92.2,71l.25.34-.56.43c-.2.15-.4.29-.59.45a.18.18,0,0,0-.08.09c-.08.33-.15.66-.24,1l.11,0,.84-.25A.46.46,0,0,0,92.1,73c.24-.35.47-.7.7-1.06.06-.1.11-.11.2,0l.23.15-.55.85.41-.12a.64.64,0,0,0,.43-.31c.14-.24.31-.47.47-.7,0-.07.08-.08.14,0l.26.19-.36.53v0l.88-.26.15.48-.87.27v0l.59.25-.15.39L94,73.34a1.21,1.21,0,0,1-.2-.09.62.62,0,0,0-.56,0c-.11,0-.23.07-.36.14l.9.38-.15.34s-.07,0-.1,0l-1.22-.52a.23.23,0,0,0-.16,0l-1,.29.29.28c.13.12.27.24.39.37a.42.42,0,0,0,.28.12l1.23.07h.14c0,.12,0,.22,0,.33s0,.09-.11.09l-.9-.06c.09.09.16.15.22.22a.78.78,0,0,0,.71.3c.22,0,.45,0,.67,0s.14,0,.12.14a1.42,1.42,0,0,0,0,.3l-.64,0,0,0,.66.63-.34.37-.67-.62h0l.09.64-.42.06c0-.19-.05-.38-.08-.56a4.46,4.46,0,0,1-.07-.51.38.38,0,0,0-.13-.25,4.94,4.94,0,0,0-.41-.34l.12,1-.42.06-.09-.76c0-.22-.05-.44-.08-.67a.26.26,0,0,0,0-.12l-.76-.72,0,.1c-.07.29-.14.58-.2.87a.36.36,0,0,0,0,.18l.64,1.28-.37.2L90.38,76c-.06.25-.11.45-.15.66,0,0,0,.09,0,.14l.47,1-.38.19-.28-.58h0l-.14.6c-.07.28-.07.28-.36.22s-.21,0-.16-.26.11-.45.16-.67l0,0-.51.39-.26-.33c.22-.17.43-.36.65-.5a.84.84,0,0,0,.41-.64,2.44,2.44,0,0,1,.06-.26l0,0-.78.58-.25-.33.67-.51.47-.35s.07-.06.08-.1c.09-.34.16-.67.24-1l-.11,0-.81.24a.47.47,0,0,0-.19.15c-.25.36-.49.73-.73,1.09l-.05.07L88,75.48l.53-.81v0l-.62.2s-.07.07-.1.11l-.62.9-.29-.2c-.06,0,0-.08,0-.12l.32-.48-.13,0-.67.2c-.08,0-.11,0-.14-.07S86.23,75,86.19,74.82Z"/><path d="M61,115.64l.36-1,0,0-.63.38a3.48,3.48,0,0,1-.22-.36s.05-.11.09-.14l1-.58a.44.44,0,0,0,.15-.18c.08-.19.15-.4.24-.64l-1,.57-.25-.41.61-.36.85-.5a.14.14,0,0,0,.08-.07c.14-.37.27-.74.42-1.14l-.33.05c-.27,0-.53.08-.79.14a.33.33,0,0,0-.2.11c-.33.37-.65.75-1,1.14-.08.09-.12.09-.21,0-.29-.26-.31-.16,0-.48s.33-.39.48-.61c-.32.09-.69,0-.94.32a10.1,10.1,0,0,1-.68.77c-.05.07-.09.07-.15,0a1.54,1.54,0,0,0-.19-.17c-.09-.06-.07-.11,0-.17a3.33,3.33,0,0,0,.39-.5L58,112l-.1-.58,1-.18v0l-.65-.37c.07-.13.13-.24.2-.35a.16.16,0,0,1,.12,0c.33.18.67.36,1,.55a.47.47,0,0,0,.31.06c.2,0,.4-.08.61-.14l-1-.57.19-.34c0-.07.08-.06.14,0,.45.26.89.53,1.34.78a.48.48,0,0,0,.27,0c.33,0,.66-.12,1-.18l.07,0-.13-.16A5,5,0,0,1,62,110a.89.89,0,0,0-.71-.39c-.39,0-.78-.14-1.17-.21l-.11,0,.09-.46,1.1.19,0,0a3.5,3.5,0,0,1-.24-.3.85.85,0,0,0-.64-.38c-.33,0-.65-.13-1-.2l.1-.47.76.15-.09-.13-.51-.61c-.07-.08-.07-.13,0-.19l.22-.19c.09-.08.15-.08.23,0s.38.46.6.72v-.27c0-.14,0-.28,0-.41s0-.11.1-.11h.38c0,.16,0,.3,0,.45s0,.56,0,.84a.54.54,0,0,0,.08.21,4,4,0,0,0,.44.49v-1.12h.48v.82c0,.28,0,.57,0,.85a.18.18,0,0,0,0,.13l.76.92a.37.37,0,0,0,.06-.1c.12-.32.24-.63.34-.95a.36.36,0,0,0,0-.25c-.15-.46-.31-.92-.49-1.37,0-.13,0-.19.11-.22a2.11,2.11,0,0,0,.3-.1l.4,1.09c.06-.17.11-.32.17-.45a.71.71,0,0,0,0-.62c-.12-.3-.2-.61-.31-.91,0-.09,0-.13.08-.15l.34-.12.24.71h0l.36-1,.55.2-.36,1,0,0,.64-.37.25.41-.7.42-.22.13a.7.7,0,0,0-.41.5c0,.13-.09.26-.12.41l1-.55a3.47,3.47,0,0,1,.21.37s0,.08,0,.1l-1.32.77a.35.35,0,0,0-.14.13c-.14.36-.27.72-.41,1.11l.45-.07c.21,0,.41-.08.61-.1a.53.53,0,0,0,.31-.17l.91-1.08.11-.12.28.24c.08,0,.07.1,0,.17l-.67.78.35,0a.94.94,0,0,0,.77-.44c.15-.21.34-.39.5-.58s.13-.11.22,0a2.84,2.84,0,0,0,.25.23l-.48.56v0l1-.17.1.57-1,.18v0l.65.37-.23.42-.58-.31-.51-.29a.41.41,0,0,0-.32-.05c-.19,0-.39.07-.59.13l1,.57-.24.42-.76-.44-.67-.38a.19.19,0,0,0-.14,0l-1.19.19a.52.52,0,0,0,.07.11l.65.78a.45.45,0,0,0,.19.11l1.61.3-.08.48-1.15-.21.5.6a.33.33,0,0,0,.15,0l1.25.26-.1.47-.72-.14,0,0,.45.55c.21.25.21.25,0,.47s-.17.18-.35,0l-.5-.61h0V115H65c0-.32,0-.63,0-.94a1,1,0,0,0-.3-.82,2.36,2.36,0,0,1-.2-.23h0v1.12H64c0-.34,0-.65,0-1s0-.45,0-.67a.25.25,0,0,0,0-.15c-.24-.31-.5-.61-.77-.93l-.06.13c-.11.3-.23.6-.33.9a.45.45,0,0,0,0,.28c.16.48.33,1,.5,1.43a.46.46,0,0,1,0,.09l-.46.16-.37-1h0c-.09.23-.18.47-.26.7a.32.32,0,0,0,0,.16l.39,1.19-.37.13c-.08,0-.1,0-.12-.07l-.22-.64a1.14,1.14,0,0,0-.06.15l-.28.75c0,.09-.07.11-.16.07Z"/><path d="M72.42,106.57l.69-.33v0l-.52-.13c0-.1,0-.2.07-.3s.08,0,.12,0l.8.19a.3.3,0,0,0,.16,0l.45-.22-.81-.21.08-.34.5.13.69.17s.06,0,.08,0l.8-.38-.2-.14-.48-.33a.24.24,0,0,0-.16,0l-1.08.1c-.09,0-.12,0-.12-.1,0-.28-.08-.24.23-.27l.56-.07c-.22-.11-.36-.36-.66-.31s-.49,0-.74.06c-.06,0-.08,0-.08-.08a1.09,1.09,0,0,0,0-.18c0-.08,0-.09.08-.1a3.44,3.44,0,0,0,.45,0l-.62-.44.24-.35.62.43h0l-.15-.52.28-.08s.06,0,.07,0c.08.26.17.52.24.79a.27.27,0,0,0,.13.18,2.89,2.89,0,0,0,.39.24l-.22-.78.27-.09c.06,0,.08,0,.09.06.1.36.19.73.3,1.09a.36.36,0,0,0,.13.15c.19.14.4.27.6.4l.05,0,0-.14a2.42,2.42,0,0,1,0-.47.64.64,0,0,0-.18-.56c-.17-.23-.33-.47-.5-.71l0-.07.29-.19.47.65h0c0-.09,0-.18,0-.27a.56.56,0,0,0-.14-.52c-.14-.19-.27-.4-.41-.61l.29-.19.32.46a.65.65,0,0,0,0-.11c0-.19,0-.39,0-.58s0-.1.11-.09l.21,0c.09,0,.12,0,.11.12s0,.43-.06.68l.15-.14.2-.22s.06,0,.11,0a1.84,1.84,0,0,0,.2.19l-.22.25-.42.44a.41.41,0,0,0-.07.15,3.76,3.76,0,0,0,0,.48l.57-.58.25.24-.41.42-.43.45s0,0,0,.08c0,.29-.05.57-.07.87l.08,0c.22-.1.44-.2.66-.32a.27.27,0,0,0,.13-.13c.15-.31.3-.63.44-1,0-.09.08-.1.17,0l.2.1-.35.76c.13,0,.22-.11.32-.14a.51.51,0,0,0,.32-.32c.09-.21.2-.42.3-.63s.06-.07.12,0l.24.12-.23.48v0l.69-.32.18.38-.68.33v0l.52.13-.08.34-.58-.13-.17-.05a.52.52,0,0,0-.47.05c-.08.06-.18.09-.27.16l.79.2c0,.11,0,.21-.08.3s-.06,0-.08,0c-.36-.09-.72-.19-1.08-.27a.19.19,0,0,0-.13,0l-.78.36.27.2.37.25a.3.3,0,0,0,.24.07l1-.1h.12l0,.26c0,.07,0,.09-.09.09l-.74.07a2.07,2.07,0,0,1,.2.15.66.66,0,0,0,.63.16,5.09,5.09,0,0,1,.56,0c.07,0,.12,0,.11.1a1.94,1.94,0,0,0,0,.24l-.53.05v0l.62.43-.24.35-.63-.43h0l.16.52-.34.11c0-.16-.09-.31-.14-.46s-.09-.27-.12-.41a.3.3,0,0,0-.14-.19c-.12-.07-.24-.16-.37-.23l.21.79-.33.1c-.07-.22-.12-.42-.18-.62l-.15-.54a.26.26,0,0,0,0-.09l-.72-.5a.37.37,0,0,0,0,.09c0,.25,0,.49-.05.74a.2.2,0,0,0,0,.15l.68,1-.28.21L76,107c0,.21,0,.39,0,.56a.22.22,0,0,0,0,.11l.52.76-.29.2-.31-.44h0l0,.51c0,.24,0,.24-.27.22s-.18,0-.16-.19,0-.38,0-.58h0l-.37.39-.26-.24c.16-.17.31-.35.47-.5a.67.67,0,0,0,.26-.57,1.62,1.62,0,0,1,0-.22l0,0-.57.58-.25-.25.49-.5.34-.35a.13.13,0,0,0,.06-.09c0-.28.05-.57.07-.87l-.09,0-.64.3a.41.41,0,0,0-.14.15c-.16.33-.31.66-.46,1l0,.06-.31-.14.34-.74,0,0-.49.24s0,.07-.06.1l-.4.82-.26-.12c-.06,0,0-.06,0-.1s.13-.28.21-.44l-.11,0-.52.25c-.07,0-.1,0-.13,0S72.47,106.67,72.42,106.57Z"/><path d="M56.32,99.57l.59-.48v0h-.54c0-.1,0-.2,0-.3s.07-.05.11-.05h.82a.33.33,0,0,0,.16,0l.39-.31-.85,0V98h1.22s.06,0,.07,0l.69-.55-.23-.1c-.18-.07-.35-.14-.54-.2a.29.29,0,0,0-.16,0l-1,.35c-.08,0-.11,0-.14-.06-.08-.28-.13-.22.16-.32s.35-.12.53-.2c-.23-.06-.43-.26-.71-.15a6.35,6.35,0,0,1-.7.23c-.06,0-.09,0-.11,0a.48.48,0,0,0,0-.17c0-.07,0-.1.06-.12a2.41,2.41,0,0,0,.42-.16l-.7-.27.15-.4.71.27,0,0-.27-.47.25-.14s.07,0,.09,0c.14.24.28.47.41.71a.31.31,0,0,0,.17.15,4.56,4.56,0,0,0,.44.14l-.4-.71.25-.15s.07,0,.09,0c.18.33.36.66.55,1a.28.28,0,0,0,.16.12l.68.25h.06l0-.14c0-.16-.06-.31-.07-.47a.63.63,0,0,0-.29-.5c-.23-.18-.44-.38-.66-.57L58,95.25l.23-.26.61.53h0a2.36,2.36,0,0,1,0-.28.6.6,0,0,0-.26-.47c-.19-.15-.36-.32-.54-.49l.23-.26.42.37v-.11c0-.19-.06-.38-.1-.57s0-.1.09-.11l.21,0c.08,0,.12,0,.13.1s.07.43.1.67l.11-.17c0-.09.1-.17.14-.26s.06-.06.11,0l.24.14-.16.28-.3.53a.47.47,0,0,0,0,.17,4.14,4.14,0,0,0,.09.46l.42-.69.31.17-.3.51-.32.54a.24.24,0,0,0,0,.09c0,.28.09.56.14.85l.07,0,.57-.46a.32.32,0,0,0,.09-.16c.08-.34.14-.69.21-1,0-.1,0-.12.14-.09l.23.05-.16.83c.11-.09.19-.16.28-.22a.55.55,0,0,0,.23-.38c0-.23.1-.46.14-.69,0-.06,0-.08.11-.07a1.67,1.67,0,0,0,.26.06l-.11.53v0l.6-.48.27.32-.59.49v0h.53V96h-.78a.52.52,0,0,0-.44.16c-.07.07-.15.13-.23.22h.81v.31s0,0-.07,0H60.64a.25.25,0,0,0-.13,0l-.68.55.31.12.42.16a.31.31,0,0,0,.25,0l1-.33.12,0,.09.25c0,.07,0,.09-.07.11l-.7.24a1.74,1.74,0,0,1,.23.1.68.68,0,0,0,.65,0c.17-.07.35-.11.53-.17s.12,0,.14.07,0,.15.07.23l-.51.17v0l.7.28-.14.39-.72-.27v0l.27.47-.3.18-.25-.41c-.07-.13-.15-.25-.21-.37a.3.3,0,0,0-.18-.15l-.42-.14.4.71-.31.18-.31-.56-.28-.49A.12.12,0,0,0,60.5,98l-.81-.32v.09l.12.73a.37.37,0,0,0,.07.14l.9.78-.23.27-.64-.55c0,.2.06.38.09.55s0,.07.08.1l.68.61-.24.27-.4-.36h0l.08.51c0,.24,0,.24-.21.28s-.17.05-.2-.15l-.09-.57h0l-.27.47-.3-.18c.11-.2.21-.4.34-.59a.69.69,0,0,0,.11-.62c0-.07,0-.14,0-.22h0l-.42.69-.3-.18q.18-.31.36-.6c.08-.14.16-.28.25-.42s0-.07,0-.11c0-.28-.09-.56-.14-.86l-.08,0c-.18.15-.37.29-.54.45a.39.39,0,0,0-.11.17l-.21,1.08s0,0,0,.06L58,99.5l.15-.8h0l-.42.34a.2.2,0,0,0,0,.11c-.07.3-.13.59-.2.89l-.28,0c-.06,0-.06,0,0-.1s.07-.29.1-.47l-.09.07-.45.36s-.09,0-.13,0Z"/><path d="M85.82,88.6l.76,0v0l-.42-.33.18-.24a.19.19,0,0,1,.12,0l.65.5a.33.33,0,0,0,.16,0h.5L87.11,88l.22-.27.4.31.56.44a.13.13,0,0,0,.07,0l.88,0a2,2,0,0,0-.12-.21c-.1-.17-.19-.34-.3-.5a.32.32,0,0,0-.13-.1l-1-.36c-.09,0-.1,0-.07-.13.1-.27,0-.25.32-.15l.54.16c-.15-.19-.18-.47-.47-.55s-.47-.17-.7-.25c-.06,0-.07-.05-.05-.1a1.34,1.34,0,0,0,.07-.18c0-.07,0-.07.11-.05a2.83,2.83,0,0,0,.44.13l-.39-.64.36-.23.4.65h0l.08-.54.29,0a.12.12,0,0,1,0,.08c0,.27-.06.55-.1.82a.25.25,0,0,0,0,.22c.08.12.15.25.25.38L89,86.2l.28,0c.06,0,.06,0,.06.08l-.18,1.12a.35.35,0,0,0,.06.19c.12.21.25.41.38.62l0,0,.07-.13a4,4,0,0,1,.23-.41.65.65,0,0,0,.08-.59c-.07-.27-.12-.56-.17-.84a.19.19,0,0,1,0-.08l.34-.06.16.79h0a1.83,1.83,0,0,1,.13-.24.61.61,0,0,0,.09-.54c-.06-.23-.08-.47-.13-.72l.35-.06.1.56a.64.64,0,0,0,.06-.1l.28-.51c0-.07.07-.07.13,0l.19.1c.08,0,.1.07,0,.15s-.21.38-.33.6l.19-.07.27-.12s.08,0,.1,0l.11.26-.3.13-.57.23a.41.41,0,0,0-.12.11,2.46,2.46,0,0,0-.21.43l.76-.3.13.33-.55.22-.58.23-.08,0-.41.76h.08c.25,0,.49,0,.73,0a.32.32,0,0,0,.17-.06c.27-.23.54-.46.8-.7.07-.06.12-.06.17,0a2,2,0,0,0,.15.18l-.63.55c.14,0,.24,0,.35,0a.51.51,0,0,0,.42-.16c.17-.16.36-.3.53-.45s.09,0,.13,0l.16.2-.41.35v0l.76,0v.42l-.76,0v0l.42.33-.21.28c-.16-.13-.32-.24-.48-.36L92.26,89a.48.48,0,0,0-.44-.14l-.32,0,.64.51-.2.24s-.06,0-.08,0L91,89a.2.2,0,0,0-.12-.06l-.87,0,.17.29c.08.13.16.25.23.38a.32.32,0,0,0,.2.16l1,.33.11,0c0,.09-.06.17-.08.25s-.06.07-.12,0l-.71-.25c0,.09.1.16.13.23a.66.66,0,0,0,.5.4c.18.05.35.13.53.19s.11,0,.07.14a1.57,1.57,0,0,0-.09.23l-.5-.18,0,0,.39.65-.36.22-.4-.65h0l-.08.54-.34,0c0-.16,0-.32,0-.47l.06-.43a.25.25,0,0,0,0-.22l-.24-.37-.13.81-.35,0c0-.22.06-.43.1-.63s0-.37.08-.55,0-.08,0-.11l-.45-.75,0,.07-.36.65a.3.3,0,0,0,0,.16c.07.38.15.77.22,1.17l-.34.07-.17-.83c-.1.18-.19.33-.27.49a.26.26,0,0,0,0,.12c0,.3.1.59.16.91l-.35.06-.1-.53h0L88.1,92c-.12.21-.12.21-.33.09s-.17-.06-.08-.24.19-.34.28-.51l0,0-.49.2-.14-.32c.22-.09.42-.19.64-.26a.67.67,0,0,0,.46-.42,1.18,1.18,0,0,1,.11-.19l0,0-.75.29-.13-.33.65-.26.46-.18a.18.18,0,0,0,.09-.06l.42-.76h-.1c-.23,0-.47,0-.7,0a.34.34,0,0,0-.19.07c-.28.23-.55.48-.83.72l-.06,0-.22-.26.61-.54v0h-.54s-.07.05-.1.07l-.7.59-.19-.23s0-.07,0-.09l.37-.32a.4.4,0,0,0-.11,0h-.58c-.07,0-.1,0-.1-.09S85.82,88.71,85.82,88.6Z"/><path d="M66.5,74.32v-.76h0l-.34.42c-.08-.07-.17-.12-.24-.19a.19.19,0,0,1,0-.12c.17-.21.35-.42.52-.64a.39.39,0,0,0,.06-.15v-.5L66,73l-.26-.22.32-.4.46-.54a.21.21,0,0,0,0-.07c0-.29,0-.58,0-.89L66.3,71l-.5.29a.32.32,0,0,0-.11.12c-.13.34-.26.68-.38,1,0,.08-.06.09-.14.06-.26-.11-.25,0-.14-.32s.13-.35.18-.54c-.2.15-.48.17-.56.46s-.18.46-.27.69c0,.06,0,.07-.11,0a.51.51,0,0,0-.17-.07c-.07,0-.07-.06,0-.12a2.84,2.84,0,0,0,.15-.44l-.66.37-.21-.36.65-.38v0l-.53-.09c0-.11,0-.2,0-.29s0,0,.08,0l.81.13a.28.28,0,0,0,.22,0,4.25,4.25,0,0,0,.39-.25l-.81-.14c0-.1,0-.2,0-.29s0-.06.09,0l1.11.2a.33.33,0,0,0,.19,0l.63-.37a.14.14,0,0,1,0,0l-.13-.08a3.18,3.18,0,0,1-.4-.23.64.64,0,0,0-.58-.1c-.28.06-.57.1-.85.15h-.08l-.06-.34.8-.13v0a1.16,1.16,0,0,1-.24-.14.62.62,0,0,0-.53-.1c-.24,0-.48.07-.72.11l-.05-.35.55-.08-.09-.07-.5-.29c-.07,0-.08-.07,0-.13a1.14,1.14,0,0,0,.1-.19c0-.08.08-.09.16,0l.59.35-.07-.19a2.33,2.33,0,0,0-.11-.28s0-.08,0-.1l.26-.1a2.34,2.34,0,0,1,.12.3c.08.19.15.38.22.57a.35.35,0,0,0,.11.13,2.78,2.78,0,0,0,.42.22L65,68.61l.33-.13c.07.19.13.38.2.56l.21.58s0,.07.06.08l.74.44a.45.45,0,0,0,0-.08v-.74a.39.39,0,0,0-.06-.17c-.22-.27-.45-.55-.68-.81-.06-.08-.06-.13,0-.18L66,68l.53.65c0-.14,0-.25,0-.36a.49.49,0,0,0-.15-.42c-.15-.17-.29-.36-.43-.54s0-.09,0-.13l.21-.16.34.42h0v-.77H67v.75h0l.35-.41.27.22-.38.46a.76.76,0,0,1-.11.14.48.48,0,0,0-.16.44c0,.1,0,.2,0,.32l.53-.62.23.2a.08.08,0,0,1,0,.08l-.71.85a.2.2,0,0,0-.06.12c0,.28,0,.56,0,.87l.29-.17.39-.22a.29.29,0,0,0,.17-.19l.36-1s0-.07,0-.11a1.34,1.34,0,0,0,.26.09c.06,0,.06.06,0,.12-.09.22-.17.45-.26.7l.22-.12a.67.67,0,0,0,.42-.49,4.65,4.65,0,0,1,.2-.52c0-.07.06-.11.14-.07l.23.1-.19.5h0l.67-.37.21.37-.66.38v0l.53.09,0,.35-.47-.08c-.15,0-.29,0-.43-.06a.25.25,0,0,0-.22,0,3.87,3.87,0,0,0-.37.24l.8.14-.06.35-.63-.11-.55-.1a.14.14,0,0,0-.11,0c-.25.13-.5.28-.76.43l.07,0,.64.37A.29.29,0,0,0,68,71l1.18-.19.06.34-.83.15.49.28a.14.14,0,0,0,.11,0l.92-.14.05.35-.53.09v0l.44.26c.21.12.21.13.09.34s-.07.16-.24.06l-.5-.29,0,0,.18.5-.32.13c-.09-.22-.18-.43-.25-.64a.65.65,0,0,0-.4-.48c-.07,0-.13-.08-.19-.11h0l.27.76-.34.12c-.08-.22-.16-.44-.23-.66s-.11-.3-.17-.46a.18.18,0,0,0-.06-.09L67,70.9a.38.38,0,0,0,0,.1c0,.23,0,.47,0,.7a.44.44,0,0,0,.07.19c.23.29.46.57.7.85l0,.06-.27.22L67,72.39h0c0,.18,0,.36,0,.54s0,.07.06.1l.57.72-.23.18s-.07,0-.1,0l-.3-.38a.49.49,0,0,0,0,.11v.58c0,.07,0,.1-.1.09Z"/><path d="M59.17,80.6V80h0l-.27.34a1.56,1.56,0,0,1-.2-.16s0-.07,0-.09l.42-.52a.25.25,0,0,0,0-.12c0-.13,0-.25,0-.41l-.45.52-.21-.18.26-.32.37-.44s0,0,0-.06v-.71l-.17.09-.41.24a.29.29,0,0,0-.09.1c-.1.27-.21.54-.31.82,0,.07-.05.08-.11,0-.21-.09-.2,0-.11-.26s.1-.28.14-.43c-.16.11-.38.13-.45.36s-.15.38-.22.56,0,.06-.09,0l-.13-.06c-.07,0-.07,0,0-.09a2.06,2.06,0,0,0,.12-.35l-.53.3-.17-.3.53-.3v0l-.43-.08a1.57,1.57,0,0,1,0-.23s0,0,.06,0l.66.11a.23.23,0,0,0,.18,0,2.7,2.7,0,0,0,.31-.2L57.3,78c0-.08,0-.15,0-.23s0-.05.07,0l.89.17a.47.47,0,0,0,.16,0l.51-.3,0,0-.1-.06a3.62,3.62,0,0,1-.33-.2.52.52,0,0,0-.47-.07c-.22,0-.46.08-.69.12h-.06l0-.27.64-.12h0a1.22,1.22,0,0,1-.19-.12.47.47,0,0,0-.43-.08c-.19,0-.39.06-.59.09l0-.28.45-.07-.07,0-.41-.24c-.06,0-.06-.06,0-.11a.6.6,0,0,0,.09-.15c0-.06.06-.07.13,0l.47.28c0-.07,0-.11-.05-.16l-.09-.22s0-.07,0-.08l.21-.08a2.44,2.44,0,0,1,.1.24l.18.46a.31.31,0,0,0,.09.11l.34.18L57.93,76l.26-.1.17.45c0,.15.11.31.17.47s0,0,0,.06l.61.36s0,0,0-.07v-.59a.22.22,0,0,0,0-.14c-.18-.22-.36-.45-.55-.66s0-.1,0-.14a1.31,1.31,0,0,0,.15-.12l.43.53a2.62,2.62,0,0,1,0-.29.44.44,0,0,0-.12-.34c-.12-.14-.23-.3-.35-.44s0-.07,0-.1l.17-.13.27.34h0v-.62h.34v.61h0l.28-.34.22.18-.3.37-.09.12a.39.39,0,0,0-.13.35,2.46,2.46,0,0,0,0,.26l.42-.5.19.16a.06.06,0,0,1,0,.07l-.57.68a.16.16,0,0,0-.05.1c0,.23,0,.46,0,.7l.24-.13.31-.18a.26.26,0,0,0,.14-.15c.09-.26.19-.52.29-.78l0-.09.2.08s.06,0,0,.09l-.22.57a1.82,1.82,0,0,1,.19-.1.52.52,0,0,0,.33-.4c0-.14.11-.28.17-.42s0-.09.11,0l.19.07-.16.41h0l.54-.3.17.3-.53.3v0l.43.08,0,.28-.39-.06c-.11,0-.23,0-.34-.06a.23.23,0,0,0-.18,0,2.49,2.49,0,0,0-.3.19l.65.12-.05.28-.51-.09-.45-.08a.08.08,0,0,0-.08,0l-.62.34.06,0,.52.31a.16.16,0,0,0,.12,0l1-.16,0,.28-.67.12.39.23a.34.34,0,0,0,.1,0l.74-.11,0,.28-.43.07v0l.36.21c.17.1.17.1.07.27s-.06.14-.2.06l-.4-.24h0l.15.41-.26.1a4.65,4.65,0,0,1-.2-.52.53.53,0,0,0-.33-.38l-.15-.09h0l.22.61-.27.1c-.06-.18-.13-.36-.19-.53s-.09-.25-.14-.37a.2.2,0,0,0,0-.08l-.61-.36a.28.28,0,0,0,0,.08c0,.19,0,.38,0,.57a.33.33,0,0,0,0,.16c.19.23.38.45.56.68l0,.05-.22.18L59.54,79h0v.44s0,.05,0,.08c.15.19.31.38.46.58l-.18.15s-.06,0-.08,0L59.52,80s0,.07,0,.09v.47c0,.06,0,.08-.07.08Z"/><path d="M72.29,100.88l-1.19-.16-.77-.2A10.71,10.71,0,0,1,65.66,98,13.68,13.68,0,0,1,63,94.42a10.53,10.53,0,0,1-1.29-5.15c0-.23,0-.47,0-.7l.17-1.32a1.09,1.09,0,0,0,0-.17,12.76,12.76,0,0,1,1.63-4.16,10.33,10.33,0,0,1,3.09-3.12A10.56,10.56,0,0,1,73,77.7a3.55,3.55,0,0,0,.79-.09.23.23,0,0,0,.11-.42,1,1,0,0,0-.29-.19,3.79,3.79,0,0,1-1.51-1.27,1.16,1.16,0,0,1-.26-.77c0-.4,0-.8,0-1.2a1.51,1.51,0,0,1,.32-.89,7.68,7.68,0,0,1,.59-.69,1.91,1.91,0,0,1,1.36-.57h.64l1.29.17.17.06a10.8,10.8,0,0,1,1.13.4,2.06,2.06,0,0,1,1.24,1.82,6,6,0,0,1,0,1.12,2.06,2.06,0,0,1-1.72,1.9,9.86,9.86,0,0,0-1,.33,1,1,0,0,0-.24.22,1.5,1.5,0,0,0,.25.19c.59.24,1.18.45,1.77.7a11.2,11.2,0,0,1,6.19,5.94,10.71,10.71,0,0,1,1,4.83l0,.78-.21,1.66-.06.22a9.21,9.21,0,0,1-1.07,3,13.31,13.31,0,0,1-4.34,4.49A8.33,8.33,0,0,1,76,100.76a15.09,15.09,0,0,1-2.77.14ZM83.41,90.5c0-.72.1-1.44.12-2.17a11.25,11.25,0,0,0-.63-2.62,11.41,11.41,0,0,0-2.32-3.6,10.22,10.22,0,0,0-8.87-3,9.64,9.64,0,0,0-6,3.19A9.88,9.88,0,0,0,63,89.57a10.26,10.26,0,0,0,3.18,7.17,9.6,9.6,0,0,0,6,2.9,10.28,10.28,0,0,0,3.75-.24,10,10,0,0,0,4.58-2.73,11,11,0,0,0,2.31-3.35A10.53,10.53,0,0,0,83.41,90.5ZM75.15,72.77h0l-.4,0a.9.9,0,0,0-.62.13,4.44,4.44,0,0,0-.55.42,1.44,1.44,0,0,0-.35,1.83.93.93,0,0,0,.75.5c.13,0,.27,0,.3-.17s-.1-.16-.19-.23a.93.93,0,0,1-.3-.29,1.15,1.15,0,0,1,.57-1.56,2,2,0,0,1,1.82.18.73.73,0,0,1,.39.54,1.42,1.42,0,0,1-.3,1.07.49.49,0,0,1-.24.16c-.26.06-.35.14-.37.41s.1.36.35.25a2.25,2.25,0,0,0,.83-.57,1.42,1.42,0,0,0-.5-2.31A9.47,9.47,0,0,0,75.15,72.77Zm-.72,1a.76.76,0,0,0-.23.79A.94.94,0,0,0,74.43,73.72Zm.42.4a.7.7,0,0,0,.05.85A1.76,1.76,0,0,0,74.85,74.12Zm.74.14h0l-.08.63h0A1,1,0,0,0,75.59,74.26Zm.44.51h0a1,1,0,0,0,.08-.63h0Z"/><path d="M67.83,82.46l.27.26c.27.29.53.6.82.88a4.5,4.5,0,0,0,.54.41.78.78,0,0,1,.4.56.8.8,0,0,0,.18.37,11.52,11.52,0,0,0,1.55,1.65,3.59,3.59,0,0,1,1,1.49.74.74,0,0,0,.6.54,1,1,0,0,1,.71.68.34.34,0,0,1-.06.35.76.76,0,0,0-.13.29A9.84,9.84,0,0,0,73.55,93a6.44,6.44,0,0,1,0,1.16c0,.51-.1,1-.15,1.55a1.8,1.8,0,0,1,0,.19.33.33,0,0,1-.19-.31c0-.41,0-.82-.06-1.23s-.08-.62-.12-.93a3.21,3.21,0,0,1,0-.62,11,11,0,0,0,0-2.29,1.94,1.94,0,0,0-.31-.86.59.59,0,0,1-.12-.55.33.33,0,0,0-.08-.24,6.2,6.2,0,0,0-.44-.45,5.15,5.15,0,0,1-1.28-1.58c-.26-.48-.53-1-.84-1.42a2.19,2.19,0,0,0-.57-.52,1,1,0,0,1-.38-.54,3.28,3.28,0,0,0-.45-.79c-.18-.3-.39-.59-.58-.89a.84.84,0,0,1-.07-.19Z"/><path d="M82.23,85.92l-.12-.19a16.42,16.42,0,0,0-2.79-3.58,8.83,8.83,0,0,0-5.61-2.36,9.07,9.07,0,0,0-5.63,1.61,9.85,9.85,0,0,0-3.8,4.76c-.07.19-.17.38-.25.57l-.07,0a1.52,1.52,0,0,1,0-.21A15.43,15.43,0,0,1,64.58,85a9.41,9.41,0,0,1,8.7-5.43,9.06,9.06,0,0,1,6.89,3A10.69,10.69,0,0,1,82,85.26c.1.2.16.42.25.63Z"/><path d="M81.66,94.21a1.77,1.77,0,0,1-.15.31,7.61,7.61,0,0,1-.64.83c-.51.57-1,1.12-1.59,1.66a6.85,6.85,0,0,1-2.7,1.53,11.41,11.41,0,0,1-3.9.56,8.81,8.81,0,0,1-3.41-.9A9.32,9.32,0,0,1,64.83,94a9.53,9.53,0,0,1-1.16-4q0-.57-.06-1.14a3,3,0,0,1,.06-.42h.08a.79.79,0,0,1,.06.22q0,.44,0,.87a9.11,9.11,0,0,0,.72,3.42,9.77,9.77,0,0,0,2.33,3.5,8.84,8.84,0,0,0,3.5,2,10,10,0,0,0,6.16,0,6.63,6.63,0,0,0,1.78-1,11.84,11.84,0,0,0,2.35-2.12c.24-.28.45-.57.67-.85a3,3,0,0,1,.26-.24Z"/><path d="M74.7,80.34c.12,0,.16.11.14.21-.07.54-.15,1.08-.23,1.62a.53.53,0,0,1-.08.25.31.31,0,0,1-.19.13.67.67,0,0,1-.75-.44c-.1-.25-.29-.28-.45-.06s-.11.2-.18.3-.19.25-.34.17-.06-.23,0-.35a2.64,2.64,0,0,1,.23-.44.89.89,0,0,0,.08-.93,2.28,2.28,0,0,1-.15-.44.82.82,0,0,1,0-.21.49.49,0,0,1,.19.1,2.65,2.65,0,0,1,.21.26c.11.15.19.17.33.06l.35-.29a1,1,0,0,1,.2,0,.67.67,0,0,1,0,.2,1.31,1.31,0,0,1-.19.35.87.87,0,0,0-.13.79,2.46,2.46,0,0,0,.14.38c0,.07.11.12.17.18s.12-.11.14-.18c.08-.26.14-.53.21-.79s.11-.44.18-.65A.68.68,0,0,1,74.7,80.34Z"/><path d="M67.48,85.81a.68.68,0,0,1-.12-.13l-.29-.55a2.44,2.44,0,0,1-.1-.24.5.5,0,0,0-.48-.31h-.72l-.19-.1c0-.07.07-.18.13-.2a2.23,2.23,0,0,1,.57-.12c.34,0,.37-.06.24-.37a2.67,2.67,0,0,1-.09-.26.65.65,0,0,1,0-.2c.07,0,.16,0,.2.06a3,3,0,0,1,.29.33l.14.22a.69.69,0,0,0,.67.33,1,1,0,0,1,.34,0c.07,0,.13.09.2.13a.6.6,0,0,1-.16.19,1,1,0,0,1-.31.09.9.9,0,0,1-.16,0c-.19,0-.23.11-.17.3a3.45,3.45,0,0,1,.12.46.56.56,0,0,1,0,.22S67.53,85.77,67.48,85.81Z"/><path d="M65.77,87.85c.18.12.34.23.49.35a1.48,1.48,0,0,1,.26.24s.07.16,0,.2a.28.28,0,0,1-.21.1.68.68,0,0,1-.28-.12,2.51,2.51,0,0,1-.32-.25.6.6,0,0,0-.61-.12l-.57.17a.77.77,0,0,1-.26,0c-.12,0-.16-.11-.08-.2a1.71,1.71,0,0,1,.27-.2l.24-.1c.15-.07.17-.13.05-.25l-.24-.26a1.18,1.18,0,0,1-.11-.19c0-.13,0-.21.16-.17a1,1,0,0,1,.37.21.8.8,0,0,0,1.07.11,2,2,0,0,1,.54-.18c.09,0,.21,0,.25.09a.19.19,0,0,1-.12.25l-.71.24Z"/><path d="M69.79,82.76c0,.12,0,.24,0,.37s-.08.34-.17.32-.14-.2-.15-.32a1.15,1.15,0,0,1,0-.32.78.78,0,0,0-.32-.73,5.72,5.72,0,0,1-.46-.4c0-.05,0-.16-.06-.23a.8.8,0,0,1,.26,0,1.83,1.83,0,0,1,.3.18c.16.09.22.06.26-.11a2,2,0,0,1,.11-.35.17.17,0,0,1,.14-.09s.09.07.1.12a.85.85,0,0,1,0,.32.79.79,0,0,0,.3.72,3.81,3.81,0,0,1,.43.37,1,1,0,0,1,.19.27c0,.05,0,.11,0,.16a.38.38,0,0,1-.15,0c-.13-.06-.25-.14-.38-.21L70,82.65C69.86,82.61,69.79,82.63,69.79,82.76Z"/><path d="M75.9,95.67l.19.13a10.21,10.21,0,0,1,1.3,1.41c.06.09.17.18.07.29s-.23,0-.32,0-.37-.33-.56-.5l-.24-.22,0,0,0,.22c0,.26.09.51.11.76a.26.26,0,0,1-.09.21c-.1.06-.18,0-.21-.12a3.47,3.47,0,0,1-.19-.6c-.06-.38-.09-.77-.12-1.15a2.75,2.75,0,0,1,0-.4Z"/><path d="M78.21,94a1.05,1.05,0,0,1,.21.06l1.58.8a1,1,0,0,1,.22.19c.09.1.06.19-.07.19a1.26,1.26,0,0,1-.38-.1c-.15-.07-.29-.18-.45-.26a.21.21,0,0,0-.19,0s0,.12,0,.18.14.31.2.46a2.17,2.17,0,0,1,.11.42.25.25,0,0,1-.12.18A.15.15,0,0,1,79.1,96a8.37,8.37,0,0,1-.89-1.89.29.29,0,0,1,0-.09S78.2,94,78.21,94Z"/><path d="M73,97.28c-.1.2-.17.38-.26.54a2.85,2.85,0,0,1-.31.46s-.13.06-.19.08a.71.71,0,0,1,0-.2c0-.16.11-.31.17-.47.11-.34.22-.68.34-1a1.91,1.91,0,0,1,.16-.32c.09-.15.14-.15.23,0a1.34,1.34,0,0,1,.06.12,6.47,6.47,0,0,1,.47,1.61.9.9,0,0,1,0,.36c0,.11-.12.13-.19,0a1.1,1.1,0,0,1-.2-.35c-.07-.22-.12-.46-.18-.69A1.22,1.22,0,0,1,73,97.28Z"/><path d="M67.57,92.94l-.11.2-1.34,1.51a.22.22,0,0,1-.19.07c-.08-.06-.16-.16-.08-.28a4.29,4.29,0,0,1,.37-.5c.13-.15.28-.28.41-.45l-.44.05-.65.08c-.05,0-.13,0-.13-.06a.19.19,0,0,1,0-.15.44.44,0,0,1,.19-.1,6.35,6.35,0,0,1,1.66-.38C67.38,92.92,67.45,92.94,67.57,92.94Z"/><path d="M69.12,97.6a1.85,1.85,0,0,1,0-.23c.07-.29.16-.58.23-.88l0-.19-.11.07-.69.47a.56.56,0,0,1-.18.07c-.07,0-.11,0-.08-.09a.88.88,0,0,1,.12-.21,7.57,7.57,0,0,1,1.33-1.26l.11-.06c.12-.05.18,0,.16.12a1.94,1.94,0,0,1-.09.48c-.16.45-.32.89-.49,1.33a1.69,1.69,0,0,1-.17.29l-.12.13Z"/><path d="M79,82.4a1.1,1.1,0,0,1-.13.23c-.34.43-.68.85-1,1.28a.52.52,0,0,1-.22.16.33.33,0,0,1-.22-.06s0-.14,0-.19a5.67,5.67,0,0,1,1.29-1.47.6.6,0,0,1,.23-.1C79,82.22,79,82.28,79,82.4Z"/><path d="M75,82.08l.36-1.22a.94.94,0,0,1,.14-.26s.09-.06.14-.1a1.19,1.19,0,0,1,.09.15,1,1,0,0,1,0,.17,5.41,5.41,0,0,1-.42,1.74c0,.11-.08.28-.24.25S75,82.6,75,82.49a2.71,2.71,0,0,1,0-.4Z"/><path d="M81.86,86.27a.92.92,0,0,1-.14.14c-.58.3-1.16.6-1.75.88a.24.24,0,0,1-.35-.24.2.2,0,0,1,.1-.14,3,3,0,0,1,.41-.18l1.39-.48a1.65,1.65,0,0,1,.32,0Z"/><path d="M69.18,94.74a3.6,3.6,0,0,1-.26.52c-.25.36-.52.71-.8,1.06a1.27,1.27,0,0,1-.28.24s-.11,0-.16,0a.75.75,0,0,1,0-.15.61.61,0,0,1,.07-.17,7.52,7.52,0,0,1,1-1.42,1.45,1.45,0,0,1,.22-.21s.11-.05.14,0S69.16,94.68,69.18,94.74Z"/><path d="M82,91.49c-.13,0-.25,0-.38,0a7.37,7.37,0,0,1-1.73-.29c-.08,0-.21,0-.18-.18a.21.21,0,0,1,.26-.16l1.46.3a2.5,2.5,0,0,1,.43.16l.16.11Z"/><path d="M79,93.08a1.07,1.07,0,0,1,.24.12l1.35,1.1c.07,0,.19.14.09.25a.32.32,0,0,1-.26,0A7.51,7.51,0,0,1,79,93.42a.76.76,0,0,1-.11-.14s0-.12,0-.15S78.92,93.09,79,93.08Z"/><path d="M79.37,86.41c.07-.07.11-.13.16-.17a5.66,5.66,0,0,1,1.69-.83,2,2,0,0,1,.43,0A4.4,4.4,0,0,1,79.37,86.41Z"/><path d="M66.83,91.06l-.21.09c-.29.1-.57.22-.86.3s-.75.18-1.13.27c-.08,0-.17.06-.19,0s.06-.14.11-.16a7.27,7.27,0,0,1,1.87-.59,1.32,1.32,0,0,1,.28,0S66.75,91,66.83,91.06Z"/><path d="M71.52,98.28a4,4,0,0,1,0-.49c.05-.43.12-.87.19-1.3a.91.91,0,0,1,.11-.25s.12-.1.16-.08a.21.21,0,0,1,.11.15,5.7,5.7,0,0,1-.1.83c-.06.31-.16.62-.25.93a1.2,1.2,0,0,1-.11.23Z"/><path d="M79.91,90.24a3.81,3.81,0,0,1,2.42.31.89.89,0,0,1-.2.06,5.83,5.83,0,0,1-2-.27A.88.88,0,0,1,79.91,90.24Z"/><path d="M67,91.52a1.33,1.33,0,0,1-.19.14,7.68,7.68,0,0,1-1.62.6,2.36,2.36,0,0,1-.44.07s-.11,0-.16-.06.06-.11.1-.13a4.86,4.86,0,0,1,.63-.25c.47-.15,1-.28,1.43-.41a.87.87,0,0,1,.23,0Z"/><path d="M68.53,94.25a1.3,1.3,0,0,1-.07.23,4.8,4.8,0,0,1-1.15,1.46s-.13,0-.2.08,0-.18,0-.24a5.19,5.19,0,0,1,1.23-1.45A1.12,1.12,0,0,1,68.53,94.25Z"/><path d="M66.51,89.41a3.67,3.67,0,0,1-2.33-.33L64.4,89a5.17,5.17,0,0,1,1.87.26A1.15,1.15,0,0,1,66.51,89.41Z"/><path d="M82.35,89.66a1.74,1.74,0,0,1-.22,0,6.77,6.77,0,0,1-1.9-.28,1,1,0,0,1-.18-.1v0a.73.73,0,0,1,.2,0,5,5,0,0,1,1.91.26,1,1,0,0,1,.2.11Z"/><path d="M64.9,92.88A5.62,5.62,0,0,1,67.1,92l0,0a.92.92,0,0,1-.14.14,5.81,5.81,0,0,1-1.87.74,1.61,1.61,0,0,1-.22,0Z"/><path d="M70.55,80.58a2,2,0,0,1,.13.18c.23.56.46,1.12.67,1.68,0,.09,0,.22,0,.32a1.17,1.17,0,0,1-.23-.21,6,6,0,0,1-.6-1.69,2.35,2.35,0,0,1,0-.26Z"/><path d="M82.77,90.33l0-1.84C83.08,88.7,83,90,82.77,90.33Z"/><path d="M82.1,93.09a3,3,0,0,1,.52-1.49A3.21,3.21,0,0,1,82.1,93.09Z"/><path d="M82.53,86.92c.29.25.44,1,.25,1.23A3.25,3.25,0,0,1,82.53,86.92Z"/><path d="M63.86,87.38a.17.17,0,0,1,.15.21.18.18,0,0,1-.36,0A.17.17,0,0,1,63.86,87.38Z"/></g></g></svg>