<?xml version="1.0" encoding="utf-8"?>
<!-- Generator: Adobe Illustrator 25.2.3, SVG Export Plug-In . SVG Version: 6.00 Build 0)  -->
<svg version="1.1" id="Layer_1" xmlns="http://www.w3.org/2000/svg" xmlns:xlink="http://www.w3.org/1999/xlink" x="0px" y="0px"
	 viewBox="0 0 53 52" style="enable-background:new 0 0 53 52;" xml:space="preserve">
<style type="text/css">
	.st0{fill:#231F20;}
</style>
<path class="st0" d="M43,25.1c-0.1-1.8,0-3.7,0-5.5c0-2.5,0-5,0-7.5c0-0.8-0.3-1.1-1.3-0.9c-1.1,0.2-2.2,0.3-3.3,0.3
	c-3.8,0.1-7.4-0.6-10.8-2c-0.8-0.3-1.5-0.3-2.2,0c-4.4,1.7-8.9,2.4-13.8,1.7C10,11,10,11,10,12.2c0,4.7,0,9.3,0,14
	c0,2.2,0.9,4.2,2.3,6c3.3,4,8,6.7,13.3,8.8c0.7,0.3,1.3,0.2,2-0.1c3.9-1.6,7.5-3.5,10.5-6.1C41.3,32.1,43.2,28.9,43,25.1z
	 M37.5,34.4c-2.6,2.3-5.9,4.2-10.3,6c-0.3,0.1-0.6,0.2-0.8,0.2c-0.1,0-0.3,0-0.5-0.1c-6.2-2.5-10.2-5.2-12.9-8.6
	c-1.4-1.8-2.2-3.7-2.2-5.6c0-4.8,0-9.8,0-14c0-0.1,0-0.3,0-0.4c0.2,0,0.3,0,0.5,0.1c1.3,0.2,2.6,0.3,3.9,0.3c3.5,0,7-0.7,10.4-2.1
	c0.3-0.1,0.6-0.2,0.8-0.2c0.2,0,0.4,0,0.7,0.2c3.4,1.4,6.9,2.1,10.4,2.1c0.3,0,0.5,0,0.8,0c1.3,0,2.5-0.1,3.5-0.3c0.1,0,0.2,0,0.3,0
	c0,0.1,0,0.1,0,0.2c0,1.8,0,3.7,0,5.5c0,0.7,0,1.4,0,2.1c0,0.6,0,1.1,0,1.7c0,1.3,0,2.6,0,3.8C42.3,28.5,40.8,31.5,37.5,34.4z"/>
<path class="st0" d="M41.3,25.1c-0.1-1.3-0.1-2.6,0-3.9c0-0.6,0-1.1,0-1.7c0-0.7,0-1.4,0-2.1c0-1.6,0-3.2,0-4.9
	c-0.9,0.1-1.8,0.2-2.9,0.2c-0.3,0-0.5,0-0.8,0c-3.7,0-7.3-0.7-10.8-2.2c-0.2-0.1-0.3-0.1-0.3-0.1c0,0-0.1,0-0.3,0.1h0v0
	c0,0,0,0-0.1,0c-3.6,1.4-7.2,2.1-10.8,2.1c-1.2,0-2.4-0.1-3.6-0.2c0,4.2,0,9,0,13.6c0,1.8,0.7,3.6,2.1,5.3c2.7,3.3,6.6,5.9,12.6,8.4
	c0,0,0.1,0,0.1,0c0,0,0.1,0,0.4-0.1c4.3-1.8,7.5-3.6,10.1-5.9C40,31.2,41.4,28.3,41.3,25.1z M37.6,13.5c0.3,0,0.5,0,0.8,0
	c0.7,0,1.3-0.1,2-0.1c0,1.4,0,2.7,0,4.1c0,0.7,0,1.4,0,2.1c0,0.5,0,1.1,0,1.6l0,0.1c0,1.1,0,2.3,0,3.4H26.8V11.4
	C30.3,12.8,34,13.5,37.6,13.5z M12.6,13.4c0.9,0.1,1.8,0.1,2.7,0.1c3.6,0,7.3-0.7,10.9-2.1v13.2H12.6C12.6,20.8,12.6,16.9,12.6,13.4
	z M14.5,31.1c-1.3-1.6-1.9-3.2-1.9-4.9c0-0.4,0-0.7,0-1.1h13.6V39C20.6,36.7,17,34.2,14.5,31.1z M36.2,33.5
	c-2.4,2.1-5.5,3.9-9.5,5.6V25.2h13.6c0,0,0,0,0,0C40.6,28.2,39.2,30.9,36.2,33.5z"/>
<path class="st0" d="M23.3,18.1L23.3,18.1c0,0-0.7-4.3-1.7-3.5c-0.9,0.8-2,0.8-2,0.8l0,0c-0.1,0-0.1,0-0.2,0c-0.1,0-0.1,0-0.2,0l0,0
	c0,0-1.1,0-2-0.8c-0.8-0.7-1.5,2.7-1.6,3.4c-0.1,0.4-0.2,0.8-0.2,1.2c0,1,0.5,2,1.2,2.7h0l0,0c0.2,0.2,0.4,0.3,0.6,0.5l0.8,0.6
	l1.4,1.1l1.4-1.1l0.8-0.6c1.1-0.7,1.8-1.8,1.8-3.2C23.4,18.7,23.4,18.4,23.3,18.1z M19.1,17.4h0.3h0.3c0,0,0,0,0,0l-0.1,0.2
	l-0.1,0.2c0,0,0,0,0,0l-0.1-0.2L19.1,17.4C19.1,17.4,19.1,17.4,19.1,17.4z M20,21.6c-0.3-0.1-0.9-0.1-1.2,0C17.5,21.9,17,21,17,20.1
	c0-1.1,1.1-2,2.4-2c1.3,0,2.4,0.9,2.4,2C21.8,20.9,21.1,22,20,21.6z"/>
<g>
	<path class="st0" d="M15.1,13.6C15.1,13.6,15.2,13.5,15.1,13.6c0,0,0,0-0.1,0c0,0,0,0.1,0,0.1C15,13.6,15.1,13.6,15.1,13.6z"/>
	<path class="st0" d="M21.5,13C21.5,12.9,21.5,12.9,21.5,13c-0.2-0.1-0.3,0-0.5,0C21.2,12.9,21.3,12.9,21.5,13
		C21.5,13,21.5,13,21.5,13z"/>
	<path class="st0" d="M16.7,23.5c0,0-0.1-0.1-0.1-0.1c0,0,0-0.1,0-0.1c0.1-0.1,0.1-0.2,0.2-0.3c0,0,0,0,0.1,0c0.1,0,0.2,0,0.3-0.1
		c0,0,0.1,0,0.1,0c0.1,0,0.2,0,0.4,0l0,0l0.1,0c0.1,0,0.1,0,0.2,0c0,0,0,0,0,0l1.5,0.1c0.6,0,1.2,0.1,1.8,0.1l0.8,0l0.5,0
		c0.1,0,0.3,0,0.4,0c0.4,0,0.8,0.1,1.3,0c0.3,0,0.7,0,1,0c0,0,0.1,0,0.1,0c-0.1,0.1-0.2,0.2-0.4,0.3c0,0-0.1,0-0.1,0
		c-0.1-0.1-0.3-0.1-0.4-0.1c-0.3,0-0.4,0.2-0.5,0.4c-0.1,0.1-0.1,0.2-0.1,0.4c0,0,0,0.1,0.1,0.1c0.2,0,0.4,0,0.6,0
		c0.2,0,0.4-0.1,0.5-0.2c0.1-0.1,0.2-0.3,0.1-0.4c0,0,0,0,0-0.1c0.1-0.1,0.2-0.1,0.3-0.2c0,0,0.1,0,0.1,0c0.1,0,0.2,0,0.2,0
		c0.2-0.1,0.5-0.1,0.7,0c0,0,0,0,0,0V23c0,0-0.1,0-0.1,0c-0.1,0-0.1,0-0.2,0c-0.2,0-0.4-0.1-0.5-0.2c-0.1-0.1-0.2-0.2-0.3-0.3
		c-0.1-0.1-0.2-0.2-0.2-0.3c0-0.1-0.1-0.1-0.1-0.2c0,0,0,0,0-0.1c0-0.1,0-0.1-0.1-0.2c0,0,0-0.1,0-0.1c0-0.1,0-0.1,0-0.2
		c0,0,0-0.1,0.1-0.1c0.1-0.1,0.3-0.1,0.4-0.2c0.3-0.2,0.4-0.4,0.4-0.6c0-0.1,0-0.1,0.1-0.1c0,0,0,0,0.1,0c-0.1,0-0.1,0-0.1,0
		c-0.1,0-0.3,0-0.4,0c-0.3,0-0.6,0.3-0.7,0.4c0,0.1,0,0.3,0,0.4c0,0.1,0,0.3,0,0.4c0,0,0,0,0,0.1c0,0,0,0,0,0c0,0,0,0,0,0
		c-0.1-0.1-0.2-0.3-0.4-0.4c0,0-0.1-0.1-0.1-0.1c-0.1-0.1-0.1-0.3-0.3-0.3c-0.2-0.1-0.3-0.1-0.5-0.1c-0.3,0-0.6,0-0.9,0l0,0.1
		c0.3,0,0.5,0.1,0.7,0.3c0.2,0.1,0.4,0.2,0.6,0.2c0.2,0,0.3,0,0.4,0.1c0,0,0,0,0,0c0.1,0.1,0.2,0.2,0.3,0.4c-0.1,0-0.2-0.1-0.3-0.2
		c0,0-0.1-0.1-0.1-0.1c-0.3-0.1-0.5-0.1-0.8,0c-0.2,0.1-0.4,0.2-0.7,0.2l0,0.1c0.2,0.1,0.4,0.1,0.5,0.2c0.3,0.1,0.6,0.1,0.9,0
		c0.1,0,0.1-0.1,0.2-0.1c0.1-0.1,0.1-0.1,0.2-0.1c0.1,0,0.1,0,0.1,0.1c0,0,0.1,0.1,0.1,0.1c0.1,0,0.1,0.1,0.1,0.2c0,0,0,0.1,0.1,0.1
		c0.1,0,0.1,0,0.2,0.1c0.2,0.2,0.4,0.3,0.5,0.5c0,0,0.1,0,0.1,0.1c-0.2,0-0.4,0-0.6,0c-0.2,0-0.5,0-0.7,0c-0.1,0-0.2,0-0.3,0
		c-0.5,0-0.9-0.1-1.4-0.1c0,0,0,0,0,0l-1.5-0.1c-0.1,0-0.1,0-0.2,0c0,0,0,0,0,0l-0.9-0.1c-0.1,0-0.3,0-0.4,0l-1.6-0.1c0,0,0,0-0.1,0
		c-0.1,0-0.1,0-0.2,0l0,0c-0.3,0-0.5,0-0.8-0.1c-0.2,0-0.3,0-0.5,0.1c0,0,0.1,0,0.1,0c-0.1,0-0.2,0-0.3,0c-0.1,0-0.2,0-0.3,0
		c-0.3,0-0.5-0.2-0.7-0.3c0,0,0,0,0,0c-0.1-0.1-0.1-0.1-0.2-0.2c0,0,0,0,0,0c0-0.1,0.1-0.2,0.2-0.2c0,0,0.1,0,0.1,0
		c0.3,0.2,0.6,0.3,1,0.2c0.1,0,0.2,0,0.3,0c0,0,0.1,0,0.1,0c0,0,0,0,0,0c0,0-0.1,0-0.1,0c-0.3-0.1-0.7-0.2-1-0.2
		c-0.4,0-0.6,0.1-0.6,0.4c0,0,0,0.1,0,0.1c-0.2-0.1-0.3-0.2-0.5-0.3c-0.2-0.1-0.3-0.3-0.4-0.4c0-0.1,0-0.1,0.1-0.2c0,0,0,0,0.1,0
		c0.3-0.2,0.3-0.4,0.3-0.6c0-0.2-0.2-0.4-0.4-0.5c0,0-0.1-0.1-0.1-0.2c0,0,0,0-0.1-0.1c0,0,0,0.1,0,0.1c-0.1,0.2-0.1,0.3-0.2,0.5
		c-0.1,0.1-0.1,0.2-0.1,0.4c0,0.1,0,0.2,0.1,0.3c0.1,0.1,0.2,0.2,0.2,0.3c0,0.1,0.1,0.1,0.1,0.2c0,0,0,0.1,0.1,0.1c0,0,0,0.1,0,0.1
		c-0.1,0-0.2,0-0.2-0.1c-0.2-0.3-0.5-0.3-0.8-0.2c-0.1,0-0.1,0-0.2,0c0,0.2,0,0.4,0,0.6c0.1,0,0.3,0,0.4,0c0.2,0,0.4-0.1,0.6-0.3
		c0-0.1,0.1,0,0.2,0c0.1,0,0.2,0.1,0.2,0.1c0.2,0.1,0.4,0.2,0.6,0.4c0,0,0.1,0.1,0.1,0.1c0.2,0.1,0.4,0.2,0.6,0.3
		c0.1,0,0.3,0.1,0.4,0.1c0,0,0,0,0.1,0c-0.2,0-0.3,0-0.5,0c-0.1,0-0.1,0-0.1,0.1c-0.3,0.1-0.5,0.1-0.8,0.2c-0.1,0-0.2,0.1-0.3,0.1
		c-0.1,0-0.3,0.1-0.4,0.1c-0.2,0.1-0.3,0.1-0.5,0.1c-0.1,0-0.2,0-0.2,0c0,0-0.1,0-0.2,0c0,0-0.1-0.1-0.1-0.1c0-0.2,0-0.3-0.2-0.4
		c0,0.2,0,0.4,0,0.5c0,0,0,0,0.1,0c0.1,0,0.3,0,0.3,0.1c0,0,0,0,0,0c-0.1,0.1-0.2,0.1-0.3,0.2c0,0.1,0,0.2,0,0.3
		c0.1-0.1,0.2-0.1,0.3-0.2c0,0,0.1,0,0.1,0c0,0.1,0,0.1,0,0.2c0,0.1,0,0.1,0,0.2c0,0.2,0.1,0.4,0.3,0.4c0.1,0,0.2,0.1,0.3,0.1h0.2
		c0,0,0,0,0,0c-0.1-0.1-0.1-0.1-0.1-0.2c0-0.1,0-0.2-0.1-0.3c-0.1-0.2-0.2-0.2-0.4-0.3c0,0-0.1,0-0.1-0.1c0-0.1,0-0.1,0.1-0.1
		c0.2-0.1,0.4-0.2,0.6-0.2c0.3-0.1,0.5-0.2,0.8-0.2c0,0,0.1,0,0.1,0c0.2,0,0.3,0,0.5-0.1c0.5-0.1,1-0.2,1.5-0.2c0,0,0.1,0,0.2,0
		c0,0.1-0.1,0.1-0.1,0.2c-0.2,0.2-0.2,0.4-0.2,0.7c0,0,0,0.1,0,0.1c-0.1,0.1-0.1,0.3-0.1,0.5c0,0.1,0.1,0.2,0.1,0.2
		c0,0,0,0.1,0.1,0.1h0.3c0.1-0.2,0.1-0.4,0.1-0.6C17,23.9,16.9,23.7,16.7,23.5z"/>
	<path class="st0" d="M19.7,13.4C19.7,13.4,19.7,13.4,19.7,13.4c0,0.1,0,0.1,0.1,0.1c0.3,0.1,0.5,0.1,0.8,0c0.2,0,0.3-0.1,0.3-0.3
		c0-0.1,0-0.2,0.1-0.3c0.2,0,0.3,0,0.5,0c-0.1,0.1-0.2,0.1-0.3,0.2c0,0,0.1,0,0.1,0c0.2,0,0.4-0.1,0.6-0.1c0.2,0,0.4,0,0.6-0.1
		c0,0,0.1,0,0.1,0c0,0.1,0,0.1-0.1,0.2c0,0-0.1,0.1-0.1,0.1c-0.1,0.1-0.2,0.4,0,0.5c0.1,0.1,0.2,0.2,0.3,0.4c0,0,0,0,0.1,0.1
		c0,0,0,0,0,0c0,0,0-0.1,0-0.1c0-0.1,0-0.1,0-0.2c0.1-0.1,0.1-0.2,0.1-0.3c0-0.2,0-0.3-0.2-0.4c0,0-0.1,0-0.1-0.1
		c0-0.1,0.1-0.1,0.1-0.1c0.2,0,0.4,0,0.6,0c0.3,0,0.6,0.1,0.9,0.1c0,0,0.1,0,0.1,0c0.2,0,0.3,0.1,0.5,0.1c0.4,0.1,0.8,0.2,1.2,0.3
		v-0.3c-0.1,0-0.2-0.1-0.3-0.1c-0.1,0-0.1-0.1-0.2-0.1c-0.2-0.1-0.3-0.3-0.4-0.5c0,0,0,0,0,0c0-0.1,0-0.1,0-0.2c0,0,0,0,0,0
		c0.1-0.1,0.2-0.1,0.3-0.1c0,0,0.1,0,0.1,0c0.1,0.2,0.3,0.4,0.5,0.5v-0.4c-0.1,0-0.1-0.1-0.2-0.1c-0.3-0.1-0.5-0.1-0.8,0.1
		c0,0-0.1,0-0.1,0.1c-0.1-0.2-0.2-0.3-0.3-0.5c0,0-0.1,0-0.1,0c0.1,0.1,0.2,0.3,0.2,0.4c0,0,0,0.1,0.1,0.1c0.1,0.2,0.2,0.3,0.4,0.4
		c0.1,0.1,0.2,0.2,0.2,0.3c0,0,0,0,0.1,0.1c-0.1-0.1-0.3-0.1-0.4-0.2c-0.1-0.1-0.1-0.1-0.1,0c-0.3,0-0.5-0.1-0.8-0.1
		c-0.1,0-0.2,0-0.3,0c-0.1,0-0.3,0-0.4,0c-0.2,0-0.3,0-0.5-0.1c-0.1,0-0.1-0.1-0.2-0.1c0,0-0.1,0-0.1-0.1c0,0,0-0.1,0-0.1
		c0,0,0,0,0,0c-0.1,0-0.1,0-0.2,0.1c0,0,0,0,0,0c0.1,0,0.2,0.1,0.2,0.2c0,0,0,0,0,0c-0.2,0-0.4,0.1-0.7,0.1c-0.1,0-0.1,0-0.2,0
		c-0.1,0-0.2-0.1-0.2-0.1c-0.1,0-0.1,0-0.2,0c0,0,0.1,0.1,0.1,0.1c0,0-0.1,0-0.1,0c-0.1,0-0.3,0-0.4,0c-0.4,0.1-0.8,0.2-1.2,0.2
		C19.9,13.2,19.8,13.3,19.7,13.4C19.8,13.3,19.7,13.4,19.7,13.4z"/>
	<path class="st0" d="M25.7,14.4c0,0-0.1,0.1-0.1,0.1c-0.2,0.1-0.3,0.2-0.3,0.4c0,0.1,0,0.2,0,0.2c0,0.2-0.1,0.4-0.3,0.5
		c0,0,0,0,0,0c0.1,0.1,0.1,0.1,0.1,0c0.1-0.1,0.2-0.1,0.2-0.2c0.2-0.2,0.4-0.4,0.6-0.6c0.2-0.2,0.2-0.4,0.2-0.6c0,0,0-0.1,0-0.1
		c0,0,0-0.1,0-0.1c0,0,0.1-0.1,0.1-0.1v-0.1C26,14.1,25.8,14.2,25.7,14.4z"/>
	<path class="st0" d="M26.2,13.4L26.2,13.4C26.1,13.3,26.1,13.3,26.2,13.4C26.1,13.4,26.1,13.4,26.2,13.4z"/>
	<path class="st0" d="M12.9,14.9C12.9,14.9,13,14.9,12.9,14.9c0.2-0.1,0.3-0.1,0.4-0.2c0.2-0.1,0.3,0,0.4,0.1c0.1-0.1,0-0.1,0-0.2
		c0,0,0.1,0,0.1,0c0.1,0.1,0.3,0.1,0.3,0.2c0.1,0.1,0.1,0.2,0,0.2c-0.2,0.2-0.2,0.3-0.1,0.5c0.1,0.1,0.1,0.2,0.2,0.3
		c0.1,0.1,0.2,0.3,0.2,0.4c0,0,0,0,0,0.1c0.2-0.3,0.3-0.6,0.2-0.9c-0.1-0.5-0.4-0.9-1.1-1.1c0.1-0.1,0.3-0.1,0.4-0.2
		c0.1-0.1,0.2-0.1,0.3-0.1c0,0,0.1,0,0.1,0c0-0.1,0.1-0.1,0.2-0.1c0.2,0,0.4-0.1,0.6,0c0.1,0,0.3,0,0.4,0.1c0.1,0,0.3,0.1,0.4,0.1
		c0.1,0,0.1,0.1,0.2,0.1c0,0,0.1,0,0.1,0c0.1,0,0.1,0.1,0.2,0.1c0,0,0.1,0,0.1,0.1c0,0.1,0.1,0.1,0.1,0.2c0,0,0,0.1,0,0.1
		c-0.1,0.1-0.1,0.2-0.2,0.3c-0.1,0.2-0.1,0.5,0.1,0.7c0,0.1,0,0.1,0,0.2c0,0,0,0,0,0.1c0,0,0.1,0,0.1,0c0.1-0.1,0.2-0.2,0.3-0.2
		c0.2-0.1,0.3-0.5,0.2-0.7c-0.1-0.1-0.2-0.2-0.3-0.4c-0.1-0.1-0.2-0.2-0.3-0.3c0,0,0,0,0,0c0,0,0,0,0,0c0,0,0,0,0.1,0
		c0.2,0.1,0.4,0.1,0.6,0.2c0.1,0,0.1,0,0.2,0.1c0.1,0.1,0.3,0.2,0.5,0.1c0.2,0,0.4,0,0.5-0.1c0.2-0.1,0.5-0.3,0.7-0.4l-0.1,0
		c-0.3,0.1-0.5,0.1-0.8,0.1c-0.2,0-0.5,0-0.6,0.1c-0.1,0.1-0.3,0.1-0.4,0.1c0,0,0,0-0.1,0c-0.2,0-0.3-0.1-0.5-0.2
		c0.1,0,0.2-0.1,0.3,0c0.1,0,0.1,0,0.2,0c0.3,0,0.5-0.1,0.7-0.3c0.1-0.2,0.2-0.3,0.4-0.5l-0.1-0.1c-0.2,0-0.4,0.1-0.6,0.1
		c-0.3,0-0.6,0.2-0.7,0.4c0,0,0,0.1,0,0.2c0,0.1,0,0.1-0.1,0.2c-0.1,0-0.1,0-0.2,0c0,0-0.1,0-0.1,0c-0.1,0-0.2,0-0.2-0.1
		c0,0-0.1-0.1-0.1,0c-0.1,0-0.1,0-0.2,0c-0.3-0.1-0.5-0.1-0.8-0.2c0,0-0.1,0-0.1,0c0.2-0.1,0.3-0.2,0.5-0.3c0.1,0,0.2-0.1,0.2-0.1
		c-0.1,0-0.3,0-0.4,0c0,0-0.1,0-0.1,0c0,0-0.1,0-0.1,0c0,0-0.1,0-0.1,0c0,0,0-0.1,0-0.1c0,0-0.1,0-0.1,0c0,0,0,0,0,0
		c-0.1,0-0.1,0.1-0.2,0.1c-0.2,0.2-0.4,0.3-0.6,0.4c0,0,0,0-0.1,0c-0.1-0.1-0.2,0-0.2,0.1c-0.1,0-0.1,0.1-0.2,0.1
		c-0.2,0.1-0.4,0.2-0.6,0.3c-0.2,0.1-0.3,0.1-0.5,0.2c0,0.1,0,0.2,0,0.3C12.7,15,12.8,15,12.9,14.9z"/>
</g>
<path d="M35,19.1c0.2,0.3,0.4,0.5,0.6,0.8c0.6,0.8,1.2,1.5,1.2,2.5c-0.5,0.1-1,0.1-1.5-0.1c-0.6-0.3-1.7-0.1-2.1,0.3
	c-0.4,0.4-0.8,0.4-1.3,0.3c-1.6-0.3-2.5-1.5-1.9-2.7c0.5-1.2,1-2.4,1.3-3.6c0.3-0.9,1-1.6,2.3-1.8c-0.1-0.1-0.1-0.3-0.2-0.4
	c0.4-0.1,0.8-0.2,1.2-0.2c0.1,0,0.2,0.2,0.3,0.3c0.4,0,0.8,0,1.2,0c0.5,0.1,0.7,0.4,0.5,0.7c-0.4,0.5-0.2,1.1-0.2,1.6
	c0,0.2-0.1,0.6,0.3,0.7c0,0,0,0.1,0,0.1c0,0.3-0.1,0.5-0.2,0.8C36.3,19,36.2,19.1,35,19.1z M35.5,20.1c0,0-0.1,0.1-0.1,0.1
	c-0.3,0-0.5,0-0.8,0c-0.2,0-0.5-0.1-0.7-0.1c-0.4,0-0.7,0.1-1.1,0.1c-0.6,0-1.1-0.3-1.1-0.8c0-0.1,0-0.2,0-0.3
	c-0.2,0.5,0,0.9,0.5,1.2c0,0.4-0.1,0.8-0.1,1.2c0.4-0.4,0.7-0.8,1.1-1.1c0.1-0.1,0.3-0.1,0.4-0.1c0.7,0.5,1.4,1,1.9,1.6
	c0.3,0.4,0.6,0.5,1.1,0.4C36.5,21.4,36.1,20.7,35.5,20.1z M33,17.1c0.5-0.9,1.1-1.8,1.6-2.7c-0.3,0-0.7,0.1-1,0.1
	c0.1,0.1,0.2,0.2,0.3,0.3C33.1,15.7,32.8,16.5,33,17.1z M34.3,16.5c1-0.2,1.8-0.8,1.8-1.4C35.9,15.8,35,16,34.3,16.5z"/>
<g>
	<path class="st0" d="M37.3,16.9C37.2,16.9,37.2,17,37.3,16.9c-0.1,0.2,0,0.4,0.2,0.5c0.1,0,0.2,0,0.3,0c0.1,0,0.1-0.1,0.2-0.1
		c0.1-0.1,0-0.3-0.1-0.3C37.6,16.9,37.4,16.9,37.3,16.9z"/>
	<path class="st0" d="M38,17.4c0-0.1,0.1-0.2,0.1-0.3c0-0.1-0.1-0.2-0.2-0.3C37.9,17.1,37.9,17.2,38,17.4z"/>
	<path class="st0" d="M38.3,16.4c-0.1,0-0.2,0-0.4,0.1c0.3,0.1,0.5,0.1,0.8,0.2C38.6,16.6,38.5,16.4,38.3,16.4z"/>
	<path class="st0" d="M38.9,16.4c-0.1,0.1-0.1,0.3,0,0.5c0-0.2,0.2-0.4,0.4-0.5C39.2,16.2,39,16.3,38.9,16.4z"/>
	<path class="st0" d="M38.5,16.8c-0.2,0-0.2,0.1-0.3,0.2c0.2,0,0.4,0,0.6,0C38.8,16.8,38.7,16.8,38.5,16.8z"/>
	<path class="st0" d="M36.7,23.5c0,0.1,0.1,0.1,0.1,0.1c0.2,0.1,0.4,0.3,0.5,0.4c0,0,0.1,0,0.1,0c0.2,0,0.4,0,0.6,0
		c0.1,0,0.1,0,0.2,0c-0.1-0.2-0.3-0.3-0.5-0.4c-0.2,0-0.3-0.1-0.4-0.3c-0.1-0.3-0.4-0.5-0.2-0.8c0,0,0,0,0,0
		c-0.2,0.1-0.3,0.2-0.3,0.3c0,0.1-0.1,0.2-0.1,0.3c0,0,0,0.1,0,0.1c0,0,0.1,0,0.1,0C36.8,23.5,36.8,23.5,36.7,23.5z"/>
	<path class="st0" d="M36.3,21.8c0.2,0.2,0.4,0.4,0.6,0.6c0.1,0.1,0.2,0.1,0.2,0.2c0,0,0,0,0.1,0c0-0.1-0.1-0.2-0.1-0.4
		c0,0,0.1,0,0.1,0.1c0,0,0.1,0,0.1,0.1c0.1-0.1,0.1-0.2,0-0.3C37,21.7,36.6,21.7,36.3,21.8z"/>
	<path class="st0" d="M36.2,23.7C36.3,23.7,36.3,23.7,36.2,23.7c0.1-0.1,0.1-0.1,0.1-0.1c0,0.1,0,0.1-0.1,0.2c0,0,0,0,0,0
		c0.1,0,0.1-0.1,0.2-0.1c0.1-0.1,0.2-0.2,0.2-0.2c0,0,0-0.1,0-0.1c-0.2,0-0.4,0-0.5,0.1C36.1,23.6,36.2,23.6,36.2,23.7z"/>
	<path class="st0" d="M37.5,22.8c-0.2,0.2-0.2,0.5,0,0.6c0-0.3,0.4-0.4,0.6-0.6C38,22.6,37.6,22.6,37.5,22.8z"/>
	<path class="st0" d="M37.2,22.6C37.2,22.7,37.2,22.7,37.2,22.6c0,0.1,0,0.1,0,0.2c0,0.1,0,0.1,0,0.2c0,0,0,0,0.1,0
		c0-0.1,0-0.1,0.1-0.2c0.1-0.2,0.2-0.3,0.5-0.3c0.1,0,0.1,0,0.2-0.1c0.1-0.2,0.3-0.2,0.6-0.2c0.2,0,0.4,0,0.6,0.1
		c-0.2-0.3-0.5-0.4-0.8-0.2c-0.1,0-0.2-0.1-0.2-0.1c-0.2-0.1-0.4,0-0.5,0.1C37.4,22.3,37.2,22.4,37.2,22.6
		C37.2,22.6,37.2,22.6,37.2,22.6C37.2,22.6,37.2,22.6,37.2,22.6z"/>
	<path class="st0" d="M39.3,17c-0.3,0.1-0.5,0.5-0.3,0.7c0.1,0.1,0.1,0.1,0.3,0.1c-0.2-0.4,0.1-0.6,0.4-0.7C39.6,17,39.5,17,39.3,17
		z"/>
	<path class="st0" d="M40,18c0.1-0.1,0.3-0.2,0.4-0.4c0,0,0-0.1,0-0.1c0,0-0.1,0-0.1,0c-0.3,0.1-0.6,0.2-1,0.3
		C39.4,18.1,39.8,18.2,40,18z"/>
	<path class="st0" d="M40.1,20C40.2,20,40.2,19.9,40.1,20C40.2,19.9,40.2,19.9,40.1,20c0.1,0,0,0.1,0,0.1c0,0,0,0,0,0
		c0,0,0.1,0,0.1-0.1c0,0,0,0,0.1-0.1c0-0.1,0-0.2,0-0.2c-0.1,0-0.2,0-0.3,0.1C40.1,19.9,40.1,19.9,40.1,20z"/>
	<path class="st0" d="M40.4,21.5C40.4,21.5,40.3,21.6,40.4,21.5c-0.1,0.2-0.1,0.4,0,0.5C40.4,21.8,40.4,21.7,40.4,21.5z"/>
	<path class="st0" d="M39.9,17.4c-0.1-0.1-0.2-0.1-0.3,0c-0.1,0.1-0.2,0.2-0.2,0.3c0,0.1,0,0.1,0.1,0.1c0.1,0,0.3-0.1,0.4-0.1
		C40.1,17.6,40.1,17.6,39.9,17.4C40,17.4,40,17.4,39.9,17.4z"/>
	<path class="st0" d="M38.4,17.5c-0.1,0.1-0.1,0.2,0,0.2c0,0,0,0.1,0.1,0.1c0.1,0.2,0.2,0.2,0.5,0.2c0,0.1,0,0.3,0.1,0.4
		c0.1,0.1,0.2,0.1,0.3,0.1c0.1,0,0.1,0,0.2,0c0.3,0,0.4-0.1,0.5-0.4c-0.1,0-0.2,0.1-0.2,0.1c-0.2,0.1-0.3,0.1-0.4,0
		c-0.2-0.1-0.3-0.2-0.5-0.4c-0.1-0.1-0.1-0.3-0.1-0.4c0-0.1,0-0.1,0.1-0.2c-0.1,0-0.2,0.1-0.3,0.1C38.6,17.3,38.5,17.4,38.4,17.5z"
		/>
	<path class="st0" d="M40.3,22.2c0-0.3,0-0.5-0.2-0.7c-0.1,0.2-0.2,0.3-0.1,0.4C40.1,22,40.2,22.1,40.3,22.2z"/>
	<path class="st0" d="M40,21.1c0.1,0,0.2,0,0.3,0c0,0,0,0,0-0.1c0-0.1-0.2-0.2-0.4-0.1c0,0,0.1,0,0.1,0.1c-0.1,0-0.2,0-0.4,0
		C39.7,21.1,39.9,21.1,40,21.1z"/>
	<path class="st0" d="M38.2,17.5c0.1,0,0.1,0,0.2,0c-0.1,0-0.2,0-0.3-0.1C38.1,17.5,38.2,17.5,38.2,17.5z"/>
	<path class="st0" d="M38.8,21.9c0.1-0.2,0-0.5-0.3-0.6c-0.2-0.1-0.4,0-0.5,0.1C38.3,21.6,38.7,21.6,38.8,21.9z"/>
	<path class="st0" d="M35.4,23.7c-0.3,0-0.6,0.2-0.5,0.4c0,0.1,0,0.1,0.2,0.2c0-0.4,0.3-0.4,0.6-0.4C35.7,23.8,35.6,23.8,35.4,23.7z
		"/>
	<path class="st0" d="M34,23.1C33.9,23.1,33.9,23.1,34,23.1c-0.1,0.1-0.1,0.3-0.1,0.4c0.1,0,0.1,0.1,0.2,0.1c0.1,0,0.1,0,0.2,0
		c0.1,0,0.1-0.2,0.1-0.3C34.2,23.2,34.1,23.1,34,23.1z"/>
	<path class="st0" d="M34.3,23.7c0.1-0.1,0.1-0.1,0.2-0.2c0.1-0.1,0-0.2-0.1-0.3C34.3,23.4,34.3,23.5,34.3,23.7z"/>
	<path class="st0" d="M34.6,24.6c0,0,0.1-0.1,0.1-0.1c-0.1-0.1-0.2-0.1-0.3,0c-0.1,0-0.2,0.1-0.2,0.2h0.2
		C34.4,24.7,34.5,24.7,34.6,24.6C34.5,24.7,34.6,24.6,34.6,24.6z"/>
	<path class="st0" d="M33.6,23.4c-0.1-0.1-0.2-0.1-0.3-0.1c0.3,0.2,0.2,0.4,0.2,0.6c0,0.1,0,0.2-0.1,0.3c-0.1,0.1-0.2,0.2-0.2,0.4
		c0,0,0.1,0,0.1,0c0.1-0.1,0.3-0.1,0.4-0.2c0,0,0.1,0,0.1-0.1c0.1-0.1,0.1-0.3,0.2-0.4c0.1-0.1,0-0.2-0.1-0.3
		C33.7,23.6,33.7,23.5,33.6,23.4z"/>
	<path class="st0" d="M34.4,23.8c0,0,0.1,0,0.1,0c-0.1,0-0.1-0.1-0.2-0.1C34.3,23.8,34.4,23.8,34.4,23.8z"/>
	<path class="st0" d="M32.2,23.4c-0.3,0.1-0.5,0.5-0.3,0.7c0.1,0.1,0.1,0.1,0.3,0.1c-0.2-0.4,0.1-0.6,0.4-0.7
		C32.6,23.4,32.4,23.3,32.2,23.4z"/>
	<path class="st0" d="M32.9,24.4c0.1-0.1,0.3-0.2,0.4-0.4c0,0,0-0.1,0-0.1c0,0-0.1,0-0.1,0c-0.3,0.1-0.6,0.2-1,0.3
		C32.4,24.5,32.7,24.6,32.9,24.4z"/>
	<path class="st0" d="M32.5,23.7c-0.1,0.1-0.2,0.2-0.2,0.3c0,0.1,0,0.1,0.1,0.1c0.1,0,0.3-0.1,0.4-0.1c0.1,0,0.2-0.1,0.1-0.1
		c0,0-0.1-0.1-0.1-0.1C32.7,23.7,32.6,23.7,32.5,23.7z"/>
	<path class="st0" d="M33.3,23.9c0.1-0.1,0-0.4-0.2-0.4c-0.1-0.1-0.4,0-0.5,0.2C32.9,23.7,33.2,23.7,33.3,23.9z"/>
	<path class="st0" d="M36,24.4c0.1-0.1,0.1-0.3,0-0.4c-0.1-0.1-0.3-0.1-0.4,0C35.8,24.1,36,24.2,36,24.4z"/>
	<path class="st0" d="M39.3,23c0.1-0.3-0.4-0.7-0.8-0.7c-0.3,0-0.4,0.1-0.5,0.3c0.6,0,1,0.1,1,0.7C39.3,23.2,39.3,23.1,39.3,23z"/>
	<path class="st0" d="M37.9,23.2c0,0.1,0,0.2,0.2,0.1c0.2,0,0.4-0.1,0.5-0.1c0.1,0,0.2-0.1,0.1-0.1c-0.1-0.1-0.2-0.2-0.4-0.2
		c-0.2,0-0.3,0.1-0.4,0.2C38,23.1,38,23.1,37.9,23.2z"/>
	<path class="st0" d="M35.9,24.5C36,24.5,36,24.5,35.9,24.5C36,24.5,35.9,24.4,35.9,24.5c-0.3-0.1-0.6-0.1-0.9-0.2
		c0,0.2,0.1,0.3,0.2,0.3h0.3C35.7,24.7,35.8,24.6,35.9,24.5z"/>
	<path class="st0" d="M37.7,23.6c0.2,0.1,0.5,0.2,0.7,0.3c0.4,0.1,0.7-0.2,0.7-0.5c-0.5,0-0.9,0.1-1.4,0.1
		C37.7,23.4,37.6,23.5,37.7,23.6C37.6,23.5,37.7,23.6,37.7,23.6z"/>
	<path class="st0" d="M34.5,24c0,0,0,0.1,0,0.1c0,0.2,0.1,0.2,0.3,0.3c-0.1,0.1-0.1,0.2-0.1,0.3h0.5c0,0,0,0-0.1-0.1
		c-0.1-0.1-0.1-0.3-0.2-0.4c0-0.1,0-0.2,0.1-0.3c0,0,0.1-0.1,0.1-0.1c-0.1,0-0.2,0-0.2,0c-0.1,0-0.2,0.1-0.3,0.1
		C34.5,23.9,34.4,23.9,34.5,24z"/>
	<path class="st0" d="M34.6,23c0.2,0.1,0.3,0.3,0.5,0.4c0-0.2,0-0.3-0.2-0.4C34.9,22.9,34.8,22.9,34.6,23z"/>
	<path class="st0" d="M35,23.3c-0.1,0-0.2,0-0.3,0.1c0.2,0,0.3,0.1,0.4,0.1C35.1,23.5,35.1,23.4,35,23.3z"/>
	<path class="st0" d="M40,20.8C40,20.8,40,20.8,40,20.8c0.1-0.1,0.2-0.1,0.3-0.2c0,0,0.1-0.1,0.1-0.1c0,0,0-0.1,0-0.1c0,0,0,0,0,0
		c0-0.1,0-0.1-0.1-0.2c0-0.1-0.1-0.1-0.2-0.1c0.1,0.2,0,0.3-0.1,0.4c0,0.1-0.1,0.1-0.2,0.1c-0.1,0-0.2,0.1-0.2,0.2c0,0,0,0,0.1,0
		C39.8,20.9,39.9,20.9,40,20.8z"/>
	<path class="st0" d="M35.5,24.1c-0.1,0-0.2,0.1-0.2,0.2c0,0,0,0.1,0.1,0.1c0.1,0,0.2,0,0.3,0.1c0.1,0,0.1,0,0.1-0.1
		c0,0,0-0.1,0-0.1C35.7,24.1,35.6,24.1,35.5,24.1z"/>
	<path class="st0" d="M40.4,17C40.4,17,40.4,17,40.4,17C40.4,17,40.4,17,40.4,17C40.4,17,40.4,17,40.4,17C40.4,17,40.4,17,40.4,17z"
		/>
	<path class="st0" d="M40.4,16.2C40.4,16.2,40.4,16.2,40.4,16.2c-0.2,0-0.3,0.1-0.4,0.2c0,0.1,0,0.2,0.2,0.2c0,0,0,0,0-0.1
		c0,0,0,0,0-0.1c0,0.1,0.1,0.2,0.1,0.3c0,0,0,0,0.1,0c0,0,0,0,0-0.1c0,0,0-0.1,0-0.1C40.4,16.5,40.4,16.4,40.4,16.2z"/>
	<path class="st0" d="M40.4,17.3c0,0,0-0.1,0-0.1c0,0,0,0,0,0C40.4,17.2,40.4,17.3,40.4,17.3C40.4,17.3,40.4,17.3,40.4,17.3z"/>
	<path class="st0" d="M40.4,16.8C40.4,16.8,40.4,16.8,40.4,16.8c0,0.1,0,0.1,0,0.2c0,0,0,0,0,0C40.4,16.9,40.4,16.8,40.4,16.8z"/>
	<path class="st0" d="M32.9,22.8c0,0.1,0,0.2,0.2,0.2c0,0,0,0,0-0.1c0,0,0,0,0-0.1c0,0.1,0.1,0.2,0.1,0.3c0,0,0,0,0.1,0
		c0-0.1,0.1-0.1,0.1-0.2c0.1-0.2,0.1-0.3,0.2-0.5C33.3,22.5,33,22.6,32.9,22.8z"/>
	<path class="st0" d="M40.4,18.5c0-0.1,0-0.2,0-0.4l0,0C40.4,18.3,40.4,18.4,40.4,18.5C40.4,18.5,40.4,18.5,40.4,18.5z"/>
	<path class="st0" d="M40.2,18.2C40.2,18.3,40.1,18.3,40.2,18.2c0,0.2,0.1,0.3,0.2,0.4c0,0,0-0.1,0-0.1c0-0.1-0.1-0.1-0.1-0.2
		C40.3,18.3,40.2,18.3,40.2,18.2z"/>
	<path class="st0" d="M40.2,17.1c-0.1-0.1-0.4,0-0.5,0.2c0.2,0.1,0.5,0,0.7,0.3c0,0,0,0,0,0c0-0.1,0-0.1,0-0.2
		C40.4,17.2,40.3,17.1,40.2,17.1z"/>
	<path class="st0" d="M39.9,16.6c-0.1-0.1-0.3,0-0.4,0c0,0-0.1,0.1-0.1,0.1c-0.3-0.1-0.5,0.1-0.5,0.3c0.1-0.1,0.2-0.1,0.4-0.2
		c0.2-0.1,0.3-0.1,0.5,0c0,0,0.1,0,0.1,0c0.2-0.1,0.3-0.1,0.4,0.1c0,0,0.1,0.1,0.1,0.1c0,0,0-0.1,0-0.1c0,0,0,0,0-0.1
		C40.3,16.8,40.1,16.7,39.9,16.6z"/>
	<path class="st0" d="M40.4,17.8C40.4,17.8,40.4,17.8,40.4,17.8c0-0.1,0-0.2,0-0.3c0,0,0,0,0,0c0,0,0,0,0,0c0,0,0,0,0,0.1
		C40.4,17.6,40.4,17.7,40.4,17.8z"/>
	<path class="st0" d="M40.4,16.1C40.4,16.1,40.4,16.1,40.4,16.1L40.4,16.1C40.4,16.1,40.4,16.1,40.4,16.1z"/>
	<path class="st0" d="M31.9,24.5c-0.1,0-0.2,0-0.3,0.1c0,0,0,0.1-0.1,0.1h0.4C31.9,24.6,31.9,24.6,31.9,24.5z"/>
	<path class="st0" d="M27,22.5c-0.1,0-0.2,0-0.2,0.1v0.2c0.2,0,0.4,0,0.6,0C27.3,22.6,27.2,22.5,27,22.5z"/>
	<path class="st0" d="M39.4,24.3c0.1,0.1,0.1,0.1,0.2,0.2c0,0.1,0.1,0.1,0.1,0.2c0,0,0,0,0,0c-0.1-0.3-0.5-0.3-0.9-0.3
		c0.2,0.1,0.4,0.2,0.5,0.4h0.7c0,0,0,0,0,0C39.9,24.4,39.7,24.2,39.4,24.3z"/>
	<path class="st0" d="M39.9,22.5c-0.1-0.1-0.3-0.1-0.4-0.2c-0.1,0-0.2,0-0.4,0c0.1,0.1,0.2,0.1,0.2,0.2c0.2,0.2,0.2,0.3,0.2,0.5
		c-0.1,0.2-0.2,0.4-0.3,0.6c-0.1,0.2-0.3,0.2-0.5,0.2c-0.1,0-0.2,0-0.3,0c0.2,0.3,0.5,0.4,0.8,0.3c0.1,0,0.2,0,0.3-0.1
		c0.2,0,0.3-0.1,0.3-0.3c0-0.2,0-0.3-0.2-0.5c0.3,0,0.4-0.1,0.4-0.4c0-0.1,0-0.1,0-0.2C40.1,22.6,40,22.5,39.9,22.5z"/>
	<path class="st0" d="M35.7,23.2c-0.1-0.1-0.2-0.1-0.3-0.1c-0.2,0.1-0.2,0.2-0.2,0.4C35.3,23.3,35.6,23.3,35.7,23.2z"/>
	<path class="st0" d="M36.1,24.5c-0.1,0.1-0.1,0.1-0.2,0.2c0,0-0.1,0-0.1,0h0.6c0,0,0.1-0.1,0.1-0.1c0.1-0.1,0.1-0.2,0.1-0.3
		c0-0.1-0.1-0.1-0.1-0.2c0-0.1-0.1-0.1-0.2-0.2c0,0,0,0,0,0C36.4,24.2,36.2,24.3,36.1,24.5z"/>
	<path class="st0" d="M40.3,16.9C40.4,16.9,40.4,16.9,40.3,16.9C40.4,16.9,40.4,16.9,40.3,16.9C40.4,16.9,40.3,16.9,40.3,16.9z"/>
	<path class="st0" d="M35.1,23.7c0.1,0,0.2,0,0.4,0c0.2,0,0.3,0,0.3,0.1c0,0,0.1,0.1,0.1,0.1c0.2,0,0.2,0,0.3,0.2c0,0,0,0.1,0,0.1
		c0,0,0,0,0,0c0,0,0-0.1,0-0.1c0,0,0,0,0-0.1c0,0,0,0,0-0.1c0,0,0,0,0,0c0,0,0,0,0,0c0-0.1-0.1-0.2-0.2-0.3
		c-0.1-0.1-0.2-0.1-0.3-0.1c-0.1,0-0.1,0-0.2,0C35.4,23.5,35.2,23.5,35.1,23.7z"/>
	<path class="st0" d="M38.8,20C38.8,20,38.8,20.1,38.8,20C38.8,20,38.8,20,38.8,20C38.7,20,38.7,20,38.8,20z"/>
	<path class="st0" d="M39.8,19.6c-0.1-0.1-0.2-0.1-0.3-0.1c-0.1,0.1-0.2,0.2-0.1,0.3C39.4,19.7,39.6,19.6,39.8,19.6z"/>
	<path class="st0" d="M38.9,19.4c0.1,0.1,0.3,0.2,0.4,0.3c0-0.1,0-0.2-0.1-0.3C39.1,19.4,39,19.4,38.9,19.4z"/>
	<path class="st0" d="M38.6,18.2c-0.1,0.1-0.1,0.3,0,0.4c0.1-0.1,0.2-0.1,0.3-0.2c0,0,0.1-0.1,0.1-0.1c0-0.1,0-0.1,0-0.2
		C38.8,18.1,38.7,18.1,38.6,18.2z"/>
	<path class="st0" d="M39.2,19.7c-0.1,0-0.2,0-0.2,0.1c0.1,0,0.2,0.1,0.3,0.1C39.3,19.8,39.3,19.7,39.2,19.7z"/>
	<path class="st0" d="M38.9,20.6c0,0,0-0.1,0.1-0.1c-0.1,0-0.1,0-0.2,0c-0.1,0-0.2,0.1-0.1,0.2C38.7,20.7,38.7,20.7,38.9,20.6
		C38.8,20.7,38.9,20.7,38.9,20.6z"/>
	<path class="st0" d="M39.1,20.9c0,0,0.1,0,0.1,0c0.2,0,0.3,0,0.4-0.1c-0.1,0-0.1,0-0.2,0c-0.1,0-0.2,0-0.2-0.1
		c-0.1-0.1-0.1-0.2-0.1-0.3c0-0.1,0-0.2,0.1-0.3c0,0,0.1-0.1,0.1-0.1c-0.1,0-0.1,0-0.2,0c-0.1,0-0.1,0-0.2,0.1
		c-0.1,0-0.1,0.1-0.1,0.1c0,0,0,0.1,0,0.1c0,0.1,0.1,0.2,0.2,0.2c-0.1,0.1-0.1,0.2-0.1,0.2C39,20.8,39,20.9,39.1,20.9z"/>
	<path class="st0" d="M38.4,19.5c-0.1,0.1,0,0.2,0,0.3c0,0,0.1,0.1,0.1,0.1c0,0,0.1,0,0.1,0c0.1,0,0.1-0.2,0-0.2
		C38.6,19.6,38.5,19.5,38.4,19.5C38.4,19.5,38.4,19.5,38.4,19.5z"/>
	<path class="st0" d="M39.4,21c-0.2,0-0.4,0-0.4,0.1c0,0,0,0,0,0c0,0,0-0.1,0-0.1c0,0,0.1-0.1,0.1-0.1c-0.2,0-0.3,0.1-0.3,0.2
		c0,0.1,0.1,0.2,0.2,0.2c0-0.1,0.1-0.1,0.1-0.2C39.2,21.1,39.3,21,39.4,21z"/>
	<path class="st0" d="M38.8,19.6c-0.1,0.1-0.1,0.2-0.1,0.3c0.1-0.1,0.1-0.1,0.2-0.1C38.9,19.7,38.8,19.7,38.8,19.6z"/>
	<path class="st0" d="M40,20.2c-0.1-0.1-0.2-0.1-0.3,0c0.1,0.1,0.3,0.1,0.3,0.3C40.1,20.4,40.1,20.3,40,20.2z"/>
	<path class="st0" d="M38.2,17.6c-0.3,0.1-0.5,0.4-0.4,0.6C38.1,18.2,38.3,17.9,38.2,17.6z"/>
	<path class="st0" d="M38.1,17.6c-0.2-0.1-0.4-0.1-0.6,0c-0.1,0.1-0.2,0.3-0.2,0.4c0,0.1,0.1,0.1,0.2,0.1c0.2,0,0.2,0,0.3-0.2
		c0-0.1,0.1-0.2,0.2-0.3C38,17.6,38,17.6,38.1,17.6z"/>
	<path class="st0" d="M39,22c0.2-0.1,0.4-0.1,0.7-0.2c-0.1-0.1-0.3-0.2-0.5-0.1C39.1,21.7,39,21.9,39,22z"/>
	<path class="st0" d="M39.3,21.1c0,0-0.1,0.1-0.1,0.1c0,0.1,0,0.1,0,0.2c0,0,0,0-0.1,0c0,0.1-0.1,0.2-0.1,0.4
		c0.3-0.2,0.6-0.4,0.8-0.6C39.6,21,39.4,21,39.3,21.1z"/>
	<path class="st0" d="M39.5,20c-0.2,0-0.4,0.2-0.4,0.3c0,0.1,0,0.1,0.1,0.1c0-0.3,0.2-0.3,0.5-0.3C39.7,20,39.7,20,39.5,20z"/>
	<path class="st0" d="M39.6,20.7c0.1,0,0.2-0.1,0.3-0.1c0,0,0,0,0,0c0,0,0,0-0.1,0c-0.2,0-0.4,0-0.7,0
		C39.2,20.6,39.4,20.8,39.6,20.7z"/>
	<path class="st0" d="M39.4,20.4c0.1,0,0.2,0,0.3,0c0.1,0,0.1,0,0.1-0.1c0,0,0-0.1,0-0.1c-0.1-0.1-0.1-0.1-0.2-0.1
		C39.5,20.3,39.4,20.3,39.4,20.4C39.4,20.4,39.4,20.4,39.4,20.4z"/>
	<path class="st0" d="M39.3,19c0.1,0.2,0.4,0.3,0.6,0.3c-0.2-0.3-0.1-0.5,0.1-0.8c-0.3,0.1-0.5,0.2-0.5,0.4c0,0,0,0,0,0
		c0-0.1,0-0.1,0-0.2c0-0.1,0-0.1,0.1-0.2C39.3,18.6,39.2,18.8,39.3,19z"/>
	<path class="st0" d="M40,19.9c-0.1-0.1-0.2-0.1-0.3-0.1c0,0-0.1,0-0.1,0c-0.1-0.1-0.3-0.1-0.4,0.1c0.1,0,0.2,0,0.3,0
		c0.1,0,0.2,0,0.3,0.1c0,0,0,0,0.1,0c0.1,0,0.2,0,0.2,0.1c0,0,0,0.1,0,0.1c0,0,0,0,0,0c0,0,0-0.1,0-0.1c0,0,0,0,0,0
		C40.2,20.1,40.1,20,40,19.9z"/>
	<path class="st0" d="M40.2,18.2c0,0,0.1,0,0.1,0c0,0,0.1,0,0.1,0c0-0.1,0-0.2,0-0.3c0,0,0,0,0,0C40.2,17.9,40.1,18,40.2,18.2z"/>
	<path class="st0" d="M27.4,19.7c0.1,0,0.1,0,0.2,0c0.2,0,0.2,0,0.3-0.1c0.1-0.1,0.1-0.2,0.1-0.4c0.2,0.1,0.3,0,0.5-0.1
		c0,0,0-0.1,0.1-0.1c0.1-0.1,0.1-0.1,0-0.2c-0.1-0.1-0.1-0.2-0.2-0.2c-0.1,0-0.1-0.1-0.2-0.1c0,0.1,0,0.1,0,0.2c0,0.1,0,0.3-0.1,0.4
		c-0.1,0.1-0.3,0.2-0.5,0.3c-0.1,0.1-0.3,0.1-0.4,0c-0.1,0-0.1-0.1-0.2-0.1C27,19.5,27.2,19.6,27.4,19.7z"/>
	<path class="st0" d="M28.1,22c-0.2-0.1-0.4-0.1-0.6,0c-0.2,0.2-0.2,0.4,0,0.6C27.5,22.3,27.9,22.2,28.1,22z"/>
	<path class="st0" d="M27.3,18.6c0,0-0.1,0-0.1,0.1c-0.1,0.1,0,0.1,0.1,0.1c0.1,0,0.2,0.1,0.4,0.1c0.1,0,0.1,0,0.1-0.1
		c0-0.1,0-0.2-0.1-0.3C27.5,18.6,27.4,18.6,27.3,18.6z"/>
	<path class="st0" d="M27.2,19.2c0.2,0.2,0.5,0.1,0.7-0.1c-0.3-0.1-0.6-0.2-0.9-0.3c0,0-0.1,0-0.1,0c0,0,0,0.1,0,0.1
		C26.9,19,27,19.1,27.2,19.2z"/>
	<path class="st0" d="M27.5,18.5c-0.1-0.1-0.3-0.2-0.4-0.2c-0.2,0.1-0.3,0.2-0.2,0.4C27,18.5,27.3,18.5,27.5,18.5z"/>
	<path class="st0" d="M27.7,20.2c0.1-0.1,0-0.3-0.2-0.4c0,0.1,0,0.1,0,0.2c0,0,0,0.1,0,0.1c0,0,0,0,0,0c0.1-0.2-0.2-0.3-0.4-0.4
		c0.2,0.3,0.2,0.5,0,0.7C27.3,20.4,27.6,20.3,27.7,20.2z"/>
	<path class="st0" d="M29.4,15c0,0.1,0,0.2,0.1,0.2c0,0,0,0,0-0.1c0,0,0,0,0-0.1c0,0.1,0.1,0.2,0.1,0.3c0,0,0,0,0.1,0
		c0-0.1,0.1-0.1,0.1-0.2c0.1-0.2,0.1-0.3,0.1-0.5C29.8,14.7,29.5,14.8,29.4,15z"/>
	<path class="st0" d="M29.8,17c-0.1-0.1-0.1-0.2-0.2-0.2c0,0-0.1,0-0.1-0.1c0,0,0,0.1,0,0.1c0.2,0.3,0.5,0.6,1,0.6
		c0.1,0,0.2,0,0.2-0.1C30.3,17.4,30.1,17.2,29.8,17z"/>
	<path class="st0" d="M29,15.3c0,0-0.1,0.1-0.1,0.1c-0.3-0.1-0.5,0.1-0.5,0.3c0.1-0.1,0.2-0.1,0.3-0.2c0.1-0.1,0.3-0.1,0.4,0
		c0,0,0.1,0,0.1,0c0.2-0.1,0.3,0,0.4,0.1c0,0,0.1,0.1,0.1,0.1c0,0,0,0,0,0c0-0.1,0-0.1-0.1-0.1c0,0,0,0,0-0.1c0-0.2-0.2-0.2-0.4-0.3
		C29.2,15.1,29.1,15.2,29,15.3z"/>
	<path class="st0" d="M30.1,15.6c-0.1-0.1-0.2-0.1-0.3-0.1c0.3,0.2,0.2,0.4,0.2,0.6c0,0.1,0,0.2-0.1,0.3c-0.1,0.1-0.2,0.2-0.2,0.4
		c0,0,0.1,0,0.1,0c0.1-0.1,0.3-0.1,0.4-0.2c0,0,0,0,0.1-0.1c0.1-0.1,0.1-0.3,0.2-0.4c0.1-0.1,0-0.2-0.1-0.3
		C30.2,15.7,30.1,15.6,30.1,15.6z"/>
	<path class="st0" d="M27.3,16.7c0.3,0,0.5-0.3,0.4-0.6C27.4,16.2,27.3,16.5,27.3,16.7z"/>
	<path class="st0" d="M28.7,21.6c0,0,0.1,0,0.1,0c0.1,0,0.1,0,0.1-0.1c0-0.1,0-0.2-0.1-0.2c0.1,0,0.2-0.1,0.2-0.2c0,0,0-0.1,0-0.1
		c0-0.1,0-0.1-0.1-0.1c-0.1,0-0.1-0.1-0.2-0.1c0,0-0.1,0-0.2,0c0,0,0.1,0.1,0.1,0.1c0.1,0.1,0.1,0.1,0.1,0.2c0,0.1-0.1,0.2-0.1,0.3
		c0,0.1-0.1,0.1-0.2,0.1c0,0-0.1,0-0.1,0C28.5,21.6,28.6,21.6,28.7,21.6z"/>
	<path class="st0" d="M28.8,22c0.1,0,0.2-0.1,0.2-0.3c0-0.1-0.1-0.2-0.2-0.2c0,0,0.1,0,0.1,0.1c0,0,0,0.1,0,0.1c0,0,0,0,0,0
		c-0.1-0.2-0.2-0.1-0.4-0.1C28.7,21.7,28.9,21.8,28.8,22z"/>
	<path class="st0" d="M28.4,21.5c0-0.1-0.1-0.1-0.2-0.2c-0.1,0-0.1-0.1-0.2-0.1c-0.1-0.1-0.2-0.2-0.1-0.4c-0.1,0-0.1,0.1-0.1,0.1
		c0,0.1,0,0.1-0.1,0.1c0,0.1,0,0.1,0,0.2c0.1,0.1,0.2,0.1,0.2,0.2c0,0,0,0,0.1,0C28.1,21.5,28.2,21.6,28.4,21.5
		C28.3,21.6,28.3,21.5,28.4,21.5z"/>
	<path class="st0" d="M29.2,22.6C29.2,22.5,29.2,22.5,29.2,22.6c0.1-0.1,0.1-0.1,0.1-0.2c0,0.1,0,0.2,0.1,0.4c0,0,0.1,0,0.1,0
		c0.1-0.1,0.1-0.1,0.2-0.2c0.1-0.2,0.2-0.5,0.3-0.7c-0.3-0.1-0.8,0.1-0.9,0.4C29,22.4,29,22.5,29.2,22.6z"/>
	<path class="st0" d="M27.7,21.8c0.1,0,0.2,0,0.3,0c0.2,0,0.3,0,0.3-0.2c-0.1,0-0.2,0-0.3,0c0,0,0.1,0,0.1-0.1
		C27.8,21.5,27.6,21.6,27.7,21.8z"/>
	<path class="st0" d="M26.9,18.2C26.9,18.2,26.9,18.3,26.9,18.2c-0.1,0.1-0.1,0.1-0.1,0.2c0,0,0,0,0,0
		C26.9,18.4,26.9,18.3,26.9,18.2c0.2,0,0.3,0,0.5,0c0,0,0.1,0,0.1,0c0.2-0.1,0.3-0.1,0.4,0c0.1,0.1,0.2,0.1,0.3,0.2
		c0-0.3-0.1-0.4-0.4-0.3c0,0-0.1-0.1-0.1-0.1c-0.1-0.1-0.3-0.1-0.4-0.1C27.2,18,27,18.1,26.9,18.2z"/>
	<path class="st0" d="M28.4,15c-0.1,0.1-0.1,0.3,0,0.4c0-0.2,0.2-0.4,0.4-0.5C28.6,14.8,28.4,14.9,28.4,15z"/>
	<path class="st0" d="M29.3,18.4c-0.1,0-0.2,0.2-0.1,0.3c0,0,0.1,0.1,0.2,0.1c0.1,0,0.2,0,0.2,0c0.1-0.1,0.3-0.2,0.3-0.3
		c0,0,0-0.1,0-0.1C29.7,18.3,29.5,18.3,29.3,18.4z"/>
	<path class="st0" d="M28.1,19c0.2-0.2,0.1-0.6-0.2-0.7c-0.2-0.1-0.3,0-0.4,0.1c0.3,0.2,0.6,0.3,0.3,0.7C28,19.1,28,19.1,28.1,19z"
		/>
	<path class="st0" d="M27.7,16c0.1,0,0.1,0,0.2,0c-0.1,0-0.2,0-0.3-0.1C27.6,16,27.7,16,27.7,16z"/>
	<path class="st0" d="M27.8,15c-0.1,0-0.2,0-0.3,0.1c0.3,0.1,0.5,0.1,0.8,0.2C28.1,15.1,28,15,27.8,15z"/>
	<path class="st0" d="M33,24.5c-0.1,0-0.2,0.1-0.2,0.1c-0.2,0.1-0.3,0.1-0.4,0c-0.2-0.1-0.3-0.2-0.5-0.4c-0.1-0.1-0.1-0.3-0.1-0.4
		c0-0.1,0-0.1,0.1-0.2c-0.1,0-0.2,0.1-0.3,0.1c-0.1,0.1-0.2,0.1-0.2,0.2c-0.1,0.1-0.1,0.2,0,0.2c0,0,0,0.1,0.1,0.1
		c0.1,0.2,0.2,0.2,0.5,0.2c0,0.1,0,0.2,0,0.3h1C33,24.6,33,24.6,33,24.5z"/>
	<path class="st0" d="M40.2,22.2c-0.1,0.1-0.2,0.1-0.3,0.2c0.1,0,0.1,0,0.2,0C40.2,22.4,40.3,22.3,40.2,22.2z"/>
	<path class="st0" d="M33.2,24.7c0,0-0.1,0-0.1-0.1c0,0,0,0.1,0,0.1L33.2,24.7C33.2,24.7,33.2,24.7,33.2,24.7z"/>
	<path class="st0" d="M38,24.2c-0.2,0-0.5,0-0.8,0.1c0.1,0,0.2-0.1,0.3-0.1c-0.4-0.1-0.9,0.1-0.8,0.4c0.2,0,0.4,0,0.6,0.1h0.4
		C37.9,24.6,38,24.5,38,24.2z"/>
	<path class="st0" d="M40.4,22.5c-0.1,0-0.1,0-0.2,0c0,0.1,0.1,0.2,0.2,0.3C40.4,22.7,40.4,22.6,40.4,22.5z"/>
	<path class="st0" d="M40.4,23.5C40.4,23.5,40.4,23.5,40.4,23.5C40.4,23.5,40.4,23.5,40.4,23.5C40.4,23.5,40.4,23.5,40.4,23.5z"/>
	<path class="st0" d="M28,15.3c-0.1,0-0.2,0.1-0.3,0.2c0.2,0,0.4,0,0.5,0C28.2,15.4,28.1,15.3,28,15.3z"/>
	<path class="st0" d="M27,15.9c0.1,0,0.2,0,0.2,0c0.1,0,0.1-0.1,0.2-0.1c0.1-0.1,0-0.3-0.1-0.3c-0.1-0.1-0.4-0.1-0.5-0.1
		c0,0,0,0,0,0v0.1C26.8,15.7,26.9,15.8,27,15.9z"/>
	<path class="st0" d="M40.2,23.4c-0.2-0.1-0.3-0.1-0.5,0c0,0.1,0.1,0.2,0.1,0.2c0,0,0.1,0.1,0.1,0.1c0.1,0,0.3,0,0.4,0.1
		c0-0.1,0-0.2,0-0.3C40.3,23.5,40.3,23.5,40.2,23.4z"/>
	<path class="st0" d="M27,16.1c-0.1,0.1-0.2,0.2-0.2,0.4c0,0.1,0.1,0.1,0.2,0.1c0.2,0,0.2,0,0.3-0.2c0-0.1,0.1-0.2,0.2-0.3
		c0,0,0.1-0.1,0.1-0.1C27.4,16,27.2,16,27,16.1z"/>
	<path class="st0" d="M26.9,17.9c0,0.1,0,0.1,0.1,0.2c0,0,0,0,0.1,0c0-0.1,0.1-0.2,0.1-0.2c0,0,0,0,0,0.1c0,0,0,0,0,0.1
		c0.1,0,0.2-0.1,0.2-0.2c0-0.2-0.3-0.4-0.5-0.4C26.8,17.6,26.8,17.7,26.9,17.9z"/>
	<path class="st0" d="M27.5,15.9c0-0.1,0.1-0.2,0.1-0.3c0-0.1-0.1-0.2-0.2-0.3C27.4,15.6,27.4,15.8,27.5,15.9z"/>
	<path class="st0" d="M27.5,20.5c0.1,0.1,0.2,0.2,0.2,0.2c0,0,0.1,0,0.1,0.1c0,0,0,0,0,0c0-0.1,0-0.1,0-0.2c0,0,0,0,0,0c0,0,0,0,0,0
		c0.1-0.1,0.1-0.1,0-0.1C27.8,20.5,27.6,20.5,27.5,20.5z"/>
	<path class="st0" d="M26.8,22v0.3c0.2,0.1,0.3,0.1,0.5,0.2C27.1,22.3,27,22.1,26.8,22z"/>
	<path class="st0" d="M26.8,18.4c0-0.1,0.1-0.1,0.2-0.2c-0.1,0-0.1,0-0.2,0V18.4z"/>
	<path class="st0" d="M28.9,24.4c-0.1,0-0.2,0.1-0.3,0.1c-0.2,0.1-0.4,0-0.6-0.1c-0.2-0.2-0.4-0.3-0.6-0.5c-0.2-0.2-0.1-0.4-0.1-0.5
		c0-0.1,0.1-0.1,0.1-0.3c-0.1,0-0.3,0.1-0.4,0.1c-0.1,0.1-0.2,0.2-0.3,0.2v0.4c0,0,0,0.1,0,0.1c0.1,0.2,0.3,0.3,0.6,0.3
		c-0.1,0.2-0.1,0.3,0,0.5h1.3C28.8,24.6,28.8,24.5,28.9,24.4z"/>
	<path class="st0" d="M27.3,24.6c0-0.1,0-0.2,0-0.3c-0.2-0.1-0.3,0-0.5,0.1c0,0,0,0-0.1,0.1v0.2L27.3,24.6
		C27.2,24.7,27.3,24.6,27.3,24.6z"/>
	<path class="st0" d="M27,19.4c0-0.2,0-0.3-0.2-0.4c0,0,0,0,0,0v0.3c0,0,0.1,0,0.1,0C26.9,19.4,26.9,19.4,27,19.4z"/>
	<path class="st0" d="M29.3,23.7c0.1-0.2,0-0.5-0.2-0.6c-0.2-0.1-0.5,0-0.7,0.2C28.8,23.4,29.2,23.4,29.3,23.7z"/>
	<path class="st0" d="M29.4,22.9c-0.1-0.2-0.3-0.3-0.5-0.4c-0.2-0.1-0.4-0.1-0.6,0c-0.1,0-0.1,0.1-0.2,0.1c-0.4-0.1-0.6,0-0.7,0.4
		c0.2-0.1,0.3-0.1,0.5-0.2c0.2-0.1,0.4-0.1,0.6,0.1c0,0,0.1,0.1,0.2,0c0.3-0.1,0.4,0,0.6,0.2c0.1,0.1,0.1,0.1,0.1,0.2c0,0,0,0,0.1,0
		c0-0.1,0-0.1-0.1-0.2C29.4,23,29.4,23,29.4,22.9C29.4,23,29.4,22.9,29.4,22.9C29.4,22.9,29.4,22.9,29.4,22.9
		C29.4,22.9,29.4,22.9,29.4,22.9z"/>
	<path class="st0" d="M29.1,24.6c0.2-0.1,0.4-0.1,0.6-0.2c0,0,0.1,0,0.1-0.1c0.1-0.2,0.2-0.3,0.4-0.5c0.1-0.2,0.1-0.3-0.1-0.4
		c-0.1-0.1-0.2-0.2-0.3-0.3c-0.1-0.1-0.2-0.2-0.4-0.2c0,0,0,0,0,0c0.3,0.3,0.2,0.6,0.2,0.8c0,0.2-0.1,0.3-0.2,0.4
		c-0.2,0.1-0.3,0.2-0.3,0.5C29,24.6,29,24.6,29.1,24.6z"/>
	<path class="st0" d="M28.3,23.4c-0.2,0.1-0.3,0.2-0.3,0.3c0,0.1,0,0.1,0.2,0.1c0.2,0,0.4,0,0.6-0.1c0.2,0,0.2-0.1,0.1-0.2
		c0-0.1-0.1-0.1-0.1-0.1C28.6,23.4,28.5,23.4,28.3,23.4z"/>
	<path class="st0" d="M28,22.9c-0.4,0.1-0.7,0.6-0.5,0.9c0.1,0.1,0.2,0.2,0.4,0.2c-0.3-0.6,0.2-0.8,0.7-0.9
		C28.5,22.9,28.3,22.9,28,22.9z"/>
	<path class="st0" d="M28.7,24.4c0.2-0.1,0.4-0.3,0.6-0.4c0,0,0-0.1,0-0.1c0,0-0.1,0-0.1,0c-0.4,0.1-0.9,0.2-1.4,0.3
		C27.9,24.4,28.4,24.5,28.7,24.4z"/>
	<path class="st0" d="M29.4,16.5c0.1-0.1,0.2-0.2,0.4-0.3c0,0,0-0.1,0-0.1c0,0-0.1,0-0.1,0c-0.3,0.1-0.6,0.2-0.9,0.3
		C28.9,16.6,29.2,16.7,29.4,16.5z"/>
	<path class="st0" d="M28.8,15.6c-0.3,0.1-0.5,0.5-0.3,0.7c0.1,0.1,0.1,0.1,0.3,0.1c-0.2-0.4,0.1-0.6,0.4-0.7
		C29.1,15.5,28.9,15.5,28.8,15.6z"/>
	<path class="st0" d="M27.9,16c-0.1,0.1-0.1,0.2,0,0.2c0,0,0,0.1,0.1,0.1c0.1,0.2,0.2,0.2,0.4,0.2c0,0.1,0,0.3,0.1,0.4
		c0.1,0.1,0.2,0.1,0.3,0.1c0.1,0,0.1,0,0.2,0c0.3,0,0.4-0.1,0.4-0.4c-0.1,0-0.1,0.1-0.2,0.1c-0.1,0.1-0.3,0.1-0.4,0
		c-0.2-0.1-0.3-0.2-0.5-0.3c-0.1-0.1-0.1-0.2-0.1-0.4c0-0.1,0-0.1,0.1-0.2c-0.1,0-0.2,0.1-0.2,0.1C28.1,15.9,28,15.9,27.9,16z"/>
	<path class="st0" d="M29,16.2c0.1,0,0.3,0,0.4-0.1c0.1,0,0.1-0.1,0.1-0.1c0,0-0.1-0.1-0.1-0.1c-0.1-0.1-0.2-0.1-0.3,0
		c-0.1,0.1-0.2,0.1-0.2,0.3C28.9,16.2,28.9,16.2,29,16.2z"/>
	<path class="st0" d="M29.6,15.6c-0.1-0.1-0.4,0-0.5,0.2c0.2,0.1,0.5,0,0.7,0.3C29.9,15.9,29.8,15.7,29.6,15.6z"/>
	<path class="st0" d="M31,23.8c0,0.1,0.1,0.1,0.2,0.1c0.1,0,0.1,0,0.2,0C31.2,23.8,31.1,23.8,31,23.8z"/>
	<path class="st0" d="M31,24c-0.2-0.1-0.4-0.1-0.6,0c-0.1,0.1-0.2,0.3-0.2,0.4c0,0.1,0.1,0.1,0.2,0.1c0.2,0,0.2,0,0.3-0.2
		c0-0.1,0.1-0.2,0.2-0.3C30.9,24,31,24,31,24z"/>
	<path class="st0" d="M31.5,23.2c-0.2,0-0.2,0.1-0.3,0.2c0.2,0,0.4,0,0.6,0C31.7,23.2,31.6,23.1,31.5,23.2z"/>
	<path class="st0" d="M32.4,23.1c0,0-0.1,0.1-0.1,0.1c-0.3-0.1-0.5,0.1-0.5,0.3c0.1-0.1,0.2-0.1,0.4-0.2c0.2-0.1,0.3-0.1,0.5,0
		c0,0,0.1,0,0.1,0c0.2-0.1,0.3-0.1,0.4,0.1c0,0,0.1,0.1,0.1,0.1c0,0,0,0,0,0c0-0.1,0-0.1-0.1-0.2c0,0,0,0,0-0.1
		c0-0.2-0.3-0.2-0.4-0.3C32.7,23,32.6,23,32.4,23.1z"/>
	<path class="st0" d="M31.8,22.8c-0.1,0.1-0.1,0.3,0,0.5c0-0.2,0.2-0.4,0.4-0.5C32.1,22.6,31.9,22.7,31.8,22.8z"/>
	<path class="st0" d="M31.2,23.9c-0.3,0.1-0.5,0.4-0.4,0.6C31,24.6,31.3,24.2,31.2,23.9z"/>
	<path class="st0" d="M30.2,23.3C30.2,23.3,30.2,23.3,30.2,23.3c-0.1,0.2,0,0.4,0.2,0.5c0.1,0,0.2,0,0.3,0c0.1,0,0.1-0.1,0.2-0.1
		c0.1-0.1,0-0.3-0.1-0.3C30.6,23.3,30.3,23.2,30.2,23.3z"/>
	<path class="st0" d="M31,23.8c0-0.1,0.1-0.2,0.1-0.3c0-0.1-0.1-0.2-0.2-0.3C30.8,23.4,30.9,23.6,31,23.8z"/>
	<path class="st0" d="M31.2,22.8c-0.1,0-0.2,0-0.4,0.1c0.3,0.1,0.5,0.1,0.8,0.2C31.6,23,31.5,22.8,31.2,22.8z"/>
	<path class="st0" d="M28.1,19.4c0,0.1,0,0.1,0,0.2c0,0,0,0.1,0,0.1c0.1,0.1,0.2,0.1,0.3,0.2c0.1-0.1,0.1-0.2,0-0.3
		C28.4,19.4,28.3,19.4,28.1,19.4z"/>
	<path class="st0" d="M29,21.3c0,0,0,0.1,0.1,0.1c0,0,0,0,0.1,0c0.1,0,0.2,0,0.2,0c0-0.1,0-0.1-0.1-0.2C29.1,21.2,29.1,21.2,29,21.3
		z"/>
	<path class="st0" d="M29,18.5c0,0.1,0,0.2,0.1,0.3c0.1-0.1,0.2-0.3,0.2-0.5C29.1,18.4,29,18.4,29,18.5z"/>
	<path class="st0" d="M29,18.8c-0.1,0-0.2,0-0.3,0c0,0,0.1,0,0.1,0C28.9,18.8,29,18.8,29,18.8z"/>
	<path class="st0" d="M29,20.2c-0.1,0-0.2,0-0.2,0c-0.1,0.1-0.1,0.2-0.1,0.3C28.8,20.4,28.9,20.3,29,20.2z"/>
	<path class="st0" d="M29.7,19.4c0-0.1,0-0.3-0.1-0.4c-0.1-0.1-0.4-0.2-0.5-0.1c0,0,0.1,0.1,0.1,0.1c0.1,0.1,0.1,0.2,0.2,0.3
		c0,0.1,0.1,0.2,0.2,0.2C29.6,19.5,29.6,19.5,29.7,19.4z"/>
	<path class="st0" d="M28.8,18.9c-0.1,0.3,0.1,0.6,0.3,0.6C29.2,19.3,29.1,19,28.8,18.9z"/>
	<path class="st0" d="M28.2,21.1C28.2,21.2,28.2,21.2,28.2,21.1c0.2,0,0.2,0,0.3,0c0,0,0.1,0,0-0.1c0-0.1-0.1-0.1-0.2-0.1
		C28.3,21,28.3,21,28.2,21.1C28.2,21.1,28.2,21.1,28.2,21.1z"/>
	<path class="st0" d="M28.4,21.4c0.2,0,0.3-0.1,0.3-0.2c-0.2,0-0.4,0-0.6,0c0,0,0,0-0.1,0c0,0,0,0,0,0
		C28.2,21.3,28.3,21.4,28.4,21.4z"/>
	<path class="st0" d="M28.8,21.1c0-0.2-0.2-0.3-0.4-0.3c-0.1,0-0.2,0.1-0.2,0.1c0.2,0,0.5,0,0.5,0.3C28.8,21.2,28.8,21.1,28.8,21.1z
		"/>
	<path class="st0" d="M28,20.9c-0.1,0.1-0.1,0.2,0,0.3c0-0.1,0.2-0.2,0.3-0.3C28.2,20.9,28.1,20.9,28,20.9z"/>
	<path class="st0" d="M28.7,20.6c0.1,0,0.2-0.1,0.3-0.1c-0.1-0.1-0.1-0.1-0.2-0.1C28.7,20.5,28.7,20.6,28.7,20.6z"/>
	<path class="st0" d="M28,20.7c-0.1,0.1-0.2,0.1-0.1,0.3c0,0,0,0,0,0c0,0,0,0.1,0,0.1c0,0,0,0,0,0c0,0,0-0.1,0-0.1
		c0-0.1,0.1-0.1,0.2-0.1c0,0,0.1,0,0.1,0c0.1-0.1,0.1-0.1,0.2-0.1c0.1,0,0.2,0,0.3,0c-0.1-0.1-0.2-0.2-0.4-0.1c0,0-0.1,0-0.1,0
		C28.1,20.6,28.1,20.6,28,20.7z"/>
	<path class="st0" d="M28.4,17.8c-0.1-0.1-0.2-0.1-0.4-0.1c0.1,0.2,0.3,0.3,0.3,0.5C28.5,18.1,28.5,17.9,28.4,17.8z"/>
	<path class="st0" d="M28.2,20.4c0.1,0,0.3,0.1,0.4,0.2c0.1-0.1,0-0.2-0.1-0.3C28.4,20.3,28.3,20.3,28.2,20.4z"/>
	<path class="st0" d="M28.4,16.8c0-0.1,0-0.1,0-0.2c-0.1,0-0.2,0-0.3,0.1C28,16.8,28,17,28,17.1C28.1,17,28.2,17,28.4,16.8
		C28.4,16.9,28.4,16.8,28.4,16.8z"/>
	<path class="st0" d="M28.5,18.1c0.3-0.1,0.5-0.1,0.8-0.1c-0.1-0.1-0.2-0.2-0.3-0.1C28.7,17.8,28.6,18,28.5,18.1z"/>
	<path class="st0" d="M28.6,18.2c-0.1,0-0.2,0-0.3,0.2c0.2,0,0.3,0,0.5,0.1C28.8,18.3,28.8,18.2,28.6,18.2z"/>
	<path class="st0" d="M28.7,17.4c0.1,0.2,0.4,0.3,0.6,0.2c-0.2-0.3-0.1-0.5,0.1-0.7c-0.3,0.1-0.5,0.2-0.5,0.4c0,0,0,0,0,0
		c0,0,0-0.1,0-0.1c0-0.1,0-0.1,0.1-0.2C28.7,17.1,28.6,17.3,28.7,17.4z"/>
</g>
<g>
	<path class="st0" d="M26.3,34c-0.9-0.1-1.7-0.1-2.5-0.1v-1.3h0.7l-0.9-0.6l-0.9-0.6l-0.9,0.6l-0.9,0.6h0.7v1.3
		c-1.3,0-2.6,0.1-3.8,0.1l-0.5,0l0.4,0.3c0.1,0.1,0.2,0.2,0.3,0.2c2.1,1.7,4.8,3.2,8.2,4.7l0.4,0.2v-5.4L26.3,34z M22.6,31.8
		l1.1,0.7h-0.2v1.3h-1.7v-1.3h-0.2L22.6,31.8z M26.2,34.5v4.7c-3.4-1.5-6.1-3-8.2-4.7c-0.1-0.1-0.2-0.2-0.3-0.2
		c1.8-0.1,4.6-0.2,8.5,0V34.5z"/>
	<path class="st0" d="M17.6,26.9l-0.1-0.3l-0.3,0.3l-0.4,0l0.2,0.3l-0.2,0.3l0.4-0.1l0.3,0.2l0-0.4L18,27L17.6,26.9z M17.4,27.1
		l0,0.1l-0.1-0.1l-0.2,0l0.1-0.1l-0.1-0.1l0.2,0l0.1-0.1l0,0.1l0.2,0.1L17.4,27.1z"/>
	<path class="st0" d="M18,29.7l-0.4,0.1l-0.3-0.3l-0.1,0.4L16.8,30l0.4,0.2l0.1,0.4l0.3-0.3l0.4,0.1L17.8,30L18,29.7z M17.7,30.1
		l-0.2,0l-0.1,0.1l0-0.1L17.2,30l0.2-0.1l0-0.1l0.1,0.1l0.2,0L17.6,30L17.7,30.1z"/>
	<path class="st0" d="M19.8,28.2l-0.4,0l-0.2-0.3L19,28.2l-0.4,0.1l0.4,0.2l0,0.4l0.4-0.2l0.4,0.1l-0.1-0.3L19.8,28.2z M19.4,28.6
		l-0.2-0.1l-0.2,0.1l0-0.2l-0.2-0.1l0.2,0l0.1-0.1l0.1,0.1l0.2,0l-0.1,0.1L19.4,28.6z"/>
	<path class="st0" d="M16.2,28.2l-0.4,0l-0.3-0.3l-0.1,0.3l-0.4,0.1l0.4,0.2l0,0.4l0.4-0.2l0.4,0.1l-0.1-0.3L16.2,28.2z M15.8,28.6
		l-0.2-0.1l-0.2,0.1l0-0.2l-0.2-0.1l0.2,0l0.1-0.1l0.1,0.1l0.2,0l-0.1,0.1L15.8,28.6z"/>
	<path class="st0" d="M25.4,27.6c-0.6-0.6-1.5-0.9-2.4-0.9c0.2,0.1,0.4,0.3,0.6,0.5c0.6,0.7,0.4,1.7-0.5,2.2c-0.7,0.4-1.6,0.4-2.2,0
		c0.1,0.2,0.2,0.4,0.3,0.5c0.8,0.9,2.4,1.1,3.5,0.5C25.9,29.8,26.2,28.5,25.4,27.6z M24.6,30.2c-0.4,0.2-0.8,0.3-1.3,0.3
		c0,0,0,0,0,0c-0.7,0-1.4-0.3-1.9-0.8c0.2,0,0.4,0.1,0.6,0.1c0.5,0,0.9-0.1,1.3-0.3c1-0.6,1.3-1.7,0.6-2.5c0,0-0.1-0.1-0.1-0.1
		c0.6,0.1,1.1,0.4,1.5,0.7C25.9,28.5,25.6,29.7,24.6,30.2z"/>
</g>
<path d="M36.1,27.2c0.1,0,0.2,0,0.3-0.1c0,0,0,0,0,0c-0.1,0-0.1,0-0.2-0.1c0,0,0-0.1,0-0.1c0,0,0,0,0,0c0.1,0,0.2,0.1,0.3,0.1
	c0,0,0,0,0.1,0c0.1,0,0.1,0,0.2,0c-0.1,0-0.2-0.1-0.3-0.1c0,0,0-0.1,0-0.1c0.1,0,0.1,0,0.2,0.1c0.1,0,0.2,0.1,0.2,0.1c0,0,0,0,0,0
	c0.1,0,0.2,0,0.3-0.1c0,0,0,0-0.1,0c-0.1,0-0.1-0.1-0.2-0.1c0,0,0,0-0.1,0c-0.1,0-0.3,0-0.4,0c0,0,0,0,0,0c0-0.1,0-0.1,0.1-0.1
	c0.1,0,0.1,0,0.2,0c-0.1,0-0.1-0.1-0.2-0.1c-0.1,0-0.2,0-0.3,0c0,0,0,0,0,0c0,0,0,0,0-0.1c0,0,0,0,0,0c0.1,0,0.1,0,0.2,0
	c-0.1,0-0.1-0.1-0.2-0.1c0,0,0.1-0.1,0.1-0.1c0.1,0.1,0.1,0.1,0.2,0.1c0,0,0,0,0,0c0-0.1,0-0.1,0-0.2c0,0,0.1,0,0.1,0c0,0,0,0,0,0
	c0,0.1,0,0.2,0,0.2c0,0,0,0,0,0.1c0,0,0.1,0.1,0.1,0.1c0-0.1,0-0.2,0-0.2c0,0,0.1,0,0.1,0c0,0,0,0,0,0c0,0.1,0,0.2,0,0.3
	c0,0,0,0,0,0c0.1,0,0.1,0.1,0.2,0.1c0,0,0,0,0,0c0,0,0,0,0,0c0,0,0-0.1,0-0.1c0-0.1,0-0.1,0-0.2c-0.1-0.1-0.1-0.1-0.1-0.2
	c0,0,0,0,0,0c0,0,0.1,0,0.1,0c0,0.1,0.1,0.1,0.1,0.2c0,0,0,0,0,0c0,0,0-0.1,0-0.1c0-0.1,0-0.1,0-0.2c0-0.1-0.1-0.1-0.1-0.2
	c0,0,0.1,0,0.1,0c0,0,0.1,0.1,0.1,0.1c0,0,0,0,0,0c0-0.1,0-0.1,0-0.2c0,0,0,0,0,0c0,0,0.1,0,0.1,0c0,0,0,0,0,0c0,0.1,0,0.1-0.1,0.2
	c0,0,0,0,0.1,0c0,0,0.1,0,0.1-0.1c0,0,0,0,0,0c0,0,0,0,0.1,0.1c0,0-0.1,0-0.1,0.1c-0.1,0-0.1,0.1-0.2,0.1c0,0,0,0,0,0
	c0,0,0,0.1,0,0.1c0.1,0,0.2-0.1,0.2-0.1c0,0,0.1,0.1,0.1,0.1c-0.1,0-0.1,0.1-0.2,0.1c-0.1,0-0.1,0.1-0.2,0.1c0,0,0,0,0,0
	c0,0.1,0,0.2-0.1,0.2c0,0,0,0,0,0c0.1,0,0.2,0,0.3-0.1c0,0,0,0,0.1,0c0.1-0.1,0.1-0.2,0.2-0.3c0,0,0,0,0.1,0c0,0,0,0,0.1,0
	c-0.1,0.1-0.1,0.1-0.2,0.2c0,0,0.1,0,0.1,0c0.1,0,0.1,0,0.1-0.1c0-0.1,0.1-0.1,0.1-0.2c0,0,0,0,0,0c0,0,0,0,0.1,0
	c0,0-0.1,0.1-0.1,0.1c0,0,0,0,0,0c0.1,0,0.2,0,0.3-0.1c0,0,0,0.1,0,0.1c-0.1,0-0.2,0-0.3,0.1c0,0,0,0,0,0c0.1,0,0.1,0,0.2,0.1
	c0,0,0,0.1,0,0.1c-0.1,0-0.1,0-0.2-0.1c0,0,0,0-0.1,0c-0.1,0-0.1,0-0.2,0c0,0-0.1,0-0.1,0c0.1,0,0.2,0.1,0.3,0.1c0,0,0,0.1,0,0.1
	c0,0,0,0,0,0c-0.1,0-0.2-0.1-0.4-0.1c0,0,0,0,0,0c-0.1,0-0.2,0-0.3,0.1c0,0,0.1,0,0.1,0.1c0,0,0.1,0.1,0.1,0.1c0,0,0.1,0,0.1,0
	c0.1,0,0.2,0,0.4,0c0,0,0,0,0,0c0,0,0,0.1,0,0.1c0,0,0,0,0,0c-0.1,0-0.2,0-0.3,0c0,0,0,0,0.1,0.1c0.1,0.1,0.1,0.1,0.2,0.1
	c0.1,0,0.1,0,0.2,0c0,0,0,0,0,0c0,0,0,0,0,0.1c-0.1,0-0.1,0-0.2,0c0,0,0,0,0,0c0.1,0,0.1,0.1,0.2,0.2c0,0-0.1,0.1-0.1,0.1
	c-0.1-0.1-0.1-0.1-0.2-0.1c0,0,0,0,0,0c0,0.1,0,0.1,0,0.2c0,0-0.1,0-0.1,0c0,0,0-0.1,0-0.1c0,0,0-0.1,0-0.1c0,0,0,0,0-0.1
	c0,0-0.1-0.1-0.1-0.1c0,0.1,0,0.2,0,0.2c0,0-0.1,0-0.1,0c0-0.1,0-0.1,0-0.2c0-0.1,0-0.1,0-0.2c0,0,0,0,0,0c-0.1-0.1-0.2-0.1-0.2-0.2
	c0,0,0,0,0,0c0,0.1,0,0.1-0.1,0.2c0,0,0,0,0,0c0.1,0.1,0.1,0.2,0.2,0.3c0,0-0.1,0-0.1,0c0-0.1-0.1-0.1-0.1-0.2c0,0.1,0,0.1,0,0.2
	c0,0,0,0,0,0c0,0.1,0.1,0.2,0.1,0.2c0,0-0.1,0-0.1,0c0,0-0.1-0.1-0.1-0.1c0,0,0,0,0,0c0,0,0,0.1,0,0.1c0,0.1,0,0.1-0.1,0.1
	c-0.1,0-0.1,0,0-0.1c0-0.1,0-0.1,0-0.2c0,0,0,0,0,0c-0.1,0-0.1,0.1-0.2,0.1c0,0-0.1-0.1-0.1-0.1c0.1,0,0.1-0.1,0.2-0.1
	c0.1,0,0.1-0.1,0.1-0.2c0,0,0,0,0-0.1c0,0,0,0,0,0c-0.1,0-0.2,0.1-0.2,0.1c0,0-0.1-0.1-0.1-0.1c0.1,0,0.1-0.1,0.2-0.1
	c0,0,0.1-0.1,0.1-0.1c0,0,0,0,0,0c0-0.1,0-0.2,0.1-0.2c0,0,0,0,0,0c-0.1,0-0.2,0-0.2,0.1c0,0,0,0-0.1,0c-0.1,0.1-0.1,0.2-0.2,0.3
	c0,0,0,0,0,0c0,0-0.1,0-0.1-0.1c0.1-0.1,0.1-0.1,0.2-0.2c0,0,0,0,0,0c-0.1,0-0.1,0-0.2,0c0,0,0,0,0,0c-0.1,0.1-0.1,0.1-0.2,0.2
	c0,0-0.1,0-0.1,0c0,0,0,0,0,0c0,0,0.1-0.1,0.1-0.1c0,0,0,0,0,0c-0.1,0-0.1,0-0.2,0C36.2,27.3,36.2,27.3,36.1,27.2
	C36.2,27.2,36.2,27.2,36.1,27.2z"/>
<path d="M28.5,37c0-0.1,0.1-0.2,0.1-0.2c0,0,0,0,0,0c-0.1,0-0.1,0.1-0.2,0.1c0,0,0-0.1-0.1-0.1c0,0,0,0,0,0c0.1,0,0.2-0.1,0.3-0.1
	c0,0,0,0,0,0c0,0,0-0.1,0.1-0.2c-0.1,0-0.2,0.1-0.3,0.1c0,0,0-0.1-0.1-0.1c0.1,0,0.1-0.1,0.2-0.1c0.1,0,0.2-0.1,0.3-0.1c0,0,0,0,0,0
	c0-0.1,0.1-0.2,0.1-0.3c0,0-0.1,0-0.1,0c-0.1,0-0.2,0-0.2,0c0,0,0,0-0.1,0c-0.1,0.1-0.2,0.2-0.3,0.3c0,0,0,0-0.1,0
	c-0.1-0.1-0.1,0,0-0.1c0.1,0,0.1-0.1,0.1-0.1c-0.1,0-0.2,0-0.3,0.1c-0.1,0.1-0.1,0.1-0.2,0.2c0,0,0,0,0,0c0,0,0,0-0.1,0c0,0,0,0,0,0
	c0,0,0.1-0.1,0.1-0.1c-0.1,0-0.2,0-0.3,0c0,0,0-0.1,0-0.1c0.1,0,0.2,0,0.3,0c0,0,0,0,0,0c-0.1,0-0.1-0.1-0.2-0.1c0,0,0-0.1,0.1-0.1
	c0,0,0,0,0,0c0.1,0,0.2,0.1,0.3,0.1c0,0,0.1,0,0.1,0c0.1,0,0.1,0,0.2,0c-0.1,0-0.2-0.1-0.3-0.1c0,0,0-0.1,0.1-0.1c0,0,0,0,0,0
	c0.1,0.1,0.3,0.1,0.4,0.2c0,0,0.1,0,0.1,0c0.1,0,0.2,0,0.3,0c0,0,0,0,0,0c0,0,0,0,0,0c0,0-0.1-0.1-0.1-0.1c-0.1-0.1-0.1-0.1-0.2-0.1
	c-0.1,0-0.2,0-0.4-0.1c0,0,0,0,0,0c0,0,0-0.1,0-0.1c0.1,0,0.2,0,0.3,0c0,0,0,0,0,0c0,0-0.1,0-0.1-0.1c0-0.1-0.1-0.1-0.2-0.1
	c-0.1,0-0.2,0-0.3,0c0,0,0-0.1,0-0.1c0.1,0,0.1,0,0.2,0c0,0,0,0,0,0c-0.1,0-0.1-0.1-0.2-0.1c0,0,0,0,0,0c0,0,0,0,0.1,0
	c0,0,0,0,0.1,0c0.1,0.1,0.1,0.1,0.2,0.2c0,0,0,0,0-0.1c0,0,0-0.1,0-0.1c0,0,0,0,0,0c0,0,0.1,0,0.1,0c0,0,0,0.1,0,0.1
	c0,0.1,0,0.1,0,0.2c0,0,0,0,0,0.1c0,0,0.1,0.1,0.1,0.1c0-0.1,0-0.2,0-0.3c0,0,0.1,0,0.1,0c0,0.1,0,0.1,0,0.2c0,0.1,0,0.1,0,0.2
	c0,0,0,0,0,0c0.1,0.1,0.2,0.1,0.2,0.2c0,0,0,0,0,0c0-0.1,0.1-0.2,0.1-0.2c0,0,0,0,0-0.1c0-0.1-0.1-0.2-0.1-0.3c0,0,0,0,0-0.1
	c0,0,0.1,0,0.1,0c0,0.1,0.1,0.2,0.1,0.3c0,0,0-0.1,0.1-0.1c0,0,0-0.1,0-0.1c0-0.1-0.1-0.1-0.1-0.2c0,0,0,0,0,0c0,0,0.1,0,0.1,0
	c0,0.1,0,0.1,0.1,0.2c0,0,0,0,0,0c0-0.1,0.1-0.2,0.1-0.2c0.1,0,0.1,0,0.2,0c0,0.1-0.1,0.2-0.1,0.2c0,0,0,0,0,0
	c0.1,0,0.1-0.1,0.2-0.1c0,0,0,0.1,0.1,0.1c-0.1,0-0.1,0.1-0.2,0.1c0,0,0,0-0.1,0c-0.1,0-0.1,0.1-0.1,0.1c0,0,0,0.1,0,0.1
	c0.1,0,0.2-0.1,0.3-0.1c0,0,0,0.1,0.1,0.1c0,0,0,0,0,0c-0.1,0.1-0.3,0.1-0.4,0.2c0,0,0,0,0,0c0,0.1-0.1,0.2-0.1,0.3
	c0.1,0,0.1,0,0.1,0c0.1,0,0.1,0,0.2,0c0,0,0.1,0,0.1,0c0.1-0.1,0.2-0.2,0.3-0.3c0,0,0,0,0,0c0,0,0.1,0,0.1,0.1c0,0,0,0,0,0
	c-0.1,0.1-0.1,0.1-0.2,0.2c0,0,0.1,0,0.1,0c0.1,0,0.2,0,0.2-0.1c0,0,0.1-0.1,0.2-0.1c0,0,0,0,0.1,0c0,0,0,0,0.1,0.1
	c-0.1,0-0.1,0.1-0.1,0.1c0,0,0,0,0,0c0.1,0,0.2,0,0.3,0c0,0,0,0.1,0,0.1c-0.1,0-0.2,0-0.3,0c0,0,0,0,0,0c0.1,0,0.1,0.1,0.2,0.1
	c0,0,0,0.1-0.1,0.1c-0.1,0-0.1-0.1-0.2-0.1c-0.1,0-0.1,0-0.2-0.1c0,0-0.1,0-0.1,0c-0.1,0-0.1,0-0.2,0c0.1,0,0.2,0.1,0.3,0.1
	c0,0,0,0.1-0.1,0.1c-0.1,0-0.2-0.1-0.2-0.1c-0.1,0-0.1-0.1-0.2-0.1c0,0,0,0,0,0c-0.1,0-0.2,0-0.4,0c0,0,0,0,0,0
	c0.1,0.1,0.1,0.1,0.2,0.2c0,0,0,0,0.1,0c0.2,0,0.3,0,0.5,0.1c0,0,0,0.1,0,0.1c-0.1,0-0.2,0-0.3,0c0.1,0.1,0.1,0.1,0.2,0.1
	c0,0,0,0,0,0c0.1,0,0.2,0,0.4,0.1c0,0,0,0.1,0,0.1c-0.1,0-0.1,0-0.2,0c0,0,0,0,0,0c0,0,0.1,0.1,0.1,0.1c0.1,0.1,0.1,0.1,0,0.1
	c-0.1,0-0.1,0-0.1,0c-0.1,0-0.1-0.1-0.2-0.1c0,0,0,0,0,0c0,0.1,0,0.1,0,0.2c0,0-0.1,0-0.1,0c0-0.1,0-0.2,0-0.2c0-0.1,0-0.1-0.1-0.2
	c0,0,0,0-0.1-0.1c0,0,0,0,0,0c0,0.1,0,0.2,0,0.3c0,0-0.1,0-0.1,0c0-0.1,0-0.2,0-0.2c0-0.1,0-0.1,0-0.2c0,0,0,0,0,0
	c-0.1-0.1-0.2-0.1-0.2-0.2c0,0,0,0,0,0c0,0.1-0.1,0.1-0.1,0.2c0,0,0,0,0,0.1c0,0.1,0.1,0.2,0.2,0.3c0,0,0,0,0,0c0,0-0.1,0-0.1,0
	c0-0.1-0.1-0.2-0.1-0.3c0,0,0,0,0,0c0,0.1-0.1,0.1-0.1,0.2c0,0,0,0,0,0c0,0.1,0.1,0.2,0.1,0.3c0,0-0.1,0-0.1,0c0,0,0,0,0,0
	c0,0,0-0.1-0.1-0.2c0,0,0,0,0,0c0,0.1-0.1,0.1-0.1,0.2c0,0,0,0-0.1,0C28.6,37,28.5,37,28.5,37z"/>
<path d="M32,34.8c0.1,0,0.1-0.1,0.2-0.1c0,0,0,0,0,0c-0.1,0-0.1,0-0.2,0c0,0,0,0,0-0.1c0,0,0,0,0,0c0.1,0,0.2,0,0.2,0c0,0,0,0,0,0
	c0,0,0.1,0,0.1-0.1c-0.1,0-0.2,0-0.2-0.1c0,0,0-0.1,0-0.1c0.1,0,0.1,0,0.2,0c0.1,0,0.1,0,0.2,0c0,0,0,0,0,0c0.1,0,0.2-0.1,0.2-0.1
	c0,0,0,0-0.1,0c0,0-0.1-0.1-0.1-0.1c0,0,0,0,0,0c-0.1,0-0.2,0-0.3,0c0,0,0,0,0,0c0-0.1,0-0.1,0.1-0.1c0.1,0,0.1,0,0.2,0
	c-0.1,0-0.1-0.1-0.2-0.1c-0.1,0-0.1,0-0.2,0c0,0,0,0,0,0c0,0,0,0,0,0c0,0,0,0,0,0c0,0,0.1,0,0.1,0C32.2,34,32.1,34,32,34
	c0,0,0-0.1,0.1-0.1c0.1,0,0.1,0.1,0.2,0.1c0,0,0,0,0,0c0,0,0-0.1,0-0.1c0,0,0.1,0,0.1,0c0,0,0,0,0,0c0,0.1,0,0.1,0.1,0.2
	c0,0,0,0,0,0c0,0,0.1,0,0.1,0.1c0-0.1,0-0.1-0.1-0.2c0,0,0.1,0,0.1,0c0,0,0,0,0,0c0,0.1,0.1,0.2,0.1,0.3c0,0,0,0,0,0
	c0.1,0,0.1,0.1,0.2,0.1c0,0,0,0,0,0c0,0,0,0,0,0c0,0,0-0.1,0-0.1c0-0.1,0-0.1-0.1-0.1c-0.1-0.1-0.1-0.1-0.2-0.2c0,0,0,0,0,0
	c0,0,0.1,0,0.1,0c0,0.1,0.1,0.1,0.1,0.2c0,0,0,0,0,0c0,0,0,0,0-0.1c0,0,0-0.1,0-0.1c0,0-0.1-0.1-0.1-0.1c0,0,0.1,0,0.1,0
	c0,0,0.1,0.1,0.1,0.1c0,0,0,0,0,0c0,0,0-0.1,0-0.1c0,0,0,0,0,0c0,0,0,0,0.1,0c0,0,0,0,0,0c0,0.1,0,0.1,0,0.2c0,0,0,0,0,0
	c0,0,0,0,0.1-0.1c0,0,0,0,0,0c0,0,0,0,0.1,0c0,0,0,0-0.1,0.1c0,0-0.1,0.1-0.1,0.1c0,0,0,0,0,0c0,0,0,0.1,0,0.1
	c0.1,0,0.1-0.1,0.2-0.1c0,0,0,0,0.1,0.1c0,0-0.1,0.1-0.1,0.1c0,0-0.1,0.1-0.1,0.1c0,0,0,0,0,0c0,0.1,0,0.1,0,0.2c0,0,0,0,0,0
	c0.1,0,0.1,0,0.2-0.1c0,0,0,0,0,0c0-0.1,0.1-0.2,0.1-0.2c0,0,0,0,0.1,0c0,0,0,0,0.1,0c0,0.1-0.1,0.1-0.1,0.2c0,0,0.1,0,0.1,0
	c0,0,0.1,0,0.1-0.1c0-0.1,0.1-0.1,0.1-0.2c0,0,0,0,0,0c0,0,0,0,0.1,0c0,0,0,0.1-0.1,0.1c0,0,0,0,0,0c0.1,0,0.1-0.1,0.2-0.1
	c0,0,0,0.1,0.1,0.1c-0.1,0-0.1,0.1-0.2,0.1c0,0,0,0,0,0c0.1,0,0.1,0,0.2,0c0,0,0,0.1,0,0.1c-0.1,0-0.1,0-0.2,0c0,0,0,0-0.1,0
	c0,0-0.1,0-0.1,0c0,0-0.1,0-0.1,0c0.1,0,0.2,0,0.2,0c0,0,0,0,0,0.1c0,0,0,0,0,0c-0.1,0-0.2,0-0.3-0.1c0,0,0,0,0,0
	c-0.1,0-0.2,0.1-0.2,0.1c0,0,0.1,0,0.1,0c0,0,0.1,0,0.1,0.1c0,0,0,0,0.1,0c0.1,0,0.2,0,0.3,0c0,0,0,0,0,0c0,0,0,0,0,0.1c0,0,0,0,0,0
	c-0.1,0-0.1,0-0.2,0c0,0,0,0,0.1,0c0.1,0,0.1,0,0.2,0c0.1,0,0.1,0,0.2,0c0,0,0,0,0,0c0,0,0,0,0,0.1c-0.1,0-0.1,0-0.2,0c0,0,0,0,0,0
	c0.1,0,0.1,0.1,0.2,0.1c0,0,0,0.1-0.1,0.1c-0.1,0-0.1-0.1-0.2-0.1c0,0,0,0,0,0c0,0,0,0.1,0,0.1c0,0-0.1,0-0.1,0c0,0,0-0.1,0-0.1
	c0,0,0-0.1,0-0.1c0,0,0,0,0,0c0,0-0.1,0-0.1-0.1c0,0.1,0,0.1,0.1,0.2c0,0-0.1,0-0.1,0c0-0.1,0-0.1-0.1-0.1c0,0,0-0.1,0-0.1
	c0,0,0,0,0,0c-0.1,0-0.1-0.1-0.2-0.1c0,0,0,0,0,0c0,0.1,0,0.1,0,0.2c0,0,0,0,0,0c0.1,0.1,0.1,0.2,0.2,0.2c0,0-0.1,0-0.1,0.1
	c0-0.1-0.1-0.1-0.1-0.2c0,0.1,0,0.1,0,0.1c0,0,0,0,0,0c0.1,0.1,0.1,0.1,0.2,0.2c0,0-0.1,0-0.1,0c0,0-0.1-0.1-0.1-0.1c0,0,0,0,0,0
	c0,0,0,0.1,0,0.1c0,0.1,0,0.1-0.1,0.1c-0.1,0-0.1,0,0,0c0,0,0-0.1,0-0.1c0,0,0,0,0,0c0,0-0.1,0.1-0.1,0.1c0,0-0.1,0-0.1-0.1
	c0,0,0.1-0.1,0.1-0.1c0.1,0,0.1-0.1,0.1-0.1c0,0,0,0,0-0.1c0,0,0,0,0,0c-0.1,0-0.1,0.1-0.2,0.1c0,0-0.1,0-0.1-0.1
	c0.1,0,0.1-0.1,0.1-0.1c0,0,0.1-0.1,0.1-0.1c0,0,0,0,0,0c0-0.1,0-0.1,0-0.2c0,0,0,0,0,0c-0.1,0-0.1,0-0.2,0.1c0,0,0,0,0,0
	c0,0.1-0.1,0.2-0.1,0.2c0,0,0,0,0,0c0,0-0.1,0-0.1,0c0-0.1,0.1-0.1,0.1-0.2c0,0,0,0,0,0c0,0-0.1,0-0.1,0.1c0,0,0,0,0,0
	c0,0.1-0.1,0.1-0.1,0.2c0,0-0.1,0-0.1,0c0,0,0,0,0,0c0,0,0-0.1,0.1-0.1c0,0,0,0,0,0C32.2,34.8,32.1,34.9,32,34.8
	C32,34.9,32,34.9,32,34.8C32,34.8,32,34.8,32,34.8z"/>
<path d="M27.1,33.1c0.1,0,0.1-0.1,0.2-0.1c0,0,0,0,0,0c-0.1,0-0.1,0-0.2,0c0,0,0,0,0-0.1c0,0,0,0,0,0c0.1,0,0.2,0,0.2,0c0,0,0,0,0,0
	c0,0,0.1,0,0.1-0.1c-0.1,0-0.2,0-0.3,0c0,0,0-0.1,0-0.1c0.1,0,0.1,0,0.2,0c0.1,0,0.1,0,0.2,0c0,0,0,0,0,0c0.1,0,0.1-0.1,0.2-0.1
	c0,0,0,0-0.1,0c-0.1,0-0.1,0-0.2,0c0,0,0,0-0.1,0c-0.1,0-0.2,0.1-0.3,0.1c0,0,0,0,0,0c0-0.1,0-0.1,0-0.1c0.1,0,0.1,0,0.2,0
	c-0.1,0-0.1-0.1-0.2,0c-0.1,0-0.1,0-0.2,0.1c0,0,0,0,0,0c0,0,0,0,0,0c0,0,0,0,0,0c0,0,0.1,0,0.1,0c-0.1,0-0.1,0-0.2-0.1
	c0,0,0-0.1,0-0.1c0.1,0,0.1,0,0.2,0.1c0,0,0,0,0,0c0,0-0.1-0.1-0.1-0.1c0,0,0.1,0,0.1,0c0,0,0,0,0,0c0,0.1,0.1,0.1,0.1,0.2
	c0,0,0,0,0.1,0c0,0,0.1,0,0.1,0c0-0.1-0.1-0.1-0.1-0.2c0,0,0.1,0,0.1,0c0,0,0,0,0,0c0.1,0.1,0.1,0.2,0.2,0.2c0,0,0,0,0,0
	c0.1,0,0.1,0,0.2,0.1c0,0,0,0,0,0c0,0,0,0,0,0c0,0,0-0.1,0-0.1c0-0.1,0-0.1-0.1-0.1c-0.1,0-0.1-0.1-0.2-0.1c0,0,0,0,0,0
	c0,0,0,0,0.1-0.1c0.1,0,0.1,0.1,0.2,0.1c0,0,0,0,0,0c0,0,0,0,0-0.1c0,0,0-0.1-0.1-0.1c-0.1,0-0.1-0.1-0.2-0.1c0,0,0,0,0.1-0.1
	c0,0,0.1,0.1,0.1,0.1c0,0,0,0,0,0c0,0,0-0.1,0-0.1c0,0,0,0,0,0c0,0,0,0,0.1,0c0,0,0,0,0,0c0,0.1,0,0.1,0,0.2c0,0,0,0,0,0
	c0,0,0,0,0-0.1c0,0,0,0,0,0c0,0,0,0,0.1,0c0,0,0,0,0,0.1c0,0-0.1,0.1-0.1,0.1c0,0,0,0,0,0c0,0,0,0.1,0,0.1c0-0.1,0.1-0.1,0.1-0.2
	c0,0,0.1,0,0.1,0c0,0-0.1,0.1-0.1,0.1c0,0-0.1,0.1-0.1,0.1c0,0,0,0,0,0c0,0.1,0,0.1,0,0.2c0,0,0,0,0,0c0.1,0,0.1-0.1,0.2-0.1
	c0,0,0,0,0,0c0-0.1,0-0.2,0.1-0.2c0,0,0,0,0,0c0,0,0,0,0.1,0c0,0.1,0,0.1,0,0.2c0,0,0.1,0,0.1-0.1c0,0,0.1-0.1,0.1-0.1
	c0-0.1,0-0.1,0-0.2c0,0,0,0,0,0c0,0,0,0,0.1,0c0,0,0,0.1,0,0.1c0,0,0,0,0,0c0.1,0,0.1-0.1,0.2-0.1c0,0,0.1,0.1,0.1,0.1
	c-0.1,0-0.1,0.1-0.2,0.1c0,0,0,0,0,0c0.1,0,0.1,0,0.2,0c0,0,0,0.1,0,0.1c-0.1,0-0.1,0-0.2,0c0,0,0,0-0.1,0c-0.1,0-0.1,0-0.1,0
	c0,0,0,0-0.1,0.1c0.1,0,0.2,0,0.2,0c0,0,0,0,0,0.1c0,0,0,0,0,0c-0.1,0-0.2,0-0.3,0c0,0,0,0,0,0c-0.1,0-0.1,0.1-0.2,0.1
	c0,0,0.1,0,0.1,0c0,0,0.1,0,0.1,0c0,0,0.1,0,0.1,0c0.1,0,0.2-0.1,0.3-0.1c0,0,0,0,0,0c0,0,0,0,0,0.1c0,0,0,0,0,0
	c-0.1,0-0.1,0-0.2,0.1c0,0,0.1,0,0.1,0c0.1,0,0.1,0,0.2,0c0.1,0,0.1,0,0.2,0c0,0,0,0,0,0c0,0,0,0,0,0.1c-0.1,0-0.1,0-0.2,0
	c0,0,0,0,0,0c0.1,0,0.1,0,0.2,0.1c0,0,0,0.1,0,0.1c-0.1,0-0.1,0-0.2-0.1c0,0,0,0,0,0c0,0,0.1,0.1,0.1,0.1c0,0-0.1,0-0.1,0
	c0,0,0-0.1-0.1-0.1c0,0,0-0.1-0.1-0.1c0,0,0,0-0.1,0c0,0-0.1,0-0.1,0c0,0.1,0.1,0.1,0.1,0.2c0,0-0.1,0-0.1,0c0,0-0.1-0.1-0.1-0.1
	c0,0-0.1-0.1-0.1-0.1c0,0,0,0,0,0c-0.1,0-0.2-0.1-0.2-0.1c0,0,0,0,0,0c0,0.1,0,0.1,0,0.2c0,0,0,0,0,0c0.1,0.1,0.2,0.1,0.3,0.2
	c0,0,0,0-0.1,0.1c-0.1,0-0.1-0.1-0.2-0.1c0,0,0,0.1,0,0.1c0,0,0,0,0,0c0.1,0,0.1,0.1,0.2,0.1c0,0,0,0-0.1,0.1c0,0-0.1-0.1-0.1-0.1
	c0,0,0,0,0,0c0,0,0,0.1,0,0.1c0,0.1,0,0.1-0.1,0.1c-0.1,0-0.1,0-0.1,0c0,0,0-0.1,0-0.1c0,0,0,0,0,0c0,0-0.1,0.1-0.1,0.1
	c0,0-0.1,0-0.1,0c0,0,0.1-0.1,0.1-0.1c0,0,0.1-0.1,0-0.1c0,0,0,0,0-0.1c0,0,0,0,0,0c0,0.1-0.1,0.1-0.1,0.2c0,0-0.1,0-0.1,0
	c0-0.1,0.1-0.1,0.1-0.1c0,0,0.1-0.1,0.1-0.1c0,0,0,0,0,0c0-0.1,0-0.1,0-0.2c0,0,0,0,0,0c-0.1,0-0.1,0.1-0.2,0.1c0,0,0,0,0,0
	c0,0.1,0,0.2-0.1,0.3c0,0,0,0,0,0c0,0-0.1,0-0.1,0c0-0.1,0-0.1,0-0.2c0,0,0,0,0,0c0,0-0.1,0.1-0.1,0.1c0,0,0,0,0,0
	c0,0.1,0,0.1-0.1,0.2c0,0-0.1,0-0.1,0c0,0,0,0,0,0c0,0,0-0.1,0-0.1c0,0,0,0,0,0c0,0-0.1,0.1-0.1,0.1C27.2,33.2,27.2,33.2,27.1,33.1
	C27.1,33.2,27.1,33.1,27.1,33.1z"/>
<path d="M36,30.5c0.1,0,0.2,0,0.2,0c0,0,0,0,0,0c0,0-0.1-0.1-0.1-0.1c0,0,0,0,0.1-0.1c0,0,0,0,0,0c0.1,0,0.1,0.1,0.2,0.1
	c0,0,0,0,0,0c0,0,0.1,0,0.2,0c-0.1,0-0.1-0.1-0.2-0.1c0,0,0,0,0.1-0.1c0,0,0.1,0.1,0.1,0.1c0.1,0,0.1,0.1,0.2,0.1c0,0,0,0,0,0
	c0.1,0,0.2,0,0.3,0c0,0,0,0,0-0.1c0,0-0.1-0.1-0.1-0.1c0,0,0,0,0,0c-0.1,0-0.2-0.1-0.3-0.1c0,0,0,0,0,0c0-0.1,0-0.1,0.1,0
	c0.1,0,0.1,0,0.2,0c0,0-0.1-0.1-0.1-0.1c-0.1,0-0.1,0-0.2-0.1c0,0,0,0,0,0c0,0,0,0,0,0c0,0,0,0,0,0c0,0,0.1,0,0.1,0
	c0-0.1-0.1-0.1-0.1-0.2c0,0,0.1,0,0.1-0.1c0,0.1,0.1,0.1,0.1,0.2c0,0,0,0,0,0c0,0,0-0.1,0-0.1c0,0,0.1,0,0.1,0c0,0,0,0,0,0
	c0,0.1,0,0.1,0,0.2c0,0,0,0,0,0.1c0,0,0,0.1,0.1,0.1c0-0.1,0-0.1,0-0.2c0,0,0.1,0,0.1,0c0,0,0,0,0,0c0,0.1,0,0.2-0.1,0.3
	c0,0,0,0,0,0c0,0.1,0.1,0.1,0.1,0.1c0,0,0,0,0,0c0,0,0,0,0,0c0,0,0-0.1,0.1-0.1c0,0,0-0.1,0-0.1c0-0.1,0-0.1-0.1-0.2c0,0,0,0,0,0
	c0,0,0.1,0,0.1,0c0,0.1,0,0.1,0,0.2c0,0,0,0,0,0c0,0,0,0,0-0.1c0,0,0-0.1,0-0.1c0-0.1,0-0.1,0-0.2c0,0,0.1,0,0.1,0c0,0,0,0.1,0,0.1
	c0,0,0,0,0,0c0,0,0.1-0.1,0.1-0.1c0,0,0,0,0,0c0,0,0,0,0.1,0c0,0,0,0,0,0c0,0-0.1,0.1-0.1,0.1c0,0,0,0,0.1,0c0,0,0.1,0,0.1,0
	c0,0,0,0,0,0c0,0,0,0,0,0.1c0,0-0.1,0-0.1,0c-0.1,0-0.1,0-0.2,0.1c0,0,0,0,0,0c0,0,0,0.1-0.1,0.1c0.1,0,0.2,0,0.2-0.1
	c0,0,0,0.1,0,0.1c-0.1,0-0.1,0-0.2,0.1c-0.1,0-0.1,0-0.2,0.1c0,0,0,0,0,0c0,0.1-0.1,0.1-0.1,0.2c0,0,0,0,0,0c0.1,0,0.1,0,0.2,0
	c0,0,0,0,0.1,0c0.1-0.1,0.2-0.1,0.2-0.2c0,0,0,0,0.1,0c0,0,0,0,0,0c-0.1,0-0.1,0.1-0.2,0.1c0,0,0.1,0,0.1,0c0.1,0,0.1,0,0.1,0
	c0.1,0,0.1-0.1,0.2-0.1c0,0,0,0,0,0c0,0,0,0,0.1,0c0,0-0.1,0.1-0.1,0.1c0,0,0,0,0,0c0.1,0,0.2,0,0.2,0c0,0,0,0.1,0,0.1
	c-0.1,0-0.2,0-0.2,0c0,0,0,0,0,0c0,0,0.1,0.1,0.1,0.1c0,0,0,0-0.1,0.1c0,0-0.1-0.1-0.1-0.1c0,0,0,0,0,0c0,0-0.1,0-0.1,0
	c0,0-0.1,0-0.1,0c0.1,0,0.1,0.1,0.2,0.1c0,0,0,0-0.1,0.1c0,0,0,0,0,0c-0.1-0.1-0.2-0.1-0.3-0.2c0,0,0,0,0,0c-0.1,0-0.2,0-0.3,0
	c0,0,0,0,0.1,0.1c0,0,0,0.1,0.1,0.1c0,0,0,0,0.1,0c0.1,0,0.2,0.1,0.3,0.1c0,0,0,0,0,0c0,0,0,0,0,0.1c0,0,0,0,0,0
	c-0.1,0-0.1,0-0.2-0.1c0,0,0,0,0,0.1c0,0.1,0.1,0.1,0.2,0.1c0.1,0,0.1,0,0.2,0c0,0,0,0,0,0c0,0,0,0,0,0.1c-0.1,0-0.1,0-0.2,0
	c0,0,0,0,0,0c0,0.1,0.1,0.1,0.1,0.2c0,0-0.1,0-0.1,0.1c0-0.1-0.1-0.1-0.1-0.2c0,0,0,0,0,0c0,0,0,0.1,0,0.1c0,0-0.1,0-0.1,0
	c0,0,0-0.1,0-0.1c0,0,0-0.1,0-0.1c0,0,0,0,0-0.1c0,0,0-0.1-0.1-0.1c0,0.1,0,0.1,0,0.2c0,0-0.1,0-0.1,0c0-0.1,0-0.1,0-0.2
	c0,0,0-0.1,0-0.1c0,0,0,0,0,0c0-0.1-0.1-0.1-0.1-0.2c0,0,0,0,0,0c0,0.1-0.1,0.1-0.1,0.2c0,0,0,0,0,0c0,0.1,0,0.2,0.1,0.3
	c0,0-0.1,0-0.1,0c0-0.1,0-0.1-0.1-0.2c0,0-0.1,0.1-0.1,0.1c0,0,0,0,0,0c0,0.1,0,0.1,0,0.2c0,0-0.1,0-0.1,0c0,0,0-0.1,0-0.1
	c0,0,0,0,0,0c0,0,0,0.1-0.1,0.1c0,0.1,0,0.1-0.1,0c-0.1,0-0.1,0,0-0.1c0,0,0.1-0.1,0.1-0.1c0,0,0,0,0,0c0,0-0.1,0-0.2,0
	c0,0,0-0.1,0-0.1c0.1,0,0.1,0,0.2-0.1c0.1,0,0.1,0,0.1-0.1c0,0,0,0,0,0c0,0,0,0,0,0c-0.1,0-0.1,0-0.2,0.1c0,0,0-0.1,0-0.1
	c0.1,0,0.1,0,0.2-0.1c0,0,0.1,0,0.1,0c0,0,0,0,0,0c0-0.1,0.1-0.1,0.1-0.2c0,0,0,0,0,0c-0.1,0-0.1,0-0.2,0c0,0,0,0-0.1,0
	c-0.1,0.1-0.2,0.1-0.3,0.2c0,0,0,0,0,0c0,0,0,0-0.1-0.1c0.1,0,0.1-0.1,0.2-0.1c0,0,0,0,0,0c-0.1,0-0.1,0-0.2,0c0,0,0,0,0,0
	c-0.1,0-0.1,0.1-0.2,0.1c0,0,0,0-0.1-0.1c0,0,0,0,0,0c0,0,0.1,0,0.1-0.1c0,0,0,0,0,0c-0.1,0-0.1,0-0.2,0C36,30.6,36,30.6,36,30.5
	C36,30.5,36,30.5,36,30.5z"/>
<path d="M30.2,27.1c0-0.1,0-0.1,0-0.2c0,0,0,0,0,0c0,0-0.1,0.1-0.1,0.1c0,0-0.1,0-0.1,0c0,0,0,0,0,0c0.1-0.1,0.1-0.1,0.2-0.2
	c0,0,0,0,0,0c0,0,0-0.1,0-0.1c-0.1,0.1-0.1,0.1-0.2,0.2c0,0-0.1,0-0.1-0.1c0,0,0.1-0.1,0.1-0.1c0,0,0.1-0.1,0.1-0.1c0,0,0,0,0,0
	c0-0.1,0-0.1,0-0.2c0,0,0,0-0.1,0c-0.1,0-0.1,0-0.2,0.1c0,0,0,0,0,0c0,0.1-0.1,0.2-0.1,0.2c0,0,0,0,0,0c-0.1,0-0.1,0,0-0.1
	c0,0,0-0.1,0.1-0.1c-0.1,0-0.1,0-0.2,0.1c0,0.1-0.1,0.1-0.1,0.2c0,0,0,0,0,0c0,0,0,0-0.1,0c0,0,0,0,0,0c0,0,0-0.1,0-0.1
	c-0.1,0-0.1,0.1-0.2,0.1c0,0,0-0.1-0.1-0.1c0.1,0,0.1-0.1,0.2-0.1c0,0,0,0,0,0c-0.1,0-0.1,0-0.2,0c0,0,0,0,0-0.1c0,0,0,0,0,0
	c0.1,0,0.2,0,0.2,0c0,0,0,0,0.1,0c0,0,0.1,0,0.1-0.1c-0.1,0-0.2,0-0.2,0c0,0,0,0,0-0.1c0,0,0,0,0,0c0.1,0,0.2,0,0.3,0c0,0,0,0,0.1,0
	c0.1,0,0.1-0.1,0.2-0.1c0,0,0,0,0,0c0,0,0,0,0,0c0,0-0.1,0-0.1-0.1c-0.1,0-0.1,0-0.2,0c-0.1,0-0.2,0-0.3,0c0,0,0,0,0,0
	c0,0,0-0.1,0-0.1c0.1,0,0.2,0,0.2,0c0,0,0,0,0,0c0,0,0,0-0.1,0c0,0-0.1,0-0.2,0c-0.1,0-0.1,0-0.2,0c0,0,0-0.1,0-0.1
	c0.1,0,0.1,0,0.2,0c0,0,0,0,0,0c-0.1,0-0.1,0-0.2-0.1c0,0,0,0,0,0c0,0,0,0,0,0c0,0,0,0,0,0c0.1,0,0.1,0.1,0.2,0.1c0,0,0,0,0,0
	c0,0,0,0,0-0.1c0,0,0,0,0,0c0,0,0,0,0.1,0c0,0,0,0,0,0.1c0,0,0,0.1,0.1,0.1c0,0,0,0,0,0c0,0,0.1,0,0.1,0.1c0-0.1-0.1-0.1-0.1-0.2
	c0,0,0.1,0,0.1,0c0,0,0,0.1,0.1,0.1c0,0,0,0.1,0.1,0.1c0,0,0,0,0,0c0.1,0,0.1,0.1,0.2,0.1c0,0,0,0,0,0c0-0.1,0-0.1,0-0.2
	c0,0,0,0,0,0c-0.1-0.1-0.1-0.1-0.2-0.2c0,0,0,0,0,0c0,0,0,0,0.1,0c0.1,0.1,0.1,0.1,0.2,0.2c0,0,0-0.1,0-0.1c0,0,0-0.1,0-0.1
	c0,0-0.1-0.1-0.1-0.1c0,0,0,0,0,0c0,0,0,0,0.1,0c0,0,0.1,0.1,0.1,0.1c0,0,0,0,0,0c0-0.1,0-0.1,0-0.2c0,0,0.1,0,0.1,0
	c0,0.1,0,0.1,0,0.2c0,0,0,0,0,0c0,0,0.1-0.1,0.1-0.1c0,0,0.1,0,0.1,0.1c0,0-0.1,0.1-0.1,0.1c0,0,0,0,0,0c0,0-0.1,0.1,0,0.1
	c0,0,0,0,0,0.1c0.1,0,0.1-0.1,0.2-0.1c0,0,0,0,0.1,0c0,0,0,0,0,0c-0.1,0.1-0.1,0.1-0.2,0.2c0,0,0,0,0,0c0,0.1,0,0.1,0,0.2
	c0,0,0.1,0,0.1,0c0,0,0.1,0,0.1-0.1c0,0,0,0,0.1,0c0-0.1,0.1-0.2,0.1-0.2c0,0,0,0,0,0c0,0,0.1,0,0.1,0c0,0,0,0,0,0
	c0,0.1-0.1,0.1-0.1,0.2c0,0,0,0,0.1,0c0.1,0,0.1-0.1,0.1-0.1c0,0,0-0.1,0.1-0.1c0,0,0,0,0,0c0,0,0,0,0.1,0c0,0,0,0.1-0.1,0.1
	c0,0,0,0,0,0c0.1,0,0.1-0.1,0.2-0.1c0,0,0,0.1,0.1,0.1c-0.1,0-0.1,0.1-0.2,0.1c0,0,0,0,0,0c0.1,0,0.1,0,0.2,0c0,0,0,0.1,0,0.1
	c0,0-0.1,0-0.1,0c0,0-0.1,0-0.1,0c0,0,0,0-0.1,0c0,0-0.1,0-0.1,0.1c0.1,0,0.2,0,0.2,0c0,0,0,0.1,0,0.1c-0.1,0-0.1,0-0.2,0
	c-0.1,0-0.1,0-0.2,0c0,0,0,0,0,0c-0.1,0-0.2,0.1-0.2,0.1c0,0,0,0,0,0c0.1,0,0.1,0.1,0.2,0.1c0,0,0,0,0,0c0.1,0,0.2,0,0.4,0
	c0,0,0,0.1,0,0.1c-0.1,0-0.2,0-0.3,0c0.1,0,0.1,0,0.1,0.1c0,0,0,0,0,0c0.1,0,0.2,0,0.3,0c0,0,0,0.1,0,0.1c-0.1,0-0.1,0-0.2,0
	c0,0,0,0,0,0c0,0,0.1,0,0.1,0.1c0.1,0,0.1,0,0,0.1c0,0,0,0-0.1,0c-0.1,0-0.1,0-0.2-0.1c0,0,0,0,0,0c0,0,0,0.1,0.1,0.1
	c0,0-0.1,0-0.1,0c0-0.1-0.1-0.1-0.1-0.2c0-0.1-0.1-0.1-0.1-0.1c0,0,0,0-0.1,0c0,0,0,0,0,0c0,0.1,0.1,0.1,0.1,0.2c0,0-0.1,0-0.1,0
	c0-0.1,0-0.1-0.1-0.2c0,0,0-0.1-0.1-0.1c0,0,0,0,0,0c-0.1,0-0.2-0.1-0.2-0.1c0,0,0,0,0,0c0,0.1,0,0.1,0,0.2c0,0,0,0,0,0
	c0.1,0.1,0.1,0.1,0.2,0.2c0,0,0,0,0,0c0,0-0.1,0-0.1,0.1c-0.1-0.1-0.1-0.1-0.2-0.2c0,0,0,0,0,0c0,0,0,0.1,0,0.1c0,0,0,0,0,0
	c0.1,0.1,0.1,0.1,0.2,0.2c0,0,0,0-0.1,0c0,0,0,0,0,0c0,0-0.1-0.1-0.1-0.1c0,0,0,0,0,0c0,0,0,0.1,0,0.1c0,0,0,0,0,0
	C30.2,27.1,30.2,27.1,30.2,27.1z"/>
<path d="M27.9,28.6c0-0.1,0-0.1,0-0.1c0,0,0,0,0,0C27.9,28.4,27.9,28.5,27.9,28.6c-0.1-0.1-0.1-0.1-0.1-0.1c0,0,0,0,0,0
	c0,0,0.1-0.1,0.1-0.1c0,0,0,0,0,0c0,0,0-0.1,0-0.1c0,0-0.1,0.1-0.1,0.1c0,0,0,0-0.1,0c0,0,0.1-0.1,0.1-0.1c0,0,0.1-0.1,0.1-0.1
	c0,0,0,0,0,0c0-0.1,0-0.1,0-0.2c0,0,0,0-0.1,0c0,0-0.1,0-0.1,0.1c0,0,0,0,0,0c0,0.1-0.1,0.1-0.1,0.2c0,0,0,0,0,0c-0.1,0-0.1,0,0-0.1
	c0,0,0-0.1,0-0.1c0,0-0.1,0-0.1,0.1c0,0,0,0.1-0.1,0.1c0,0,0,0,0,0c0,0,0,0,0,0c0,0,0,0,0,0c0,0,0-0.1,0-0.1c-0.1,0-0.1,0-0.2,0.1
	c0,0,0,0-0.1-0.1c0.1,0,0.1,0,0.2-0.1c0,0,0,0,0,0c0,0-0.1,0-0.1,0c0,0,0,0,0-0.1c0,0,0,0,0,0c0.1,0,0.1,0,0.2,0c0,0,0,0,0.1,0
	c0,0,0.1,0,0.1,0c-0.1,0-0.1,0-0.2,0c0,0,0,0,0-0.1c0,0,0,0,0,0c0.1,0,0.2,0,0.3,0c0,0,0,0,0,0c0.1,0,0.1,0,0.2-0.1c0,0,0,0,0,0
	c0,0,0,0,0,0c0,0-0.1,0-0.1,0c0,0-0.1,0-0.1,0c-0.1,0-0.1,0-0.2,0c0,0,0,0,0,0c0,0,0,0,0-0.1c0.1,0,0.1,0,0.2,0c0,0,0,0,0,0
	c0,0,0,0-0.1,0c0,0-0.1,0-0.1,0c-0.1,0-0.1,0-0.2,0c0,0,0,0,0-0.1c0,0,0.1,0,0.1,0c0,0,0,0,0,0c0,0-0.1,0-0.1-0.1c0,0,0,0,0,0
	c0,0,0,0,0,0c0,0,0,0,0,0c0,0,0.1,0,0.1,0.1c0,0,0,0,0,0c0,0,0,0,0-0.1c0,0,0,0,0,0c0,0,0,0,0.1,0c0,0,0,0,0,0.1c0,0,0,0.1,0.1,0.1
	c0,0,0,0,0,0c0,0,0.1,0,0.1,0c0,0,0-0.1-0.1-0.1c0,0,0.1,0,0.1,0c0,0,0,0.1,0,0.1c0,0,0,0.1,0.1,0.1c0,0,0,0,0,0
	c0.1,0,0.1,0.1,0.2,0.1c0,0,0,0,0,0c0,0,0-0.1,0-0.1c0,0,0,0,0,0c-0.1-0.1-0.1-0.1-0.2-0.2c0,0,0,0,0,0c0,0,0,0,0,0
	c0,0,0.1,0.1,0.1,0.1c0,0,0,0,0-0.1c0,0,0-0.1,0-0.1c0,0-0.1-0.1-0.1-0.1c0,0,0,0,0,0c0,0,0,0,0.1,0c0,0,0.1,0.1,0.1,0.1
	c0,0,0,0,0,0c0,0,0-0.1,0-0.1c0,0,0.1,0,0.1,0c0,0,0,0.1,0,0.1c0,0,0,0,0,0c0,0,0.1-0.1,0.1-0.1c0,0,0,0,0.1,0c0,0-0.1,0.1-0.1,0.1
	c0,0,0,0,0,0c0,0,0,0.1,0,0.1c0,0,0,0,0,0.1c0,0,0.1-0.1,0.1-0.1c0,0,0,0,0.1,0c0,0,0,0,0,0c-0.1,0.1-0.1,0.1-0.2,0.2c0,0,0,0,0,0
	c0,0.1,0,0.1,0,0.2c0,0,0,0,0.1,0c0,0,0.1,0,0.1,0c0,0,0,0,0,0c0-0.1,0.1-0.1,0.1-0.2c0,0,0,0,0,0c0,0,0,0,0.1,0c0,0,0,0,0,0
	c0,0,0,0.1-0.1,0.1c0,0,0,0,0.1,0c0.1,0,0.1-0.1,0.1-0.1c0,0,0-0.1,0-0.1c0,0,0,0,0,0c0,0,0,0,0.1,0c0,0,0,0.1,0,0.1c0,0,0,0,0,0
	c0.1,0,0.1,0,0.2-0.1c0,0,0,0,0.1,0.1c-0.1,0-0.1,0-0.2,0.1c0,0,0,0,0,0c0,0,0.1,0,0.1,0c0,0,0,0,0,0.1c0,0-0.1,0-0.1,0
	c0,0-0.1,0-0.1,0c0,0,0,0-0.1,0c0,0-0.1,0-0.1,0c0.1,0,0.1,0,0.2,0c0,0,0,0,0,0.1c-0.1,0-0.1,0-0.2,0c0,0-0.1,0-0.1,0c0,0,0,0,0,0
	c-0.1,0-0.1,0.1-0.2,0.1c0,0,0,0,0,0c0.1,0,0.1,0,0.2,0.1c0,0,0,0,0,0c0.1,0,0.2,0,0.3,0c0,0,0,0,0,0.1c-0.1,0-0.1,0-0.2,0
	c0,0,0.1,0,0.1,0.1c0,0,0,0,0,0c0.1,0,0.1,0,0.2,0c0,0,0,0,0,0.1c0,0-0.1,0-0.1,0c0,0,0,0,0,0c0,0,0.1,0,0.1,0.1c0.1,0,0.1,0,0,0.1
	c0,0,0,0-0.1,0c0,0-0.1,0-0.1-0.1c0,0,0,0,0,0c0,0,0,0.1,0,0.1c0,0-0.1,0-0.1,0c0,0,0-0.1-0.1-0.1c0,0,0-0.1-0.1-0.1c0,0,0,0,0,0
	c0,0,0,0,0,0c0,0,0,0.1,0.1,0.1c0,0-0.1,0-0.1,0c0,0,0-0.1-0.1-0.1c0,0,0-0.1,0-0.1c0,0,0,0,0,0c-0.1,0-0.1-0.1-0.2-0.1c0,0,0,0,0,0
	c0,0,0,0.1,0,0.1c0,0,0,0,0,0c0.1,0.1,0.1,0.1,0.2,0.2c0,0,0,0,0,0c0,0,0,0-0.1,0c0,0-0.1-0.1-0.1-0.1c0,0,0,0,0,0c0,0,0,0.1,0,0.1
	c0,0,0,0,0,0c0,0,0.1,0.1,0.1,0.1c0,0,0,0-0.1,0c0,0,0,0,0,0c0,0,0,0-0.1-0.1c0,0,0,0,0,0c0,0,0,0.1,0,0.1
	C28.1,28.6,28,28.6,27.9,28.6C28,28.6,28,28.6,27.9,28.6z"/>
<g>
	<path d="M31.9,33.4c-0.1,0-0.2,0-0.4,0c-0.1,0-0.2,0-0.2,0c-0.5-0.1-1-0.3-1.4-0.6c-0.3-0.2-0.6-0.5-0.8-0.9
		c-0.3-0.4-0.4-0.8-0.4-1.2c0-0.1,0-0.1,0-0.2c0-0.1,0-0.2,0.1-0.3c0,0,0,0,0,0c0.1-0.4,0.3-0.7,0.5-1c0.2-0.3,0.6-0.5,0.9-0.7
		c0.6-0.3,1.2-0.5,1.9-0.5c0.1,0,0.2,0,0.2,0c0.1,0,0.1-0.1,0-0.1c0,0-0.1,0-0.1,0c-0.2-0.1-0.3-0.2-0.5-0.3
		c-0.1-0.1-0.1-0.1-0.1-0.2c0-0.1,0-0.2,0-0.3c0-0.1,0-0.2,0.1-0.2c0.1-0.1,0.1-0.1,0.2-0.2c0.1-0.1,0.3-0.1,0.4-0.1
		c0.1,0,0.1,0,0.2,0c0.1,0,0.3,0,0.4,0c0,0,0,0,0.1,0c0.1,0,0.2,0.1,0.3,0.1c0.2,0.1,0.4,0.2,0.4,0.4c0,0.1,0,0.2,0,0.3
		c0,0.3-0.2,0.4-0.5,0.5c-0.1,0-0.2,0-0.3,0.1c0,0,0,0-0.1,0.1c0,0,0,0,0.1,0c0.2,0.1,0.4,0.1,0.5,0.2c0.9,0.3,1.5,0.7,1.9,1.4
		c0.2,0.4,0.3,0.8,0.3,1.2c0,0.1,0,0.1,0,0.2c0,0.1,0,0.3-0.1,0.4c0,0,0,0,0,0.1c-0.1,0.3-0.2,0.5-0.3,0.7c-0.3,0.4-0.8,0.8-1.3,1.1
		c-0.3,0.2-0.6,0.3-1,0.3c-0.3,0-0.6,0-0.8,0C32.1,33.4,32,33.4,31.9,33.4z M35.3,30.9c0-0.2,0-0.3,0-0.5c0-0.2-0.1-0.4-0.2-0.6
		c-0.2-0.3-0.4-0.6-0.7-0.9c-0.7-0.6-1.7-0.8-2.7-0.7c-0.7,0.1-1.3,0.3-1.8,0.8c-0.6,0.5-0.9,1.1-0.8,1.8c0,0.7,0.4,1.2,1,1.7
		c0.5,0.4,1.1,0.6,1.8,0.7c0.4,0,0.8,0,1.1-0.1c0.5-0.1,1-0.3,1.4-0.7c0.3-0.2,0.5-0.5,0.7-0.8C35.2,31.4,35.3,31.2,35.3,30.9z
		 M32.8,26.7C32.8,26.7,32.8,26.7,32.8,26.7c0,0-0.1,0-0.1,0c-0.1,0-0.1,0-0.2,0c-0.1,0-0.1,0.1-0.2,0.1c-0.2,0.1-0.2,0.3-0.1,0.4
		c0,0.1,0.1,0.1,0.2,0.1c0,0,0.1,0,0.1,0c0,0,0,0-0.1-0.1c0,0-0.1,0-0.1-0.1c-0.1-0.1,0-0.3,0.2-0.4c0.2-0.1,0.4,0,0.6,0
		c0.1,0,0.1,0.1,0.1,0.1c0,0.1,0,0.2-0.1,0.3c0,0,0,0-0.1,0c-0.1,0-0.1,0-0.1,0.1c0,0.1,0,0.1,0.1,0.1c0.1,0,0.2-0.1,0.3-0.1
		c0.2-0.2,0.1-0.5-0.2-0.6C33,26.7,32.9,26.7,32.8,26.7z M32.6,26.9c-0.1,0-0.1,0.1-0.1,0.2C32.6,27.1,32.6,27,32.6,26.9z M32.7,27
		c-0.1,0.1,0,0.2,0,0.2C32.7,27.2,32.7,27.1,32.7,27z M32.9,27C32.9,27,32.9,27,32.9,27c0,0,0,0.1,0,0.1c0,0,0,0,0,0
		C32.9,27.2,32.9,27.1,32.9,27z M33.1,27.2C33.1,27.2,33.1,27.2,33.1,27.2c0,0,0.1-0.1,0-0.2c0,0,0,0,0,0
		C33.1,27.1,33.1,27.1,33.1,27.2z"/>
	<path d="M30.6,29C30.6,29,30.6,29.1,30.6,29c0.2,0.1,0.2,0.2,0.3,0.3c0,0,0.1,0.1,0.2,0.1c0.1,0,0.1,0.1,0.1,0.1c0,0,0,0.1,0.1,0.1
		c0.1,0.1,0.3,0.3,0.5,0.4c0.1,0.1,0.3,0.2,0.3,0.4c0,0.1,0.1,0.1,0.2,0.1c0.1,0,0.2,0.1,0.2,0.2c0,0,0,0.1,0,0.1c0,0,0,0,0,0.1
		c-0.1,0.2-0.1,0.5-0.1,0.7c0,0.1,0,0.2,0,0.3c0,0.1,0,0.2,0,0.4c0,0,0,0,0,0c0,0-0.1,0-0.1-0.1c0-0.1,0-0.2,0-0.3
		c0-0.1,0-0.1,0-0.2c0,0,0-0.1,0-0.1c0-0.2,0-0.4,0-0.5c0-0.1,0-0.1-0.1-0.2c0,0-0.1-0.1,0-0.1c0,0,0,0,0-0.1c0,0-0.1-0.1-0.1-0.1
		c-0.2-0.1-0.3-0.2-0.4-0.4c-0.1-0.1-0.2-0.2-0.3-0.3c0-0.1-0.1-0.1-0.2-0.1c-0.1,0-0.1-0.1-0.1-0.1c0-0.1-0.1-0.1-0.1-0.2
		C30.7,29.2,30.6,29.1,30.6,29C30.6,29.1,30.6,29,30.6,29C30.6,29,30.6,29,30.6,29z"/>
	<path d="M34.9,29.8C34.9,29.8,34.9,29.8,34.9,29.8c-0.3-0.4-0.5-0.7-0.9-0.9c-0.5-0.3-1.1-0.5-1.7-0.6c-0.6,0-1.2,0.1-1.7,0.4
		c-0.5,0.3-0.9,0.7-1.2,1.1c0,0-0.1,0.1-0.1,0.1c0,0,0,0,0,0c0,0,0,0,0-0.1c0.1-0.1,0.1-0.2,0.2-0.4c0.6-0.8,1.4-1.3,2.6-1.3
		c0.8,0,1.5,0.2,2.1,0.7c0.2,0.2,0.4,0.4,0.6,0.7C34.9,29.7,34.9,29.8,34.9,29.8C35,29.8,34.9,29.8,34.9,29.8z"/>
	<path d="M34.8,31.8C34.8,31.9,34.7,31.9,34.8,31.8c-0.1,0.1-0.2,0.2-0.2,0.3c-0.2,0.1-0.3,0.3-0.5,0.4c-0.2,0.2-0.5,0.3-0.8,0.4
		C32.8,33,32.5,33,32,33c-0.4,0-0.7-0.1-1-0.2c-0.6-0.2-1-0.6-1.3-1c-0.2-0.3-0.3-0.6-0.4-1c0-0.1,0-0.2,0-0.3c0,0,0-0.1,0-0.1
		c0,0,0,0,0,0c0,0,0,0,0,0.1c0,0.1,0,0.1,0,0.2c0,0.3,0.1,0.6,0.2,0.8c0.2,0.3,0.4,0.6,0.7,0.8c0.3,0.2,0.7,0.4,1.1,0.5
		c0.6,0.2,1.2,0.1,1.9,0c0.2-0.1,0.4-0.1,0.5-0.2c0.3-0.1,0.5-0.3,0.7-0.5C34.5,32,34.6,32,34.8,31.8C34.7,31.9,34.7,31.8,34.8,31.8
		C34.8,31.8,34.8,31.8,34.8,31.8z"/>
	<path d="M32.7,28.5C32.7,28.5,32.7,28.5,32.7,28.5c0,0.2,0,0.3,0,0.4c0,0,0,0,0,0.1c0,0,0,0-0.1,0c-0.1,0-0.2,0-0.2-0.1
		c0-0.1-0.1-0.1-0.1,0c0,0,0,0-0.1,0.1c0,0-0.1,0.1-0.1,0c0,0,0-0.1,0-0.1c0,0,0-0.1,0.1-0.1c0.1-0.1,0.1-0.1,0-0.2c0,0,0-0.1,0-0.1
		c0,0,0,0,0-0.1c0,0,0,0,0.1,0c0,0,0,0,0.1,0.1c0,0,0.1,0,0.1,0c0,0,0.1,0,0.1-0.1c0,0,0,0,0.1,0c0,0,0,0,0,0c0,0,0,0.1-0.1,0.1
		c-0.1,0.1-0.1,0.1,0,0.2c0,0,0,0.1,0,0.1c0,0,0,0,0.1,0c0,0,0,0,0,0c0-0.1,0-0.1,0.1-0.2C32.6,28.7,32.6,28.6,32.7,28.5
		C32.6,28.5,32.6,28.5,32.7,28.5z"/>
	<path d="M30.5,29.8C30.5,29.8,30.4,29.8,30.5,29.8c-0.1-0.1-0.1-0.1-0.1-0.2c0,0,0,0,0-0.1c0,0-0.1-0.1-0.1-0.1c-0.1,0-0.1,0-0.2,0
		c0,0,0,0-0.1,0c0,0,0,0-0.1,0c0,0,0,0,0,0c0.1,0,0.1,0,0.2,0c0.1,0,0.1,0,0.1-0.1c0,0,0,0,0-0.1c0,0,0,0,0,0c0,0,0,0,0.1,0
		c0,0,0.1,0.1,0.1,0.1c0,0,0,0,0,0.1c0,0.1,0.1,0.1,0.2,0.1c0,0,0.1,0,0.1,0c0,0,0,0,0.1,0c0,0,0,0,0,0c0,0-0.1,0-0.1,0
		c0,0,0,0-0.1,0c-0.1,0-0.1,0,0,0.1C30.5,29.7,30.5,29.7,30.5,29.8C30.5,29.8,30.5,29.8,30.5,29.8C30.5,29.8,30.5,29.8,30.5,29.8z"
		/>
	<path d="M29.9,30.3c0.1,0,0.1,0.1,0.2,0.1c0,0,0.1,0,0.1,0.1c0,0,0,0,0,0c0,0,0,0-0.1,0c0,0-0.1,0-0.1,0c0,0-0.1,0-0.1-0.1
		c-0.1,0-0.1,0-0.2,0c-0.1,0-0.1,0-0.2,0c0,0-0.1,0-0.1,0c0,0,0,0,0,0c0,0,0.1,0,0.1,0c0,0,0,0,0.1,0c0,0,0,0,0-0.1
		c0,0-0.1,0-0.1-0.1c0,0,0,0,0,0c0,0,0-0.1,0,0c0,0,0.1,0,0.1,0c0.1,0.1,0.2,0.1,0.3,0c0,0,0.1,0,0.2,0c0,0,0.1,0,0.1,0
		c0,0,0,0.1,0,0.1C30.2,30.3,30.1,30.3,29.9,30.3C30,30.3,30,30.3,29.9,30.3z"/>
	<path d="M31.2,29.1C31.2,29.1,31.2,29.1,31.2,29.1c0,0.1,0,0.2,0,0.2C31.1,29.2,31.1,29.2,31.2,29.1C31.1,29.2,31.1,29.1,31.2,29.1
		C31.1,29,31.1,29,31,28.9c0,0-0.1-0.1-0.1-0.1c0,0,0,0,0-0.1c0,0,0.1,0,0.1,0c0,0,0.1,0,0.1,0c0,0,0.1,0,0.1,0c0,0,0-0.1,0-0.1
		c0,0,0,0,0,0c0,0,0,0,0,0c0,0,0,0.1,0,0.1c0,0.1,0,0.1,0.1,0.2c0,0,0.1,0.1,0.1,0.1c0,0,0,0,0.1,0.1c0,0,0,0,0,0c0,0,0,0,0,0
		c0,0-0.1,0-0.1,0C31.3,29.1,31.3,29.1,31.2,29.1C31.2,29.1,31.2,29.1,31.2,29.1z"/>
	<path d="M33,32.2C33,32.2,33.1,32.2,33,32.2c0.2,0.1,0.3,0.2,0.5,0.4c0,0,0.1,0,0,0.1c0,0-0.1,0-0.1,0c-0.1,0-0.1-0.1-0.2-0.1
		c0,0,0,0-0.1-0.1c0,0,0,0,0,0c0,0,0,0,0,0.1c0,0.1,0,0.1,0,0.2c0,0,0,0,0,0.1c0,0-0.1,0-0.1,0c0,0,0-0.1-0.1-0.1
		C33,32.5,33,32.4,33,32.2C33,32.3,33,32.2,33,32.2C33,32.2,33,32.2,33,32.2z"/>
	<path d="M33.7,31.8C33.7,31.8,33.8,31.8,33.7,31.8c0.2,0.1,0.4,0.1,0.5,0.2c0,0,0,0,0.1,0c0,0,0,0,0,0c0,0-0.1,0-0.1,0
		c0,0-0.1,0-0.1-0.1c0,0,0,0-0.1,0c0,0,0,0,0,0c0,0,0,0.1,0.1,0.1c0,0,0,0.1,0,0.1c0,0,0,0,0,0c0,0,0,0-0.1,0
		C33.9,32.1,33.8,32,33.7,31.8C33.7,31.8,33.7,31.8,33.7,31.8C33.7,31.8,33.7,31.8,33.7,31.8z"/>
	<path d="M32.1,32.6c0,0-0.1,0.1-0.1,0.1c0,0-0.1,0.1-0.1,0.1c0,0,0,0-0.1,0c0,0,0,0,0,0c0,0,0-0.1,0-0.1c0-0.1,0.1-0.2,0.1-0.2
		c0,0,0-0.1,0-0.1c0,0,0,0,0.1,0c0,0,0,0,0,0c0.1,0.1,0.1,0.3,0.1,0.4c0,0,0,0.1,0,0.1c0,0,0,0-0.1,0c0,0,0-0.1-0.1-0.1
		C32.2,32.7,32.2,32.7,32.1,32.6C32.1,32.6,32.1,32.6,32.1,32.6z"/>
	<path d="M30.5,31.5C30.5,31.6,30.5,31.6,30.5,31.5c-0.2,0.2-0.3,0.3-0.4,0.4c0,0,0,0-0.1,0c0,0,0,0,0-0.1c0,0,0.1-0.1,0.1-0.1
		c0,0,0.1-0.1,0.1-0.1c0,0-0.1,0-0.1,0c-0.1,0-0.1,0-0.2,0c0,0,0,0,0,0c0,0,0,0,0,0c0,0,0,0,0.1,0C30.1,31.6,30.2,31.5,30.5,31.5
		C30.4,31.5,30.5,31.5,30.5,31.5z"/>
	<path d="M31,32.6C31,32.6,31,32.6,31,32.6c0-0.1,0-0.2,0.1-0.3c0,0,0,0,0,0c0,0,0,0,0,0c-0.1,0-0.1,0.1-0.2,0.1c0,0,0,0-0.1,0
		c0,0,0,0,0,0c0,0,0,0,0-0.1c0.1-0.1,0.3-0.2,0.4-0.3c0,0,0,0,0,0c0,0,0.1,0,0.1,0c0,0,0,0.1,0,0.1c0,0.1-0.1,0.2-0.1,0.3
		C31.1,32.6,31,32.6,31,32.6C31,32.6,31,32.6,31,32.6C31,32.7,31,32.7,31,32.6z"/>
	<path d="M34,29C34,29,33.9,29,34,29c-0.1,0.2-0.2,0.3-0.4,0.4c0,0,0,0-0.1,0c0,0-0.1,0-0.1,0c0,0,0,0,0,0c0.1-0.1,0.2-0.3,0.4-0.4
		C33.9,29,33.9,29,34,29C34,29,34,29,34,29z"/>
	<path d="M32.7,28.9c0-0.1,0.1-0.2,0.1-0.3c0,0,0,0,0-0.1c0,0,0,0,0,0c0,0,0,0,0,0c0,0,0,0,0,0c0,0.1-0.1,0.3-0.1,0.4
		c0,0,0,0.1-0.1,0.1C32.8,29.1,32.7,29.1,32.7,28.9C32.7,29,32.8,29,32.7,28.9C32.8,28.9,32.7,28.9,32.7,28.9z"/>
	<path d="M34.8,29.9C34.8,29.9,34.8,30,34.8,29.9c-0.2,0.1-0.4,0.2-0.6,0.2c-0.1,0-0.1,0-0.1-0.1c0,0,0,0,0,0c0,0,0.1,0,0.1,0
		c0.1,0,0.3-0.1,0.4-0.1C34.8,29.9,34.8,29.9,34.8,29.9C34.8,29.9,34.8,29.9,34.8,29.9z"/>
	<path d="M31,32c0,0,0,0.1-0.1,0.1c-0.1,0.1-0.2,0.2-0.2,0.3c0,0-0.1,0-0.1,0.1c0,0,0,0,0,0c0,0,0,0,0,0c0,0,0,0,0,0
		c0.1-0.1,0.2-0.2,0.3-0.3C30.9,32,30.9,31.9,31,32C30.9,31.9,31,31.9,31,32C31,31.9,31,31.9,31,32z"/>
	<path d="M34.9,31.2c0,0-0.1,0-0.1,0c-0.2,0-0.4,0-0.5-0.1c0,0-0.1,0-0.1,0c0,0,0,0,0.1,0c0.1,0,0.3,0,0.4,0.1
		C34.7,31.1,34.8,31.1,34.9,31.2C34.8,31.1,34.9,31.2,34.9,31.2C34.9,31.2,34.9,31.2,34.9,31.2z"/>
	<path d="M34,31.6C34,31.6,34,31.6,34,31.6c0.2,0.1,0.3,0.2,0.5,0.3c0,0,0.1,0,0,0.1c0,0-0.1,0-0.1,0C34.2,31.8,34.1,31.7,34,31.6
		C33.9,31.6,33.9,31.6,34,31.6C33.9,31.6,33.9,31.6,34,31.6C33.9,31.6,33.9,31.6,34,31.6z"/>
	<path d="M34.1,30C34.1,29.9,34.1,29.9,34.1,30c0.2-0.1,0.4-0.2,0.6-0.2c0,0,0.1,0,0.1,0C34.7,29.8,34.2,30,34.1,30z"/>
	<path d="M30.3,31.1C30.2,31.1,30.2,31.1,30.3,31.1c-0.2,0-0.2,0.1-0.3,0.1c-0.1,0-0.2,0-0.3,0.1c0,0-0.1,0-0.1,0c0,0,0,0,0,0
		c0.2-0.1,0.4-0.1,0.6-0.1C30.2,31,30.2,31,30.3,31.1C30.2,31.1,30.2,31.1,30.3,31.1z"/>
	<path d="M31.7,32.8c0,0,0-0.1,0-0.1c0-0.1,0-0.2,0.1-0.3c0,0,0,0,0-0.1c0,0,0,0,0,0c0,0,0,0,0,0c0,0.1,0,0.1,0,0.2
		C31.8,32.6,31.8,32.7,31.7,32.8C31.7,32.8,31.7,32.8,31.7,32.8C31.7,32.8,31.7,32.8,31.7,32.8z"/>
	<path d="M34.2,30.9c0.1-0.1,0.6,0,0.7,0.1c0,0,0,0-0.1,0C34.7,31,34.5,31,34.2,30.9C34.3,30.9,34.3,30.9,34.2,30.9z"/>
	<path d="M30.3,31.2C30.3,31.2,30.3,31.2,30.3,31.2c-0.2,0.1-0.4,0.1-0.6,0.2c0,0-0.1,0-0.1,0c0,0,0,0,0,0c0,0,0,0,0,0
		c0.1,0,0.1,0,0.2-0.1C29.9,31.2,30.1,31.2,30.3,31.2C30.3,31.2,30.3,31.2,30.3,31.2C30.3,31.2,30.3,31.2,30.3,31.2z"/>
	<path d="M30.8,31.8C30.8,31.9,30.8,31.9,30.8,31.8c-0.1,0.2-0.2,0.3-0.4,0.4c0,0,0,0-0.1,0c0,0,0,0,0-0.1
		C30.5,32.1,30.6,32,30.8,31.8C30.7,31.9,30.8,31.9,30.8,31.8z"/>
	<path d="M30.2,30.7c-0.1,0.1-0.6,0-0.7-0.1c0,0,0,0,0.1,0C29.7,30.6,29.9,30.6,30.2,30.7C30.1,30.7,30.1,30.7,30.2,30.7z"/>
	<path d="M35,30.7C35,30.7,34.9,30.8,35,30.7c-0.3,0-0.5,0-0.6-0.1c0,0,0,0-0.1,0c0,0,0,0,0,0c0,0,0,0,0.1,0
		C34.5,30.6,34.7,30.7,35,30.7C34.9,30.7,35,30.7,35,30.7C35,30.7,35,30.7,35,30.7z"/>
	<path d="M29.7,31.5c0.2-0.1,0.4-0.2,0.7-0.2c0,0,0,0,0,0c0,0,0,0,0,0C30.1,31.4,30,31.5,29.7,31.5C29.7,31.5,29.7,31.5,29.7,31.5
		C29.7,31.5,29.7,31.5,29.7,31.5z"/>
	<path d="M31.4,28.6C31.4,28.6,31.4,28.6,31.4,28.6c0.1,0.2,0.2,0.3,0.2,0.4c0,0,0,0.1,0,0.1c0,0-0.1,0-0.1-0.1
		C31.5,28.9,31.4,28.8,31.4,28.6C31.4,28.6,31.4,28.6,31.4,28.6C31.4,28.6,31.4,28.6,31.4,28.6z"/>
	<path d="M35.1,30.9c0-0.2,0-0.3,0-0.4C35.2,30.5,35.2,30.8,35.1,30.9z"/>
	<path d="M34.9,31.6c0-0.1,0.1-0.3,0.2-0.4C35.1,31.3,35,31.5,34.9,31.6z"/>
	<path d="M35,30.1c0.1,0.1,0.1,0.2,0.1,0.3C35.1,30.4,35,30.1,35,30.1z"/>
	<path d="M29.4,30.2C29.4,30.2,29.4,30.2,29.4,30.2C29.4,30.3,29.4,30.3,29.4,30.2C29.3,30.3,29.3,30.3,29.4,30.2
		C29.3,30.2,29.3,30.2,29.4,30.2z"/>
</g>
</svg>
