<svg id="Layer_1" data-name="Layer 1" xmlns="http://www.w3.org/2000/svg" x="0px" y="0px"
	 width="144px" height="144px" viewBox="0 0 144 144" enable-background="new 0 0 144 144" xml:space="preserve"><defs><style>.cls-1{fill:#231f20;}</style></defs><path class="cls-1" d="M46.48,25.05c-.12-2.29,0-4.59,0-6.89,0-3.14,0-6.28,0-9.42,0-1-.32-1.35-1.63-1.1a24.1,24.1,0,0,1-4,.41A31.06,31.06,0,0,1,27.79,5.53a3.22,3.22,0,0,0-2.73,0A30.78,30.78,0,0,1,8.35,7.71C6.55,7.44,6.51,7.47,6.51,9c0,5.84,0,11.67,0,17.51A12.13,12.13,0,0,0,9.34,34C13.28,39,19,42.33,25.41,45a2.84,2.84,0,0,0,2.42-.12,45.84,45.84,0,0,0,12.78-7.67C44.48,33.79,46.74,29.84,46.48,25.05ZM39.84,36.66a44.61,44.61,0,0,1-12.49,7.49,2.35,2.35,0,0,1-.92.24,1.43,1.43,0,0,1-.54-.12c-7.5-3.16-12.33-6.48-15.67-10.75a11.48,11.48,0,0,1-2.66-7c0-6,0-12.2,0-17.5,0-.16,0-.36,0-.53l.6.09a32,32,0,0,0,4.77.36,32.89,32.89,0,0,0,12.6-2.59,2.53,2.53,0,0,1,1-.23,2.14,2.14,0,0,1,.82.19A32.38,32.38,0,0,0,40,8.91h.92a26.16,26.16,0,0,0,4.21-.43l.32-.05a2.16,2.16,0,0,1,0,.31c0,2.27,0,4.58,0,6.81,0,.88,0,1.75,0,2.62,0,.71,0,1.43,0,2.14,0,1.56,0,3.18,0,4.78C45.67,29.31,43.84,33.1,39.84,36.66Z" transform="translate(-6.5 -5.24)"/><path class="cls-1" d="M44.4,25.12c-.09-1.62-.07-3.24,0-4.83,0-.71,0-1.42,0-2.12V15.54c0-2,0-4,0-6.08a30.94,30.94,0,0,1-3.46.29H40A33.83,33.83,0,0,1,26.83,7a1,1,0,0,0-.34-.1,1.17,1.17,0,0,0-.37.1h0l-.09,0A34.15,34.15,0,0,1,12.93,9.76a33.42,33.42,0,0,1-4.34-.29c0,5.2,0,11.19,0,17a10.68,10.68,0,0,0,2.5,6.57C14.33,37.2,19,40.43,26.37,43.51l.07,0a3.09,3.09,0,0,0,.43-.14,43.31,43.31,0,0,0,12.2-7.32C42.87,32.7,44.61,29.12,44.4,25.12ZM40,10.61h1c.85,0,1.63-.08,2.37-.15,0,1.72,0,3.43,0,5.09v2.63c0,.67,0,1.35,0,2v.08c0,1.39,0,2.82,0,4.25H26.83V8A34.79,34.79,0,0,0,40,10.61ZM9.63,10.45c1.1.11,2.21.16,3.3.16A35.24,35.24,0,0,0,26.09,8V24.53H9.64C9.62,19.64,9.63,14.78,9.63,10.45ZM12,32.61a10,10,0,0,1-2.34-6.12V25.14H26.09V42.43C19.37,39.52,15,36.47,12,32.61Zm26.33,2.9a41.73,41.73,0,0,1-11.48,6.94V25.14H43.36v0C43.56,28.92,41.91,32.3,38.31,35.51Z" transform="translate(-6.5 -5.24)"/><path class="cls-1" d="M22.58,16.26h0s-.9-5.38-2-4.35a3.85,3.85,0,0,1-2.48,1h-.45a3.81,3.81,0,0,1-2.47-1c-1-.93-1.83,3.32-2,4.2A4.5,4.5,0,0,0,13,17.59a4.63,4.63,0,0,0,1.44,3.34h0a5.11,5.11,0,0,0,.77.6l1,.75,1.74,1.35,1.75-1.35,1-.75a4.69,4.69,0,0,0,2.21-3.94A4.51,4.51,0,0,0,22.58,16.26Zm-5-.87h.65s0,0,0,0l-.16.21-.17.21s0,0-.06,0l-.16-.21-.16-.21S17.51,15.39,17.54,15.39Zm1.1,5.33a3,3,0,0,0-1.46,0C15.66,21.1,15,20,15,18.78a2.72,2.72,0,0,1,2.89-2.52,2.73,2.73,0,0,1,2.9,2.52C20.76,19.87,19.92,21.2,18.64,20.72Z" transform="translate(-6.5 -5.24)"/><path class="cls-1" d="M12.67,10.67l.12-.06h-.25s0,.07,0,.11Z" transform="translate(-6.5 -5.24)"/><path class="cls-1" d="M20.47,9.89l-.12-.11-.43.1h.55Z" transform="translate(-6.5 -5.24)"/><path class="cls-1" d="M14.65,23.11,14.52,23s0-.07,0-.09.15-.29.23-.43a.12.12,0,0,1,.08,0,.49.49,0,0,0,.34-.09.21.21,0,0,1,.1,0l.44,0H16l1.76.11,2.23.14,1,.06.55.05.46,0a11.18,11.18,0,0,0,1.53.05,6.12,6.12,0,0,1,1.21,0l.16,0a1.54,1.54,0,0,1-.43.33c-.05,0-.09,0-.14,0a.77.77,0,0,0-.52-.1.84.84,0,0,0-.63.48,2.41,2.41,0,0,0-.16.45c0,.06,0,.1.09.1s.45,0,.67,0a1.06,1.06,0,0,0,.6-.23.36.36,0,0,0,.08-.51l-.05-.08c.15-.09.28-.18.43-.26a.13.13,0,0,1,.09,0l.27,0a2.6,2.6,0,0,1,.88,0h0V22.5a.17.17,0,0,0-.13,0,.34.34,0,0,1-.26,0,1.63,1.63,0,0,1-.62-.3l-.38-.32a1.81,1.81,0,0,1-.29-.33.51.51,0,0,0-.17-.19s0-.07,0-.1L24.1,21a.74.74,0,0,1,0-.14.85.85,0,0,1,.05-.26.19.19,0,0,1,.09-.09c.15-.08.31-.13.46-.22a1,1,0,0,0,.52-.79.19.19,0,0,1,.14-.17l.11-.06h-.15a2.84,2.84,0,0,1-.5.06,1,1,0,0,0-.8.56,3,3,0,0,0-.06.52c0,.16,0,.32,0,.49,0,0,0,0,0,.06h0l0,0a1.54,1.54,0,0,0-.44-.48.41.41,0,0,1-.12-.17.72.72,0,0,0-.35-.42,2.12,2.12,0,0,0-.58-.17,9.21,9.21,0,0,0-1.05,0v.08a2.51,2.51,0,0,1,.9.34,1.39,1.39,0,0,0,.75.24.53.53,0,0,1,.44.16l.06,0a1.32,1.32,0,0,1,.31.49c-.14-.05-.27-.07-.33-.19a.38.38,0,0,0-.18-.15,1,1,0,0,0-1,0,3.86,3.86,0,0,1-.8.3l0,.12c.21.08.43.14.63.23a1.33,1.33,0,0,0,1.07,0,.41.41,0,0,0,.19-.15c.09-.13.08-.14.26-.09a.2.2,0,0,1,.17.11.32.32,0,0,0,.1.1c.12.05.17.13.14.24s0,.1.08.1a.3.3,0,0,1,.21.1c.21.2.42.4.64.59a1,1,0,0,0,.1.09l-.75,0c-.28,0-.55,0-.82,0-.12,0-.23,0-.34,0l-1.72-.1h-.05l-1.83-.12h-.21l-1-.07a4.28,4.28,0,0,1-.52,0l-2-.13h-.28a6.38,6.38,0,0,1-1-.13A.72.72,0,0,0,14,22l.13.06a2.6,2.6,0,0,1-.4,0l-.34-.06a4.66,4.66,0,0,1-.83-.34l0,0-.19-.23s0,0,0,0a2.82,2.82,0,0,1,.18-.29.1.1,0,0,1,.15,0,1.36,1.36,0,0,0,1.24.22c.1,0,.22,0,.32,0l.16,0v0l-.11,0A3,3,0,0,0,13,20.84c-.45,0-.67.11-.78.46l-.06.13a6.21,6.21,0,0,0-.65-.39,1,1,0,0,1-.5-.55c0-.08,0-.14.07-.19l.08-.05a.68.68,0,0,0,.34-.79,1.36,1.36,0,0,0-.43-.67.69.69,0,0,1-.13-.2.9.9,0,0,0-.07-.11l0,.13a3.67,3.67,0,0,1-.21.61,1.11,1.11,0,0,0-.09.46.46.46,0,0,0,.15.33.81.81,0,0,1,.22.39,2.44,2.44,0,0,0,.1.24,1.47,1.47,0,0,1,.06.14.06.06,0,0,1,0,.07.23.23,0,0,1-.24-.08.84.84,0,0,0-1-.3l-.21.05c0,.24,0,.47,0,.71a1.61,1.61,0,0,0,.5,0,.78.78,0,0,0,.67-.33c0-.08.13-.05.19,0a1.38,1.38,0,0,1,.27.14,4.28,4.28,0,0,1,.7.47.48.48,0,0,0,.17.1l.73.32.45.17.11,0h-.57c-.14,0-.15,0-.14.1l-.93.27-.35.1a1.81,1.81,0,0,0-.43.14.94.94,0,0,1-.59.09.36.36,0,0,0-.29,0,.35.35,0,0,1-.2,0s-.11-.08-.11-.12a.59.59,0,0,0-.18-.51v.66h.07a.44.44,0,0,1,.37.16l0,0-.41.26v.34c.12-.07.23-.16.35-.24a.35.35,0,0,1,.11,0,2.09,2.09,0,0,1,.05.21.74.74,0,0,1,0,.21.52.52,0,0,0,.34.54l.37.16h.22a.27.27,0,0,1-.14-.24,1.14,1.14,0,0,0-.07-.41.62.62,0,0,0-.51-.34s-.12,0-.13-.06a.13.13,0,0,1,.06-.17c.23-.11.45-.22.68-.31s.66-.2,1-.3l.16,0,.62-.08,1.77-.29h.2l-.12.2a1.12,1.12,0,0,0-.24.87.17.17,0,0,1,0,.15.54.54,0,0,0-.08.58c0,.1.1.19.14.29l.06.17h.32c.06-.23.13-.46.18-.69A.7.7,0,0,0,14.65,23.11Z" transform="translate(-6.5 -5.24)"/><path class="cls-1" d="M18.26,10.45l-.05.07s.07.08.11.09a1.88,1.88,0,0,0,1,0,.5.5,0,0,0,.41-.32,3.21,3.21,0,0,0,.08-.36,2,2,0,0,1,.64,0c-.1.12-.3.11-.32.27l.17,0c.25,0,.46-.12.72-.11a5.52,5.52,0,0,0,.68-.09h.11c0,.08-.05.15-.08.21l-.13.18a.46.46,0,0,0,0,.61,2.48,2.48,0,0,1,.34.46.6.6,0,0,0,.08.08h0a.47.47,0,0,0,0-.17.25.25,0,0,1,0-.26,1.43,1.43,0,0,0,.17-.38.49.49,0,0,0-.23-.51s-.12,0-.09-.11a.17.17,0,0,1,.16-.11,6.77,6.77,0,0,1,.78,0c.35,0,.7.08,1.05.12l.16,0,.59.17,1.5.4v-.33a1.49,1.49,0,0,1-.3-.18l-.27-.18A3.41,3.41,0,0,1,25,9.47a.06.06,0,0,1,0,0,2.51,2.51,0,0,1,0-.27s0,0,0,0l.34-.19a.1.1,0,0,1,.13.06,1,1,0,0,0,.66.61V9.11L25.87,9a.78.78,0,0,0-1,.1l-.12.09a6.09,6.09,0,0,0-.32-.57l-.17.05a1.53,1.53,0,0,1,.24.52.37.37,0,0,0,.09.16l.45.56c.09.11.2.22.3.33a.45.45,0,0,0,.07.07L25,10.07c-.12-.06-.12-.07-.18,0l-1-.14-.36-.05a1.83,1.83,0,0,0-.46,0,.82.82,0,0,1-.57-.16.46.46,0,0,0-.28-.08A.26.26,0,0,1,22,9.54s-.05-.12,0-.15h0l-.25.07,0,0a.34.34,0,0,1,.23.29h0l-.81.1a.69.69,0,0,1-.24,0l-.28-.12-.25,0,.12.11h-.55l-1.41.26-.15.19Z" transform="translate(-6.5 -5.24)"/><path class="cls-1" d="M25.54,11.71a.31.31,0,0,1-.14.11.64.64,0,0,0-.41.47,2.84,2.84,0,0,1-.06.31.88.88,0,0,1-.36.64l0,0c.07.07.08.08.14,0A3,3,0,0,0,25,13.1l.79-.73a.7.7,0,0,0,.2-.74.88.88,0,0,1-.05-.15s0-.08,0-.1l.17-.1v-.15A1.28,1.28,0,0,0,25.54,11.71Z" transform="translate(-6.5 -5.24)"/><path class="cls-1" d="M26.09,10.45v-.09H26Z" transform="translate(-6.5 -5.24)"/><path class="cls-1" d="M10.05,12.29l.06,0,.43-.16a.43.43,0,0,1,.48.11c.11-.07,0-.15,0-.23a.86.86,0,0,1,.17,0,1,1,0,0,1,.41.3c.11.11.1.19,0,.31a.57.57,0,0,0-.17.68c.06.14.16.26.23.39a1.08,1.08,0,0,1,.22.52s0,0,.06.08a1.43,1.43,0,0,0,.27-1.08,1.84,1.84,0,0,0-1.35-1.37l.44-.24a.54.54,0,0,1,.38-.09s.13,0,.14,0a.3.3,0,0,1,.22-.12,1.75,1.75,0,0,1,.72,0,4.68,4.68,0,0,1,.54.09,1.76,1.76,0,0,1,.46.14.9.9,0,0,0,.28.08s.07,0,.11.06l.22.14a.36.36,0,0,1,.12.08,1.58,1.58,0,0,1,.15.24.24.24,0,0,1,0,.12,2.65,2.65,0,0,0-.23.39.89.89,0,0,0,.11.9.17.17,0,0,1,0,.2s0,.05,0,.1l.13-.06a2.57,2.57,0,0,1,.37-.28.73.73,0,0,0,.29-.83L15,12.26c-.11-.14-.23-.27-.35-.4l0-.06h0l.06,0a2.36,2.36,0,0,0,.69.19.6.6,0,0,1,.22.09,1,1,0,0,0,.58.18,1.65,1.65,0,0,0,.6-.13,7.27,7.27,0,0,0,.85-.5l-.07-.05a2.84,2.84,0,0,1-1,.12,1.48,1.48,0,0,0-.79.15.59.59,0,0,1-.48.07l-.07,0a1.89,1.89,0,0,1-.6-.26c.15,0,.27-.07.4,0a.71.71,0,0,0,.26,0,.85.85,0,0,0,.79-.44,3.37,3.37,0,0,1,.46-.61l-.1-.1c-.23,0-.45.09-.68.11a1.12,1.12,0,0,0-.88.5.27.27,0,0,0-.05.21c0,.15,0,.15-.15.19a.28.28,0,0,1-.22,0,.27.27,0,0,0-.16,0,.25.25,0,0,1-.27-.15.1.1,0,0,0-.14,0,.33.33,0,0,1-.24,0l-.94-.19-.15,0c.22-.13.41-.26.61-.37l.28-.14h-.66l-.12.06-.15.05s0-.07,0-.11H12.4c-.06.05-.15.09-.2.14a2.09,2.09,0,0,1-.7.44l-.07,0c-.12-.07-.18,0-.25.07a1.44,1.44,0,0,1-.25.18c-.24.12-.48.24-.72.34l-.57.24v.36C9.79,12.4,10,12.44,10.05,12.29Z" transform="translate(-6.5 -5.24)"/><path d="M36.81,17.62c.25.35.45.67.69,1a5.32,5.32,0,0,1,1.43,3.1,2.4,2.4,0,0,1-1.77-.16,2.59,2.59,0,0,0-2.56.35,1.62,1.62,0,0,1-1.58.4c-1.88-.32-3-1.84-2.32-3.36a31.76,31.76,0,0,0,1.62-4.46A3,3,0,0,1,35,12.19l-.21-.49a13.8,13.8,0,0,1,1.47-.26c.11,0,.25.24.38.37a10.61,10.61,0,0,1,1.48,0c.62.07.91.5.57.93-.51.64-.2,1.31-.25,2,0,.31-.17.7.31.91,0,0,0,.09,0,.13-.06.32-.1.65-.18,1C38.43,17.49,38.23,17.59,36.81,17.62Zm.55,1.15-.1.14c-.31,0-.62,0-.92-.06a8.58,8.58,0,0,0-.87-.1c-.45,0-.9.09-1.35.11a1.19,1.19,0,0,1-1.37-1,2.54,2.54,0,0,1,0-.39A1.09,1.09,0,0,0,33.39,19l-.14,1.56c.5-.54.89-1,1.33-1.41a.65.65,0,0,1,.48-.08,17.16,17.16,0,0,1,2.36,2,1.17,1.17,0,0,0,1.34.47A4.78,4.78,0,0,0,37.36,18.77Zm-3-3.76,1.92-3.33-1.23.15.35.39C34.53,13.36,34.18,14.32,34.38,15ZM36,14.37c1.26-.26,2.22-1,2.24-1.8C37.89,13.48,36.83,13.76,36,14.37Z" transform="translate(-6.5 -5.24)"/><path class="cls-1" d="M39.55,14.83a.13.13,0,0,0-.06.09.58.58,0,0,0,.27.48,1.65,1.65,0,0,0,.31,0,.36.36,0,0,0,.21-.13c.06-.09,0-.33-.14-.4A.74.74,0,0,0,39.55,14.83Z" transform="translate(-6.5 -5.24)"/><path class="cls-1" d="M40.46,15.45c0-.13.09-.25.12-.37s-.14-.23-.28-.34A1,1,0,0,0,40.46,15.45Z" transform="translate(-6.5 -5.24)"/><path class="cls-1" d="M40.77,14.17a.53.53,0,0,0-.44.16l1,.27A1,1,0,0,0,40.77,14.17Z" transform="translate(-6.5 -5.24)"/><path class="cls-1" d="M41.5,14.17a.36.36,0,0,0,0,.58c0-.3.25-.46.45-.66A.43.43,0,0,0,41.5,14.17Z" transform="translate(-6.5 -5.24)"/><path class="cls-1" d="M41.08,14.65c-.19,0-.26.12-.32.28l.67,0A.38.38,0,0,0,41.08,14.65Z" transform="translate(-6.5 -5.24)"/><path class="cls-1" d="M38.89,23.1a.49.49,0,0,0,.14.19l.66.49a.35.35,0,0,0,.14.06l.76,0a.53.53,0,0,0,.19-.05.82.82,0,0,0-.63-.44.69.69,0,0,1-.46-.35c-.17-.32-.49-.61-.24-1h0a.55.55,0,0,0-.39.36,2.1,2.1,0,0,1-.15.42.58.58,0,0,0,0,.16L39,23Z" transform="translate(-6.5 -5.24)"/><path class="cls-1" d="M38.36,20.93c.22.24.44.48.67.71a2.16,2.16,0,0,0,.29.21l.09-.05-.11-.44.1.07.1.09c.16-.17.17-.28,0-.42A1.15,1.15,0,0,0,38.36,20.93Z" transform="translate(-6.5 -5.24)"/><path class="cls-1" d="M38.3,23.34l.06-.05.06-.05-.06.28,0,0a1.18,1.18,0,0,0,.18-.13l.3-.31a.25.25,0,0,1,0-.17.71.71,0,0,0-.58.14C38.19,23.16,38.19,23.24,38.3,23.34Z" transform="translate(-6.5 -5.24)"/><path class="cls-1" d="M39.81,22.14a.5.5,0,0,0,.06.75c0-.42.45-.55.77-.77A.79.79,0,0,0,39.81,22.14Z" transform="translate(-6.5 -5.24)"/><path class="cls-1" d="M39.45,22a.3.3,0,0,0,0,.1s0,.07,0,.11l0,.27h.08a2.68,2.68,0,0,1,.07-.27c.09-.28.2-.34.56-.36a.25.25,0,0,0,.18-.11.66.66,0,0,1,.68-.27c.23,0,.46.06.69.09a.65.65,0,0,0-1-.24,2.63,2.63,0,0,0-.3-.09.59.59,0,0,0-.65.16c-.15.19-.38.37-.36.62Z" transform="translate(-6.5 -5.24)"/><path class="cls-1" d="M42,15a.59.59,0,0,0-.35.86A.36.36,0,0,0,42,16c-.3-.5.07-.72.53-.9A.45.45,0,0,0,42,15Z" transform="translate(-6.5 -5.24)"/><path class="cls-1" d="M42.83,16.24a3.84,3.84,0,0,0,.46-.44.11.11,0,0,0,0-.11.18.18,0,0,0-.13,0L42,16A.6.6,0,0,0,42.83,16.24Z" transform="translate(-6.5 -5.24)"/><path class="cls-1" d="M43,18.65l0,0a.1.1,0,0,0,0,0l0,.21,0,0a1.7,1.7,0,0,0,.14-.1l.08-.09v-.29a.54.54,0,0,0-.32.12C42.94,18.52,43,18.57,43,18.65Z" transform="translate(-6.5 -5.24)"/><path class="cls-1" d="M43.31,20.58a.21.21,0,0,0-.06.08.55.55,0,0,0,0,.51C43.3,21,43.31,20.78,43.31,20.58Z" transform="translate(-6.5 -5.24)"/><path class="cls-1" d="M42.77,15.43a.46.46,0,0,0-.42,0,.38.38,0,0,0-.21.33c0,.09.06.12.16.1l.49-.09c.15,0,.18-.08.1-.18Z" transform="translate(-6.5 -5.24)"/><path class="cls-1" d="M41,15.55c-.1.09-.15.19,0,.3s.05.11.08.17c.13.22.27.27.57.2a.52.52,0,0,0,.1.49c.12.15.2.17.41.13l.27-.05c.36,0,.52-.18.57-.5l-.28.11a.52.52,0,0,1-.54,0,6.26,6.26,0,0,1-.57-.45.47.47,0,0,1-.12-.5c0-.07.05-.14.09-.26a1.07,1.07,0,0,0-.3.13A1.29,1.29,0,0,0,41,15.55Z" transform="translate(-6.5 -5.24)"/><path class="cls-1" d="M43.23,21.45a1.3,1.3,0,0,0-.3-.92c-.09.2-.25.36-.1.54S43.09,21.32,43.23,21.45Z" transform="translate(-6.5 -5.24)"/><path class="cls-1" d="M42.91,20.1l.41,0V20a.41.41,0,0,0-.48-.16l.15.07-.43,0C42.55,20,42.68,20.13,42.91,20.1Z" transform="translate(-6.5 -5.24)"/><path class="cls-1" d="M40.73,15.55a.33.33,0,0,0,.19,0l-.38-.08C40.55,15.53,40.64,15.54,40.73,15.55Z" transform="translate(-6.5 -5.24)"/><path class="cls-1" d="M41.44,21.11a.51.51,0,0,0-.33-.72.57.57,0,0,0-.66.14C40.82,20.67,41.26,20.74,41.44,21.11Z" transform="translate(-6.5 -5.24)"/><path class="cls-1" d="M37.33,23.37c-.33,0-.68.28-.64.55a.27.27,0,0,0,.21.23c0-.47.36-.52.78-.53C37.66,23.47,37.54,23.38,37.33,23.37Z" transform="translate(-6.5 -5.24)"/><path class="cls-1" d="M35.54,22.57l-.09.05a.46.46,0,0,0,0,.44,1.13,1.13,0,0,0,.21.12.41.41,0,0,0,.22,0c.09,0,.11-.26.06-.35A.54.54,0,0,0,35.54,22.57Z" transform="translate(-6.5 -5.24)"/><path class="cls-1" d="M36,23.3c.08-.09.17-.16.24-.25s0-.2-.06-.33A.82.82,0,0,0,36,23.3Z" transform="translate(-6.5 -5.24)"/><path class="cls-1" d="M36.3,24.47a1.11,1.11,0,0,0,.09-.19.39.39,0,0,0-.35,0,.33.33,0,0,0-.23.29H36l.16,0A.29.29,0,0,0,36.3,24.47Z" transform="translate(-6.5 -5.24)"/><path class="cls-1" d="M35.11,23a.48.48,0,0,0-.4-.15c.34.23.23.51.24.78a.44.44,0,0,1-.18.36.47.47,0,0,0-.26.46.41.41,0,0,0,.15,0c.17-.06.34-.14.5-.21a.15.15,0,0,0,.08-.08l.26-.5a.29.29,0,0,0-.12-.39C35.28,23.13,35.2,23,35.11,23Z" transform="translate(-6.5 -5.24)"/><path class="cls-1" d="M36.12,23.45a.25.25,0,0,0,.15,0L36,23.31C36,23.38,36.06,23.42,36.12,23.45Z" transform="translate(-6.5 -5.24)"/><path class="cls-1" d="M33.46,22.93a.59.59,0,0,0-.36.87.41.41,0,0,0,.37.16c-.31-.5.06-.72.52-.89A.44.44,0,0,0,33.46,22.93Z" transform="translate(-6.5 -5.24)"/><path class="cls-1" d="M34.29,24.22a3.75,3.75,0,0,0,.45-.44.09.09,0,0,0,0-.11.18.18,0,0,0-.13,0L33.43,24A.62.62,0,0,0,34.29,24.22Z" transform="translate(-6.5 -5.24)"/><path class="cls-1" d="M33.8,23.37a.37.37,0,0,0-.21.33c0,.08.06.12.16.1l.49-.09c.15,0,.19-.08.11-.18a1.33,1.33,0,0,0-.12-.12A.45.45,0,0,0,33.8,23.37Z" transform="translate(-6.5 -5.24)"/><path class="cls-1" d="M34.77,23.54a.4.4,0,0,0-.25-.53.56.56,0,0,0-.58.2C34.24,23.28,34.6,23.25,34.77,23.54Z" transform="translate(-6.5 -5.24)"/><path class="cls-1" d="M38.06,24.2a.31.31,0,0,0,0-.47.48.48,0,0,0-.52,0C37.78,23.85,38.05,23.94,38.06,24.2Z" transform="translate(-6.5 -5.24)"/><path class="cls-1" d="M42.06,22.44c.07-.43-.5-.91-1-.88-.32,0-.52.17-.55.41.68,0,1.27.1,1.25.84A.44.44,0,0,0,42.06,22.44Z" transform="translate(-6.5 -5.24)"/><path class="cls-1" d="M40.37,22.68c0,.16.06.21.25.17l.65-.11c.13,0,.18-.09.13-.19a.58.58,0,0,0-.48-.3.53.53,0,0,0-.49.24S40.39,22.6,40.37,22.68Z" transform="translate(-6.5 -5.24)"/><path class="cls-1" d="M37.94,24.37a.07.07,0,0,0,.05-.08.13.13,0,0,0-.09,0l-1-.08a.41.41,0,0,0,.3.38h.31A2.78,2.78,0,0,0,37.94,24.37Z" transform="translate(-6.5 -5.24)"/><path class="cls-1" d="M40.07,23.16a5.12,5.12,0,0,0,.85.32.69.69,0,0,0,.88-.64L40.13,23A.31.31,0,0,0,40,23S40,23.14,40.07,23.16Z" transform="translate(-6.5 -5.24)"/><path class="cls-1" d="M36.17,23.75s0,.1,0,.15c0,.21.08.29.33.32a.48.48,0,0,0-.13.33h.55a.23.23,0,0,1-.07-.07q-.14-.26-.24-.51a.39.39,0,0,1,.13-.41l.17-.17a1.24,1.24,0,0,0-.28,0,1.38,1.38,0,0,0-.34.12C36.18,23.56,36.09,23.62,36.17,23.75Z" transform="translate(-6.5 -5.24)"/><path class="cls-1" d="M36.34,22.42l.64.49c0-.19-.06-.37-.24-.48A.46.46,0,0,0,36.34,22.42Z" transform="translate(-6.5 -5.24)"/><path class="cls-1" d="M36.76,22.88a.32.32,0,0,0-.35.11l.52.16A.24.24,0,0,0,36.76,22.88Z" transform="translate(-6.5 -5.24)"/><path class="cls-1" d="M42.87,19.75a.11.11,0,0,0,.07,0l.31-.23a.17.17,0,0,0,.07-.1v-.1s0,0,0,0a.9.9,0,0,1-.08-.21c0-.07-.06-.12-.18-.16.12.2,0,.34-.12.49a.33.33,0,0,1-.22.17.36.36,0,0,0-.29.21l.09,0Z" transform="translate(-6.5 -5.24)"/><path class="cls-1" d="M37.41,23.8a.37.37,0,0,0-.31.19c0,.06,0,.1.09.11l.4.08c.12,0,.18,0,.16-.11a.55.55,0,0,0,0-.12A.33.33,0,0,0,37.41,23.8Z" transform="translate(-6.5 -5.24)"/><path class="cls-1" d="M43.33,14.9h0V15h0Z" transform="translate(-6.5 -5.24)"/><path class="cls-1" d="M43.33,14v-.11a.71.71,0,0,0-.48.38c0,.14,0,.22.19.28l0-.08a.2.2,0,0,0,0-.08l.1.34h.07l0-.07V14Z" transform="translate(-6.5 -5.24)"/><path class="cls-1" d="M43.33,15.31v-.15h0v.15Z" transform="translate(-6.5 -5.24)"/><path class="cls-1" d="M43.33,14.63h0v.21h0Z" transform="translate(-6.5 -5.24)"/><path class="cls-1" d="M34.31,22.22c-.05.13,0,.21.18.28a5035177455121.24,5035177455121.24,0,0,0,.08-.16l.09.33h.08a1.55,1.55,0,0,0,.12-.22c.07-.21.12-.43.19-.65A.74.74,0,0,0,34.31,22.22Z" transform="translate(-6.5 -5.24)"/><path class="cls-1" d="M43.33,16.81v-.45h0v.45Z" transform="translate(-6.5 -5.24)"/><path class="cls-1" d="M43.06,16.49s-.05.08,0,.1a2,2,0,0,0,.3.35v-.13c-.06-.08-.09-.17-.15-.25S43.1,16.51,43.06,16.49Z" transform="translate(-6.5 -5.24)"/><path class="cls-1" d="M43.06,15a.56.56,0,0,0-.57.2c.3.07.65,0,.82.33l0,0v-.22A.47.47,0,0,0,43.06,15Z" transform="translate(-6.5 -5.24)"/><path class="cls-1" d="M42.77,14.5a.49.49,0,0,0-.52.06,1.07,1.07,0,0,0-.16.14.44.44,0,0,0-.59.43l.44-.25a.58.58,0,0,1,.57,0,.25.25,0,0,0,.17,0c.26-.08.35-.06.52.11l.13.13V15s0,0,0-.07C43.23,14.68,43,14.61,42.77,14.5Z" transform="translate(-6.5 -5.24)"/><path class="cls-1" d="M43.33,16h0v-.42h0V16Z" transform="translate(-6.5 -5.24)"/><path class="cls-1" d="M43.33,13.82v0h0Z" transform="translate(-6.5 -5.24)"/><path class="cls-1" d="M33,24.32a.41.41,0,0,0-.4.12.49.49,0,0,0-.07.11H33A1.85,1.85,0,0,0,33,24.32Z" transform="translate(-6.5 -5.24)"/><path class="cls-1" d="M27.12,21.83a.42.42,0,0,0-.29.08v.25l.72,0A.47.47,0,0,0,27.12,21.83Z" transform="translate(-6.5 -5.24)"/><path class="cls-1" d="M42.07,24a2.28,2.28,0,0,1,.22.22,2.53,2.53,0,0,1,.12.23l0,0c-.17-.44-.61-.4-1.09-.39a1.91,1.91,0,0,1,.6.44h.87s0,0,0,0C42.76,24.21,42.47,24,42.07,24Z" transform="translate(-6.5 -5.24)"/><path class="cls-1" d="M42.69,21.8a3.13,3.13,0,0,0-.54-.19,2.12,2.12,0,0,0-.45,0,3.85,3.85,0,0,1,.28.27.61.61,0,0,1,.2.66,5.3,5.3,0,0,1-.38.8.64.64,0,0,1-.62.29h-.4a.85.85,0,0,0,1,.35l.35-.07c.29,0,.37-.11.41-.34a.68.68,0,0,0-.21-.63c.41-.05.55-.18.54-.5,0-.09,0-.19,0-.25S42.87,21.88,42.69,21.8Z" transform="translate(-6.5 -5.24)"/><path class="cls-1" d="M37.7,22.72a.35.35,0,0,0-.41-.09.32.32,0,0,0-.21.45C37.19,22.85,37.47,22.8,37.7,22.72Z" transform="translate(-6.5 -5.24)"/><path class="cls-1" d="M38.17,24.29a.45.45,0,0,1-.28.22l-.13,0h.69l.14-.1a.23.23,0,0,0,.08-.32c0-.09-.07-.18-.1-.27a.32.32,0,0,0-.24-.22h0C38.48,23.9,38.29,24.08,38.17,24.29Z" transform="translate(-6.5 -5.24)"/><path class="cls-1" d="M43.25,14.84l.08.06v-.06Z" transform="translate(-6.5 -5.24)"/><path class="cls-1" d="M36.88,23.35l.44-.05a.4.4,0,0,1,.42.16.14.14,0,0,0,.12.07c.22,0,.29.06.35.23a1,1,0,0,1,0,.17h0a.88.88,0,0,0,0-.17s0,0,0-.06a.14.14,0,0,0,0-.06h0c0-.16-.13-.27-.23-.4a.38.38,0,0,0-.41-.1l-.19.06A.41.41,0,0,0,36.88,23.35Z" transform="translate(-6.5 -5.24)"/><path class="cls-1" d="M41.37,18.74l.12,0-.19-.13C41.28,18.68,41.33,18.71,41.37,18.74Z" transform="translate(-6.5 -5.24)"/><path class="cls-1" d="M42.57,18.18a.27.27,0,0,0-.31-.07.26.26,0,0,0-.16.35C42.19,18.28,42.4,18.25,42.57,18.18Z" transform="translate(-6.5 -5.24)"/><path class="cls-1" d="M41.54,18l.49.38c0-.15,0-.28-.18-.37A.41.41,0,0,0,41.54,18Z" transform="translate(-6.5 -5.24)"/><path class="cls-1" d="M41.14,16.47a.34.34,0,0,0,0,.45l.38-.23a.15.15,0,0,0,.07-.11,1,1,0,0,0,0-.24A.42.42,0,0,0,41.14,16.47Z" transform="translate(-6.5 -5.24)"/><path class="cls-1" d="M41.86,18.3a.26.26,0,0,0-.27.09l.4.12A.18.18,0,0,0,41.86,18.3Z" transform="translate(-6.5 -5.24)"/><path class="cls-1" d="M41.51,19.5a.54.54,0,0,0,.07-.13.26.26,0,0,0-.27,0,.24.24,0,0,0-.17.25l.29-.05S41.5,19.53,41.51,19.5Z" transform="translate(-6.5 -5.24)"/><path class="cls-1" d="M41.76,19.78l.17,0a.41.41,0,0,0,.49-.17h-.2a.3.3,0,0,1-.29-.14,2.64,2.64,0,0,1-.18-.38.31.31,0,0,1,.09-.31l.14-.13a1.6,1.6,0,0,0-.22,0l-.25.09c-.09,0-.15.09-.09.18s0,.08,0,.12.06.21.26.24a.34.34,0,0,0-.1.29C41.59,19.73,41.63,19.76,41.76,19.78Z" transform="translate(-6.5 -5.24)"/><path class="cls-1" d="M40.87,18.11a.35.35,0,0,0,0,.33.51.51,0,0,0,.16.09.29.29,0,0,0,.16,0,.24.24,0,0,0,.05-.27.39.39,0,0,0-.3-.17A.08.08,0,0,0,40.87,18.11Z" transform="translate(-6.5 -5.24)"/><path class="cls-1" d="M42.18,19.88c-.22,0-.43,0-.51.19h0a.67.67,0,0,1,.06-.12l.1-.1c-.19,0-.33.09-.32.23a.38.38,0,0,0,.24.31.67.67,0,0,1,.13-.21A.8.8,0,0,1,42.18,19.88Z" transform="translate(-6.5 -5.24)"/><path class="cls-1" d="M41.39,18.18a.7.7,0,0,0-.14.44,1.66,1.66,0,0,0,.19-.18C41.51,18.35,41.44,18.28,41.39,18.18Z" transform="translate(-6.5 -5.24)"/><path class="cls-1" d="M42.88,19a.36.36,0,0,0-.4,0c.15.1.36.16.37.36A.24.24,0,0,0,42.88,19Z" transform="translate(-6.5 -5.24)"/><path class="cls-1" d="M40.71,15.65a.72.72,0,0,0-.51.79A.64.64,0,0,0,40.71,15.65Z" transform="translate(-6.5 -5.24)"/><path class="cls-1" d="M40.53,15.68a.62.62,0,0,0-.71,0,.67.67,0,0,0-.24.51c0,.12.06.16.21.15s.26-.05.33-.21a2,2,0,0,1,.25-.34A.67.67,0,0,1,40.53,15.68Z" transform="translate(-6.5 -5.24)"/><path class="cls-1" d="M41.68,21.22l.83-.26a.57.57,0,0,0-.57-.18A.39.39,0,0,0,41.68,21.22Z" transform="translate(-6.5 -5.24)"/><path class="cls-1" d="M42,20.06l-.13.11a.33.33,0,0,0,0,.24l-.09,0a3.09,3.09,0,0,0-.12.46l1-.79A.82.82,0,0,0,42,20.06Z" transform="translate(-6.5 -5.24)"/><path class="cls-1" d="M42.3,18.67c-.26,0-.53.22-.49.42a.19.19,0,0,0,.16.17c0-.35.27-.39.59-.39C42.55,18.75,42.45,18.68,42.3,18.67Z" transform="translate(-6.5 -5.24)"/><path class="cls-1" d="M42.35,19.59a3.47,3.47,0,0,0,.41-.16s0,0,0-.06,0,0-.06,0l-.8-.06A.33.33,0,0,0,42.35,19.59Z" transform="translate(-6.5 -5.24)"/><path class="cls-1" d="M42.18,19.23l.31.05c.09,0,.13,0,.12-.08a.94.94,0,0,0,0-.09.24.24,0,0,0-.23-.11.28.28,0,0,0-.23.14Q42.09,19.22,42.18,19.23Z" transform="translate(-6.5 -5.24)"/><path class="cls-1" d="M42,17.41a.76.76,0,0,0,.74.32.73.73,0,0,1,.11-1c-.33.12-.64.21-.59.55h0a.59.59,0,0,1,0-.19.89.89,0,0,1,.06-.2C42,17,41.85,17.21,42,17.41Z" transform="translate(-6.5 -5.24)"/><path class="cls-1" d="M42.88,18.58a.28.28,0,0,0-.31-.08l-.14.05a.32.32,0,0,0-.48.11l.33,0a.3.3,0,0,1,.32.13.16.16,0,0,0,.09.05c.17,0,.22,0,.27.17l0,.13h0a.69.69,0,0,1,0-.13s0,0,0,0S43,18.68,42.88,18.58Z" transform="translate(-6.5 -5.24)"/><path class="cls-1" d="M43.06,16.44a.68.68,0,0,0,.14,0l.13-.06V16l0,0A.49.49,0,0,0,43.06,16.44Z" transform="translate(-6.5 -5.24)"/><path class="cls-1" d="M27.63,18.29l.24.06a.32.32,0,0,0,.4-.09.53.53,0,0,0,.15-.44c.27.09.4.05.54-.15s.05-.13.1-.15.13-.18.05-.28a1.55,1.55,0,0,0-.24-.27,1.13,1.13,0,0,0-.27-.14c0,.11,0,.17,0,.24a.45.45,0,0,1-.17.46,5.79,5.79,0,0,1-.58.38.5.5,0,0,1-.5,0,1.79,1.79,0,0,1-.24-.12C27.16,18.08,27.3,18.22,27.63,18.29Z" transform="translate(-6.5 -5.24)"/><path class="cls-1" d="M28.45,21.19a.6.6,0,0,0-.69,0,.49.49,0,0,0,0,.78C27.76,21.61,28.15,21.42,28.45,21.19Z" transform="translate(-6.5 -5.24)"/><path class="cls-1" d="M27.44,17a.48.48,0,0,0-.12.1c-.09.09-.06.14.07.17l.45.12c.09,0,.15,0,.16-.07a.35.35,0,0,0-.16-.33A.44.44,0,0,0,27.44,17Z" transform="translate(-6.5 -5.24)"/><path class="cls-1" d="M27.3,17.74a.56.56,0,0,0,.81-.13l-1.06-.41a.19.19,0,0,0-.13,0,.09.09,0,0,0,0,.1A3.16,3.16,0,0,0,27.3,17.74Z" transform="translate(-6.5 -5.24)"/><path class="cls-1" d="M27.72,16.83a.49.49,0,0,0-.5-.22c-.22.06-.38.29-.3.47C27.12,16.83,27.44,16.87,27.72,16.83Z" transform="translate(-6.5 -5.24)"/><path class="cls-1" d="M28,18.9c.14-.18.06-.4-.2-.49a1.62,1.62,0,0,1,0,.19,1.13,1.13,0,0,1,0,.18h0c.08-.32-.2-.42-.49-.56.19.33.26.62,0,.91A.73.73,0,0,0,28,18.9Z" transform="translate(-6.5 -5.24)"/><path class="cls-1" d="M30.05,12.46c0,.13,0,.2.17.27l0-.08,0-.08.09.32h.07a1.43,1.43,0,0,0,.12-.21q.09-.3.18-.63A.73.73,0,0,0,30.05,12.46Z" transform="translate(-6.5 -5.24)"/><path class="cls-1" d="M30.55,15a1.08,1.08,0,0,1-.18-.29s-.08,0-.12-.07-.05.08,0,.1a1.9,1.9,0,0,0,1.17.81c.14,0,.22,0,.25-.12A1.34,1.34,0,0,1,30.55,15Z" transform="translate(-6.5 -5.24)"/><path class="cls-1" d="M29.47,12.76l-.16.14a.41.41,0,0,0-.56.41l.42-.24a.54.54,0,0,1,.55,0,.22.22,0,0,0,.16,0c.25-.07.34-.06.5.1a1.14,1.14,0,0,1,.15.16l0,0a1.42,1.42,0,0,0-.08-.18s0-.05,0-.07c-.05-.23-.3-.29-.5-.39A.44.44,0,0,0,29.47,12.76Z" transform="translate(-6.5 -5.24)"/><path class="cls-1" d="M30.82,13.17a.45.45,0,0,0-.39-.14c.33.22.23.49.23.74a.43.43,0,0,1-.17.35.45.45,0,0,0-.25.44h.14l.49-.21a.18.18,0,0,0,.07-.08c.09-.16.17-.32.25-.48a.28.28,0,0,0-.11-.37A3,3,0,0,1,30.82,13.17Z" transform="translate(-6.5 -5.24)"/><path class="cls-1" d="M27.51,14.56a.59.59,0,0,0,.48-.75A.68.68,0,0,0,27.51,14.56Z" transform="translate(-6.5 -5.24)"/><path class="cls-1" d="M29.2,20.68a.4.4,0,0,1,.15,0c.13,0,.17,0,.18-.16a.29.29,0,0,0-.09-.27c.18,0,.24-.08.24-.22s0-.08,0-.11,0-.13-.08-.16l-.24-.08a.56.56,0,0,0-.19,0,1.35,1.35,0,0,1,.12.12.27.27,0,0,1,.09.29c-.05.12-.11.23-.17.35a.29.29,0,0,1-.27.13h-.18A.39.39,0,0,0,29.2,20.68Z" transform="translate(-6.5 -5.24)"/><path class="cls-1" d="M29.32,21.23a.36.36,0,0,0,.29-.32c0-.13-.11-.22-.29-.21l.09.1a.53.53,0,0,1,.06.1h0c-.07-.19-.26-.17-.47-.17C29.2,20.86,29.35,21,29.32,21.23Z" transform="translate(-6.5 -5.24)"/><path class="cls-1" d="M28.75,20.62a.34.34,0,0,0-.27-.2.26.26,0,0,1-.2-.15c-.08-.14-.22-.27-.11-.46A.23.23,0,0,0,28,20a1.46,1.46,0,0,1-.07.19.17.17,0,0,0,.06.22l.28.22.07,0,.33,0Z" transform="translate(-6.5 -5.24)"/><path class="cls-1" d="M29.75,21.88s0-.07.07-.1l.06-.1.07.45.1,0a2.34,2.34,0,0,0,.2-.27c.13-.28.24-.57.36-.86a1,1,0,0,0-1.05.47C29.48,21.66,29.53,21.77,29.75,21.88Z" transform="translate(-6.5 -5.24)"/><path class="cls-1" d="M27.91,20.9l.39,0c.21,0,.33-.06.32-.25l-.4,0,.14-.06C28.13,20.6,27.89,20.73,27.91,20.9Z" transform="translate(-6.5 -5.24)"/><path class="cls-1" d="M27,16.48l-.06.06-.09.17.05,0a1.07,1.07,0,0,1,.16-.14.4.4,0,0,1,.5-.06.22.22,0,0,0,.16,0,.49.49,0,0,1,.52,0l.38.26c0-.32-.17-.49-.49-.44a1.85,1.85,0,0,0-.14-.14.46.46,0,0,0-.47-.1C27.35,16.22,27.1,16.26,27,16.48Z" transform="translate(-6.5 -5.24)"/><path class="cls-1" d="M28.74,12.39a.35.35,0,0,0,.05.55c0-.28.25-.44.44-.63A.44.44,0,0,0,28.74,12.39Z" transform="translate(-6.5 -5.24)"/><path class="cls-1" d="M30,16.71c-.11.06-.23.28-.18.36a.27.27,0,0,0,.18.13,1,1,0,0,0,.29,0,.6.6,0,0,0,.31-.42.12.12,0,0,0-.05-.09A.71.71,0,0,0,30,16.71Z" transform="translate(-6.5 -5.24)"/><path class="cls-1" d="M28.44,17.44a.53.53,0,0,0-.23-.83.44.44,0,0,0-.52.09c.41.2.73.43.39.87A.37.37,0,0,0,28.44,17.44Z" transform="translate(-6.5 -5.24)"/><path class="cls-1" d="M28,13.71a.36.36,0,0,0,.18,0l-.36-.08C27.83,13.69,27.93,13.7,28,13.71Z" transform="translate(-6.5 -5.24)"/><path class="cls-1" d="M28.05,12.39a.51.51,0,0,0-.42.15l1,.27C28.43,12.62,28.31,12.44,28.05,12.39Z" transform="translate(-6.5 -5.24)"/><path class="cls-1" d="M34.43,24.27l-.27.11a.57.57,0,0,1-.54,0,5.13,5.13,0,0,1-.57-.45.45.45,0,0,1-.12-.51c0-.07,0-.14.08-.25a1.86,1.86,0,0,0-.3.12,2.61,2.61,0,0,0-.3.27c-.09.1-.15.2,0,.3s0,.12.09.18c.12.22.26.27.56.2a.52.52,0,0,0,0,.35h1.21A.66.66,0,0,0,34.43,24.27Z" transform="translate(-6.5 -5.24)"/><path class="cls-1" d="M43.12,21.47l-.4.27a.42.42,0,0,0,.25,0C43.07,21.65,43.18,21.59,43.12,21.47Z" transform="translate(-6.5 -5.24)"/><path class="cls-1" d="M34.64,24.53s-.08,0-.13-.06a.41.41,0,0,0,0,.08h.17Z" transform="translate(-6.5 -5.24)"/><path class="cls-1" d="M40.48,24l-.92.09.32-.14c-.52-.16-1.07.14-1,.53l.75.08h.51A.49.49,0,0,0,40.48,24Z" transform="translate(-6.5 -5.24)"/><path class="cls-1" d="M43.3,21.83l-.24,0a1,1,0,0,0,.24.4Z" transform="translate(-6.5 -5.24)"/><path class="cls-1" d="M43.3,23.05v.07h0Z" transform="translate(-6.5 -5.24)"/><path class="cls-1" d="M28.34,12.85c-.18,0-.24.12-.3.26l.64,0A.36.36,0,0,0,28.34,12.85Z" transform="translate(-6.5 -5.24)"/><path class="cls-1" d="M27.08,13.57a1.55,1.55,0,0,0,.29,0,.37.37,0,0,0,.21-.12c.06-.09,0-.32-.14-.39a.71.71,0,0,0-.56-.08l-.05.05v.17A.73.73,0,0,0,27.08,13.57Z" transform="translate(-6.5 -5.24)"/><path class="cls-1" d="M43.1,23a.58.58,0,0,0-.57,0,1.57,1.57,0,0,0,.16.29.25.25,0,0,0,.16.1l.45.08v-.37A.69.69,0,0,0,43.1,23Z" transform="translate(-6.5 -5.24)"/><path class="cls-1" d="M27.14,13.85a.61.61,0,0,0-.23.49c0,.11.06.15.2.14s.25-.05.32-.2a1.46,1.46,0,0,1,.24-.33s.09-.07.14-.12A.57.57,0,0,0,27.14,13.85Z" transform="translate(-6.5 -5.24)"/><path class="cls-1" d="M27,16.07a.78.78,0,0,0,.09.21h.07l.12-.3,0,.08,0,.07c.17-.05.22-.11.2-.24a.67.67,0,0,0-.64-.44C26.89,15.66,26.92,15.87,27,16.07Z" transform="translate(-6.5 -5.24)"/><path class="cls-1" d="M27.75,13.61a2.35,2.35,0,0,0,.11-.35c0-.15-.13-.21-.26-.32A.87.87,0,0,0,27.75,13.61Z" transform="translate(-6.5 -5.24)"/><path class="cls-1" d="M27.69,19.35l.3.31.12.09,0,0,0-.19,0,0,0,0c.07-.07.08-.12,0-.18A.51.51,0,0,0,27.69,19.35Z" transform="translate(-6.5 -5.24)"/><path class="cls-1" d="M26.83,21.16v.39l.64.24C27.29,21.53,27.16,21.27,26.83,21.16Z" transform="translate(-6.5 -5.24)"/><path class="cls-1" d="M26.83,16.63a.49.49,0,0,1,.23-.22.83.83,0,0,0-.23,0Z" transform="translate(-6.5 -5.24)"/><path class="cls-1" d="M29.36,24.23l-.38.11a.72.72,0,0,1-.71-.11,7.17,7.17,0,0,1-.68-.67.61.61,0,0,1-.08-.68,3.57,3.57,0,0,1,.17-.33,2.23,2.23,0,0,0-.43.13,2.47,2.47,0,0,0-.42.3v.53l0,.14c.13.31.31.39.72.33a.67.67,0,0,0,0,.57h1.62A.87.87,0,0,0,29.36,24.23Z" transform="translate(-6.5 -5.24)"/><path class="cls-1" d="M27.42,24.45a3.16,3.16,0,0,0,0-.32.61.61,0,0,0-.56.12l-.06.07v.23h.51A.16.16,0,0,0,27.42,24.45Z" transform="translate(-6.5 -5.24)"/><path class="cls-1" d="M27.07,17.91a.45.45,0,0,0-.19-.45l-.05-.06v.43l.1.05A.7.7,0,0,0,27.07,17.91Z" transform="translate(-6.5 -5.24)"/><path class="cls-1" d="M29.94,23.3a.52.52,0,0,0-.24-.74.77.77,0,0,0-.8.2C29.29,22.89,29.76,22.9,29.94,23.3Z" transform="translate(-6.5 -5.24)"/><path class="cls-1" d="M30,22.32c-.09-.24-.37-.35-.59-.5a.66.66,0,0,0-.7,0l-.24.17a.59.59,0,0,0-.85.5l.62-.28a.77.77,0,0,1,.76.08.33.33,0,0,0,.22.06c.35-.07.48,0,.68.2.06.07.11.16.17.23h.08c0-.09-.05-.18-.08-.27s0-.06,0-.09a.3.3,0,0,0,0-.1Z" transform="translate(-6.5 -5.24)"/><path class="cls-1" d="M29.65,24.42c.24-.07.47-.14.71-.23a.24.24,0,0,0,.11-.09c.15-.22.3-.43.43-.64a.37.37,0,0,0-.08-.53,2.83,2.83,0,0,1-.32-.37.64.64,0,0,0-.51-.24h0c.41.33.22.7.18,1.05a.56.56,0,0,1-.3.46.69.69,0,0,0-.43.59A.76.76,0,0,0,29.65,24.42Z" transform="translate(-6.5 -5.24)"/><path class="cls-1" d="M28.69,23a.49.49,0,0,0-.34.42c0,.1.06.16.2.14s.44-.05.66-.06.26-.09.17-.23-.11-.13-.13-.17A.62.62,0,0,0,28.69,23Z" transform="translate(-6.5 -5.24)"/><path class="cls-1" d="M28.3,22.34a.82.82,0,0,0-.63,1.11.52.52,0,0,0,.46.26c-.31-.7.22-.95.86-1.13A.58.58,0,0,0,28.3,22.34Z" transform="translate(-6.5 -5.24)"/><path class="cls-1" d="M29.18,24.14a4.51,4.51,0,0,0,.69-.53.15.15,0,0,0,0-.14.24.24,0,0,0-.17,0l-1.65.32A.79.79,0,0,0,29.18,24.14Z" transform="translate(-6.5 -5.24)"/><path class="cls-1" d="M30,14.37a2.89,2.89,0,0,0,.44-.42.09.09,0,0,0,0-.1.16.16,0,0,0-.12,0q-.57.15-1.14.33A.57.57,0,0,0,30,14.37Z" transform="translate(-6.5 -5.24)"/><path class="cls-1" d="M29.23,13.14a.57.57,0,0,0-.34.83.37.37,0,0,0,.35.16c-.29-.48.07-.69.51-.86A.46.46,0,0,0,29.23,13.14Z" transform="translate(-6.5 -5.24)"/><path class="cls-1" d="M28.23,13.71c-.09.09-.14.19,0,.29s.05.11.08.17c.12.21.25.26.54.19a.48.48,0,0,0,.1.46c.11.15.19.17.4.13l.25,0c.35,0,.5-.18.54-.49l-.26.11a.51.51,0,0,1-.51,0,4.75,4.75,0,0,1-.55-.43.44.44,0,0,1-.12-.48c0-.07.05-.14.09-.25a1.86,1.86,0,0,0-.3.12A3.45,3.45,0,0,0,28.23,13.71Z" transform="translate(-6.5 -5.24)"/><path class="cls-1" d="M29.52,14l.47-.09c.14,0,.17-.07.09-.17A.38.38,0,0,0,30,13.6a.45.45,0,0,0-.4,0,.36.36,0,0,0-.21.32C29.36,14,29.42,14,29.52,14Z" transform="translate(-6.5 -5.24)"/><path class="cls-1" d="M30.25,13.22a.51.51,0,0,0-.55.19c.29.06.62,0,.79.32A.39.39,0,0,0,30.25,13.22Z" transform="translate(-6.5 -5.24)"/><path class="cls-1" d="M32,23.41c0,.09.11.11.19.12a.58.58,0,0,0,.19,0Z" transform="translate(-6.5 -5.24)"/><path class="cls-1" d="M32,23.65a.63.63,0,0,0-.71,0,.66.66,0,0,0-.23.51c0,.12.06.16.21.15a.3.3,0,0,0,.33-.22,1.51,1.51,0,0,1,.25-.33A.67.67,0,0,1,32,23.65Z" transform="translate(-6.5 -5.24)"/><path class="cls-1" d="M32.53,22.63c-.19,0-.26.12-.32.27l.67,0A.36.36,0,0,0,32.53,22.63Z" transform="translate(-6.5 -5.24)"/><path class="cls-1" d="M33.71,22.54l-.17.14a.42.42,0,0,0-.58.42l.44-.24a.52.52,0,0,1,.56,0,.32.32,0,0,0,.17,0c.26-.08.35-.07.53.1l.15.17,0,0a1.54,1.54,0,0,0-.08-.19s0-.05-.05-.07c0-.24-.31-.3-.51-.41A.46.46,0,0,0,33.71,22.54Z" transform="translate(-6.5 -5.24)"/><path class="cls-1" d="M33,22.14a.37.37,0,0,0,0,.58c0-.29.25-.46.45-.65A.44.44,0,0,0,33,22.14Z" transform="translate(-6.5 -5.24)"/><path class="cls-1" d="M32.17,23.63c-.36.12-.61.51-.51.78A.63.63,0,0,0,32.17,23.63Z" transform="translate(-6.5 -5.24)"/><path class="cls-1" d="M31,22.81a.1.1,0,0,0-.07.09.57.57,0,0,0,.28.47.78.78,0,0,0,.3,0,.32.32,0,0,0,.21-.12c.07-.09,0-.33-.14-.4A.68.68,0,0,0,31,22.81Z" transform="translate(-6.5 -5.24)"/><path class="cls-1" d="M31.91,23.42a2.53,2.53,0,0,0,.12-.36c0-.17-.13-.23-.27-.34A.94.94,0,0,0,31.91,23.42Z" transform="translate(-6.5 -5.24)"/><path class="cls-1" d="M32.23,22.15a.58.58,0,0,0-.45.15l1,.28C32.62,22.39,32.5,22.2,32.23,22.15Z" transform="translate(-6.5 -5.24)"/><path class="cls-1" d="M28.48,17.93a.93.93,0,0,0,0,.23.18.18,0,0,0,.06.1l.33.25a.32.32,0,0,0,0-.43A.42.42,0,0,0,28.48,17.93Z" transform="translate(-6.5 -5.24)"/><path class="cls-1" d="M29.52,20.26a.54.54,0,0,0,.07.13.08.08,0,0,0,.07,0l.27.05a.24.24,0,0,0-.16-.23A.28.28,0,0,0,29.52,20.26Z" transform="translate(-6.5 -5.24)"/><path class="cls-1" d="M29.52,16.83a2.17,2.17,0,0,0,.07.35.89.89,0,0,0,.22-.64C29.67,16.64,29.51,16.68,29.52,16.83Z" transform="translate(-6.5 -5.24)"/><path class="cls-1" d="M29.51,17.16l-.36.05a.37.37,0,0,0,.18.05C29.41,17.26,29.5,17.25,29.51,17.16Z" transform="translate(-6.5 -5.24)"/><path class="cls-1" d="M29.56,19a.33.33,0,0,0-.28,0c-.13.08-.14.2-.17.34Z" transform="translate(-6.5 -5.24)"/><path class="cls-1" d="M30.32,18a.61.61,0,0,0-.17-.49.57.57,0,0,0-.65-.07.8.8,0,0,1,.13.13,1.57,1.57,0,0,1,.19.33c.05.15.09.2.28.23S30.31,18.06,30.32,18Z" transform="translate(-6.5 -5.24)"/><path class="cls-1" d="M29.33,17.35a.57.57,0,0,0,.38.77A.64.64,0,0,0,29.33,17.35Z" transform="translate(-6.5 -5.24)"/><path class="cls-1" d="M28.57,20.12c0,.07,0,.09.11.07l.29-.05c.06,0,.08,0,.05-.08a.26.26,0,0,0-.21-.13.23.23,0,0,0-.21.1A.92.92,0,0,1,28.57,20.12Z" transform="translate(-6.5 -5.24)"/><path class="cls-1" d="M28.81,20.47a.31.31,0,0,0,.39-.29l-.73.06a.11.11,0,0,0-.07,0,.08.08,0,0,0,0,.06A2.35,2.35,0,0,0,28.81,20.47Z" transform="translate(-6.5 -5.24)"/><path class="cls-1" d="M29.31,20c0-.19-.21-.4-.45-.38s-.23.07-.24.17c.3,0,.56.05.55.37A.17.17,0,0,0,29.31,20Z" transform="translate(-6.5 -5.24)"/><path class="cls-1" d="M28.33,19.88a.21.21,0,0,0,0,.33c0-.19.19-.25.33-.34A.33.33,0,0,0,28.33,19.88Z" transform="translate(-6.5 -5.24)"/><path class="cls-1" d="M29.15,19.48l.36-.12a.27.27,0,0,0-.25-.08A.18.18,0,0,0,29.15,19.48Z" transform="translate(-6.5 -5.24)"/><path class="cls-1" d="M28.33,19.54c-.08.1-.19.18-.15.32s0,0,0,0,0,.08,0,.12h0l0-.12c0-.12.09-.15.25-.16a.09.09,0,0,0,.08,0,.28.28,0,0,1,.29-.11l.31,0a.29.29,0,0,0-.44-.11l-.13,0A.26.26,0,0,0,28.33,19.54Z" transform="translate(-6.5 -5.24)"/><path class="cls-1" d="M28.77,15.92a.41.41,0,0,0-.46-.11c.16.2.39.37.35.64A.34.34,0,0,0,28.77,15.92Z" transform="translate(-6.5 -5.24)"/><path class="cls-1" d="M28.61,19.17c.16.06.35.1.43.26a.23.23,0,0,0-.14-.32A.26.26,0,0,0,28.61,19.17Z" transform="translate(-6.5 -5.24)"/><path class="cls-1" d="M28.8,14.7a.91.91,0,0,0,0-.23.39.39,0,0,0-.38.12.34.34,0,0,0-.05.44l.37-.23A.14.14,0,0,0,28.8,14.7Z" transform="translate(-6.5 -5.24)"/><path class="cls-1" d="M28.87,16.34l1-.19a.46.46,0,0,0-.39-.17A1,1,0,0,0,28.87,16.34Z" transform="translate(-6.5 -5.24)"/><path class="cls-1" d="M29.1,16.4a.36.36,0,0,0-.35.19l.62.09C29.33,16.53,29.28,16.42,29.1,16.4Z" transform="translate(-6.5 -5.24)"/><path class="cls-1" d="M29.21,15.5a.71.71,0,0,0,.71.3c-.24-.32-.13-.62.11-.93-.32.12-.62.2-.57.53h0a.62.62,0,0,1,0-.19c0-.06,0-.12.06-.19C29.19,15.09,29.08,15.31,29.21,15.5Z" transform="translate(-6.5 -5.24)"/><path class="cls-1" d="M26.21,36.23c-1-.06-2.06-.11-3.07-.13V34.5H24l-1.1-.71-1.11-.71-1.11.71-1.1.71h.88v1.57c-1.62,0-3.16.07-4.57.18l-.63,0,.44.38.35.3a42.16,42.16,0,0,0,10,5.86l.46.2V36.25Zm-4.4-2.82,1.31.83h-.29v1.68h-2V34.24H20.5Zm4.38,3.39v5.82a41.5,41.5,0,0,1-9.9-5.82l-.35-.29a72.55,72.55,0,0,1,10.25,0Z" transform="translate(-6.5 -5.24)"/><path class="cls-1" d="M15.67,27.31l-.1-.44-.36.33-.54-.06.27.39-.24.4.53-.1.4.31.06-.44.48-.21Zm-.18.28,0,.19-.17-.13-.23,0,.1-.17-.11-.17.23,0,.15-.14,0,.19.22.07Z" transform="translate(-6.5 -5.24)"/><path class="cls-1" d="M16.22,30.77l-.54.08-.37-.32-.08.44-.49.2.49.19.07.44.38-.32.54.08L16,31.17Zm-.38.56-.23,0-.16.14,0-.19-.21-.08.21-.09,0-.18.16.13.23,0-.11.17Z" transform="translate(-6.5 -5.24)"/><path class="cls-1" d="M18.43,28.92l-.54,0-.3-.37-.18.41-.53.11.43.28,0,.44.45-.25.51.16-.15-.42Zm-.51.48-.22-.07-.19.11,0-.19-.19-.12.23,0,.08-.18.12.16H18l-.15.15Z" transform="translate(-6.5 -5.24)"/><path class="cls-1" d="M14,29h-.55l-.31-.37L13,29l-.52.13.44.26v.45l.44-.26.51.14-.17-.42Zm-.5.5-.21-.06-.19.11v-.19l-.18-.11.22-.06.07-.18.13.16h.23l-.14.15Z" transform="translate(-6.5 -5.24)"/><path class="cls-1" d="M25.16,28.2a3.39,3.39,0,0,0-2.88-1.07,2.23,2.23,0,0,1,.73.56,1.73,1.73,0,0,1-.61,2.71,2.84,2.84,0,0,1-2.7,0,2.44,2.44,0,0,0,.39.65,3.55,3.55,0,0,0,4.28.64A2.24,2.24,0,0,0,25.16,28.2Zm-1,3.28a3.24,3.24,0,0,1-1.57.4h0a3,3,0,0,1-2.26-.95,3.82,3.82,0,0,0,.68.07,3.16,3.16,0,0,0,1.53-.39,2,2,0,0,0,.69-3.06.86.86,0,0,0-.13-.14,2.86,2.86,0,0,1,1.76.93A2,2,0,0,1,24.2,31.48Z" transform="translate(-6.5 -5.24)"/><path d="M38.19,27.67l.32-.08h0l-.22-.07a.93.93,0,0,1,.05-.1s0,0,0,0l.34.1h.07l.21-.05-.34-.12.06-.12.21.07.29.1s0,0,0,0l.37-.09-.07-.06-.19-.14-.07,0-.47,0s0,0,0,0,0-.09.12-.08h.25c-.09-.05-.13-.14-.27-.14l-.32,0s0,0,0,0a.2.2,0,0,0,0-.07s0,0,0,0a.67.67,0,0,0,.2,0l-.24-.18.13-.11.24.18h0l0-.19.13,0a0,0,0,0,1,0,0,2.5,2.5,0,0,1,.05.29.16.16,0,0,0,0,.07l.16.11,0-.29.12,0s0,0,0,0l.06.4,0,.06.24.17s0,0,0,0v-.05c0-.05,0-.11,0-.16a.19.19,0,0,0,0-.21l-.17-.28a0,0,0,0,1,0,0l.13-.06.17.26h0s0-.06,0-.09a.18.18,0,0,0,0-.2c-.05-.07-.09-.15-.14-.23l.14-.06.11.18s0,0,0,0L40.1,26s0,0,0,0h.09s0,0,0,.05,0,.15-.07.24l.07,0,.11-.07a0,0,0,0,1,0,0l.08.07-.11.08-.21.13,0,.05a.53.53,0,0,0,0,.17l.28-.17.1.1-.21.12-.22.14,0,0-.09.3h0l.31-.08s.05,0,.06,0l.26-.32s0,0,.07,0l.08,0-.2.25.15,0a.29.29,0,0,0,.16-.1l.17-.21s0,0,.06,0l.09.06-.13.16h0l.33-.08.05.14-.32.08h0l.22.08-.06.11-.24-.08-.07,0a.3.3,0,0,0-.21,0l-.13,0,.33.12-.06.1s0,0,0,0l-.45-.15h-.06l-.37.09.11.08.14.11a.15.15,0,0,0,.11,0l.45,0h0s0,.06,0,.09,0,0,0,0l-.33,0,.08.07a.35.35,0,0,0,.26.09h.25s0,0,0,.05a.25.25,0,0,1,0,.08h-.24l.25.19-.13.11-.25-.19h0l0,.2-.16,0,0-.17a1,1,0,0,1,0-.16.12.12,0,0,0,0-.07l-.15-.1,0,.29h-.15a1.7,1.7,0,0,0,0-.22,1.2,1.2,0,0,0,0-.2.06.06,0,0,0,0,0l-.28-.21,0,0c0,.08,0,.17-.07.26a.11.11,0,0,0,0,.05c.07.13.15.25.23.38l-.13.06L39.73,28c0,.07,0,.14-.06.2l0,0c.05.1.11.19.17.3l-.14.05-.1-.17h0l-.05.18c0,.08,0,.08-.13.06s-.08,0-.06-.07l.06-.2h0l-.19.12-.09-.1a1.94,1.94,0,0,1,.24-.15.28.28,0,0,0,.15-.19.24.24,0,0,1,0-.08h0l-.29.18-.09-.1.25-.16.17-.1s0,0,0,0l.09-.31h0l-.29.07a.13.13,0,0,0-.07.05l-.27.33,0,0-.13-.07.2-.25h0l-.22.05a.08.08,0,0,0,0,0l-.23.27-.1-.06s0,0,0,0l.12-.14h0l-.24.06s0,0-.05,0S38.2,27.71,38.19,27.67Z" transform="translate(-6.5 -5.24)"/><path d="M28.92,39.91l.13-.3h0l-.23.11a.76.76,0,0,1-.08-.11s0,0,0,0l.35-.17.05-.06a1.11,1.11,0,0,0,.09-.19l-.37.17-.09-.12.23-.11.31-.15,0,0,.15-.34H29.4l-.29,0s-.06,0-.07,0l-.36.34s-.05,0-.08,0-.11,0,0-.14l.18-.18c-.12,0-.26,0-.35.09a1.84,1.84,0,0,1-.25.23s0,0-.05,0L28.05,39s0,0,0-.06a1.06,1.06,0,0,0,.15-.15l-.38.06,0-.18.38,0h0l-.23-.11.07-.11h0l.37.16a.14.14,0,0,0,.11,0l.23,0-.36-.17a.86.86,0,0,1,.07-.1s0,0,.05,0l.49.23a.17.17,0,0,0,.1,0l.37-.05h0l-.05,0-.15-.15a.38.38,0,0,0-.26-.12L28.59,38h0l0-.14.4.06h0a.73.73,0,0,1-.09-.08.31.31,0,0,0-.24-.12c-.12,0-.24,0-.36-.06l0-.14.28,0,0,0a1.7,1.7,0,0,0-.19-.19s0,0,0-.05l.08-.06a.06.06,0,0,1,.09,0l.22.22v-.08a.49.49,0,0,0,0-.12s0,0,0,0H29s0,.09,0,.14v.25s0,0,0,.06l.16.15v-.34h.17v.24a2.26,2.26,0,0,0,0,.26.06.06,0,0,0,0,0l.28.27,0,0L29.8,38v-.08l-.18-.41s0,0,0-.06l.11,0,.14.33c0-.06,0-.1.06-.14a.18.18,0,0,0,0-.19c-.05-.09-.08-.18-.12-.27s0,0,0,0L30,37l.09.21h0l.13-.29.21.06-.14.29h0l.24-.11.09.12-.26.13-.08,0a.25.25,0,0,0-.15.15s0,.08,0,.13l.36-.17.07.11s0,0,0,0l-.48.23,0,0-.15.34.16,0a1.81,1.81,0,0,1,.23,0,.24.24,0,0,0,.11-.06l.33-.32,0,0a.41.41,0,0,1,.11.07s0,0,0,0l-.25.23h.13a.39.39,0,0,0,.29-.14c0-.06.12-.11.18-.17s0,0,.08,0l.09.06-.17.17h0l.38,0,0,.17-.38,0h0l.24.11-.08.13-.22-.09L31,38.4a.17.17,0,0,0-.12,0l-.22,0,.36.16-.09.13-.28-.13-.24-.12h-.06l-.43.06,0,0,.24.24.07,0,.59.09,0,.14L30.37,39l.18.18.06,0,.46.07,0,.15-.26,0h0l.17.17c.07.07.07.07,0,.14s-.06,0-.13,0l-.19-.18h0v.22h-.17a1.31,1.31,0,0,1,0-.28.24.24,0,0,0-.11-.24.46.46,0,0,1-.07-.07h0v.33H30V39a.06.06,0,0,0,0,0l-.28-.28,0,0-.13.27a.11.11,0,0,0,0,.08c.06.15.13.29.19.43a0,0,0,0,0,0,0l-.17,0-.14-.32h0l-.09.21s0,0,0,0l.15.36-.14,0s0,0,0,0-.05-.12-.08-.19,0,0,0,.05l-.1.22s0,0-.06,0Z" transform="translate(-6.5 -5.24)"/><path d="M33.13,37.19l.25-.1h0l-.2,0,0-.09s0,0,0,0l.3,0h.06l.16-.07-.3-.06,0-.1.19,0,.25.06h0l.29-.12-.07,0L34,36.6h0l-.4,0s0,0-.05,0,0-.07.09-.08l.2,0c-.07,0-.13-.11-.24-.09h-.27s0,0,0,0v0s0,0,0,0l.16,0-.23-.13.09-.11.23.13h0L33.49,36l.11,0h0a2.25,2.25,0,0,1,.08.24.13.13,0,0,0,0,.06l.14.07-.08-.24.1,0s0,0,0,0,.07.22.11.33,0,0,0,0l.23.12h0v0a.61.61,0,0,1,0-.14.16.16,0,0,0-.06-.17l-.18-.21,0,0,.11-.06.17.2h0a.28.28,0,0,1,0-.09.16.16,0,0,0-.06-.15l-.15-.18.11-.06.12.14v0a.88.88,0,0,0,0-.17s0,0,0,0h.08s0,0,0,0a1.36,1.36,0,0,0,0,.21l0,0a.46.46,0,0,1,.07-.07h0l.08.06a.27.27,0,0,0-.08.07l-.16.13a.08.08,0,0,0,0,.05.61.61,0,0,0,0,.14l.21-.17.09.07-.15.13-.16.13v0l0,.26h0l.24-.1a.1.1,0,0,0,0,0,2.69,2.69,0,0,0,.16-.29s0,0,.06,0l.08,0-.13.23.12-.05a.17.17,0,0,0,.11-.09l.12-.19s0,0,0,0l.09,0-.09.15h0l.25-.09.07.11-.25.1h0l.19,0,0,.11-.21,0-.07,0a.25.25,0,0,0-.17,0l-.1,0,.29.07,0,.08h0l-.39-.08h-.05l-.29.11.1.06.13.08.09,0,.38,0h0a.19.19,0,0,1,0,.08s0,0,0,0L35,37l.07.05a.32.32,0,0,0,.23,0l.21,0s0,0,0,0,0,.05,0,.08h-.2l.23.13-.09.1-.23-.13h0l.06.15-.13,0a.69.69,0,0,0,0-.13c0-.05,0-.09,0-.13a.12.12,0,0,0-.05,0l-.14-.07.08.23-.13,0-.06-.18a1.42,1.42,0,0,1,0-.16s0,0,0,0l-.27-.15v0l0,.22a.08.08,0,0,0,0,0l.25.29-.1.07-.18-.21a1.11,1.11,0,0,0,0,.17s0,0,0,0l.19.23-.11.06-.11-.13h0v.15c0,.07,0,.07-.1.07s-.07,0-.06-.06,0-.11,0-.17h0l-.14.11L34,37.7a1.22,1.22,0,0,1,.17-.15.19.19,0,0,0,.09-.17s0-.05,0-.07h0l-.21.17L34,37.41l.18-.15.12-.11s0,0,0,0l0-.26h0l-.24.09A.12.12,0,0,0,34,37c-.06.1-.11.2-.17.29v0l-.12,0,.13-.22h0l-.18.07,0,0-.15.25-.09,0s0,0,0,0,0-.08.07-.13h0l-.19.08s0,0,0,0A.41.41,0,0,1,33.13,37.19Z" transform="translate(-6.5 -5.24)"/><path d="M27.21,35.09l.21-.15h-.2v-.09l0,0h.3l.06,0,.14-.09h-.31v-.1h.48l.25-.17-.08,0-.2-.06h-.06l-.38.1s0,0-.05,0-.05-.06.06-.09l.2-.06c-.09,0-.16-.08-.27-.05l-.25.07s0,0,0,0,0,0,0,0,0,0,0,0l.16-.05L27,34.07l0-.12.26.08h0l-.1-.14.09,0h0l.15.22a.09.09,0,0,0,.06,0l.16,0-.15-.21.1,0s0,0,0,0l.2.29s0,0,.06,0l.25.07h0v0a.59.59,0,0,1,0-.14A.21.21,0,0,0,28.1,34a2.07,2.07,0,0,1-.24-.17l0,0,.08-.07.23.15h0s0,0,0-.08,0-.1-.1-.14l-.2-.15.09-.08.16.12a.08.08,0,0,1,0,0l0-.17s0,0,0,0h.08s0,0,.05,0,0,.12,0,.2l0-.05.06-.08s0,0,0,0l.09,0-.06.09-.11.16a.06.06,0,0,0,0,0,.57.57,0,0,0,0,.14l.15-.21.11.06-.11.15-.11.16s0,0,0,0,0,.17,0,.26l0,0,.21-.14,0,0c0-.11,0-.21.07-.31s0,0,.06,0h.08l-.06.25.1-.07a.14.14,0,0,0,.09-.11,1.6,1.6,0,0,1,0-.21s0,0,0,0l.09,0,0,.16h0l.22-.15.1.1-.22.14h.2V34h-.28a.2.2,0,0,0-.16,0l-.09.07h.3v.1h-.49l-.24.16.11,0,.15,0a.17.17,0,0,0,.1,0l.35-.09h.05l0,.07s0,0,0,0l-.26.08s.06,0,.08,0a.33.33,0,0,0,.24,0l.19-.05s.05,0,.06,0a.25.25,0,0,0,0,.07l-.18,0h0l.26.09-.05.12-.26-.09h0l.1.14-.11,0-.09-.12a.76.76,0,0,1-.08-.11.1.1,0,0,0-.06-.05l-.16,0,.15.22L29,35l-.12-.17-.1-.14,0,0-.3-.09v0c0,.07,0,.14,0,.21a.05.05,0,0,0,0,.05l.32.23-.08.08L28.53,35c0,.07,0,.12,0,.17s0,0,0,0l.25.19-.09.07-.15-.1h0l0,.15c0,.07,0,.07-.07.09s-.07,0-.08,0l0-.17h0l-.1.14-.11,0,.12-.18a.2.2,0,0,0,.05-.19s0,0,0-.06h0l-.15.2-.11,0,.13-.18.09-.13s0,0,0,0,0-.17,0-.26l0,0-.2.13a.09.09,0,0,0,0,.05c0,.11-.06.22-.08.33v0l-.13,0,.06-.24h0l-.15.11s0,0,0,0-.05.18-.08.27l-.1,0s0,0,0,0a.57.57,0,0,0,0-.14s0,0,0,0l-.17.11h0Z" transform="translate(-6.5 -5.24)"/><path d="M38.05,31.8h.28l-.15-.1.06-.08h0l.24.15,0,0h.19l-.24-.15.08-.09.14.1.21.13h.35l0-.07-.12-.15,0,0-.38-.1s0,0,0-.05,0-.07.12,0l.2.05c-.05-.06-.06-.14-.17-.17l-.26-.07s0,0,0,0l0-.05s0,0,0,0l.16,0-.14-.19.13-.07.15.19h0l0-.16h.11l0,0a2,2,0,0,0,0,.24.08.08,0,0,0,0,.07l.1.11,0-.24h.11s0,0,0,0-.05.22-.07.33a.14.14,0,0,0,0,.06l.14.18,0,0,0,0a1,1,0,0,1,.09-.13.17.17,0,0,0,0-.17,2.33,2.33,0,0,1-.07-.25v0l.13,0,.05.24h0l0-.07a.14.14,0,0,0,0-.16,1.43,1.43,0,0,1,0-.22h.12l0,.16,0,0,.11-.15s0,0,.05,0l.06,0s0,0,0,0l-.12.18.07,0,.1,0s0,0,0,0l0,.08-.11,0-.21.07a.09.09,0,0,0,0,0,.54.54,0,0,0-.07.13l.27-.09,0,.1-.2.06-.21.07,0,0-.15.23h.3a.07.07,0,0,0,.06,0l.29-.2s0,0,.07,0,0,0,0,.05l-.23.17h.13a.2.2,0,0,0,.15-.05,1.37,1.37,0,0,1,.2-.13s0,0,0,0l.06.06-.15.11h.29v.13h-.28l.15.1-.07.08L40.47,32l0,0a.19.19,0,0,0-.16,0h-.12l.23.15a.46.46,0,0,1-.07.07h0L40,31.91l0,0h-.32l.06.08.09.12s0,0,.07,0l.35.1h0l0,.08s0,0,0,0l-.26-.07.05.06a.25.25,0,0,0,.18.13l.2.05s0,0,0,0l0,.07-.19-.05h0l.14.2-.13.07-.15-.2h0l0,.16H39.8s0-.1,0-.14,0-.09,0-.13a.06.06,0,0,0,0-.07l-.09-.11,0,.24h-.13l0-.19,0-.17a0,0,0,0,0,0,0L39.45,32s0,0,0,0a2.14,2.14,0,0,0-.13.19s0,0,0,0,.05.23.08.35l-.13,0-.06-.25-.1.15v0l.06.27-.12,0,0-.16h0l-.09.13c0,.07,0,.07-.12,0s-.06,0,0-.07l.1-.15h0l-.19.06,0-.1.24-.07a.26.26,0,0,0,.17-.13l0-.06h0l-.28.08,0-.1.24-.07.16-.06h0l.15-.23H39l-.07,0-.31.22h0l-.08-.08.22-.16h-.2l0,0-.25.17-.07-.06s0,0,0,0l.13-.1h-.25s0,0,0,0Z" transform="translate(-6.5 -5.24)"/><path d="M31,27.52v-.23h0l-.12.12-.09-.05s0,0,0,0l.19-.19a.08.08,0,0,0,0-.05v-.15l-.2.2-.1-.07.12-.12.17-.16v0a2.44,2.44,0,0,1,0-.27l-.08,0-.19.08,0,0-.14.3s0,0-.05,0-.09,0-.05-.09a1.66,1.66,0,0,0,.06-.16c-.07,0-.17.05-.2.13l-.1.21s0,0,0,0l-.06,0s0,0,0,0a.69.69,0,0,0,.05-.13l-.24.11-.08-.11.24-.11h0l-.19,0s0-.06,0-.09h0l.3,0h.08l.15-.07-.3-.05s0-.06,0-.08,0,0,0,0l.41.06a.09.09,0,0,0,.07,0l.23-.11h0l0,0a.69.69,0,0,1-.15-.07.31.31,0,0,0-.21,0l-.32.05h0l0-.1.3,0h0l-.09,0a.21.21,0,0,0-.19,0l-.27,0,0-.1L30,26l0,0-.18-.09s0,0,0,0l0,0s0,0,0,0l.22.11,0-.06,0-.08s0,0,0,0l.1,0,0,.09.08.17a.08.08,0,0,0,0,0l.15.07-.1-.23.13,0,.07.17s.05.11.08.17a0,0,0,0,0,0,0l.27.14s0,0,0,0V26a.08.08,0,0,0,0-.05,3,3,0,0,1-.25-.25s0,0,0,0l.06,0,.2.19v-.1a.14.14,0,0,0-.05-.13l-.16-.16s0,0,0,0l.08-.05.12.13h0v-.23h.15v.23h0l.13-.13.1.07-.14.14,0,0a.14.14,0,0,0-.05.13.38.38,0,0,0,0,.1l.19-.19.08.06a0,0,0,0,1,0,0l-.26.25a.08.08,0,0,0,0,0,2.17,2.17,0,0,0,0,.26l.11-.05.14-.07a.13.13,0,0,0,.07,0,2.55,2.55,0,0,1,.13-.29s0,0,0,0l.1,0s0,0,0,0a2.2,2.2,0,0,0-.09.21l.08,0a.19.19,0,0,0,.15-.15,1.09,1.09,0,0,1,.08-.15s0,0,.05,0l.08,0-.07.15h0l.24-.11.08.11-.24.11h0l.19,0,0,.1-.17,0-.16,0a.11.11,0,0,0-.08,0l-.14.07.3.05,0,.1-.23,0-.21,0s0,0,0,0l-.28.13h0l.24.12h.05l.43-.05,0,.1-.31,0,.18.09h0l.34,0,0,.1-.2,0h0l.16.07c.08,0,.08,0,0,.1s0,.05-.09,0L32,26.9h0l.07.15-.12,0-.09-.19a.21.21,0,0,0-.15-.15l-.07,0h0l.1.23-.13,0a1.67,1.67,0,0,1-.08-.2s0-.09-.07-.14l0,0-.27-.14v.24a.09.09,0,0,0,0,.06c.08.09.17.17.25.25l0,0-.1.07-.19-.19h0v.17s0,0,0,0l.21.21-.08,0s0,0,0,0l-.11-.12v0a1,1,0,0,0,0,.17s0,0,0,0Z" transform="translate(-6.5 -5.24)"/><path d="M28.25,29.4v-.18h0l-.11.1-.07-.05a.1.1,0,0,0,0,0l.16-.15a.06.06,0,0,0,0,0,.49.49,0,0,0,0-.12l-.17.15L28,29l.1-.1.14-.13v-.23l-.07,0-.15.07,0,0a1.89,1.89,0,0,0-.11.25s0,0,0,0-.08,0-.05-.08l.06-.13c-.06,0-.14,0-.17.11a1.3,1.3,0,0,1-.08.17s0,0,0,0l-.05,0s0,0,0,0a.54.54,0,0,0,.05-.11l-.2.09-.06-.09.19-.09h0l-.16,0s0-.05,0-.07h0l.24,0a.06.06,0,0,0,.07,0l.12-.05-.24,0s0-.05,0-.07,0,0,0,0l.33.05h0l.19-.09h0l0,0L28,28.4a.25.25,0,0,0-.17,0l-.25,0h0v-.08l.23,0h0l-.07,0a.22.22,0,0,0-.16,0,1.46,1.46,0,0,1-.22,0v-.08l.16,0,0,0-.15-.07s0,0,0,0l0-.05s0,0,.05,0l.17.09,0-.05,0-.07s0,0,0,0l.08,0a.3.3,0,0,0,0,.08l.06.14,0,0,.13.05L27.8,28l.09,0,.06.13a.91.91,0,0,1,.07.14v0l.23.11v-.2a.08.08,0,0,0,0,0A1.89,1.89,0,0,0,28,28s0,0,0,0l.05,0,.16.16v-.09a.1.1,0,0,0,0-.1l-.13-.13a0,0,0,0,1,0,0l.07,0,.1.1h0v-.18h.12v.18h0l.1-.1.08.06-.11.11,0,0a.11.11,0,0,0-.05.11.17.17,0,0,0,0,.07l.15-.15.07.05a0,0,0,0,1,0,0l-.21.21,0,0v.21l.08,0,.12-.05a.08.08,0,0,0,.05-.05,1.63,1.63,0,0,1,.11-.23v0l.07,0s0,0,0,0-.05.11-.08.17l.07,0a.16.16,0,0,0,.12-.12l.06-.12s0,0,0,0l.07,0-.06.12h0l.19-.09.07.09-.2.09h0l.16,0,0,.08-.14,0H29a.08.08,0,0,0-.07,0l-.11.05.24,0,0,.08-.19,0-.16,0h0l-.23.11h0l.19.09h.05l.35-.05,0,.09-.25,0,.14.07h0l.27,0,0,.08-.16,0h0l.13.06c.06,0,.06,0,0,.08s0,0-.07,0l-.15-.07h0l.05.12-.09,0A1.09,1.09,0,0,1,29,28.9a.16.16,0,0,0-.12-.12l0,0h0l.08.18-.1,0-.07-.16a1.17,1.17,0,0,1-.05-.11,0,0,0,0,0,0,0l-.22-.11v0a.91.91,0,0,0,0,.17.08.08,0,0,0,0,0l.21.21h0l-.08.06-.15-.16h0v.13l0,0,.17.18-.07,0s0,0,0,0l-.09-.09v.17s0,0,0,0Z" transform="translate(-6.5 -5.24)"/><path d="M33.08,35.48l-.44,0-.29-.06a4.32,4.32,0,0,1-1.71-.74,4.13,4.13,0,0,1-1-1.09A2.71,2.71,0,0,1,29.17,32v-.21l.07-.39s0,0,0-.06a3.56,3.56,0,0,1,.6-1.24A3.41,3.41,0,0,1,31,29.16a4.49,4.49,0,0,1,2.33-.63,1.36,1.36,0,0,0,.29,0c.08,0,.1-.07,0-.12a.39.39,0,0,0-.11-.06,1.36,1.36,0,0,1-.55-.38.3.3,0,0,1-.1-.23c0-.12,0-.24,0-.36a.46.46,0,0,1,.11-.27,2.09,2.09,0,0,1,.22-.2.74.74,0,0,1,.5-.17H34l.47.05.07,0c.13,0,.28.07.41.12a.66.66,0,0,1,.46.55,1.83,1.83,0,0,1,0,.33c0,.32-.26.5-.63.57l-.35.1s-.06,0-.09.07l.09,0,.65.21a3.9,3.9,0,0,1,2.28,1.79A2.65,2.65,0,0,1,37.69,32c0,.08,0,.16,0,.24l-.08.49a.64.64,0,0,1,0,.07,2.4,2.4,0,0,1-.39.9,4.51,4.51,0,0,1-1.6,1.35,3.53,3.53,0,0,1-1.16.39,7,7,0,0,1-1,.05Zm4.08-3.11c0-.22,0-.43.05-.65a3.24,3.24,0,0,0-.23-.79,3.63,3.63,0,0,0-.85-1.08,4.33,4.33,0,0,0-3.27-.9,3.84,3.84,0,0,0-2.2.95,2.68,2.68,0,0,0-1,2.19,2.89,2.89,0,0,0,1.17,2.15,3.92,3.92,0,0,0,2.19.87A4.55,4.55,0,0,0,34.39,35a4,4,0,0,0,1.68-.82,3.37,3.37,0,0,0,.85-1A2.25,2.25,0,0,0,37.16,32.37Zm-3-5.32h0L34,27a.45.45,0,0,0-.23,0,1.37,1.37,0,0,0-.2.13.38.38,0,0,0-.13.54.32.32,0,0,0,.28.15s.1,0,.11,0,0,0-.07-.06a.53.53,0,0,1-.11-.09.32.32,0,0,1,.21-.47.92.92,0,0,1,.67.05.24.24,0,0,1,.14.17.41.41,0,0,1-.11.32.13.13,0,0,1-.09,0c-.09,0-.13.05-.13.13s0,.11.12.07a.85.85,0,0,0,.31-.17.39.39,0,0,0-.18-.69Zm-.26.29c-.08,0-.13.18-.09.23A.26.26,0,0,0,33.87,27.34Zm.15.12c-.07.07-.06.22,0,.25A.54.54,0,0,0,34,27.46Zm.27,0h0l0,.19h0A.25.25,0,0,0,34.29,27.5Zm.16.15h0a.23.23,0,0,0,0-.18h0Z" transform="translate(-6.5 -5.24)"/><path d="M31.44,30l.1.08c.1.08.19.18.3.26a1.32,1.32,0,0,0,.2.12.24.24,0,0,1,.14.17.26.26,0,0,0,.07.11,3.93,3.93,0,0,0,.57.5,1.1,1.1,0,0,1,.39.44.24.24,0,0,0,.22.16.37.37,0,0,1,.26.21.09.09,0,0,1,0,.1.14.14,0,0,0-.05.09,2.38,2.38,0,0,0-.08.92,2.08,2.08,0,0,1,0,.35c0,.15,0,.3-.05.46a.14.14,0,0,0,0,.06.09.09,0,0,1-.07-.1c0-.12,0-.24,0-.36a2.33,2.33,0,0,0,0-.28,1.21,1.21,0,0,1,0-.19,2.21,2.21,0,0,0,0-.68.43.43,0,0,0-.11-.26.15.15,0,0,1,0-.17.11.11,0,0,0,0-.07L33,31.75a1.69,1.69,0,0,1-.48-.48,4,4,0,0,0-.3-.42,1.06,1.06,0,0,0-.21-.16.27.27,0,0,1-.14-.16,1,1,0,0,0-.17-.24L31.45,30l0-.06Z" transform="translate(-6.5 -5.24)"/><path d="M36.73,31l0-.06a5,5,0,0,0-1-1.07,3.55,3.55,0,0,0-2.06-.71,4,4,0,0,0-2.07.48,3.12,3.12,0,0,0-1.4,1.43,1.4,1.4,0,0,1-.09.17h0a.13.13,0,0,1,0-.06,4.69,4.69,0,0,1,.21-.46,3.6,3.6,0,0,1,3.2-1.62A3.69,3.69,0,0,1,36,30a3.14,3.14,0,0,1,.69.82l.09.19Z" transform="translate(-6.5 -5.24)"/><path d="M36.52,33.48a.73.73,0,0,1-.05.09,1.9,1.9,0,0,1-.24.25c-.19.17-.38.34-.58.5a2.65,2.65,0,0,1-1,.46,5.36,5.36,0,0,1-1.44.17A3.73,3.73,0,0,1,32,34.68a3.27,3.27,0,0,1-1.64-1.27,2.48,2.48,0,0,1-.42-1.2,2,2,0,0,1,0-.34.51.51,0,0,1,0-.13h0s0,0,0,.06,0,.18,0,.26a2.35,2.35,0,0,0,.26,1,3.07,3.07,0,0,0,.86,1,3.54,3.54,0,0,0,1.29.59,4.55,4.55,0,0,0,2.26,0,3,3,0,0,0,.66-.29,4.24,4.24,0,0,0,.86-.63l.25-.26.09-.07Z" transform="translate(-6.5 -5.24)"/><path d="M34,29.32s.06,0,0,.07,0,.32-.08.48a.11.11,0,0,1,0,.08l-.07,0a.25.25,0,0,1-.27-.14.1.1,0,0,0-.17,0s0,.07-.07.09-.07.08-.12.06,0-.07,0-.11l.08-.13a.21.21,0,0,0,0-.28.69.69,0,0,1-.05-.13.07.07,0,0,1,0-.06l.07,0,.07.09c.05,0,.07,0,.13,0a.57.57,0,0,1,.13-.08l.07,0s0,0,0,.06l-.07.11a.2.2,0,0,0-.05.23.61.61,0,0,0,.05.12s0,0,.06.05.05,0,.06-.05a2.17,2.17,0,0,0,.07-.24c0-.07,0-.13.07-.2Z" transform="translate(-6.5 -5.24)"/><path d="M31.31,31a.1.1,0,0,1,0,0l-.1-.16a.25.25,0,0,1,0-.07A.17.17,0,0,0,31,30.6h-.27l-.07,0s0-.06.05-.06a.78.78,0,0,1,.21,0c.12,0,.13,0,.09-.11a.3.3,0,0,1,0-.08.14.14,0,0,1,0-.06l.07,0,.11.1.05.07a.27.27,0,0,0,.25.09h.12a.1.1,0,0,1,.07,0s0,0-.06.05a.35.35,0,0,1-.11,0h-.06c-.07,0-.08,0-.06.09a.57.57,0,0,1,0,.14.07.07,0,0,1,0,.06S31.33,31,31.31,31Z" transform="translate(-6.5 -5.24)"/><path d="M30.68,31.57l.18.11.1.07s0,.05,0,.06,0,0-.08,0l-.1,0-.12-.08a.25.25,0,0,0-.22,0l-.21.06h-.1s-.06,0,0-.06a.53.53,0,0,1,.1-.06l.09,0c.06,0,.06,0,0-.08l-.09-.08,0-.05s0-.07.06-.05a.35.35,0,0,1,.14.06.33.33,0,0,0,.39,0l.2-.05a.07.07,0,0,1,.09,0s0,.06-.05.07l-.26.08Z" transform="translate(-6.5 -5.24)"/><path d="M32.16,30.05v.11c0,.06,0,.1-.06.1s-.05-.06-.06-.1a.38.38,0,0,1,0-.1.2.2,0,0,0-.12-.21l-.16-.13s0,0,0-.07h.1l.11.05c.06,0,.08,0,.09,0a.49.49,0,0,1,0-.11l.06,0a0,0,0,0,1,0,0,.17.17,0,0,1,0,.1.21.21,0,0,0,.11.21l.16.11.07.09s0,0,0,0h-.05l-.14-.06-.11,0S32.16,30,32.16,30.05Z" transform="translate(-6.5 -5.24)"/><path d="M34.4,33.92l.07,0a3.28,3.28,0,0,1,.48.42s.06,0,0,.09a.1.1,0,0,1-.12,0l-.21-.15-.08-.07h0s0,0,0,.07a1.7,1.7,0,0,1,0,.22.07.07,0,0,1,0,.07.06.06,0,0,1-.08,0,1.34,1.34,0,0,1-.07-.18c0-.12,0-.23,0-.35a.22.22,0,0,1,0-.11Z" transform="translate(-6.5 -5.24)"/><path d="M35.25,33.41l.08,0,.58.24.08,0s0,.06,0,.06a.32.32,0,0,1-.14,0l-.17-.08a.09.09,0,0,0-.07,0,.06.06,0,0,0,0,.06l.07.14a.56.56,0,0,1,0,.12s0,0,0,.06a.07.07,0,0,1-.08,0,2.66,2.66,0,0,1-.33-.56v-.05Z" transform="translate(-6.5 -5.24)"/><path d="M33.33,34.4a1.14,1.14,0,0,1-.09.16l-.12.14s0,0-.07,0,0,0,0-.06l.06-.14.13-.31.06-.1s.05,0,.08,0l0,0a1.84,1.84,0,0,1,.17.48.2.2,0,0,1,0,.11s-.05,0-.07,0a.23.23,0,0,1-.07-.1,1.72,1.72,0,0,1-.07-.21Z" transform="translate(-6.5 -5.24)"/><path d="M31.34,33.1l0,.06-.49.45s-.06,0-.07,0-.06-.05,0-.08l.13-.15.16-.13h-.16l-.25,0h0a0,0,0,0,1,0,0l.07,0a2.52,2.52,0,0,1,.61-.11Z" transform="translate(-6.5 -5.24)"/><path d="M31.91,34.5s0,0,0-.07a2,2,0,0,1,.08-.26l0-.06,0,0-.25.14-.07,0s0,0,0,0l0-.06a3.75,3.75,0,0,1,.49-.38h0q.08,0,.06,0a.4.4,0,0,1,0,.15l-.18.39a.47.47,0,0,1-.06.09l-.05,0Z" transform="translate(-6.5 -5.24)"/><path d="M35.54,29.94a.15.15,0,0,1,0,.07c-.12.13-.25.26-.38.38l-.08.05a.08.08,0,0,1-.08,0s0,0,0-.05a2.07,2.07,0,0,1,.48-.45l.08,0S35.55,29.9,35.54,29.94Z" transform="translate(-6.5 -5.24)"/><path d="M34.07,29.85c0-.13.08-.25.13-.37a.35.35,0,0,1,0-.08l0,0s0,0,0,.05a.07.07,0,0,1,0,0,1.43,1.43,0,0,1-.16.52s0,.08-.08.08,0-.07,0-.1,0-.08,0-.12Z" transform="translate(-6.5 -5.24)"/><path d="M36.6,31.1l-.06,0-.64.27a.09.09,0,0,1-.13-.08s0,0,0,0l.15-.05.51-.14.12,0Z" transform="translate(-6.5 -5.24)"/><path d="M31.94,33.64s-.06.11-.1.15-.2.22-.3.32a.26.26,0,0,1-.1.07h-.06v0l0,0a2.42,2.42,0,0,1,.37-.42l.09-.07h.05S31.93,33.62,31.94,33.64Z" transform="translate(-6.5 -5.24)"/><path d="M36.65,32.66h-.14a3.4,3.4,0,0,1-.64-.09s-.08,0-.07,0a.08.08,0,0,1,.1-.05l.54.09.15,0s0,0,.06,0Z" transform="translate(-6.5 -5.24)"/><path d="M35.53,33.14a.25.25,0,0,1,.09,0l.5.33s.07,0,0,.07a.1.1,0,0,1-.09,0,3.11,3.11,0,0,1-.53-.32l0,0s0,0,0,0Z" transform="translate(-6.5 -5.24)"/><path d="M35.68,31.14l.06-.05a2.6,2.6,0,0,1,.62-.25.85.85,0,0,1,.16,0A1.84,1.84,0,0,1,35.68,31.14Z" transform="translate(-6.5 -5.24)"/><path d="M31.07,32.54l-.08,0-.31.08-.42.08s-.06,0-.07,0a.07.07,0,0,1,0,0,3.17,3.17,0,0,1,.69-.17H31Z" transform="translate(-6.5 -5.24)"/><path d="M32.79,34.7c0-.05,0-.1,0-.15s0-.25.07-.38a.2.2,0,0,1,0-.08l.06,0a.09.09,0,0,1,0,0,2.13,2.13,0,0,1,0,.25l-.09.28,0,.07Z" transform="translate(-6.5 -5.24)"/><path d="M35.88,32.29a1.67,1.67,0,0,1,.89.09l-.08,0a2.63,2.63,0,0,1-.74-.08S35.91,32.3,35.88,32.29Z" transform="translate(-6.5 -5.24)"/><path d="M31.11,32.67a.18.18,0,0,1-.07,0,3.68,3.68,0,0,1-.59.18l-.16,0-.06,0,0,0,.23-.08.53-.12h.09Z" transform="translate(-6.5 -5.24)"/><path d="M31.69,33.49a.64.64,0,0,1,0,.07,1.6,1.6,0,0,1-.42.44l-.08,0s0-.05,0-.07a1.43,1.43,0,0,1,.45-.43Z" transform="translate(-6.5 -5.24)"/><path d="M31,32a1.58,1.58,0,0,1-.86-.1h.09a2.22,2.22,0,0,1,.68.07Z" transform="translate(-6.5 -5.24)"/><path d="M36.78,32.12h-.09a2.66,2.66,0,0,1-.69-.08l-.07,0v0H36a2,2,0,0,1,.7.08s0,0,.08,0Z" transform="translate(-6.5 -5.24)"/><path d="M30.36,33.08a2.64,2.64,0,0,1,.81-.25v0l-.05,0a2.23,2.23,0,0,1-.69.22h-.08Z" transform="translate(-6.5 -5.24)"/><path d="M32.44,29.4l0,.05c.09.17.17.33.25.5a.34.34,0,0,1,0,.1.31.31,0,0,1-.09-.07,1.73,1.73,0,0,1-.22-.5V29.4Z" transform="translate(-6.5 -5.24)"/><path d="M36.93,32.32v-.55C37,31.83,37,32.21,36.93,32.32Z" transform="translate(-6.5 -5.24)"/><path d="M36.68,33.14a.77.77,0,0,1,.2-.44A.84.84,0,0,1,36.68,33.14Z" transform="translate(-6.5 -5.24)"/><path d="M36.84,31.29c.11.08.16.31.09.37A.84.84,0,0,1,36.84,31.29Z" transform="translate(-6.5 -5.24)"/><path d="M30,31.43s.06,0,.05.07,0,.05-.07,0-.07,0-.06-.06A.08.08,0,0,1,30,31.43Z" transform="translate(-6.5 -5.24)"/></svg>